<?xml version="1.0" encoding="utf-8" standalone="no"?>
<!DOCTYPE svg PUBLIC "-//W3C//DTD SVG 1.1//EN"
  "http://www.w3.org/Graphics/SVG/1.1/DTD/svg11.dtd">
<!-- Created with matplotlib (https://matplotlib.org/) -->
<svg height="345.6pt" version="1.1" viewBox="0 0 460.8 345.6" width="460.8pt" xmlns="http://www.w3.org/2000/svg" xmlns:xlink="http://www.w3.org/1999/xlink">
 <metadata>
  <rdf:RDF xmlns:cc="http://creativecommons.org/ns#" xmlns:dc="http://purl.org/dc/elements/1.1/" xmlns:rdf="http://www.w3.org/1999/02/22-rdf-syntax-ns#">
   <cc:Work>
    <dc:type rdf:resource="http://purl.org/dc/dcmitype/StillImage"/>
    <dc:date>2021-03-29T00:34:53.816617</dc:date>
    <dc:format>image/svg+xml</dc:format>
    <dc:creator>
     <cc:Agent>
      <dc:title>Matplotlib v3.3.4, https://matplotlib.org/</dc:title>
     </cc:Agent>
    </dc:creator>
   </cc:Work>
  </rdf:RDF>
 </metadata>
 <defs>
  <style type="text/css">*{stroke-linecap:butt;stroke-linejoin:round;}</style>
 </defs>
 <g id="figure_1">
  <g id="patch_1">
   <path d="M 0 345.6 
L 460.8 345.6 
L 460.8 0 
L 0 0 
z
" style="fill:#ffffff;"/>
  </g>
  <g id="axes_1">
   <g id="patch_2">
    <path d="M 57.6 307.584 
L 414.72 307.584 
L 414.72 41.472 
L 57.6 41.472 
z
" style="fill:#ffffff;"/>
   </g>
   <g id="matplotlib.axis_1">
    <g id="xtick_1">
     <g id="line2d_1">
      <defs>
       <path d="M 0 0 
L 0 6 
" id="mff5d5e4371" style="stroke:#262626;stroke-width:1.25;"/>
      </defs>
      <g>
       <use style="fill:#262626;stroke:#262626;stroke-width:1.25;" x="129.024" xlink:href="#mff5d5e4371" y="307.584"/>
      </g>
     </g>
     <g id="text_1">
      <!-- 20 -->
      <g style="fill:#262626;" transform="translate(122.906969 324.957594)scale(0.11 -0.11)">
       <defs>
        <path d="M 50.34375 8.453125 
L 50.34375 0 
L 3.03125 0 
Q 2.9375 3.171875 4.046875 6.109375 
Q 5.859375 10.9375 9.828125 15.625 
Q 13.8125 20.3125 21.34375 26.46875 
Q 33.015625 36.03125 37.109375 41.625 
Q 41.21875 47.21875 41.21875 52.203125 
Q 41.21875 57.421875 37.46875 61 
Q 33.734375 64.59375 27.734375 64.59375 
Q 21.390625 64.59375 17.578125 60.78125 
Q 13.765625 56.984375 13.71875 50.25 
L 4.6875 51.171875 
Q 5.609375 61.28125 11.65625 66.578125 
Q 17.71875 71.875 27.9375 71.875 
Q 38.234375 71.875 44.234375 66.15625 
Q 50.25 60.453125 50.25 52 
Q 50.25 47.703125 48.484375 43.546875 
Q 46.734375 39.40625 42.65625 34.8125 
Q 38.578125 30.21875 29.109375 22.21875 
Q 21.1875 15.578125 18.9375 13.203125 
Q 16.703125 10.84375 15.234375 8.453125 
z
" id="ArialMT-50"/>
        <path d="M 4.15625 35.296875 
Q 4.15625 48 6.765625 55.734375 
Q 9.375 63.484375 14.515625 67.671875 
Q 19.671875 71.875 27.484375 71.875 
Q 33.25 71.875 37.59375 69.546875 
Q 41.9375 67.234375 44.765625 62.859375 
Q 47.609375 58.5 49.21875 52.21875 
Q 50.828125 45.953125 50.828125 35.296875 
Q 50.828125 22.703125 48.234375 14.96875 
Q 45.65625 7.234375 40.5 3 
Q 35.359375 -1.21875 27.484375 -1.21875 
Q 17.140625 -1.21875 11.234375 6.203125 
Q 4.15625 15.140625 4.15625 35.296875 
z
M 13.1875 35.296875 
Q 13.1875 17.671875 17.3125 11.828125 
Q 21.4375 6 27.484375 6 
Q 33.546875 6 37.671875 11.859375 
Q 41.796875 17.71875 41.796875 35.296875 
Q 41.796875 52.984375 37.671875 58.78125 
Q 33.546875 64.59375 27.390625 64.59375 
Q 21.34375 64.59375 17.71875 59.46875 
Q 13.1875 52.9375 13.1875 35.296875 
z
" id="ArialMT-48"/>
       </defs>
       <use xlink:href="#ArialMT-50"/>
       <use x="55.615234" xlink:href="#ArialMT-48"/>
      </g>
     </g>
    </g>
    <g id="xtick_2">
     <g id="line2d_2">
      <g>
       <use style="fill:#262626;stroke:#262626;stroke-width:1.25;" x="200.448" xlink:href="#mff5d5e4371" y="307.584"/>
      </g>
     </g>
     <g id="text_2">
      <!-- 40 -->
      <g style="fill:#262626;" transform="translate(194.330969 324.957594)scale(0.11 -0.11)">
       <defs>
        <path d="M 32.328125 0 
L 32.328125 17.140625 
L 1.265625 17.140625 
L 1.265625 25.203125 
L 33.9375 71.578125 
L 41.109375 71.578125 
L 41.109375 25.203125 
L 50.78125 25.203125 
L 50.78125 17.140625 
L 41.109375 17.140625 
L 41.109375 0 
z
M 32.328125 25.203125 
L 32.328125 57.46875 
L 9.90625 25.203125 
z
" id="ArialMT-52"/>
       </defs>
       <use xlink:href="#ArialMT-52"/>
       <use x="55.615234" xlink:href="#ArialMT-48"/>
      </g>
     </g>
    </g>
    <g id="xtick_3">
     <g id="line2d_3">
      <g>
       <use style="fill:#262626;stroke:#262626;stroke-width:1.25;" x="271.872" xlink:href="#mff5d5e4371" y="307.584"/>
      </g>
     </g>
     <g id="text_3">
      <!-- 60 -->
      <g style="fill:#262626;" transform="translate(265.754969 324.957594)scale(0.11 -0.11)">
       <defs>
        <path d="M 49.75 54.046875 
L 41.015625 53.375 
Q 39.84375 58.546875 37.703125 60.890625 
Q 34.125 64.65625 28.90625 64.65625 
Q 24.703125 64.65625 21.53125 62.3125 
Q 17.390625 59.28125 14.984375 53.46875 
Q 12.59375 47.65625 12.5 36.921875 
Q 15.671875 41.75 20.265625 44.09375 
Q 24.859375 46.4375 29.890625 46.4375 
Q 38.671875 46.4375 44.84375 39.96875 
Q 51.03125 33.5 51.03125 23.25 
Q 51.03125 16.5 48.125 10.71875 
Q 45.21875 4.9375 40.140625 1.859375 
Q 35.0625 -1.21875 28.609375 -1.21875 
Q 17.625 -1.21875 10.6875 6.859375 
Q 3.765625 14.9375 3.765625 33.5 
Q 3.765625 54.25 11.421875 63.671875 
Q 18.109375 71.875 29.4375 71.875 
Q 37.890625 71.875 43.28125 67.140625 
Q 48.6875 62.40625 49.75 54.046875 
z
M 13.875 23.1875 
Q 13.875 18.65625 15.796875 14.5 
Q 17.71875 10.359375 21.1875 8.171875 
Q 24.65625 6 28.46875 6 
Q 34.03125 6 38.03125 10.484375 
Q 42.046875 14.984375 42.046875 22.703125 
Q 42.046875 30.125 38.078125 34.390625 
Q 34.125 38.671875 28.125 38.671875 
Q 22.171875 38.671875 18.015625 34.390625 
Q 13.875 30.125 13.875 23.1875 
z
" id="ArialMT-54"/>
       </defs>
       <use xlink:href="#ArialMT-54"/>
       <use x="55.615234" xlink:href="#ArialMT-48"/>
      </g>
     </g>
    </g>
    <g id="xtick_4">
     <g id="line2d_4">
      <g>
       <use style="fill:#262626;stroke:#262626;stroke-width:1.25;" x="343.296" xlink:href="#mff5d5e4371" y="307.584"/>
      </g>
     </g>
     <g id="text_4">
      <!-- 80 -->
      <g style="fill:#262626;" transform="translate(337.178969 324.957594)scale(0.11 -0.11)">
       <defs>
        <path d="M 17.671875 38.8125 
Q 12.203125 40.828125 9.5625 44.53125 
Q 6.9375 48.25 6.9375 53.421875 
Q 6.9375 61.234375 12.546875 66.546875 
Q 18.171875 71.875 27.484375 71.875 
Q 36.859375 71.875 42.578125 66.421875 
Q 48.296875 60.984375 48.296875 53.171875 
Q 48.296875 48.1875 45.671875 44.5 
Q 43.0625 40.828125 37.75 38.8125 
Q 44.34375 36.671875 47.78125 31.875 
Q 51.21875 27.09375 51.21875 20.453125 
Q 51.21875 11.28125 44.71875 5.03125 
Q 38.234375 -1.21875 27.640625 -1.21875 
Q 17.046875 -1.21875 10.546875 5.046875 
Q 4.046875 11.328125 4.046875 20.703125 
Q 4.046875 27.6875 7.59375 32.390625 
Q 11.140625 37.109375 17.671875 38.8125 
z
M 15.921875 53.71875 
Q 15.921875 48.640625 19.1875 45.40625 
Q 22.46875 42.1875 27.6875 42.1875 
Q 32.765625 42.1875 36.015625 45.375 
Q 39.265625 48.578125 39.265625 53.21875 
Q 39.265625 58.0625 35.90625 61.359375 
Q 32.5625 64.65625 27.59375 64.65625 
Q 22.5625 64.65625 19.234375 61.421875 
Q 15.921875 58.203125 15.921875 53.71875 
z
M 13.09375 20.65625 
Q 13.09375 16.890625 14.875 13.375 
Q 16.65625 9.859375 20.171875 7.921875 
Q 23.6875 6 27.734375 6 
Q 34.03125 6 38.125 10.046875 
Q 42.234375 14.109375 42.234375 20.359375 
Q 42.234375 26.703125 38.015625 30.859375 
Q 33.796875 35.015625 27.4375 35.015625 
Q 21.234375 35.015625 17.15625 30.90625 
Q 13.09375 26.8125 13.09375 20.65625 
z
" id="ArialMT-56"/>
       </defs>
       <use xlink:href="#ArialMT-56"/>
       <use x="55.615234" xlink:href="#ArialMT-48"/>
      </g>
     </g>
    </g>
    <g id="xtick_5">
     <g id="line2d_5">
      <g>
       <use style="fill:#262626;stroke:#262626;stroke-width:1.25;" x="414.72" xlink:href="#mff5d5e4371" y="307.584"/>
      </g>
     </g>
     <g id="text_5">
      <!-- 100 -->
      <g style="fill:#262626;" transform="translate(405.544453 324.957594)scale(0.11 -0.11)">
       <defs>
        <path d="M 37.25 0 
L 28.46875 0 
L 28.46875 56 
Q 25.296875 52.984375 20.140625 49.953125 
Q 14.984375 46.921875 10.890625 45.40625 
L 10.890625 53.90625 
Q 18.265625 57.375 23.78125 62.296875 
Q 29.296875 67.234375 31.59375 71.875 
L 37.25 71.875 
z
" id="ArialMT-49"/>
       </defs>
       <use xlink:href="#ArialMT-49"/>
       <use x="55.615234" xlink:href="#ArialMT-48"/>
       <use x="111.230469" xlink:href="#ArialMT-48"/>
      </g>
     </g>
    </g>
    <g id="text_6">
     <!-- steps -->
     <g style="fill:#262626;" transform="translate(221.82 339.733219)scale(0.12 -0.12)">
      <defs>
       <path d="M 3.078125 15.484375 
L 11.765625 16.84375 
Q 12.5 11.625 15.84375 8.84375 
Q 19.1875 6.0625 25.203125 6.0625 
Q 31.25 6.0625 34.171875 8.515625 
Q 37.109375 10.984375 37.109375 14.3125 
Q 37.109375 17.28125 34.515625 19 
Q 32.71875 20.171875 25.53125 21.96875 
Q 15.875 24.421875 12.140625 26.203125 
Q 8.40625 27.984375 6.46875 31.125 
Q 4.546875 34.28125 4.546875 38.09375 
Q 4.546875 41.546875 6.125 44.5 
Q 7.71875 47.46875 10.453125 49.421875 
Q 12.5 50.921875 16.03125 51.96875 
Q 19.578125 53.03125 23.640625 53.03125 
Q 29.734375 53.03125 34.34375 51.265625 
Q 38.96875 49.515625 41.15625 46.5 
Q 43.359375 43.5 44.1875 38.484375 
L 35.59375 37.3125 
Q 35.015625 41.3125 32.203125 43.546875 
Q 29.390625 45.796875 24.265625 45.796875 
Q 18.21875 45.796875 15.625 43.796875 
Q 13.03125 41.796875 13.03125 39.109375 
Q 13.03125 37.40625 14.109375 36.03125 
Q 15.1875 34.625 17.484375 33.6875 
Q 18.796875 33.203125 25.25 31.453125 
Q 34.578125 28.953125 38.25 27.359375 
Q 41.9375 25.78125 44.03125 22.75 
Q 46.140625 19.734375 46.140625 15.234375 
Q 46.140625 10.84375 43.578125 6.953125 
Q 41.015625 3.078125 36.171875 0.953125 
Q 31.34375 -1.171875 25.25 -1.171875 
Q 15.140625 -1.171875 9.84375 3.03125 
Q 4.546875 7.234375 3.078125 15.484375 
z
" id="ArialMT-115"/>
       <path d="M 25.78125 7.859375 
L 27.046875 0.09375 
Q 23.34375 -0.6875 20.40625 -0.6875 
Q 15.625 -0.6875 12.984375 0.828125 
Q 10.359375 2.34375 9.28125 4.8125 
Q 8.203125 7.28125 8.203125 15.1875 
L 8.203125 45.015625 
L 1.765625 45.015625 
L 1.765625 51.859375 
L 8.203125 51.859375 
L 8.203125 64.703125 
L 16.9375 69.96875 
L 16.9375 51.859375 
L 25.78125 51.859375 
L 25.78125 45.015625 
L 16.9375 45.015625 
L 16.9375 14.703125 
Q 16.9375 10.9375 17.40625 9.859375 
Q 17.875 8.796875 18.921875 8.15625 
Q 19.96875 7.515625 21.921875 7.515625 
Q 23.390625 7.515625 25.78125 7.859375 
z
" id="ArialMT-116"/>
       <path d="M 42.09375 16.703125 
L 51.171875 15.578125 
Q 49.03125 7.625 43.21875 3.21875 
Q 37.40625 -1.171875 28.375 -1.171875 
Q 17 -1.171875 10.328125 5.828125 
Q 3.65625 12.84375 3.65625 25.484375 
Q 3.65625 38.578125 10.390625 45.796875 
Q 17.140625 53.03125 27.875 53.03125 
Q 38.28125 53.03125 44.875 45.953125 
Q 51.46875 38.875 51.46875 26.03125 
Q 51.46875 25.25 51.421875 23.6875 
L 12.75 23.6875 
Q 13.234375 15.140625 17.578125 10.59375 
Q 21.921875 6.0625 28.421875 6.0625 
Q 33.25 6.0625 36.671875 8.59375 
Q 40.09375 11.140625 42.09375 16.703125 
z
M 13.234375 30.90625 
L 42.1875 30.90625 
Q 41.609375 37.453125 38.875 40.71875 
Q 34.671875 45.796875 27.984375 45.796875 
Q 21.921875 45.796875 17.796875 41.75 
Q 13.671875 37.703125 13.234375 30.90625 
z
" id="ArialMT-101"/>
       <path d="M 6.59375 -19.875 
L 6.59375 51.859375 
L 14.59375 51.859375 
L 14.59375 45.125 
Q 17.4375 49.078125 21 51.046875 
Q 24.5625 53.03125 29.640625 53.03125 
Q 36.28125 53.03125 41.359375 49.609375 
Q 46.4375 46.1875 49.015625 39.953125 
Q 51.609375 33.734375 51.609375 26.3125 
Q 51.609375 18.359375 48.75 11.984375 
Q 45.90625 5.609375 40.453125 2.21875 
Q 35.015625 -1.171875 29 -1.171875 
Q 24.609375 -1.171875 21.109375 0.6875 
Q 17.625 2.546875 15.375 5.375 
L 15.375 -19.875 
z
M 14.546875 25.640625 
Q 14.546875 15.625 18.59375 10.84375 
Q 22.65625 6.0625 28.421875 6.0625 
Q 34.28125 6.0625 38.453125 11.015625 
Q 42.625 15.96875 42.625 26.375 
Q 42.625 36.28125 38.546875 41.203125 
Q 34.46875 46.140625 28.8125 46.140625 
Q 23.1875 46.140625 18.859375 40.890625 
Q 14.546875 35.640625 14.546875 25.640625 
z
" id="ArialMT-112"/>
      </defs>
      <use xlink:href="#ArialMT-115"/>
      <use x="50" xlink:href="#ArialMT-116"/>
      <use x="77.783203" xlink:href="#ArialMT-101"/>
      <use x="133.398438" xlink:href="#ArialMT-112"/>
      <use x="189.013672" xlink:href="#ArialMT-115"/>
     </g>
    </g>
   </g>
   <g id="matplotlib.axis_2">
    <g id="ytick_1">
     <g id="line2d_6">
      <defs>
       <path d="M 0 0 
L -6 0 
" id="m8e5e6f4f50" style="stroke:#262626;stroke-width:1.25;"/>
      </defs>
      <g>
       <use style="fill:#262626;stroke:#262626;stroke-width:1.25;" x="57.6" xlink:href="#m8e5e6f4f50" y="129.392821"/>
      </g>
     </g>
     <g id="text_7">
      <!-- $\mathdefault{10^{0}}$ -->
      <g style="fill:#262626;" transform="translate(30.83 135.064696)scale(0.11 -0.11)">
       <use transform="translate(0 0.99375)" xlink:href="#ArialMT-49"/>
       <use transform="translate(55.615234 0.99375)" xlink:href="#ArialMT-48"/>
       <use transform="translate(112.972813 70.6875)scale(0.7)" xlink:href="#ArialMT-48"/>
      </g>
     </g>
    </g>
    <g id="ytick_2">
     <g id="line2d_7">
      <defs>
       <path d="M 0 0 
L -4 0 
" id="m71e5a520d4" style="stroke:#262626;"/>
      </defs>
      <g>
       <use style="fill:#262626;stroke:#262626;" x="57.6" xlink:href="#m71e5a520d4" y="257.756835"/>
      </g>
     </g>
    </g>
    <g id="ytick_3">
     <g id="line2d_8">
      <g>
       <use style="fill:#262626;stroke:#262626;" x="57.6" xlink:href="#m71e5a520d4" y="225.418136"/>
      </g>
     </g>
    </g>
    <g id="ytick_4">
     <g id="line2d_9">
      <g>
       <use style="fill:#262626;stroke:#262626;" x="57.6" xlink:href="#m71e5a520d4" y="202.473463"/>
      </g>
     </g>
    </g>
    <g id="ytick_5">
     <g id="line2d_10">
      <g>
       <use style="fill:#262626;stroke:#262626;" x="57.6" xlink:href="#m71e5a520d4" y="184.676193"/>
      </g>
     </g>
    </g>
    <g id="ytick_6">
     <g id="line2d_11">
      <g>
       <use style="fill:#262626;stroke:#262626;" x="57.6" xlink:href="#m71e5a520d4" y="170.134764"/>
      </g>
     </g>
    </g>
    <g id="ytick_7">
     <g id="line2d_12">
      <g>
       <use style="fill:#262626;stroke:#262626;" x="57.6" xlink:href="#m71e5a520d4" y="157.840161"/>
      </g>
     </g>
    </g>
    <g id="ytick_8">
     <g id="line2d_13">
      <g>
       <use style="fill:#262626;stroke:#262626;" x="57.6" xlink:href="#m71e5a520d4" y="147.190091"/>
      </g>
     </g>
    </g>
    <g id="ytick_9">
     <g id="line2d_14">
      <g>
       <use style="fill:#262626;stroke:#262626;" x="57.6" xlink:href="#m71e5a520d4" y="137.796064"/>
      </g>
     </g>
    </g>
    <g id="ytick_10">
     <g id="line2d_15">
      <g>
       <use style="fill:#262626;stroke:#262626;" x="57.6" xlink:href="#m71e5a520d4" y="74.109449"/>
      </g>
     </g>
    </g>
    <g id="ytick_11">
     <g id="line2d_16">
      <g>
       <use style="fill:#262626;stroke:#262626;" x="57.6" xlink:href="#m71e5a520d4" y="41.770749"/>
      </g>
     </g>
    </g>
    <g id="text_8">
     <!-- loss -->
     <g style="fill:#262626;" transform="translate(24.445 185.197688)rotate(-90)scale(0.12 -0.12)">
      <defs>
       <path d="M 6.390625 0 
L 6.390625 71.578125 
L 15.1875 71.578125 
L 15.1875 0 
z
" id="ArialMT-108"/>
       <path d="M 3.328125 25.921875 
Q 3.328125 40.328125 11.328125 47.265625 
Q 18.015625 53.03125 27.640625 53.03125 
Q 38.328125 53.03125 45.109375 46.015625 
Q 51.90625 39.015625 51.90625 26.65625 
Q 51.90625 16.65625 48.90625 10.90625 
Q 45.90625 5.171875 40.15625 2 
Q 34.421875 -1.171875 27.640625 -1.171875 
Q 16.75 -1.171875 10.03125 5.8125 
Q 3.328125 12.796875 3.328125 25.921875 
z
M 12.359375 25.921875 
Q 12.359375 15.96875 16.703125 11.015625 
Q 21.046875 6.0625 27.640625 6.0625 
Q 34.1875 6.0625 38.53125 11.03125 
Q 42.875 16.015625 42.875 26.21875 
Q 42.875 35.84375 38.5 40.796875 
Q 34.125 45.75 27.640625 45.75 
Q 21.046875 45.75 16.703125 40.8125 
Q 12.359375 35.890625 12.359375 25.921875 
z
" id="ArialMT-111"/>
      </defs>
      <use xlink:href="#ArialMT-108"/>
      <use x="22.216797" xlink:href="#ArialMT-111"/>
      <use x="77.832031" xlink:href="#ArialMT-115"/>
      <use x="127.832031" xlink:href="#ArialMT-115"/>
     </g>
    </g>
   </g>
   <g id="PolyCollection_1">
    <defs>
     <path d="M 57.6 -286.218079 
L 57.6 -286.218079 
L 61.1712 -279.557305 
L 64.7424 -275.474803 
L 68.3136 -272.533626 
L 71.8848 -268.610542 
L 75.456 -264.906179 
L 79.0272 -262.545661 
L 82.5984 -258.813198 
L 86.1696 -252.211736 
L 89.7408 -248.934931 
L 93.312 -241.21409 
L 96.8832 -239.386811 
L 100.4544 -232.179083 
L 104.0256 -230.192261 
L 107.5968 -224.624596 
L 111.168 -222.728771 
L 114.7392 -215.240628 
L 118.3104 -213.62396 
L 121.8816 -205.029398 
L 125.4528 -209.788512 
L 129.024 -194.864751 
L 132.5952 -198.015415 
L 136.1664 -189.057354 
L 139.7376 -193.926604 
L 143.3088 -178.054244 
L 146.88 -183.842971 
L 150.4512 -177.671834 
L 154.0224 -190.450554 
L 157.5936 -178.314097 
L 161.1648 -179.697594 
L 164.736 -171.11854 
L 168.3072 -194.29447 
L 171.8784 -170.653239 
L 175.4496 -190.873448 
L 179.0208 -168.434478 
L 182.592 -175.869601 
L 186.1632 -159.839105 
L 189.7344 -164.502433 
L 193.3056 -155.845263 
L 196.8768 -158.556647 
L 200.448 -159.450879 
L 204.0192 -176.225962 
L 207.5904 -162.799678 
L 211.1616 -164.280405 
L 214.7328 -160.831843 
L 218.304 -153.288353 
L 221.8752 -162.484551 
L 225.4464 -162.750062 
L 229.0176 -158.022681 
L 232.5888 -163.511288 
L 236.16 -173.455589 
L 239.7312 -144.930757 
L 243.3024 -165.708661 
L 246.8736 -166.440936 
L 250.4448 -151.044166 
L 254.016 -136.30823 
L 257.5872 -160.682144 
L 261.1584 -124.962171 
L 264.7296 -148.804234 
L 268.3008 -155.48575 
L 271.872 -161.494557 
L 275.4432 -158.792421 
L 279.0144 -126.285797 
L 282.5856 -143.317825 
L 286.1568 -145.84717 
L 289.728 -148.352419 
L 293.2992 -133.729664 
L 296.8704 -154.903964 
L 300.4416 -139.937117 
L 304.0128 -136.500219 
L 307.584 -139.061614 
L 311.1552 -163.469277 
L 314.7264 -139.163286 
L 318.2976 -142.353092 
L 321.8688 -145.207451 
L 325.44 -129.710494 
L 329.0112 -96.110633 
L 332.5824 -137.852429 
L 336.1536 -147.683348 
L 339.7248 -140.31416 
L 343.296 -115.429261 
L 346.8672 -134.440123 
L 350.4384 -138.666374 
L 354.0096 -95.197654 
L 357.5808 -114.771768 
L 361.152 -137.103817 
L 364.7232 -160.730289 
L 368.2944 -122.947511 
L 371.8656 -147.572579 
L 375.4368 -120.587577 
L 379.008 -157.763811 
L 382.5792 -135.209436 
L 386.1504 -140.223263 
L 389.7216 -165.149714 
L 393.2928 -144.738931 
L 396.864 -140.140147 
L 400.4352 -149.753791 
L 404.0064 -143.045508 
L 407.5776 -124.767588 
L 411.1488 -146.540348 
L 411.1488 -146.540348 
L 411.1488 -146.540348 
L 407.5776 -124.767588 
L 404.0064 -143.045508 
L 400.4352 -149.753791 
L 396.864 -140.140147 
L 393.2928 -144.738931 
L 389.7216 -165.149714 
L 386.1504 -140.223263 
L 382.5792 -135.209436 
L 379.008 -157.763811 
L 375.4368 -120.587577 
L 371.8656 -147.572579 
L 368.2944 -122.947511 
L 364.7232 -160.730289 
L 361.152 -137.103817 
L 357.5808 -114.771768 
L 354.0096 -95.197654 
L 350.4384 -138.666374 
L 346.8672 -134.440123 
L 343.296 -115.429261 
L 339.7248 -140.31416 
L 336.1536 -147.683348 
L 332.5824 -137.852429 
L 329.0112 -96.110633 
L 325.44 -129.710494 
L 321.8688 -145.207451 
L 318.2976 -142.353092 
L 314.7264 -139.163286 
L 311.1552 -163.469277 
L 307.584 -139.061614 
L 304.0128 -136.500219 
L 300.4416 -139.937117 
L 296.8704 -154.903964 
L 293.2992 -133.729664 
L 289.728 -148.352419 
L 286.1568 -145.84717 
L 282.5856 -143.317825 
L 279.0144 -126.285797 
L 275.4432 -158.792421 
L 271.872 -161.494557 
L 268.3008 -155.48575 
L 264.7296 -148.804234 
L 261.1584 -124.962171 
L 257.5872 -160.682144 
L 254.016 -136.30823 
L 250.4448 -151.044166 
L 246.8736 -166.440936 
L 243.3024 -165.708661 
L 239.7312 -144.930757 
L 236.16 -173.455589 
L 232.5888 -163.511288 
L 229.0176 -158.022681 
L 225.4464 -162.750062 
L 221.8752 -162.484551 
L 218.304 -153.288353 
L 214.7328 -160.831843 
L 211.1616 -164.280405 
L 207.5904 -162.799678 
L 204.0192 -176.225962 
L 200.448 -159.450879 
L 196.8768 -158.556647 
L 193.3056 -155.845263 
L 189.7344 -164.502433 
L 186.1632 -159.839105 
L 182.592 -175.869601 
L 179.0208 -168.434478 
L 175.4496 -190.873448 
L 171.8784 -170.653239 
L 168.3072 -194.29447 
L 164.736 -171.11854 
L 161.1648 -179.697594 
L 157.5936 -178.314097 
L 154.0224 -190.450554 
L 150.4512 -177.671834 
L 146.88 -183.842971 
L 143.3088 -178.054244 
L 139.7376 -193.926604 
L 136.1664 -189.057354 
L 132.5952 -198.015415 
L 129.024 -194.864751 
L 125.4528 -209.788512 
L 121.8816 -205.029398 
L 118.3104 -213.62396 
L 114.7392 -215.240628 
L 111.168 -222.728771 
L 107.5968 -224.624596 
L 104.0256 -230.192261 
L 100.4544 -232.179083 
L 96.8832 -239.386811 
L 93.312 -241.21409 
L 89.7408 -248.934931 
L 86.1696 -252.211736 
L 82.5984 -258.813198 
L 79.0272 -262.545661 
L 75.456 -264.906179 
L 71.8848 -268.610542 
L 68.3136 -272.533626 
L 64.7424 -275.474803 
L 61.1712 -279.557305 
L 57.6 -286.218079 
z
" id="m6cc9ef20cf" style="stroke:#ffffff;stroke-opacity:0.2;"/>
    </defs>
    <g clip-path="url(#pce6db9809c)">
     <use style="fill:#ea4c4e;fill-opacity:0.2;stroke:#ffffff;stroke-opacity:0.2;" x="0" xlink:href="#m6cc9ef20cf" y="345.6"/>
    </g>
   </g>
   <g id="PolyCollection_2">
    <defs>
     <path d="M 57.6 -285.097357 
L 57.6 -285.097357 
L 61.1712 -284.802976 
L 64.7424 -275.956394 
L 68.3136 -274.841633 
L 71.8848 -267.302375 
L 75.456 -261.617152 
L 79.0272 -252.166883 
L 82.5984 -246.956618 
L 86.1696 -241.537443 
L 89.7408 -242.716438 
L 93.312 -232.744606 
L 96.8832 -233.835291 
L 100.4544 -235.292849 
L 104.0256 -225.375608 
L 107.5968 -224.882187 
L 111.168 -223.357553 
L 114.7392 -218.333807 
L 118.3104 -218.45853 
L 121.8816 -209.644793 
L 125.4528 -211.961596 
L 129.024 -196.805711 
L 132.5952 -200.779004 
L 136.1664 -201.276547 
L 139.7376 -200.334172 
L 143.3088 -198.407973 
L 146.88 -192.268075 
L 150.4512 -198.561676 
L 154.0224 -176.958567 
L 157.5936 -192.354454 
L 161.1648 -193.547888 
L 164.736 -180.613988 
L 168.3072 -170.43296 
L 171.8784 -173.373912 
L 175.4496 -182.626396 
L 179.0208 -188.152276 
L 182.592 -173.659639 
L 186.1632 -172.473998 
L 189.7344 -175.881488 
L 193.3056 -174.362449 
L 196.8768 -177.631232 
L 200.448 -156.166996 
L 204.0192 -179.941738 
L 207.5904 -153.355408 
L 211.1616 -161.136915 
L 214.7328 -169.967145 
L 218.304 -164.875673 
L 221.8752 -161.731827 
L 225.4464 -148.59965 
L 229.0176 -150.125845 
L 232.5888 -153.330711 
L 236.16 -165.747754 
L 239.7312 -148.542754 
L 243.3024 -155.373737 
L 246.8736 -157.426165 
L 250.4448 -147.075061 
L 254.016 -137.19038 
L 257.5872 -163.554324 
L 261.1584 -155.750368 
L 264.7296 -159.004797 
L 268.3008 -168.996988 
L 271.872 -156.562175 
L 275.4432 -154.629784 
L 279.0144 -155.830032 
L 282.5856 -145.908425 
L 286.1568 -138.576101 
L 289.728 -145.531181 
L 293.2992 -143.652612 
L 296.8704 -168.001853 
L 300.4416 -147.903605 
L 304.0128 -130.857119 
L 307.584 -145.56189 
L 311.1552 -150.22077 
L 314.7264 -162.501415 
L 318.2976 -145.819748 
L 321.8688 -156.169423 
L 325.44 -150.675015 
L 329.0112 -165.602493 
L 332.5824 -161.894149 
L 336.1536 -147.661418 
L 339.7248 -168.445666 
L 343.296 -155.940238 
L 346.8672 -165.710192 
L 350.4384 -144.332745 
L 354.0096 -120.127401 
L 357.5808 -134.025178 
L 361.152 -152.794564 
L 364.7232 -129.749056 
L 368.2944 -135.732813 
L 371.8656 -152.758756 
L 375.4368 -159.399464 
L 379.008 -164.09477 
L 382.5792 -142.161056 
L 386.1504 -133.84943 
L 389.7216 -125.461254 
L 393.2928 -154.035706 
L 396.864 -125.196268 
L 400.4352 -130.784523 
L 404.0064 -152.733252 
L 407.5776 -165.016347 
L 411.1488 -141.711175 
L 411.1488 -141.711175 
L 411.1488 -141.711175 
L 407.5776 -165.016347 
L 404.0064 -152.733252 
L 400.4352 -130.784523 
L 396.864 -125.196268 
L 393.2928 -154.035706 
L 389.7216 -125.461254 
L 386.1504 -133.84943 
L 382.5792 -142.161056 
L 379.008 -164.09477 
L 375.4368 -159.399464 
L 371.8656 -152.758756 
L 368.2944 -135.732813 
L 364.7232 -129.749056 
L 361.152 -152.794564 
L 357.5808 -134.025178 
L 354.0096 -120.127401 
L 350.4384 -144.332745 
L 346.8672 -165.710192 
L 343.296 -155.940238 
L 339.7248 -168.445666 
L 336.1536 -147.661418 
L 332.5824 -161.894149 
L 329.0112 -165.602493 
L 325.44 -150.675015 
L 321.8688 -156.169423 
L 318.2976 -145.819748 
L 314.7264 -162.501415 
L 311.1552 -150.22077 
L 307.584 -145.56189 
L 304.0128 -130.857119 
L 300.4416 -147.903605 
L 296.8704 -168.001853 
L 293.2992 -143.652612 
L 289.728 -145.531181 
L 286.1568 -138.576101 
L 282.5856 -145.908425 
L 279.0144 -155.830032 
L 275.4432 -154.629784 
L 271.872 -156.562175 
L 268.3008 -168.996988 
L 264.7296 -159.004797 
L 261.1584 -155.750368 
L 257.5872 -163.554324 
L 254.016 -137.19038 
L 250.4448 -147.075061 
L 246.8736 -157.426165 
L 243.3024 -155.373737 
L 239.7312 -148.542754 
L 236.16 -165.747754 
L 232.5888 -153.330711 
L 229.0176 -150.125845 
L 225.4464 -148.59965 
L 221.8752 -161.731827 
L 218.304 -164.875673 
L 214.7328 -169.967145 
L 211.1616 -161.136915 
L 207.5904 -153.355408 
L 204.0192 -179.941738 
L 200.448 -156.166996 
L 196.8768 -177.631232 
L 193.3056 -174.362449 
L 189.7344 -175.881488 
L 186.1632 -172.473998 
L 182.592 -173.659639 
L 179.0208 -188.152276 
L 175.4496 -182.626396 
L 171.8784 -173.373912 
L 168.3072 -170.43296 
L 164.736 -180.613988 
L 161.1648 -193.547888 
L 157.5936 -192.354454 
L 154.0224 -176.958567 
L 150.4512 -198.561676 
L 146.88 -192.268075 
L 143.3088 -198.407973 
L 139.7376 -200.334172 
L 136.1664 -201.276547 
L 132.5952 -200.779004 
L 129.024 -196.805711 
L 125.4528 -211.961596 
L 121.8816 -209.644793 
L 118.3104 -218.45853 
L 114.7392 -218.333807 
L 111.168 -223.357553 
L 107.5968 -224.882187 
L 104.0256 -225.375608 
L 100.4544 -235.292849 
L 96.8832 -233.835291 
L 93.312 -232.744606 
L 89.7408 -242.716438 
L 86.1696 -241.537443 
L 82.5984 -246.956618 
L 79.0272 -252.166883 
L 75.456 -261.617152 
L 71.8848 -267.302375 
L 68.3136 -274.841633 
L 64.7424 -275.956394 
L 61.1712 -284.802976 
L 57.6 -285.097357 
z
" id="mf3511e8a5b" style="stroke:#ffffff;stroke-opacity:0.2;"/>
    </defs>
    <g clip-path="url(#pce6db9809c)">
     <use style="fill:#377eb8;fill-opacity:0.2;stroke:#ffffff;stroke-opacity:0.2;" x="0" xlink:href="#mf3511e8a5b" y="345.6"/>
    </g>
   </g>
   <g id="PolyCollection_3">
    <defs>
     <path d="M 57.6 -284.34094 
L 57.6 -284.34094 
L 61.1712 -283.709904 
L 64.7424 -281.5425 
L 68.3136 -280.64875 
L 71.8848 -278.5849 
L 75.456 -273.274579 
L 79.0272 -266.952232 
L 82.5984 -262.41247 
L 86.1696 -256.7515 
L 89.7408 -242.878052 
L 93.312 -232.678394 
L 96.8832 -221.798472 
L 100.4544 -219.525891 
L 104.0256 -208.369076 
L 107.5968 -205.161378 
L 111.168 -210.623618 
L 114.7392 -193.940338 
L 118.3104 -191.341039 
L 121.8816 -192.323534 
L 125.4528 -148.463079 
L 129.024 -168.951409 
L 132.5952 -178.085356 
L 136.1664 -184.665112 
L 139.7376 -190.148861 
L 143.3088 -158.024806 
L 146.88 -175.892766 
L 150.4512 -140.680152 
L 154.0224 -157.999773 
L 157.5936 -156.275246 
L 161.1648 -144.198969 
L 164.736 -180.671251 
L 168.3072 -158.195236 
L 171.8784 -176.516544 
L 175.4496 -159.830098 
L 179.0208 -180.13856 
L 182.592 -168.372289 
L 186.1632 -152.318276 
L 189.7344 -140.602951 
L 193.3056 -145.909332 
L 196.8768 -154.634198 
L 200.448 -127.525145 
L 204.0192 -158.465656 
L 207.5904 -177.278017 
L 211.1616 -164.75951 
L 214.7328 -106.143226 
L 218.304 -165.955905 
L 221.8752 -142.335869 
L 225.4464 -168.60487 
L 229.0176 -122.908095 
L 232.5888 -136.12444 
L 236.16 -160.131274 
L 239.7312 -124.440043 
L 243.3024 -151.262403 
L 246.8736 -179.119999 
L 250.4448 -147.603602 
L 254.016 -124.35082 
L 257.5872 -146.202974 
L 261.1584 -82.988805 
L 264.7296 -153.197393 
L 268.3008 -134.569485 
L 271.872 -153.840183 
L 275.4432 -144.480821 
L 279.0144 -117.653364 
L 282.5856 -149.739386 
L 286.1568 -134.288957 
L 289.728 -167.853339 
L 293.2992 -135.026559 
L 296.8704 -154.098682 
L 300.4416 -129.099407 
L 304.0128 -162.378612 
L 307.584 -121.126984 
L 311.1552 -165.637301 
L 314.7264 -162.39141 
L 318.2976 -165.675909 
L 321.8688 -161.091681 
L 325.44 -150.739657 
L 329.0112 -183.415825 
L 332.5824 -167.171357 
L 336.1536 -135.442183 
L 339.7248 -152.078012 
L 343.296 -135.434867 
L 346.8672 -157.806474 
L 350.4384 -140.57677 
L 354.0096 -114.228155 
L 357.5808 -123.199718 
L 361.152 -142.637537 
L 364.7232 -143.767449 
L 368.2944 -118.199643 
L 371.8656 -125.140996 
L 375.4368 -129.972233 
L 379.008 -130.619622 
L 382.5792 -114.68873 
L 386.1504 -129.870442 
L 389.7216 -97.367282 
L 393.2928 -134.753247 
L 396.864 -166.61174 
L 400.4352 -125.117212 
L 404.0064 -143.752563 
L 407.5776 -153.415225 
L 411.1488 -122.670216 
L 411.1488 -122.670216 
L 411.1488 -122.670216 
L 407.5776 -153.415225 
L 404.0064 -143.752563 
L 400.4352 -125.117212 
L 396.864 -166.61174 
L 393.2928 -134.753247 
L 389.7216 -97.367282 
L 386.1504 -129.870442 
L 382.5792 -114.68873 
L 379.008 -130.619622 
L 375.4368 -129.972233 
L 371.8656 -125.140996 
L 368.2944 -118.199643 
L 364.7232 -143.767449 
L 361.152 -142.637537 
L 357.5808 -123.199718 
L 354.0096 -114.228155 
L 350.4384 -140.57677 
L 346.8672 -157.806474 
L 343.296 -135.434867 
L 339.7248 -152.078012 
L 336.1536 -135.442183 
L 332.5824 -167.171357 
L 329.0112 -183.415825 
L 325.44 -150.739657 
L 321.8688 -161.091681 
L 318.2976 -165.675909 
L 314.7264 -162.39141 
L 311.1552 -165.637301 
L 307.584 -121.126984 
L 304.0128 -162.378612 
L 300.4416 -129.099407 
L 296.8704 -154.098682 
L 293.2992 -135.026559 
L 289.728 -167.853339 
L 286.1568 -134.288957 
L 282.5856 -149.739386 
L 279.0144 -117.653364 
L 275.4432 -144.480821 
L 271.872 -153.840183 
L 268.3008 -134.569485 
L 264.7296 -153.197393 
L 261.1584 -82.988805 
L 257.5872 -146.202974 
L 254.016 -124.35082 
L 250.4448 -147.603602 
L 246.8736 -179.119999 
L 243.3024 -151.262403 
L 239.7312 -124.440043 
L 236.16 -160.131274 
L 232.5888 -136.12444 
L 229.0176 -122.908095 
L 225.4464 -168.60487 
L 221.8752 -142.335869 
L 218.304 -165.955905 
L 214.7328 -106.143226 
L 211.1616 -164.75951 
L 207.5904 -177.278017 
L 204.0192 -158.465656 
L 200.448 -127.525145 
L 196.8768 -154.634198 
L 193.3056 -145.909332 
L 189.7344 -140.602951 
L 186.1632 -152.318276 
L 182.592 -168.372289 
L 179.0208 -180.13856 
L 175.4496 -159.830098 
L 171.8784 -176.516544 
L 168.3072 -158.195236 
L 164.736 -180.671251 
L 161.1648 -144.198969 
L 157.5936 -156.275246 
L 154.0224 -157.999773 
L 150.4512 -140.680152 
L 146.88 -175.892766 
L 143.3088 -158.024806 
L 139.7376 -190.148861 
L 136.1664 -184.665112 
L 132.5952 -178.085356 
L 129.024 -168.951409 
L 125.4528 -148.463079 
L 121.8816 -192.323534 
L 118.3104 -191.341039 
L 114.7392 -193.940338 
L 111.168 -210.623618 
L 107.5968 -205.161378 
L 104.0256 -208.369076 
L 100.4544 -219.525891 
L 96.8832 -221.798472 
L 93.312 -232.678394 
L 89.7408 -242.878052 
L 86.1696 -256.7515 
L 82.5984 -262.41247 
L 79.0272 -266.952232 
L 75.456 -273.274579 
L 71.8848 -278.5849 
L 68.3136 -280.64875 
L 64.7424 -281.5425 
L 61.1712 -283.709904 
L 57.6 -284.34094 
z
" id="m1a55aa4cd1" style="stroke:#ffffff;stroke-opacity:0.2;"/>
    </defs>
    <g clip-path="url(#pce6db9809c)">
     <use style="fill:#4eae4b;fill-opacity:0.2;stroke:#ffffff;stroke-opacity:0.2;" x="0" xlink:href="#m1a55aa4cd1" y="345.6"/>
    </g>
   </g>
   <g id="PolyCollection_4">
    <defs>
     <path d="M 57.6 -284.092659 
L 57.6 -284.092659 
L 61.1712 -283.768134 
L 64.7424 -279.993596 
L 68.3136 -278.356758 
L 71.8848 -273.514807 
L 75.456 -268.990446 
L 79.0272 -263.988811 
L 82.5984 -253.076031 
L 86.1696 -243.059874 
L 89.7408 -237.432165 
L 93.312 -220.059544 
L 96.8832 -216.025641 
L 100.4544 -217.181025 
L 104.0256 -203.952328 
L 107.5968 -182.602288 
L 111.168 -190.712859 
L 114.7392 -191.561104 
L 118.3104 -175.121785 
L 121.8816 -175.455422 
L 125.4528 -202.051227 
L 129.024 -169.99253 
L 132.5952 -171.488987 
L 136.1664 -185.225108 
L 139.7376 -169.425135 
L 143.3088 -164.332376 
L 146.88 -189.438421 
L 150.4512 -177.368754 
L 154.0224 -146.801769 
L 157.5936 -153.057566 
L 161.1648 -157.185942 
L 164.736 -162.023083 
L 168.3072 -149.481403 
L 171.8784 -150.966075 
L 175.4496 -140.124495 
L 179.0208 -166.39294 
L 182.592 -145.43556 
L 186.1632 -158.564555 
L 189.7344 -110.247234 
L 193.3056 -148.256624 
L 196.8768 -156.014338 
L 200.448 -146.046848 
L 204.0192 -151.846882 
L 207.5904 -147.990455 
L 211.1616 -165.011633 
L 214.7328 -162.75889 
L 218.304 -143.802403 
L 221.8752 -164.390586 
L 225.4464 -160.857078 
L 229.0176 -108.229167 
L 232.5888 -135.735023 
L 236.16 -103.856356 
L 239.7312 -162.281515 
L 243.3024 -150.264072 
L 246.8736 -170.192952 
L 250.4448 -111.378347 
L 254.016 -125.932018 
L 257.5872 -169.716499 
L 261.1584 -110.960479 
L 264.7296 -132.149851 
L 268.3008 -145.166701 
L 271.872 -151.734202 
L 275.4432 -166.609155 
L 279.0144 -150.939851 
L 282.5856 -136.377193 
L 286.1568 -98.066678 
L 289.728 -129.470703 
L 293.2992 -146.619845 
L 296.8704 -126.194913 
L 300.4416 -147.972003 
L 304.0128 -133.029904 
L 307.584 -134.640503 
L 311.1552 -129.56799 
L 314.7264 -106.306293 
L 318.2976 -148.631407 
L 321.8688 -116.558381 
L 325.44 -126.453531 
L 329.0112 -138.718038 
L 332.5824 -101.0408 
L 336.1536 -125.364621 
L 339.7248 -139.985103 
L 343.296 -138.950883 
L 346.8672 -117.037394 
L 350.4384 -101.459604 
L 354.0096 -131.276685 
L 357.5808 -122.525351 
L 361.152 -127.26269 
L 364.7232 -117.101094 
L 368.2944 -133.857613 
L 371.8656 -101.654715 
L 375.4368 -69.060544 
L 379.008 -115.195535 
L 382.5792 -99.50364 
L 386.1504 -50.112 
L 389.7216 -156.798529 
L 393.2928 -101.554327 
L 396.864 -119.536274 
L 400.4352 -147.021069 
L 404.0064 -92.374245 
L 407.5776 -151.723751 
L 411.1488 -122.074303 
L 411.1488 -122.074303 
L 411.1488 -122.074303 
L 407.5776 -151.723751 
L 404.0064 -92.374245 
L 400.4352 -147.021069 
L 396.864 -119.536274 
L 393.2928 -101.554327 
L 389.7216 -156.798529 
L 386.1504 -50.112 
L 382.5792 -99.50364 
L 379.008 -115.195535 
L 375.4368 -69.060544 
L 371.8656 -101.654715 
L 368.2944 -133.857613 
L 364.7232 -117.101094 
L 361.152 -127.26269 
L 357.5808 -122.525351 
L 354.0096 -131.276685 
L 350.4384 -101.459604 
L 346.8672 -117.037394 
L 343.296 -138.950883 
L 339.7248 -139.985103 
L 336.1536 -125.364621 
L 332.5824 -101.0408 
L 329.0112 -138.718038 
L 325.44 -126.453531 
L 321.8688 -116.558381 
L 318.2976 -148.631407 
L 314.7264 -106.306293 
L 311.1552 -129.56799 
L 307.584 -134.640503 
L 304.0128 -133.029904 
L 300.4416 -147.972003 
L 296.8704 -126.194913 
L 293.2992 -146.619845 
L 289.728 -129.470703 
L 286.1568 -98.066678 
L 282.5856 -136.377193 
L 279.0144 -150.939851 
L 275.4432 -166.609155 
L 271.872 -151.734202 
L 268.3008 -145.166701 
L 264.7296 -132.149851 
L 261.1584 -110.960479 
L 257.5872 -169.716499 
L 254.016 -125.932018 
L 250.4448 -111.378347 
L 246.8736 -170.192952 
L 243.3024 -150.264072 
L 239.7312 -162.281515 
L 236.16 -103.856356 
L 232.5888 -135.735023 
L 229.0176 -108.229167 
L 225.4464 -160.857078 
L 221.8752 -164.390586 
L 218.304 -143.802403 
L 214.7328 -162.75889 
L 211.1616 -165.011633 
L 207.5904 -147.990455 
L 204.0192 -151.846882 
L 200.448 -146.046848 
L 196.8768 -156.014338 
L 193.3056 -148.256624 
L 189.7344 -110.247234 
L 186.1632 -158.564555 
L 182.592 -145.43556 
L 179.0208 -166.39294 
L 175.4496 -140.124495 
L 171.8784 -150.966075 
L 168.3072 -149.481403 
L 164.736 -162.023083 
L 161.1648 -157.185942 
L 157.5936 -153.057566 
L 154.0224 -146.801769 
L 150.4512 -177.368754 
L 146.88 -189.438421 
L 143.3088 -164.332376 
L 139.7376 -169.425135 
L 136.1664 -185.225108 
L 132.5952 -171.488987 
L 129.024 -169.99253 
L 125.4528 -202.051227 
L 121.8816 -175.455422 
L 118.3104 -175.121785 
L 114.7392 -191.561104 
L 111.168 -190.712859 
L 107.5968 -182.602288 
L 104.0256 -203.952328 
L 100.4544 -217.181025 
L 96.8832 -216.025641 
L 93.312 -220.059544 
L 89.7408 -237.432165 
L 86.1696 -243.059874 
L 82.5984 -253.076031 
L 79.0272 -263.988811 
L 75.456 -268.990446 
L 71.8848 -273.514807 
L 68.3136 -278.356758 
L 64.7424 -279.993596 
L 61.1712 -283.768134 
L 57.6 -284.092659 
z
" id="m341bfce3a3" style="stroke:#ffffff;stroke-opacity:0.2;"/>
    </defs>
    <g clip-path="url(#pce6db9809c)">
     <use style="fill:#994fa1;fill-opacity:0.2;stroke:#ffffff;stroke-opacity:0.2;" x="0" xlink:href="#m341bfce3a3" y="345.6"/>
    </g>
   </g>
   <g id="PolyCollection_5">
    <defs>
     <path d="M 57.6 -285.92514 
L 57.6 -285.92514 
L 61.1712 -291.647244 
L 64.7424 -289.079535 
L 68.3136 -292.032 
L 71.8848 -291.804873 
L 75.456 -290.141004 
L 79.0272 -286.889201 
L 82.5984 -286.452291 
L 86.1696 -286.223778 
L 89.7408 -284.06878 
L 93.312 -283.492193 
L 96.8832 -283.951619 
L 100.4544 -283.566624 
L 104.0256 -282.591535 
L 107.5968 -283.736378 
L 111.168 -282.934243 
L 114.7392 -283.522043 
L 118.3104 -283.049584 
L 121.8816 -283.06743 
L 125.4528 -283.064511 
L 129.024 -282.924111 
L 132.5952 -282.519127 
L 136.1664 -283.346014 
L 139.7376 -282.844361 
L 143.3088 -283.109514 
L 146.88 -282.672588 
L 150.4512 -282.668192 
L 154.0224 -282.833978 
L 157.5936 -283.572467 
L 161.1648 -283.122918 
L 164.736 -282.896657 
L 168.3072 -283.035921 
L 171.8784 -282.699351 
L 175.4496 -282.864363 
L 179.0208 -282.510747 
L 182.592 -282.464908 
L 186.1632 -282.669142 
L 189.7344 -282.885227 
L 193.3056 -283.458846 
L 196.8768 -282.632779 
L 200.448 -282.248661 
L 204.0192 -283.361664 
L 207.5904 -283.518445 
L 211.1616 -283.056468 
L 214.7328 -282.596565 
L 218.304 -282.972577 
L 221.8752 -283.736623 
L 225.4464 -282.974199 
L 229.0176 -282.702027 
L 232.5888 -282.712287 
L 236.16 -282.597847 
L 239.7312 -283.178687 
L 243.3024 -283.726184 
L 246.8736 -283.415719 
L 250.4448 -282.915403 
L 254.016 -283.200789 
L 257.5872 -283.702619 
L 261.1584 -282.93641 
L 264.7296 -282.527017 
L 268.3008 -282.901495 
L 271.872 -282.63244 
L 275.4432 -283.020964 
L 279.0144 -282.741472 
L 282.5856 -283.4247 
L 286.1568 -282.765009 
L 289.728 -282.012896 
L 293.2992 -283.342875 
L 296.8704 -283.406139 
L 300.4416 -283.00314 
L 304.0128 -282.422699 
L 307.584 -282.525378 
L 311.1552 -282.373823 
L 314.7264 -281.988636 
L 318.2976 -282.712163 
L 321.8688 -282.753493 
L 325.44 -282.874874 
L 329.0112 -283.371216 
L 332.5824 -283.124027 
L 336.1536 -283.312508 
L 339.7248 -282.399765 
L 343.296 -282.824509 
L 346.8672 -282.962689 
L 350.4384 -283.118201 
L 354.0096 -282.666059 
L 357.5808 -282.557296 
L 361.152 -282.935438 
L 364.7232 -282.269835 
L 368.2944 -282.858172 
L 371.8656 -283.145102 
L 375.4368 -283.488651 
L 379.008 -282.160031 
L 382.5792 -282.773139 
L 386.1504 -284.120605 
L 389.7216 -283.187694 
L 393.2928 -283.114872 
L 396.864 -282.646867 
L 400.4352 -282.46118 
L 404.0064 -282.446993 
L 407.5776 -283.378851 
L 411.1488 -282.956941 
L 411.1488 -282.956941 
L 411.1488 -282.956941 
L 407.5776 -283.378851 
L 404.0064 -282.446993 
L 400.4352 -282.46118 
L 396.864 -282.646867 
L 393.2928 -283.114872 
L 389.7216 -283.187694 
L 386.1504 -284.120605 
L 382.5792 -282.773139 
L 379.008 -282.160031 
L 375.4368 -283.488651 
L 371.8656 -283.145102 
L 368.2944 -282.858172 
L 364.7232 -282.269835 
L 361.152 -282.935438 
L 357.5808 -282.557296 
L 354.0096 -282.666059 
L 350.4384 -283.118201 
L 346.8672 -282.962689 
L 343.296 -282.824509 
L 339.7248 -282.399765 
L 336.1536 -283.312508 
L 332.5824 -283.124027 
L 329.0112 -283.371216 
L 325.44 -282.874874 
L 321.8688 -282.753493 
L 318.2976 -282.712163 
L 314.7264 -281.988636 
L 311.1552 -282.373823 
L 307.584 -282.525378 
L 304.0128 -282.422699 
L 300.4416 -283.00314 
L 296.8704 -283.406139 
L 293.2992 -283.342875 
L 289.728 -282.012896 
L 286.1568 -282.765009 
L 282.5856 -283.4247 
L 279.0144 -282.741472 
L 275.4432 -283.020964 
L 271.872 -282.63244 
L 268.3008 -282.901495 
L 264.7296 -282.527017 
L 261.1584 -282.93641 
L 257.5872 -283.702619 
L 254.016 -283.200789 
L 250.4448 -282.915403 
L 246.8736 -283.415719 
L 243.3024 -283.726184 
L 239.7312 -283.178687 
L 236.16 -282.597847 
L 232.5888 -282.712287 
L 229.0176 -282.702027 
L 225.4464 -282.974199 
L 221.8752 -283.736623 
L 218.304 -282.972577 
L 214.7328 -282.596565 
L 211.1616 -283.056468 
L 207.5904 -283.518445 
L 204.0192 -283.361664 
L 200.448 -282.248661 
L 196.8768 -282.632779 
L 193.3056 -283.458846 
L 189.7344 -282.885227 
L 186.1632 -282.669142 
L 182.592 -282.464908 
L 179.0208 -282.510747 
L 175.4496 -282.864363 
L 171.8784 -282.699351 
L 168.3072 -283.035921 
L 164.736 -282.896657 
L 161.1648 -283.122918 
L 157.5936 -283.572467 
L 154.0224 -282.833978 
L 150.4512 -282.668192 
L 146.88 -282.672588 
L 143.3088 -283.109514 
L 139.7376 -282.844361 
L 136.1664 -283.346014 
L 132.5952 -282.519127 
L 129.024 -282.924111 
L 125.4528 -283.064511 
L 121.8816 -283.06743 
L 118.3104 -283.049584 
L 114.7392 -283.522043 
L 111.168 -282.934243 
L 107.5968 -283.736378 
L 104.0256 -282.591535 
L 100.4544 -283.566624 
L 96.8832 -283.951619 
L 93.312 -283.492193 
L 89.7408 -284.06878 
L 86.1696 -286.223778 
L 82.5984 -286.452291 
L 79.0272 -286.889201 
L 75.456 -290.141004 
L 71.8848 -291.804873 
L 68.3136 -292.032 
L 64.7424 -289.079535 
L 61.1712 -291.647244 
L 57.6 -285.92514 
z
" id="m995d842f95" style="stroke:#ffffff;stroke-opacity:0.2;"/>
    </defs>
    <g clip-path="url(#pce6db9809c)">
     <use style="fill:#ff8101;fill-opacity:0.2;stroke:#ffffff;stroke-opacity:0.2;" x="0" xlink:href="#m995d842f95" y="345.6"/>
    </g>
   </g>
   <g id="line2d_17">
    <path clip-path="url(#pce6db9809c)" d="M 57.6 59.381921 
L 61.1712 66.042695 
L 64.7424 70.125197 
L 68.3136 73.066374 
L 71.8848 76.989458 
L 75.456 80.693821 
L 79.0272 83.054339 
L 82.5984 86.786802 
L 86.1696 93.388264 
L 89.7408 96.665069 
L 93.312 104.38591 
L 96.8832 106.213189 
L 100.4544 113.420917 
L 104.0256 115.407739 
L 107.5968 120.975404 
L 111.168 122.871229 
L 114.7392 130.359372 
L 118.3104 131.97604 
L 121.8816 140.570602 
L 125.4528 135.811488 
L 129.024 150.735249 
L 132.5952 147.584585 
L 136.1664 156.542646 
L 139.7376 151.673396 
L 143.3088 167.545756 
L 146.88 161.757029 
L 150.4512 167.928166 
L 154.0224 155.149446 
L 157.5936 167.285903 
L 161.1648 165.902406 
L 164.736 174.48146 
L 168.3072 151.30553 
L 171.8784 174.946761 
L 175.4496 154.726552 
L 179.0208 177.165522 
L 182.592 169.730399 
L 186.1632 185.760895 
L 189.7344 181.097567 
L 193.3056 189.754737 
L 196.8768 187.043353 
L 200.448 186.149121 
L 204.0192 169.374038 
L 207.5904 182.800322 
L 211.1616 181.319595 
L 214.7328 184.768157 
L 218.304 192.311647 
L 221.8752 183.115449 
L 225.4464 182.849938 
L 229.0176 187.577319 
L 232.5888 182.088712 
L 236.16 172.144411 
L 239.7312 200.669243 
L 243.3024 179.891339 
L 246.8736 179.159064 
L 250.4448 194.555834 
L 254.016 209.29177 
L 257.5872 184.917856 
L 261.1584 220.637829 
L 264.7296 196.795766 
L 268.3008 190.11425 
L 271.872 184.105443 
L 275.4432 186.807579 
L 279.0144 219.314203 
L 282.5856 202.282175 
L 286.1568 199.75283 
L 289.728 197.247581 
L 293.2992 211.870336 
L 296.8704 190.696036 
L 300.4416 205.662883 
L 304.0128 209.099781 
L 307.584 206.538386 
L 311.1552 182.130723 
L 314.7264 206.436714 
L 318.2976 203.246908 
L 321.8688 200.392549 
L 325.44 215.889506 
L 329.0112 249.489367 
L 332.5824 207.747571 
L 336.1536 197.916652 
L 339.7248 205.28584 
L 343.296 230.170739 
L 346.8672 211.159877 
L 350.4384 206.933626 
L 354.0096 250.402346 
L 357.5808 230.828232 
L 361.152 208.496183 
L 364.7232 184.869711 
L 368.2944 222.652489 
L 371.8656 198.027421 
L 375.4368 225.012423 
L 379.008 187.836189 
L 382.5792 210.390564 
L 386.1504 205.376737 
L 389.7216 180.450286 
L 393.2928 200.861069 
L 396.864 205.459853 
L 400.4352 195.846209 
L 404.0064 202.554492 
L 407.5776 220.832412 
L 411.1488 199.059652 
" style="fill:none;stroke:#ea4c4e;stroke-dasharray:5.55,2.4;stroke-dashoffset:0;stroke-width:1.5;"/>
   </g>
   <g id="line2d_18">
    <path clip-path="url(#pce6db9809c)" d="M 57.6 60.502643 
L 61.1712 60.797024 
L 64.7424 69.643606 
L 68.3136 70.758367 
L 71.8848 78.297625 
L 75.456 83.982848 
L 79.0272 93.433117 
L 82.5984 98.643382 
L 86.1696 104.062557 
L 89.7408 102.883562 
L 93.312 112.855394 
L 96.8832 111.764709 
L 100.4544 110.307151 
L 104.0256 120.224392 
L 107.5968 120.717813 
L 111.168 122.242447 
L 114.7392 127.266193 
L 118.3104 127.14147 
L 121.8816 135.955207 
L 125.4528 133.638404 
L 129.024 148.794289 
L 132.5952 144.820996 
L 136.1664 144.323453 
L 139.7376 145.265828 
L 143.3088 147.192027 
L 146.88 153.331925 
L 150.4512 147.038324 
L 154.0224 168.641433 
L 157.5936 153.245546 
L 161.1648 152.052112 
L 164.736 164.986012 
L 168.3072 175.16704 
L 171.8784 172.226088 
L 175.4496 162.973604 
L 179.0208 157.447724 
L 182.592 171.940361 
L 186.1632 173.126002 
L 189.7344 169.718512 
L 193.3056 171.237551 
L 196.8768 167.968768 
L 200.448 189.433004 
L 204.0192 165.658262 
L 207.5904 192.244592 
L 211.1616 184.463085 
L 214.7328 175.632855 
L 218.304 180.724327 
L 221.8752 183.868173 
L 225.4464 197.00035 
L 229.0176 195.474155 
L 232.5888 192.269289 
L 236.16 179.852246 
L 239.7312 197.057246 
L 243.3024 190.226263 
L 246.8736 188.173835 
L 250.4448 198.524939 
L 254.016 208.40962 
L 257.5872 182.045676 
L 261.1584 189.849632 
L 264.7296 186.595203 
L 268.3008 176.603012 
L 271.872 189.037825 
L 275.4432 190.970216 
L 279.0144 189.769968 
L 282.5856 199.691575 
L 286.1568 207.023899 
L 289.728 200.068819 
L 293.2992 201.947388 
L 296.8704 177.598147 
L 300.4416 197.696395 
L 304.0128 214.742881 
L 307.584 200.03811 
L 311.1552 195.37923 
L 314.7264 183.098585 
L 318.2976 199.780252 
L 321.8688 189.430577 
L 325.44 194.924985 
L 329.0112 179.997507 
L 332.5824 183.705851 
L 336.1536 197.938582 
L 339.7248 177.154334 
L 343.296 189.659762 
L 346.8672 179.889808 
L 350.4384 201.267255 
L 354.0096 225.472599 
L 357.5808 211.574822 
L 361.152 192.805436 
L 364.7232 215.850944 
L 368.2944 209.867187 
L 371.8656 192.841244 
L 375.4368 186.200536 
L 379.008 181.50523 
L 382.5792 203.438944 
L 386.1504 211.75057 
L 389.7216 220.138746 
L 393.2928 191.564294 
L 396.864 220.403732 
L 400.4352 214.815477 
L 404.0064 192.866748 
L 407.5776 180.583653 
L 411.1488 203.888825 
" style="fill:none;stroke:#377eb8;stroke-dasharray:5.55,2.4;stroke-dashoffset:0;stroke-width:1.5;"/>
   </g>
   <g id="line2d_19">
    <path clip-path="url(#pce6db9809c)" d="M 57.6 61.25906 
L 61.1712 61.890096 
L 64.7424 64.0575 
L 68.3136 64.95125 
L 71.8848 67.0151 
L 75.456 72.325421 
L 79.0272 78.647768 
L 82.5984 83.18753 
L 86.1696 88.8485 
L 89.7408 102.721948 
L 93.312 112.921606 
L 96.8832 123.801528 
L 100.4544 126.074109 
L 104.0256 137.230924 
L 107.5968 140.438622 
L 111.168 134.976382 
L 114.7392 151.659662 
L 118.3104 154.258961 
L 121.8816 153.276466 
L 125.4528 197.136921 
L 129.024 176.648591 
L 132.5952 167.514644 
L 136.1664 160.934888 
L 139.7376 155.451139 
L 143.3088 187.575194 
L 146.88 169.707234 
L 150.4512 204.919848 
L 154.0224 187.600227 
L 157.5936 189.324754 
L 161.1648 201.401031 
L 164.736 164.928749 
L 168.3072 187.404764 
L 171.8784 169.083456 
L 175.4496 185.769902 
L 179.0208 165.46144 
L 182.592 177.227711 
L 186.1632 193.281724 
L 189.7344 204.997049 
L 193.3056 199.690668 
L 196.8768 190.965802 
L 200.448 218.074855 
L 204.0192 187.134344 
L 207.5904 168.321983 
L 211.1616 180.84049 
L 214.7328 239.456774 
L 218.304 179.644095 
L 221.8752 203.264131 
L 225.4464 176.99513 
L 229.0176 222.691905 
L 232.5888 209.47556 
L 236.16 185.468726 
L 239.7312 221.159957 
L 243.3024 194.337597 
L 246.8736 166.480001 
L 250.4448 197.996398 
L 254.016 221.24918 
L 257.5872 199.397026 
L 261.1584 262.611195 
L 264.7296 192.402607 
L 268.3008 211.030515 
L 271.872 191.759817 
L 275.4432 201.119179 
L 279.0144 227.946636 
L 282.5856 195.860614 
L 286.1568 211.311043 
L 289.728 177.746661 
L 293.2992 210.573441 
L 296.8704 191.501318 
L 300.4416 216.500593 
L 304.0128 183.221388 
L 307.584 224.473016 
L 311.1552 179.962699 
L 314.7264 183.20859 
L 318.2976 179.924091 
L 321.8688 184.508319 
L 325.44 194.860343 
L 329.0112 162.184175 
L 332.5824 178.428643 
L 336.1536 210.157817 
L 339.7248 193.521988 
L 343.296 210.165133 
L 346.8672 187.793526 
L 350.4384 205.02323 
L 354.0096 231.371845 
L 357.5808 222.400282 
L 361.152 202.962463 
L 364.7232 201.832551 
L 368.2944 227.400357 
L 371.8656 220.459004 
L 375.4368 215.627767 
L 379.008 214.980378 
L 382.5792 230.91127 
L 386.1504 215.729558 
L 389.7216 248.232718 
L 393.2928 210.846753 
L 396.864 178.98826 
L 400.4352 220.482788 
L 404.0064 201.847437 
L 407.5776 192.184775 
L 411.1488 222.929784 
" style="fill:none;stroke:#4eae4b;stroke-dasharray:5.55,2.4;stroke-dashoffset:0;stroke-width:1.5;"/>
   </g>
   <g id="line2d_20">
    <path clip-path="url(#pce6db9809c)" d="M 57.6 61.507341 
L 61.1712 61.831866 
L 64.7424 65.606404 
L 68.3136 67.243242 
L 71.8848 72.085193 
L 75.456 76.609554 
L 79.0272 81.611189 
L 82.5984 92.523969 
L 86.1696 102.540126 
L 89.7408 108.167835 
L 93.312 125.540456 
L 96.8832 129.574359 
L 100.4544 128.418975 
L 104.0256 141.647672 
L 107.5968 162.997712 
L 111.168 154.887141 
L 114.7392 154.038896 
L 118.3104 170.478215 
L 121.8816 170.144578 
L 125.4528 143.548773 
L 129.024 175.60747 
L 132.5952 174.111013 
L 136.1664 160.374892 
L 139.7376 176.174865 
L 143.3088 181.267624 
L 146.88 156.161579 
L 150.4512 168.231246 
L 154.0224 198.798231 
L 157.5936 192.542434 
L 161.1648 188.414058 
L 164.736 183.576917 
L 168.3072 196.118597 
L 171.8784 194.633925 
L 175.4496 205.475505 
L 179.0208 179.20706 
L 182.592 200.16444 
L 186.1632 187.035445 
L 189.7344 235.352766 
L 193.3056 197.343376 
L 196.8768 189.585662 
L 200.448 199.553152 
L 204.0192 193.753118 
L 207.5904 197.609545 
L 211.1616 180.588367 
L 214.7328 182.84111 
L 218.304 201.797597 
L 221.8752 181.209414 
L 225.4464 184.742922 
L 229.0176 237.370833 
L 232.5888 209.864977 
L 236.16 241.743644 
L 239.7312 183.318485 
L 243.3024 195.335928 
L 246.8736 175.407048 
L 250.4448 234.221653 
L 254.016 219.667982 
L 257.5872 175.883501 
L 261.1584 234.639521 
L 264.7296 213.450149 
L 268.3008 200.433299 
L 271.872 193.865798 
L 275.4432 178.990845 
L 279.0144 194.660149 
L 282.5856 209.222807 
L 286.1568 247.533322 
L 289.728 216.129297 
L 293.2992 198.980155 
L 296.8704 219.405087 
L 300.4416 197.627997 
L 304.0128 212.570096 
L 307.584 210.959497 
L 311.1552 216.03201 
L 314.7264 239.293707 
L 318.2976 196.968593 
L 321.8688 229.041619 
L 325.44 219.146469 
L 329.0112 206.881962 
L 332.5824 244.5592 
L 336.1536 220.235379 
L 339.7248 205.614897 
L 343.296 206.649117 
L 346.8672 228.562606 
L 350.4384 244.140396 
L 354.0096 214.323315 
L 357.5808 223.074649 
L 361.152 218.33731 
L 364.7232 228.498906 
L 368.2944 211.742387 
L 371.8656 243.945285 
L 375.4368 276.539456 
L 379.008 230.404465 
L 382.5792 246.09636 
L 386.1504 295.488 
L 389.7216 188.801471 
L 393.2928 244.045673 
L 396.864 226.063726 
L 400.4352 198.578931 
L 404.0064 253.225755 
L 407.5776 193.876249 
L 411.1488 223.525697 
" style="fill:none;stroke:#994fa1;stroke-dasharray:5.55,2.4;stroke-dashoffset:0;stroke-width:1.5;"/>
   </g>
   <g id="line2d_21">
    <path clip-path="url(#pce6db9809c)" d="M 57.6 59.67486 
L 61.1712 53.952756 
L 64.7424 56.520465 
L 68.3136 53.568 
L 71.8848 53.795127 
L 75.456 55.458996 
L 79.0272 58.710799 
L 82.5984 59.147709 
L 86.1696 59.376222 
L 89.7408 61.53122 
L 93.312 62.107807 
L 96.8832 61.648381 
L 100.4544 62.033376 
L 104.0256 63.008465 
L 107.5968 61.863622 
L 111.168 62.665757 
L 114.7392 62.077957 
L 118.3104 62.550416 
L 121.8816 62.53257 
L 125.4528 62.535489 
L 129.024 62.675889 
L 132.5952 63.080873 
L 136.1664 62.253986 
L 139.7376 62.755639 
L 143.3088 62.490486 
L 146.88 62.927412 
L 150.4512 62.931808 
L 154.0224 62.766022 
L 157.5936 62.027533 
L 161.1648 62.477082 
L 164.736 62.703343 
L 168.3072 62.564079 
L 171.8784 62.900649 
L 175.4496 62.735637 
L 179.0208 63.089253 
L 182.592 63.135092 
L 186.1632 62.930858 
L 189.7344 62.714773 
L 193.3056 62.141154 
L 196.8768 62.967221 
L 200.448 63.351339 
L 204.0192 62.238336 
L 207.5904 62.081555 
L 211.1616 62.543532 
L 214.7328 63.003435 
L 218.304 62.627423 
L 221.8752 61.863377 
L 225.4464 62.625801 
L 229.0176 62.897973 
L 232.5888 62.887713 
L 236.16 63.002153 
L 239.7312 62.421313 
L 243.3024 61.873816 
L 246.8736 62.184281 
L 250.4448 62.684597 
L 254.016 62.399211 
L 257.5872 61.897381 
L 261.1584 62.66359 
L 264.7296 63.072983 
L 268.3008 62.698505 
L 271.872 62.96756 
L 275.4432 62.579036 
L 279.0144 62.858528 
L 282.5856 62.1753 
L 286.1568 62.834991 
L 289.728 63.587104 
L 293.2992 62.257125 
L 296.8704 62.193861 
L 300.4416 62.59686 
L 304.0128 63.177301 
L 307.584 63.074622 
L 311.1552 63.226177 
L 314.7264 63.611364 
L 318.2976 62.887837 
L 321.8688 62.846507 
L 325.44 62.725126 
L 329.0112 62.228784 
L 332.5824 62.475973 
L 336.1536 62.287492 
L 339.7248 63.200235 
L 343.296 62.775491 
L 346.8672 62.637311 
L 350.4384 62.481799 
L 354.0096 62.933941 
L 357.5808 63.042704 
L 361.152 62.664562 
L 364.7232 63.330165 
L 368.2944 62.741828 
L 371.8656 62.454898 
L 375.4368 62.111349 
L 379.008 63.439969 
L 382.5792 62.826861 
L 386.1504 61.479395 
L 389.7216 62.412306 
L 393.2928 62.485128 
L 396.864 62.953133 
L 400.4352 63.13882 
L 404.0064 63.153007 
L 407.5776 62.221149 
L 411.1488 62.643059 
" style="fill:none;stroke:#ff8101;stroke-linecap:round;stroke-width:1.5;"/>
   </g>
   <g id="patch_3">
    <path d="M 57.6 307.584 
L 57.6 41.472 
" style="fill:none;stroke:#262626;stroke-linecap:square;stroke-linejoin:miter;stroke-width:1.25;"/>
   </g>
   <g id="patch_4">
    <path d="M 57.6 307.584 
L 414.72 307.584 
" style="fill:none;stroke:#262626;stroke-linecap:square;stroke-linejoin:miter;stroke-width:1.25;"/>
   </g>
   <g id="text_9">
    <!-- MNIST -->
    <g style="fill:#262626;" transform="translate(217.495313 35.472)scale(0.12 -0.12)">
     <defs>
      <path d="M 7.421875 0 
L 7.421875 71.578125 
L 21.6875 71.578125 
L 38.625 20.90625 
Q 40.96875 13.8125 42.046875 10.296875 
Q 43.265625 14.203125 45.84375 21.78125 
L 62.984375 71.578125 
L 75.734375 71.578125 
L 75.734375 0 
L 66.609375 0 
L 66.609375 59.90625 
L 45.796875 0 
L 37.25 0 
L 16.546875 60.9375 
L 16.546875 0 
z
" id="ArialMT-77"/>
      <path d="M 7.625 0 
L 7.625 71.578125 
L 17.328125 71.578125 
L 54.9375 15.375 
L 54.9375 71.578125 
L 64.015625 71.578125 
L 64.015625 0 
L 54.296875 0 
L 16.703125 56.25 
L 16.703125 0 
z
" id="ArialMT-78"/>
      <path d="M 9.328125 0 
L 9.328125 71.578125 
L 18.796875 71.578125 
L 18.796875 0 
z
" id="ArialMT-73"/>
      <path d="M 4.5 23 
L 13.421875 23.78125 
Q 14.0625 18.40625 16.375 14.96875 
Q 18.703125 11.53125 23.578125 9.40625 
Q 28.46875 7.28125 34.578125 7.28125 
Q 39.984375 7.28125 44.140625 8.890625 
Q 48.296875 10.5 50.3125 13.296875 
Q 52.34375 16.109375 52.34375 19.4375 
Q 52.34375 22.796875 50.390625 25.3125 
Q 48.4375 27.828125 43.953125 29.546875 
Q 41.0625 30.671875 31.203125 33.03125 
Q 21.34375 35.40625 17.390625 37.5 
Q 12.25 40.1875 9.734375 44.15625 
Q 7.234375 48.140625 7.234375 53.078125 
Q 7.234375 58.5 10.296875 63.203125 
Q 13.375 67.921875 19.28125 70.359375 
Q 25.203125 72.796875 32.421875 72.796875 
Q 40.375 72.796875 46.453125 70.234375 
Q 52.546875 67.671875 55.8125 62.6875 
Q 59.078125 57.71875 59.328125 51.421875 
L 50.25 50.734375 
Q 49.515625 57.515625 45.28125 60.984375 
Q 41.0625 64.453125 32.8125 64.453125 
Q 24.21875 64.453125 20.28125 61.296875 
Q 16.359375 58.15625 16.359375 53.71875 
Q 16.359375 49.859375 19.140625 47.359375 
Q 21.875 44.875 33.421875 42.265625 
Q 44.96875 39.65625 49.265625 37.703125 
Q 55.515625 34.8125 58.484375 30.390625 
Q 61.46875 25.984375 61.46875 20.21875 
Q 61.46875 14.5 58.203125 9.4375 
Q 54.9375 4.390625 48.796875 1.578125 
Q 42.671875 -1.21875 35.015625 -1.21875 
Q 25.296875 -1.21875 18.71875 1.609375 
Q 12.15625 4.4375 8.421875 10.125 
Q 4.6875 15.828125 4.5 23 
z
" id="ArialMT-83"/>
      <path d="M 25.921875 0 
L 25.921875 63.140625 
L 2.34375 63.140625 
L 2.34375 71.578125 
L 59.078125 71.578125 
L 59.078125 63.140625 
L 35.40625 63.140625 
L 35.40625 0 
z
" id="ArialMT-84"/>
     </defs>
     <use xlink:href="#ArialMT-77"/>
     <use x="83.300781" xlink:href="#ArialMT-78"/>
     <use x="155.517578" xlink:href="#ArialMT-73"/>
     <use x="183.300781" xlink:href="#ArialMT-83"/>
     <use x="250" xlink:href="#ArialMT-84"/>
    </g>
   </g>
   <g id="legend_1">
    <g id="line2d_22">
     <path d="M 67.5 229.274312 
L 89.5 229.274312 
" style="fill:none;stroke:#ea4c4e;stroke-dasharray:5.55,2.4;stroke-dashoffset:0;stroke-width:1.5;"/>
    </g>
    <g id="line2d_23"/>
    <g id="text_10">
     <!-- ADAM -->
     <g style="fill:#262626;" transform="translate(98.3 233.124312)scale(0.11 -0.11)">
      <defs>
       <path d="M -0.140625 0 
L 27.34375 71.578125 
L 37.546875 71.578125 
L 66.84375 0 
L 56.0625 0 
L 47.703125 21.6875 
L 17.78125 21.6875 
L 9.90625 0 
z
M 20.515625 29.390625 
L 44.78125 29.390625 
L 37.3125 49.21875 
Q 33.890625 58.25 32.234375 64.0625 
Q 30.859375 57.171875 28.375 50.390625 
z
" id="ArialMT-65"/>
       <path d="M 7.71875 0 
L 7.71875 71.578125 
L 32.375 71.578125 
Q 40.71875 71.578125 45.125 70.5625 
Q 51.265625 69.140625 55.609375 65.4375 
Q 61.28125 60.640625 64.078125 53.1875 
Q 66.890625 45.75 66.890625 36.1875 
Q 66.890625 28.03125 64.984375 21.734375 
Q 63.09375 15.4375 60.109375 11.296875 
Q 57.125 7.171875 53.578125 4.796875 
Q 50.046875 2.4375 45.046875 1.21875 
Q 40.046875 0 33.546875 0 
z
M 17.1875 8.453125 
L 32.46875 8.453125 
Q 39.546875 8.453125 43.578125 9.765625 
Q 47.609375 11.078125 50 13.484375 
Q 53.375 16.84375 55.25 22.53125 
Q 57.125 28.21875 57.125 36.328125 
Q 57.125 47.5625 53.4375 53.59375 
Q 49.75 59.625 44.484375 61.671875 
Q 40.671875 63.140625 32.234375 63.140625 
L 17.1875 63.140625 
z
" id="ArialMT-68"/>
      </defs>
      <use xlink:href="#ArialMT-65"/>
      <use x="66.699219" xlink:href="#ArialMT-68"/>
      <use x="138.916016" xlink:href="#ArialMT-65"/>
      <use x="205.615234" xlink:href="#ArialMT-77"/>
     </g>
    </g>
    <g id="line2d_24">
     <path d="M 67.5 244.968219 
L 89.5 244.968219 
" style="fill:none;stroke:#377eb8;stroke-dasharray:5.55,2.4;stroke-dashoffset:0;stroke-width:1.5;"/>
    </g>
    <g id="line2d_25"/>
    <g id="text_11">
     <!-- RMSprop -->
     <g style="fill:#262626;" transform="translate(98.3 248.818219)scale(0.11 -0.11)">
      <defs>
       <path d="M 7.859375 0 
L 7.859375 71.578125 
L 39.59375 71.578125 
Q 49.171875 71.578125 54.140625 69.640625 
Q 59.125 67.71875 62.109375 62.828125 
Q 65.09375 57.953125 65.09375 52.046875 
Q 65.09375 44.4375 60.15625 39.203125 
Q 55.21875 33.984375 44.921875 32.5625 
Q 48.6875 30.765625 50.640625 29 
Q 54.78125 25.203125 58.5 19.484375 
L 70.953125 0 
L 59.03125 0 
L 49.5625 14.890625 
Q 45.40625 21.34375 42.71875 24.75 
Q 40.046875 28.171875 37.921875 29.53125 
Q 35.796875 30.90625 33.59375 31.453125 
Q 31.984375 31.78125 28.328125 31.78125 
L 17.328125 31.78125 
L 17.328125 0 
z
M 17.328125 39.984375 
L 37.703125 39.984375 
Q 44.1875 39.984375 47.84375 41.328125 
Q 51.515625 42.671875 53.421875 45.625 
Q 55.328125 48.578125 55.328125 52.046875 
Q 55.328125 57.125 51.640625 60.390625 
Q 47.953125 63.671875 39.984375 63.671875 
L 17.328125 63.671875 
z
" id="ArialMT-82"/>
       <path d="M 6.5 0 
L 6.5 51.859375 
L 14.40625 51.859375 
L 14.40625 44 
Q 17.4375 49.515625 20 51.265625 
Q 22.5625 53.03125 25.640625 53.03125 
Q 30.078125 53.03125 34.671875 50.203125 
L 31.640625 42.046875 
Q 28.421875 43.953125 25.203125 43.953125 
Q 22.3125 43.953125 20.015625 42.21875 
Q 17.71875 40.484375 16.75 37.40625 
Q 15.28125 32.71875 15.28125 27.15625 
L 15.28125 0 
z
" id="ArialMT-114"/>
      </defs>
      <use xlink:href="#ArialMT-82"/>
      <use x="72.216797" xlink:href="#ArialMT-77"/>
      <use x="155.517578" xlink:href="#ArialMT-83"/>
      <use x="222.216797" xlink:href="#ArialMT-112"/>
      <use x="277.832031" xlink:href="#ArialMT-114"/>
      <use x="311.132812" xlink:href="#ArialMT-111"/>
      <use x="366.748047" xlink:href="#ArialMT-112"/>
     </g>
    </g>
    <g id="line2d_26">
     <path d="M 67.5 260.528062 
L 89.5 260.528062 
" style="fill:none;stroke:#4eae4b;stroke-dasharray:5.55,2.4;stroke-dashoffset:0;stroke-width:1.5;"/>
    </g>
    <g id="line2d_27"/>
    <g id="text_12">
     <!-- SGD -->
     <g style="fill:#262626;" transform="translate(98.3 264.378062)scale(0.11 -0.11)">
      <defs>
       <path d="M 41.21875 28.078125 
L 41.21875 36.46875 
L 71.53125 36.53125 
L 71.53125 9.96875 
Q 64.546875 4.390625 57.125 1.578125 
Q 49.703125 -1.21875 41.890625 -1.21875 
Q 31.34375 -1.21875 22.71875 3.296875 
Q 14.109375 7.8125 9.71875 16.359375 
Q 5.328125 24.90625 5.328125 35.453125 
Q 5.328125 45.90625 9.6875 54.953125 
Q 14.0625 64.015625 22.265625 68.40625 
Q 30.46875 72.796875 41.15625 72.796875 
Q 48.921875 72.796875 55.1875 70.28125 
Q 61.46875 67.78125 65.03125 63.28125 
Q 68.609375 58.796875 70.453125 51.5625 
L 61.921875 49.21875 
Q 60.296875 54.6875 57.90625 57.8125 
Q 55.515625 60.9375 51.0625 62.8125 
Q 46.625 64.703125 41.21875 64.703125 
Q 34.71875 64.703125 29.984375 62.71875 
Q 25.25 60.75 22.34375 57.515625 
Q 19.4375 54.296875 17.828125 50.4375 
Q 15.09375 43.796875 15.09375 36.03125 
Q 15.09375 26.46875 18.390625 20.015625 
Q 21.6875 13.578125 27.984375 10.453125 
Q 34.28125 7.328125 41.359375 7.328125 
Q 47.515625 7.328125 53.375 9.6875 
Q 59.234375 12.0625 62.25 14.75 
L 62.25 28.078125 
z
" id="ArialMT-71"/>
      </defs>
      <use xlink:href="#ArialMT-83"/>
      <use x="66.699219" xlink:href="#ArialMT-71"/>
      <use x="144.482422" xlink:href="#ArialMT-68"/>
     </g>
    </g>
    <g id="line2d_28">
     <path d="M 67.5 276.087906 
L 89.5 276.087906 
" style="fill:none;stroke:#994fa1;stroke-dasharray:5.55,2.4;stroke-dashoffset:0;stroke-width:1.5;"/>
    </g>
    <g id="line2d_29"/>
    <g id="text_13">
     <!-- NAG -->
     <g style="fill:#262626;" transform="translate(98.3 279.937906)scale(0.11 -0.11)">
      <use xlink:href="#ArialMT-78"/>
      <use x="72.216797" xlink:href="#ArialMT-65"/>
      <use x="138.916016" xlink:href="#ArialMT-71"/>
     </g>
    </g>
    <g id="line2d_30">
     <path d="M 67.5 291.64775 
L 89.5 291.64775 
" style="fill:none;stroke:#ff8101;stroke-linecap:round;stroke-width:1.5;"/>
    </g>
    <g id="line2d_31"/>
    <g id="text_14">
     <!-- LSTM -->
     <g style="fill:#262626;" transform="translate(98.3 295.49775)scale(0.11 -0.11)">
      <defs>
       <path d="M 7.328125 0 
L 7.328125 71.578125 
L 16.796875 71.578125 
L 16.796875 8.453125 
L 52.046875 8.453125 
L 52.046875 0 
z
" id="ArialMT-76"/>
      </defs>
      <use xlink:href="#ArialMT-76"/>
      <use x="55.615234" xlink:href="#ArialMT-83"/>
      <use x="122.314453" xlink:href="#ArialMT-84"/>
      <use x="183.398438" xlink:href="#ArialMT-77"/>
     </g>
    </g>
   </g>
  </g>
 </g>
 <defs>
  <clipPath id="pce6db9809c">
   <rect height="266.112" width="357.12" x="57.6" y="41.472"/>
  </clipPath>
 </defs>
</svg>
