<?xml version="1.0" encoding="utf-8" standalone="no"?>
<!DOCTYPE svg PUBLIC "-//W3C//DTD SVG 1.1//EN"
  "http://www.w3.org/Graphics/SVG/1.1/DTD/svg11.dtd">
<!-- Created with matplotlib (https://matplotlib.org/) -->
<svg height="288pt" version="1.1" viewBox="0 0 432 288" width="432pt" xmlns="http://www.w3.org/2000/svg" xmlns:xlink="http://www.w3.org/1999/xlink">
 <metadata>
  <rdf:RDF xmlns:cc="http://creativecommons.org/ns#" xmlns:dc="http://purl.org/dc/elements/1.1/" xmlns:rdf="http://www.w3.org/1999/02/22-rdf-syntax-ns#">
   <cc:Work>
    <dc:type rdf:resource="http://purl.org/dc/dcmitype/StillImage"/>
    <dc:date>2021-03-15T16:03:55.602597</dc:date>
    <dc:format>image/svg+xml</dc:format>
    <dc:creator>
     <cc:Agent>
      <dc:title>Matplotlib v3.3.4, https://matplotlib.org/</dc:title>
     </cc:Agent>
    </dc:creator>
   </cc:Work>
  </rdf:RDF>
 </metadata>
 <defs>
  <style type="text/css">*{stroke-linecap:butt;stroke-linejoin:round;}</style>
 </defs>
 <g id="figure_1">
  <g id="patch_1">
   <path d="M 0 288 
L 432 288 
L 432 0 
L 0 0 
z
" style="fill:#ffffff;"/>
  </g>
  <g id="axes_1">
   <g id="patch_2">
    <path d="M 54 252 
L 388.8 252 
L 388.8 34.56 
L 54 34.56 
z
" style="fill:#ffffff;"/>
   </g>
   <g id="matplotlib.axis_1">
    <g id="xtick_1">
     <g id="text_1">
      <!-- 0 -->
      <g style="fill:#262626;" transform="translate(50.941484 269.373594)scale(0.11 -0.11)">
       <defs>
        <path d="M 4.15625 35.296875 
Q 4.15625 48 6.765625 55.734375 
Q 9.375 63.484375 14.515625 67.671875 
Q 19.671875 71.875 27.484375 71.875 
Q 33.25 71.875 37.59375 69.546875 
Q 41.9375 67.234375 44.765625 62.859375 
Q 47.609375 58.5 49.21875 52.21875 
Q 50.828125 45.953125 50.828125 35.296875 
Q 50.828125 22.703125 48.234375 14.96875 
Q 45.65625 7.234375 40.5 3 
Q 35.359375 -1.21875 27.484375 -1.21875 
Q 17.140625 -1.21875 11.234375 6.203125 
Q 4.15625 15.140625 4.15625 35.296875 
z
M 13.1875 35.296875 
Q 13.1875 17.671875 17.3125 11.828125 
Q 21.4375 6 27.484375 6 
Q 33.546875 6 37.671875 11.859375 
Q 41.796875 17.71875 41.796875 35.296875 
Q 41.796875 52.984375 37.671875 58.78125 
Q 33.546875 64.59375 27.390625 64.59375 
Q 21.34375 64.59375 17.71875 59.46875 
Q 13.1875 52.9375 13.1875 35.296875 
z
" id="ArialMT-48"/>
       </defs>
       <use xlink:href="#ArialMT-48"/>
      </g>
     </g>
    </g>
    <g id="xtick_2">
     <g id="text_2">
      <!-- 25 -->
      <g style="fill:#262626;" transform="translate(89.94327 269.373594)scale(0.11 -0.11)">
       <defs>
        <path d="M 50.34375 8.453125 
L 50.34375 0 
L 3.03125 0 
Q 2.9375 3.171875 4.046875 6.109375 
Q 5.859375 10.9375 9.828125 15.625 
Q 13.8125 20.3125 21.34375 26.46875 
Q 33.015625 36.03125 37.109375 41.625 
Q 41.21875 47.21875 41.21875 52.203125 
Q 41.21875 57.421875 37.46875 61 
Q 33.734375 64.59375 27.734375 64.59375 
Q 21.390625 64.59375 17.578125 60.78125 
Q 13.765625 56.984375 13.71875 50.25 
L 4.6875 51.171875 
Q 5.609375 61.28125 11.65625 66.578125 
Q 17.71875 71.875 27.9375 71.875 
Q 38.234375 71.875 44.234375 66.15625 
Q 50.25 60.453125 50.25 52 
Q 50.25 47.703125 48.484375 43.546875 
Q 46.734375 39.40625 42.65625 34.8125 
Q 38.578125 30.21875 29.109375 22.21875 
Q 21.1875 15.578125 18.9375 13.203125 
Q 16.703125 10.84375 15.234375 8.453125 
z
" id="ArialMT-50"/>
        <path d="M 4.15625 18.75 
L 13.375 19.53125 
Q 14.40625 12.796875 18.140625 9.390625 
Q 21.875 6 27.15625 6 
Q 33.5 6 37.890625 10.78125 
Q 42.28125 15.578125 42.28125 23.484375 
Q 42.28125 31 38.0625 35.34375 
Q 33.84375 39.703125 27 39.703125 
Q 22.75 39.703125 19.328125 37.765625 
Q 15.921875 35.84375 13.96875 32.765625 
L 5.71875 33.84375 
L 12.640625 70.609375 
L 48.25 70.609375 
L 48.25 62.203125 
L 19.671875 62.203125 
L 15.828125 42.96875 
Q 22.265625 47.46875 29.34375 47.46875 
Q 38.71875 47.46875 45.15625 40.96875 
Q 51.609375 34.46875 51.609375 24.265625 
Q 51.609375 14.546875 45.953125 7.46875 
Q 39.0625 -1.21875 27.15625 -1.21875 
Q 17.390625 -1.21875 11.203125 4.25 
Q 5.03125 9.71875 4.15625 18.75 
z
" id="ArialMT-53"/>
       </defs>
       <use xlink:href="#ArialMT-50"/>
       <use x="55.615234" xlink:href="#ArialMT-53"/>
      </g>
     </g>
    </g>
    <g id="xtick_3">
     <g id="text_3">
      <!-- 50 -->
      <g style="fill:#262626;" transform="translate(132.003572 269.373594)scale(0.11 -0.11)">
       <use xlink:href="#ArialMT-53"/>
       <use x="55.615234" xlink:href="#ArialMT-48"/>
      </g>
     </g>
    </g>
    <g id="xtick_4">
     <g id="text_4">
      <!-- 75 -->
      <g style="fill:#262626;" transform="translate(174.063873 269.373594)scale(0.11 -0.11)">
       <defs>
        <path d="M 4.734375 62.203125 
L 4.734375 70.65625 
L 51.078125 70.65625 
L 51.078125 63.8125 
Q 44.234375 56.546875 37.515625 44.484375 
Q 30.8125 32.421875 27.15625 19.671875 
Q 24.515625 10.6875 23.78125 0 
L 14.75 0 
Q 14.890625 8.453125 18.0625 20.40625 
Q 21.234375 32.375 27.171875 43.484375 
Q 33.109375 54.59375 39.796875 62.203125 
z
" id="ArialMT-55"/>
       </defs>
       <use xlink:href="#ArialMT-55"/>
       <use x="55.615234" xlink:href="#ArialMT-53"/>
      </g>
     </g>
    </g>
    <g id="xtick_5">
     <g id="text_5">
      <!-- 100 -->
      <g style="fill:#262626;" transform="translate(213.065659 269.373594)scale(0.11 -0.11)">
       <defs>
        <path d="M 37.25 0 
L 28.46875 0 
L 28.46875 56 
Q 25.296875 52.984375 20.140625 49.953125 
Q 14.984375 46.921875 10.890625 45.40625 
L 10.890625 53.90625 
Q 18.265625 57.375 23.78125 62.296875 
Q 29.296875 67.234375 31.59375 71.875 
L 37.25 71.875 
z
" id="ArialMT-49"/>
       </defs>
       <use xlink:href="#ArialMT-49"/>
       <use x="55.615234" xlink:href="#ArialMT-48"/>
       <use x="111.230469" xlink:href="#ArialMT-48"/>
      </g>
     </g>
    </g>
    <g id="xtick_6">
     <g id="text_6">
      <!-- 125 -->
      <g style="fill:#262626;" transform="translate(255.125961 269.373594)scale(0.11 -0.11)">
       <use xlink:href="#ArialMT-49"/>
       <use x="55.615234" xlink:href="#ArialMT-50"/>
       <use x="111.230469" xlink:href="#ArialMT-53"/>
      </g>
     </g>
    </g>
    <g id="xtick_7">
     <g id="text_7">
      <!-- 150 -->
      <g style="fill:#262626;" transform="translate(297.186262 269.373594)scale(0.11 -0.11)">
       <use xlink:href="#ArialMT-49"/>
       <use x="55.615234" xlink:href="#ArialMT-53"/>
       <use x="111.230469" xlink:href="#ArialMT-48"/>
      </g>
     </g>
    </g>
    <g id="xtick_8">
     <g id="text_8">
      <!-- 175 -->
      <g style="fill:#262626;" transform="translate(339.246564 269.373594)scale(0.11 -0.11)">
       <use xlink:href="#ArialMT-49"/>
       <use x="55.615234" xlink:href="#ArialMT-55"/>
       <use x="111.230469" xlink:href="#ArialMT-53"/>
      </g>
     </g>
    </g>
    <g id="text_9">
     <!-- steps -->
     <g style="fill:#262626;" transform="translate(207.06 284.149219)scale(0.12 -0.12)">
      <defs>
       <path d="M 3.078125 15.484375 
L 11.765625 16.84375 
Q 12.5 11.625 15.84375 8.84375 
Q 19.1875 6.0625 25.203125 6.0625 
Q 31.25 6.0625 34.171875 8.515625 
Q 37.109375 10.984375 37.109375 14.3125 
Q 37.109375 17.28125 34.515625 19 
Q 32.71875 20.171875 25.53125 21.96875 
Q 15.875 24.421875 12.140625 26.203125 
Q 8.40625 27.984375 6.46875 31.125 
Q 4.546875 34.28125 4.546875 38.09375 
Q 4.546875 41.546875 6.125 44.5 
Q 7.71875 47.46875 10.453125 49.421875 
Q 12.5 50.921875 16.03125 51.96875 
Q 19.578125 53.03125 23.640625 53.03125 
Q 29.734375 53.03125 34.34375 51.265625 
Q 38.96875 49.515625 41.15625 46.5 
Q 43.359375 43.5 44.1875 38.484375 
L 35.59375 37.3125 
Q 35.015625 41.3125 32.203125 43.546875 
Q 29.390625 45.796875 24.265625 45.796875 
Q 18.21875 45.796875 15.625 43.796875 
Q 13.03125 41.796875 13.03125 39.109375 
Q 13.03125 37.40625 14.109375 36.03125 
Q 15.1875 34.625 17.484375 33.6875 
Q 18.796875 33.203125 25.25 31.453125 
Q 34.578125 28.953125 38.25 27.359375 
Q 41.9375 25.78125 44.03125 22.75 
Q 46.140625 19.734375 46.140625 15.234375 
Q 46.140625 10.84375 43.578125 6.953125 
Q 41.015625 3.078125 36.171875 0.953125 
Q 31.34375 -1.171875 25.25 -1.171875 
Q 15.140625 -1.171875 9.84375 3.03125 
Q 4.546875 7.234375 3.078125 15.484375 
z
" id="ArialMT-115"/>
       <path d="M 25.78125 7.859375 
L 27.046875 0.09375 
Q 23.34375 -0.6875 20.40625 -0.6875 
Q 15.625 -0.6875 12.984375 0.828125 
Q 10.359375 2.34375 9.28125 4.8125 
Q 8.203125 7.28125 8.203125 15.1875 
L 8.203125 45.015625 
L 1.765625 45.015625 
L 1.765625 51.859375 
L 8.203125 51.859375 
L 8.203125 64.703125 
L 16.9375 69.96875 
L 16.9375 51.859375 
L 25.78125 51.859375 
L 25.78125 45.015625 
L 16.9375 45.015625 
L 16.9375 14.703125 
Q 16.9375 10.9375 17.40625 9.859375 
Q 17.875 8.796875 18.921875 8.15625 
Q 19.96875 7.515625 21.921875 7.515625 
Q 23.390625 7.515625 25.78125 7.859375 
z
" id="ArialMT-116"/>
       <path d="M 42.09375 16.703125 
L 51.171875 15.578125 
Q 49.03125 7.625 43.21875 3.21875 
Q 37.40625 -1.171875 28.375 -1.171875 
Q 17 -1.171875 10.328125 5.828125 
Q 3.65625 12.84375 3.65625 25.484375 
Q 3.65625 38.578125 10.390625 45.796875 
Q 17.140625 53.03125 27.875 53.03125 
Q 38.28125 53.03125 44.875 45.953125 
Q 51.46875 38.875 51.46875 26.03125 
Q 51.46875 25.25 51.421875 23.6875 
L 12.75 23.6875 
Q 13.234375 15.140625 17.578125 10.59375 
Q 21.921875 6.0625 28.421875 6.0625 
Q 33.25 6.0625 36.671875 8.59375 
Q 40.09375 11.140625 42.09375 16.703125 
z
M 13.234375 30.90625 
L 42.1875 30.90625 
Q 41.609375 37.453125 38.875 40.71875 
Q 34.671875 45.796875 27.984375 45.796875 
Q 21.921875 45.796875 17.796875 41.75 
Q 13.671875 37.703125 13.234375 30.90625 
z
" id="ArialMT-101"/>
       <path d="M 6.59375 -19.875 
L 6.59375 51.859375 
L 14.59375 51.859375 
L 14.59375 45.125 
Q 17.4375 49.078125 21 51.046875 
Q 24.5625 53.03125 29.640625 53.03125 
Q 36.28125 53.03125 41.359375 49.609375 
Q 46.4375 46.1875 49.015625 39.953125 
Q 51.609375 33.734375 51.609375 26.3125 
Q 51.609375 18.359375 48.75 11.984375 
Q 45.90625 5.609375 40.453125 2.21875 
Q 35.015625 -1.171875 29 -1.171875 
Q 24.609375 -1.171875 21.109375 0.6875 
Q 17.625 2.546875 15.375 5.375 
L 15.375 -19.875 
z
M 14.546875 25.640625 
Q 14.546875 15.625 18.59375 10.84375 
Q 22.65625 6.0625 28.421875 6.0625 
Q 34.28125 6.0625 38.453125 11.015625 
Q 42.625 15.96875 42.625 26.375 
Q 42.625 36.28125 38.546875 41.203125 
Q 34.46875 46.140625 28.8125 46.140625 
Q 23.1875 46.140625 18.859375 40.890625 
Q 14.546875 35.640625 14.546875 25.640625 
z
" id="ArialMT-112"/>
      </defs>
      <use xlink:href="#ArialMT-115"/>
      <use x="50" xlink:href="#ArialMT-116"/>
      <use x="77.783203" xlink:href="#ArialMT-101"/>
      <use x="133.398438" xlink:href="#ArialMT-112"/>
      <use x="189.013672" xlink:href="#ArialMT-115"/>
     </g>
    </g>
   </g>
   <g id="matplotlib.axis_2">
    <g id="ytick_1">
     <g id="text_10">
      <!-- $\mathdefault{10^{0}}$ -->
      <g style="fill:#262626;" transform="translate(27.23 135.64242)scale(0.11 -0.11)">
       <use transform="translate(0 0.99375)" xlink:href="#ArialMT-49"/>
       <use transform="translate(55.615234 0.99375)" xlink:href="#ArialMT-48"/>
       <use transform="translate(112.972813 70.6875)scale(0.7)" xlink:href="#ArialMT-48"/>
      </g>
     </g>
    </g>
    <g id="ytick_2"/>
    <g id="ytick_3"/>
    <g id="ytick_4"/>
    <g id="ytick_5"/>
    <g id="ytick_6"/>
    <g id="ytick_7"/>
    <g id="ytick_8"/>
    <g id="ytick_9"/>
    <g id="text_11">
     <!-- loss -->
     <g style="fill:#262626;" transform="translate(20.845 153.949688)rotate(-90)scale(0.12 -0.12)">
      <defs>
       <path d="M 6.390625 0 
L 6.390625 71.578125 
L 15.1875 71.578125 
L 15.1875 0 
z
" id="ArialMT-108"/>
       <path d="M 3.328125 25.921875 
Q 3.328125 40.328125 11.328125 47.265625 
Q 18.015625 53.03125 27.640625 53.03125 
Q 38.328125 53.03125 45.109375 46.015625 
Q 51.90625 39.015625 51.90625 26.65625 
Q 51.90625 16.65625 48.90625 10.90625 
Q 45.90625 5.171875 40.15625 2 
Q 34.421875 -1.171875 27.640625 -1.171875 
Q 16.75 -1.171875 10.03125 5.8125 
Q 3.328125 12.796875 3.328125 25.921875 
z
M 12.359375 25.921875 
Q 12.359375 15.96875 16.703125 11.015625 
Q 21.046875 6.0625 27.640625 6.0625 
Q 34.1875 6.0625 38.53125 11.03125 
Q 42.875 16.015625 42.875 26.21875 
Q 42.875 35.84375 38.5 40.796875 
Q 34.125 45.75 27.640625 45.75 
Q 21.046875 45.75 16.703125 40.8125 
Q 12.359375 35.890625 12.359375 25.921875 
z
" id="ArialMT-111"/>
      </defs>
      <use xlink:href="#ArialMT-108"/>
      <use x="22.216797" xlink:href="#ArialMT-111"/>
      <use x="77.832031" xlink:href="#ArialMT-115"/>
      <use x="127.832031" xlink:href="#ArialMT-115"/>
     </g>
    </g>
   </g>
   <g id="PolyCollection_1">
    <defs>
     <path d="M 54 -236.615198 
L 54 -236.306858 
L 55.682412 -235.14582 
L 57.364824 -234.359593 
L 59.047236 -233.916395 
L 60.729648 -233.340676 
L 62.41206 -233.028475 
L 64.094472 -232.545708 
L 65.776884 -232.290289 
L 67.459296 -231.763592 
L 69.141709 -231.30345 
L 70.824121 -230.952697 
L 72.506533 -230.430508 
L 74.188945 -229.915109 
L 75.871357 -229.144631 
L 77.553769 -228.420358 
L 79.236181 -227.783037 
L 80.918593 -227.235307 
L 82.601005 -226.4018 
L 84.283417 -225.655358 
L 85.965829 -224.563723 
L 87.648241 -223.627707 
L 89.330653 -222.844639 
L 91.013065 -221.775538 
L 92.695477 -220.928496 
L 94.377889 -219.507614 
L 96.060302 -218.556808 
L 97.742714 -217.359856 
L 99.425126 -216.075365 
L 101.107538 -215.127428 
L 102.78995 -213.796558 
L 104.472362 -212.088917 
L 106.154774 -211.09254 
L 107.837186 -210.130296 
L 109.519598 -208.766507 
L 111.20201 -207.211159 
L 112.884422 -205.543615 
L 114.566834 -204.434091 
L 116.249246 -202.905376 
L 117.931658 -201.461585 
L 119.61407 -199.744879 
L 121.296482 -198.339588 
L 122.978894 -197.230517 
L 124.661307 -195.657624 
L 126.343719 -194.100463 
L 128.026131 -192.795477 
L 129.708543 -191.545971 
L 131.390955 -189.998532 
L 133.073367 -188.520867 
L 134.755779 -187.796644 
L 136.438191 -186.198153 
L 138.120603 -184.808814 
L 139.803015 -182.761888 
L 141.485427 -181.536159 
L 143.167839 -179.992231 
L 144.850251 -179.045657 
L 146.532663 -177.071772 
L 148.215075 -176.15492 
L 149.897487 -174.713084 
L 151.579899 -173.227541 
L 153.262312 -171.967352 
L 154.944724 -170.142708 
L 156.627136 -169.423769 
L 158.309548 -167.719493 
L 159.99196 -167.465395 
L 161.674372 -165.436969 
L 163.356784 -164.067219 
L 165.039196 -163.463648 
L 166.721608 -161.027098 
L 168.40402 -160.634298 
L 170.086432 -159.512643 
L 171.768844 -158.364026 
L 173.451256 -157.327272 
L 175.133668 -155.371462 
L 176.81608 -154.579966 
L 178.498492 -153.16044 
L 180.180905 -151.844765 
L 181.863317 -150.826029 
L 183.545729 -149.834195 
L 185.228141 -148.533193 
L 186.910553 -148.584171 
L 188.592965 -147.797482 
L 190.275377 -144.969431 
L 191.957789 -145.315663 
L 193.640201 -143.196179 
L 195.322613 -141.594913 
L 197.005025 -140.673077 
L 198.687437 -140.433359 
L 200.369849 -140.512047 
L 202.052261 -138.558109 
L 203.734673 -138.087572 
L 205.417085 -135.714215 
L 207.099497 -135.413057 
L 208.78191 -134.681571 
L 210.464322 -134.010401 
L 212.146734 -133.783019 
L 213.829146 -132.836395 
L 215.511558 -130.673835 
L 217.19397 -130.746385 
L 218.876382 -130.794717 
L 220.558794 -128.319482 
L 222.241206 -127.837691 
L 223.923618 -125.735812 
L 225.60603 -125.767722 
L 227.288442 -124.985454 
L 228.970854 -124.951762 
L 230.653266 -123.542026 
L 232.335678 -123.572665 
L 234.01809 -123.590029 
L 235.700503 -120.764169 
L 237.382915 -119.712576 
L 239.065327 -118.93802 
L 240.747739 -117.498754 
L 242.430151 -116.430741 
L 244.112563 -117.432219 
L 245.794975 -115.346783 
L 247.477387 -116.752266 
L 249.159799 -113.61102 
L 250.842211 -111.835018 
L 252.524623 -112.728892 
L 254.207035 -114.360948 
L 255.889447 -112.505871 
L 257.571859 -113.388001 
L 259.254271 -111.244869 
L 260.936683 -110.364404 
L 262.619095 -110.054096 
L 264.301508 -108.8198 
L 265.98392 -106.380707 
L 267.666332 -106.59748 
L 269.348744 -106.820614 
L 271.031156 -109.699137 
L 272.713568 -105.561284 
L 274.39598 -103.151913 
L 276.078392 -105.659965 
L 277.760804 -104.850531 
L 279.443216 -103.448987 
L 281.125628 -103.269778 
L 282.80804 -101.351628 
L 284.490452 -101.007251 
L 286.172864 -98.684649 
L 287.855276 -99.434464 
L 289.537688 -100.298952 
L 291.220101 -99.020403 
L 292.902513 -98.885663 
L 294.584925 -98.748396 
L 296.267337 -97.978617 
L 297.949749 -97.099777 
L 299.632161 -95.491701 
L 301.314573 -97.217195 
L 302.996985 -94.650601 
L 304.679397 -92.862739 
L 306.361809 -94.237007 
L 308.044221 -95.013414 
L 309.726633 -94.250129 
L 311.409045 -93.077784 
L 313.091457 -91.525105 
L 314.773869 -91.372763 
L 316.456281 -93.655486 
L 318.138693 -90.944125 
L 319.821106 -91.056696 
L 321.503518 -88.302051 
L 323.18593 -90.713365 
L 324.868342 -91.327018 
L 326.550754 -87.711453 
L 328.233166 -86.790255 
L 329.915578 -88.981224 
L 331.59799 -87.279246 
L 333.280402 -87.110255 
L 334.962814 -89.144095 
L 336.645226 -84.6505 
L 338.327638 -86.879176 
L 340.01005 -83.66447 
L 341.692462 -83.100822 
L 343.374874 -85.553608 
L 345.057286 -84.124578 
L 346.739698 -84.304665 
L 348.422111 -85.168242 
L 350.104523 -82.748644 
L 351.786935 -83.12404 
L 353.469347 -82.4282 
L 355.151759 -81.966915 
L 356.834171 -79.864292 
L 358.516583 -81.104259 
L 360.198995 -78.559673 
L 361.881407 -82.747238 
L 363.563819 -82.006882 
L 365.246231 -77.075619 
L 366.928643 -77.523417 
L 368.611055 -79.465084 
L 370.293467 -79.597986 
L 371.975879 -76.297773 
L 373.658291 -77.414203 
L 375.340704 -76.174733 
L 377.023116 -80.980458 
L 378.705528 -79.442537 
L 380.38794 -75.878895 
L 382.070352 -77.195585 
L 383.752764 -77.615859 
L 385.435176 -76.367288 
L 387.117588 -78.317011 
L 388.8 -74.407813 
L 388.8 -77.96931 
L 388.8 -77.96931 
L 387.117588 -81.749795 
L 385.435176 -80.08505 
L 383.752764 -80.642217 
L 382.070352 -80.413822 
L 380.38794 -79.096363 
L 378.705528 -82.600719 
L 377.023116 -84.260747 
L 375.340704 -79.546131 
L 373.658291 -80.4587 
L 371.975879 -79.921037 
L 370.293467 -82.660179 
L 368.611055 -82.774958 
L 366.928643 -80.759115 
L 365.246231 -79.842247 
L 363.563819 -84.917263 
L 361.881407 -86.125109 
L 360.198995 -81.641829 
L 358.516583 -83.899655 
L 356.834171 -83.436951 
L 355.151759 -85.11098 
L 353.469347 -85.774801 
L 351.786935 -86.052598 
L 350.104523 -85.858541 
L 348.422111 -88.179366 
L 346.739698 -87.310509 
L 345.057286 -86.803334 
L 343.374874 -88.346699 
L 341.692462 -86.233198 
L 340.01005 -86.69467 
L 338.327638 -89.821763 
L 336.645226 -87.885675 
L 334.962814 -92.171798 
L 333.280402 -90.29117 
L 331.59799 -90.120235 
L 329.915578 -92.15892 
L 328.233166 -89.508316 
L 326.550754 -90.71433 
L 324.868342 -93.960594 
L 323.18593 -93.719127 
L 321.503518 -91.343294 
L 319.821106 -93.807161 
L 318.138693 -93.874914 
L 316.456281 -96.504244 
L 314.773869 -94.316841 
L 313.091457 -94.453192 
L 311.409045 -96.073596 
L 309.726633 -96.782889 
L 308.044221 -97.922714 
L 306.361809 -96.793782 
L 304.679397 -95.965422 
L 302.996985 -97.310728 
L 301.314573 -99.774885 
L 299.632161 -98.30534 
L 297.949749 -99.851677 
L 296.267337 -100.705271 
L 294.584925 -101.625567 
L 292.902513 -101.687677 
L 291.220101 -101.93002 
L 289.537688 -103.315706 
L 287.855276 -102.238457 
L 286.172864 -101.473159 
L 284.490452 -103.744933 
L 282.80804 -104.090897 
L 281.125628 -106.01865 
L 279.443216 -106.400358 
L 277.760804 -107.614351 
L 276.078392 -108.217332 
L 274.39598 -105.721736 
L 272.713568 -108.070458 
L 271.031156 -111.938697 
L 269.348744 -109.583574 
L 267.666332 -109.143873 
L 265.98392 -108.626486 
L 264.301508 -111.201188 
L 262.619095 -112.926919 
L 260.936683 -112.879439 
L 259.254271 -113.582786 
L 257.571859 -116.041237 
L 255.889447 -115.348589 
L 254.207035 -116.711891 
L 252.524623 -114.987491 
L 250.842211 -114.331868 
L 249.159799 -116.011642 
L 247.477387 -119.026679 
L 245.794975 -117.518146 
L 244.112563 -119.696476 
L 242.430151 -118.890509 
L 240.747739 -119.845295 
L 239.065327 -121.450277 
L 237.382915 -121.970934 
L 235.700503 -123.120546 
L 234.01809 -125.865745 
L 232.335678 -125.684246 
L 230.653266 -125.892814 
L 228.970854 -127.092956 
L 227.288442 -127.489611 
L 225.60603 -127.90009 
L 223.923618 -128.002999 
L 222.241206 -129.946929 
L 220.558794 -130.545978 
L 218.876382 -133.015749 
L 217.19397 -132.693628 
L 215.511558 -132.750337 
L 213.829146 -134.93561 
L 212.146734 -135.646748 
L 210.464322 -136.049412 
L 208.78191 -136.477391 
L 207.099497 -137.269508 
L 205.417085 -137.684678 
L 203.734673 -140.025299 
L 202.052261 -140.349326 
L 200.369849 -142.277164 
L 198.687437 -142.318163 
L 197.005025 -142.517509 
L 195.322613 -143.346387 
L 193.640201 -144.95552 
L 191.957789 -146.962968 
L 190.275377 -146.841984 
L 188.592965 -149.336283 
L 186.910553 -150.307262 
L 185.228141 -150.162861 
L 183.545729 -151.528362 
L 181.863317 -152.470876 
L 180.180905 -153.510439 
L 178.498492 -154.628268 
L 176.81608 -156.295683 
L 175.133668 -156.778549 
L 173.451256 -158.77689 
L 171.768844 -159.885034 
L 170.086432 -160.983387 
L 168.40402 -162.195094 
L 166.721608 -162.314466 
L 165.039196 -164.913311 
L 163.356784 -165.332893 
L 161.674372 -166.780653 
L 159.99196 -168.79627 
L 158.309548 -169.159349 
L 156.627136 -170.63396 
L 154.944724 -171.339656 
L 153.262312 -173.112782 
L 151.579899 -174.271893 
L 149.897487 -175.946335 
L 148.215075 -177.453118 
L 146.532663 -178.211655 
L 144.850251 -180.102599 
L 143.167839 -181.057793 
L 141.485427 -182.493138 
L 139.803015 -183.696637 
L 138.120603 -185.692586 
L 136.438191 -186.943353 
L 134.755779 -188.676565 
L 133.073367 -189.518352 
L 131.390955 -190.931828 
L 129.708543 -192.432399 
L 128.026131 -193.538473 
L 126.343719 -194.931268 
L 124.661307 -196.448035 
L 122.978894 -198.009539 
L 121.296482 -199.151223 
L 119.61407 -200.534072 
L 117.931658 -202.186626 
L 116.249246 -203.593542 
L 114.566834 -205.044646 
L 112.884422 -206.21771 
L 111.20201 -207.74382 
L 109.519598 -209.403746 
L 107.837186 -210.715704 
L 106.154774 -211.691335 
L 104.472362 -212.672733 
L 102.78995 -214.334917 
L 101.107538 -215.6812 
L 99.425126 -216.607309 
L 97.742714 -217.848584 
L 96.060302 -218.996438 
L 94.377889 -219.956983 
L 92.695477 -221.371115 
L 91.013065 -222.198021 
L 89.330653 -223.258281 
L 87.648241 -224.000564 
L 85.965829 -224.935968 
L 84.283417 -226.000386 
L 82.601005 -226.744843 
L 80.918593 -227.537417 
L 79.236181 -228.046026 
L 77.553769 -228.662757 
L 75.871357 -229.39111 
L 74.188945 -230.150712 
L 72.506533 -230.625687 
L 70.824121 -231.150042 
L 69.141709 -231.493913 
L 67.459296 -231.921088 
L 65.776884 -232.45479 
L 64.094472 -232.680635 
L 62.41206 -233.15574 
L 60.729648 -233.480141 
L 59.047236 -234.071659 
L 57.364824 -234.528443 
L 55.682412 -235.347407 
L 54 -236.615198 
z
" id="mc007fd9348" style="stroke:#ffffff;stroke-opacity:0.2;"/>
    </defs>
    <g clip-path="url(#p3e418a051e)">
     <use style="fill:#ea4c4e;fill-opacity:0.2;stroke:#ffffff;stroke-opacity:0.2;" x="0" xlink:href="#mc007fd9348" y="288"/>
    </g>
   </g>
   <g id="PolyCollection_2">
    <defs>
     <path d="M 54 -236.128607 
L 54 -235.895407 
L 55.682412 -235.054628 
L 57.364824 -233.766343 
L 59.047236 -232.810174 
L 60.729648 -231.577238 
L 62.41206 -230.837075 
L 64.094472 -229.815723 
L 65.776884 -228.814407 
L 67.459296 -227.896594 
L 69.141709 -226.927369 
L 70.824121 -225.9655 
L 72.506533 -224.897763 
L 74.188945 -223.642703 
L 75.871357 -222.585245 
L 77.553769 -221.571281 
L 79.236181 -220.822425 
L 80.918593 -219.760661 
L 82.601005 -218.464207 
L 84.283417 -217.407493 
L 85.965829 -216.442705 
L 87.648241 -215.376792 
L 89.330653 -214.69254 
L 91.013065 -213.648466 
L 92.695477 -212.428725 
L 94.377889 -211.436362 
L 96.060302 -210.770803 
L 97.742714 -209.583209 
L 99.425126 -209.027213 
L 101.107538 -207.775466 
L 102.78995 -206.97018 
L 104.472362 -206.025675 
L 106.154774 -205.06067 
L 107.837186 -204.072232 
L 109.519598 -203.195436 
L 111.20201 -202.637577 
L 112.884422 -201.383633 
L 114.566834 -200.388396 
L 116.249246 -200.150681 
L 117.931658 -199.234158 
L 119.61407 -198.215828 
L 121.296482 -197.678023 
L 122.978894 -197.033115 
L 124.661307 -196.142078 
L 126.343719 -195.414274 
L 128.026131 -194.759929 
L 129.708543 -193.947311 
L 131.390955 -193.159482 
L 133.073367 -192.666022 
L 134.755779 -191.937758 
L 136.438191 -191.248026 
L 138.120603 -190.417259 
L 139.803015 -189.734797 
L 141.485427 -188.463153 
L 143.167839 -188.482048 
L 144.850251 -187.926583 
L 146.532663 -187.072198 
L 148.215075 -186.214882 
L 149.897487 -185.721415 
L 151.579899 -185.660577 
L 153.262312 -184.439744 
L 154.944724 -184.112217 
L 156.627136 -183.359932 
L 158.309548 -182.657881 
L 159.99196 -182.076669 
L 161.674372 -181.552352 
L 163.356784 -180.439204 
L 165.039196 -180.186822 
L 166.721608 -179.712166 
L 168.40402 -178.804683 
L 170.086432 -178.065002 
L 171.768844 -178.062346 
L 173.451256 -177.675348 
L 175.133668 -176.285326 
L 176.81608 -176.244286 
L 178.498492 -175.846469 
L 180.180905 -174.838127 
L 181.863317 -174.343292 
L 183.545729 -173.909885 
L 185.228141 -173.693302 
L 186.910553 -172.628046 
L 188.592965 -171.892926 
L 190.275377 -171.54821 
L 191.957789 -171.094707 
L 193.640201 -170.852806 
L 195.322613 -169.390123 
L 197.005025 -168.562076 
L 198.687437 -169.091078 
L 200.369849 -168.18765 
L 202.052261 -167.554688 
L 203.734673 -167.825756 
L 205.417085 -166.965358 
L 207.099497 -166.954547 
L 208.78191 -165.886505 
L 210.464322 -165.765925 
L 212.146734 -165.273175 
L 213.829146 -164.170213 
L 215.511558 -163.935226 
L 217.19397 -164.511629 
L 218.876382 -163.369794 
L 220.558794 -162.833394 
L 222.241206 -161.286353 
L 223.923618 -162.142702 
L 225.60603 -161.156308 
L 227.288442 -160.83235 
L 228.970854 -160.818954 
L 230.653266 -160.859166 
L 232.335678 -158.283193 
L 234.01809 -158.784787 
L 235.700503 -158.715659 
L 237.382915 -158.570646 
L 239.065327 -157.085995 
L 240.747739 -156.895645 
L 242.430151 -157.145728 
L 244.112563 -156.499282 
L 245.794975 -156.339529 
L 247.477387 -155.107985 
L 249.159799 -154.495458 
L 250.842211 -154.752491 
L 252.524623 -154.788809 
L 254.207035 -152.889327 
L 255.889447 -153.035995 
L 257.571859 -152.094683 
L 259.254271 -152.833043 
L 260.936683 -151.949317 
L 262.619095 -151.222386 
L 264.301508 -151.865745 
L 265.98392 -151.722989 
L 267.666332 -150.286185 
L 269.348744 -150.334843 
L 271.031156 -149.282245 
L 272.713568 -150.121692 
L 274.39598 -148.446628 
L 276.078392 -148.548325 
L 277.760804 -148.964257 
L 279.443216 -148.104078 
L 281.125628 -146.487501 
L 282.80804 -147.025717 
L 284.490452 -146.008269 
L 286.172864 -147.043371 
L 287.855276 -145.406252 
L 289.537688 -145.284599 
L 291.220101 -145.631437 
L 292.902513 -144.845271 
L 294.584925 -144.288197 
L 296.267337 -143.424414 
L 297.949749 -144.082228 
L 299.632161 -142.971764 
L 301.314573 -143.644697 
L 302.996985 -141.701482 
L 304.679397 -141.911235 
L 306.361809 -141.69226 
L 308.044221 -142.190075 
L 309.726633 -141.169447 
L 311.409045 -141.118251 
L 313.091457 -140.50315 
L 314.773869 -140.444098 
L 316.456281 -139.555687 
L 318.138693 -139.141771 
L 319.821106 -138.466206 
L 321.503518 -138.12712 
L 323.18593 -138.663408 
L 324.868342 -137.345428 
L 326.550754 -137.587103 
L 328.233166 -137.137673 
L 329.915578 -136.945027 
L 331.59799 -135.34925 
L 333.280402 -136.260153 
L 334.962814 -135.638955 
L 336.645226 -136.185066 
L 338.327638 -135.04225 
L 340.01005 -134.847821 
L 341.692462 -134.922588 
L 343.374874 -132.891638 
L 345.057286 -134.747589 
L 346.739698 -133.172135 
L 348.422111 -132.737481 
L 350.104523 -133.021828 
L 351.786935 -133.601928 
L 353.469347 -131.701958 
L 355.151759 -132.219979 
L 356.834171 -131.438434 
L 358.516583 -130.509478 
L 360.198995 -129.677722 
L 361.881407 -130.06417 
L 363.563819 -129.889279 
L 365.246231 -129.272401 
L 366.928643 -129.506347 
L 368.611055 -128.658489 
L 370.293467 -128.865677 
L 371.975879 -128.67162 
L 373.658291 -127.76171 
L 375.340704 -127.895212 
L 377.023116 -127.144535 
L 378.705528 -128.252794 
L 380.38794 -127.641098 
L 382.070352 -127.460376 
L 383.752764 -126.483299 
L 385.435176 -126.79572 
L 387.117588 -125.787124 
L 388.8 -125.202776 
L 388.8 -127.21727 
L 388.8 -127.21727 
L 387.117588 -127.729699 
L 385.435176 -128.610987 
L 383.752764 -128.385986 
L 382.070352 -129.270314 
L 380.38794 -129.746122 
L 378.705528 -130.113078 
L 377.023116 -129.098476 
L 375.340704 -129.754364 
L 373.658291 -129.618925 
L 371.975879 -130.536034 
L 370.293467 -130.636015 
L 368.611055 -130.522201 
L 366.928643 -131.498303 
L 365.246231 -131.09478 
L 363.563819 -131.821009 
L 361.881407 -131.887785 
L 360.198995 -131.55774 
L 358.516583 -132.163623 
L 356.834171 -133.212164 
L 355.151759 -133.983723 
L 353.469347 -133.409895 
L 351.786935 -135.430849 
L 350.104523 -134.858028 
L 348.422111 -134.536395 
L 346.739698 -134.817921 
L 345.057286 -136.494011 
L 343.374874 -134.68116 
L 341.692462 -136.465874 
L 340.01005 -136.583308 
L 338.327638 -136.96451 
L 336.645226 -137.946861 
L 334.962814 -137.354804 
L 333.280402 -138.125147 
L 331.59799 -137.051974 
L 329.915578 -138.603238 
L 328.233166 -138.676922 
L 326.550754 -139.244062 
L 324.868342 -139.083432 
L 323.18593 -140.501161 
L 321.503518 -139.81095 
L 319.821106 -140.133142 
L 318.138693 -140.864517 
L 316.456281 -141.23916 
L 314.773869 -142.066144 
L 313.091457 -142.136874 
L 311.409045 -142.811442 
L 309.726633 -142.719349 
L 308.044221 -143.89758 
L 306.361809 -143.451803 
L 304.679397 -143.448554 
L 302.996985 -143.241926 
L 301.314573 -145.368915 
L 299.632161 -144.453404 
L 297.949749 -145.494661 
L 296.267337 -145.170954 
L 294.584925 -145.735729 
L 292.902513 -146.486736 
L 291.220101 -147.142621 
L 289.537688 -146.80721 
L 287.855276 -146.899408 
L 286.172864 -148.660628 
L 284.490452 -147.575874 
L 282.80804 -148.494405 
L 281.125628 -147.993176 
L 279.443216 -149.570228 
L 277.760804 -150.462748 
L 276.078392 -150.156601 
L 274.39598 -149.985806 
L 272.713568 -151.607368 
L 271.031156 -150.720819 
L 269.348744 -151.929776 
L 267.666332 -151.701486 
L 265.98392 -153.197234 
L 264.301508 -153.262439 
L 262.619095 -152.632394 
L 260.936683 -153.416416 
L 259.254271 -154.285097 
L 257.571859 -153.532471 
L 255.889447 -154.530461 
L 254.207035 -154.260844 
L 252.524623 -156.162967 
L 250.842211 -156.077697 
L 249.159799 -156.086256 
L 247.477387 -156.456127 
L 245.794975 -157.704605 
L 244.112563 -157.877586 
L 242.430151 -158.499286 
L 240.747739 -158.115178 
L 239.065327 -158.549337 
L 237.382915 -159.852687 
L 235.700503 -159.869241 
L 234.01809 -160.194111 
L 232.335678 -159.54642 
L 230.653266 -162.086306 
L 228.970854 -162.08828 
L 227.288442 -162.203267 
L 225.60603 -162.379575 
L 223.923618 -163.285609 
L 222.241206 -162.539467 
L 220.558794 -164.034114 
L 218.876382 -164.710916 
L 217.19397 -165.56213 
L 215.511558 -165.095379 
L 213.829146 -165.417296 
L 212.146734 -166.421141 
L 210.464322 -166.977724 
L 208.78191 -166.904214 
L 207.099497 -168.127615 
L 205.417085 -168.015393 
L 203.734673 -168.97136 
L 202.052261 -168.633379 
L 200.369849 -169.210791 
L 198.687437 -170.179464 
L 197.005025 -169.72391 
L 195.322613 -170.41184 
L 193.640201 -171.930837 
L 191.957789 -172.184713 
L 190.275377 -172.534149 
L 188.592965 -172.939057 
L 186.910553 -173.654761 
L 185.228141 -174.613298 
L 183.545729 -174.902436 
L 181.863317 -175.468296 
L 180.180905 -175.79824 
L 178.498492 -176.780288 
L 176.81608 -177.192168 
L 175.133668 -177.133293 
L 173.451256 -178.615777 
L 171.768844 -178.917959 
L 170.086432 -179.051646 
L 168.40402 -179.691546 
L 166.721608 -180.572942 
L 165.039196 -181.120957 
L 163.356784 -181.380425 
L 161.674372 -182.448436 
L 159.99196 -182.973788 
L 158.309548 -183.502579 
L 156.627136 -184.16498 
L 154.944724 -184.926487 
L 153.262312 -185.283469 
L 151.579899 -186.432454 
L 149.897487 -186.539934 
L 148.215075 -186.967267 
L 146.532663 -187.783303 
L 144.850251 -188.725492 
L 143.167839 -189.339725 
L 141.485427 -189.248106 
L 139.803015 -190.557916 
L 138.120603 -191.131727 
L 136.438191 -191.934593 
L 134.755779 -192.6602 
L 133.073367 -193.258137 
L 131.390955 -193.932004 
L 129.708543 -194.699233 
L 128.026131 -195.443401 
L 126.343719 -196.086238 
L 124.661307 -196.800338 
L 122.978894 -197.709783 
L 121.296482 -198.345352 
L 119.61407 -198.931967 
L 117.931658 -199.852941 
L 116.249246 -200.745799 
L 114.566834 -201.090394 
L 112.884422 -202.063202 
L 111.20201 -203.274914 
L 109.519598 -203.819626 
L 107.837186 -204.701285 
L 106.154774 -205.634724 
L 104.472362 -206.661584 
L 102.78995 -207.543908 
L 101.107538 -208.341378 
L 99.425126 -209.547133 
L 97.742714 -210.150228 
L 96.060302 -211.306687 
L 94.377889 -211.892683 
L 92.695477 -212.921543 
L 91.013065 -214.165637 
L 89.330653 -215.208819 
L 87.648241 -215.834894 
L 85.965829 -216.899595 
L 84.283417 -217.837501 
L 82.601005 -218.893525 
L 80.918593 -220.148514 
L 79.236181 -221.218555 
L 77.553769 -221.943853 
L 75.871357 -222.904688 
L 74.188945 -224.010047 
L 72.506533 -225.201359 
L 70.824121 -226.273889 
L 69.141709 -227.213347 
L 67.459296 -228.156924 
L 65.776884 -229.041527 
L 64.094472 -229.985816 
L 62.41206 -231.011949 
L 60.729648 -231.726264 
L 59.047236 -232.962418 
L 57.364824 -233.946462 
L 55.682412 -235.3121 
L 54 -236.128607 
z
" id="mb36e18ffe2" style="stroke:#ffffff;stroke-opacity:0.2;"/>
    </defs>
    <g clip-path="url(#p3e418a051e)">
     <use style="fill:#377eb8;fill-opacity:0.2;stroke:#ffffff;stroke-opacity:0.2;" x="0" xlink:href="#mb36e18ffe2" y="288"/>
    </g>
   </g>
   <g id="PolyCollection_3">
    <defs>
     <path d="M 54 -236.421655 
L 54 -236.128713 
L 55.682412 -236.168764 
L 57.364824 -235.951645 
L 59.047236 -235.943292 
L 60.729648 -235.667381 
L 62.41206 -235.611157 
L 64.094472 -235.339013 
L 65.776884 -234.981268 
L 67.459296 -234.854053 
L 69.141709 -234.710077 
L 70.824121 -234.543212 
L 72.506533 -234.497637 
L 74.188945 -234.472381 
L 75.871357 -234.445182 
L 77.553769 -234.443818 
L 79.236181 -234.338239 
L 80.918593 -234.454582 
L 82.601005 -234.367878 
L 84.283417 -234.413115 
L 85.965829 -234.446799 
L 87.648241 -234.421283 
L 89.330653 -234.483625 
L 91.013065 -234.468109 
L 92.695477 -234.505237 
L 94.377889 -234.455941 
L 96.060302 -234.44495 
L 97.742714 -234.452317 
L 99.425126 -234.397048 
L 101.107538 -234.338338 
L 102.78995 -234.422776 
L 104.472362 -234.370201 
L 106.154774 -234.358504 
L 107.837186 -234.360498 
L 109.519598 -234.343186 
L 111.20201 -234.329262 
L 112.884422 -234.276001 
L 114.566834 -234.324765 
L 116.249246 -234.295297 
L 117.931658 -234.370062 
L 119.61407 -234.383259 
L 121.296482 -234.24525 
L 122.978894 -234.282749 
L 124.661307 -234.310017 
L 126.343719 -234.330935 
L 128.026131 -234.276936 
L 129.708543 -234.229263 
L 131.390955 -234.285409 
L 133.073367 -234.20616 
L 134.755779 -234.302681 
L 136.438191 -234.232098 
L 138.120603 -234.219375 
L 139.803015 -234.160612 
L 141.485427 -234.178142 
L 143.167839 -234.207841 
L 144.850251 -234.20533 
L 146.532663 -234.209068 
L 148.215075 -234.230672 
L 149.897487 -234.1017 
L 151.579899 -234.167792 
L 153.262312 -234.115563 
L 154.944724 -234.192123 
L 156.627136 -234.173524 
L 158.309548 -234.131652 
L 159.99196 -234.228755 
L 161.674372 -234.110747 
L 163.356784 -234.142779 
L 165.039196 -234.115194 
L 166.721608 -234.131177 
L 168.40402 -234.113723 
L 170.086432 -234.085775 
L 171.768844 -234.116009 
L 173.451256 -234.121263 
L 175.133668 -234.11116 
L 176.81608 -234.038648 
L 178.498492 -234.045976 
L 180.180905 -234.012178 
L 181.863317 -234.025575 
L 183.545729 -234.062226 
L 185.228141 -234.020113 
L 186.910553 -234.01077 
L 188.592965 -234.013212 
L 190.275377 -233.998096 
L 191.957789 -234.024394 
L 193.640201 -234.003022 
L 195.322613 -233.918629 
L 197.005025 -233.983952 
L 198.687437 -233.973817 
L 200.369849 -233.984872 
L 202.052261 -233.896064 
L 203.734673 -233.969882 
L 205.417085 -233.88233 
L 207.099497 -234.013654 
L 208.78191 -233.966068 
L 210.464322 -233.909102 
L 212.146734 -233.876786 
L 213.829146 -233.863183 
L 215.511558 -233.879134 
L 217.19397 -233.843799 
L 218.876382 -233.829376 
L 220.558794 -233.848687 
L 222.241206 -233.841029 
L 223.923618 -233.812124 
L 225.60603 -233.789905 
L 227.288442 -233.810068 
L 228.970854 -233.81499 
L 230.653266 -233.772974 
L 232.335678 -233.770302 
L 234.01809 -233.749516 
L 235.700503 -233.750753 
L 237.382915 -233.769235 
L 239.065327 -233.731335 
L 240.747739 -233.66997 
L 242.430151 -233.706729 
L 244.112563 -233.686086 
L 245.794975 -233.666458 
L 247.477387 -233.670991 
L 249.159799 -233.580293 
L 250.842211 -233.659268 
L 252.524623 -233.55368 
L 254.207035 -233.579307 
L 255.889447 -233.517945 
L 257.571859 -233.657177 
L 259.254271 -233.5307 
L 260.936683 -233.642089 
L 262.619095 -233.442453 
L 264.301508 -233.492104 
L 265.98392 -233.445898 
L 267.666332 -233.606779 
L 269.348744 -233.436572 
L 271.031156 -233.386636 
L 272.713568 -233.516365 
L 274.39598 -233.408933 
L 276.078392 -233.393427 
L 277.760804 -233.422031 
L 279.443216 -233.336103 
L 281.125628 -233.344146 
L 282.80804 -233.26049 
L 284.490452 -233.292704 
L 286.172864 -233.274575 
L 287.855276 -233.255016 
L 289.537688 -233.250189 
L 291.220101 -233.193036 
L 292.902513 -233.198211 
L 294.584925 -233.165681 
L 296.267337 -233.256548 
L 297.949749 -233.11488 
L 299.632161 -233.083543 
L 301.314573 -233.073647 
L 302.996985 -233.080414 
L 304.679397 -233.076059 
L 306.361809 -232.974003 
L 308.044221 -233.033993 
L 309.726633 -233.076934 
L 311.409045 -232.952604 
L 313.091457 -232.909545 
L 314.773869 -232.833969 
L 316.456281 -232.901607 
L 318.138693 -232.82267 
L 319.821106 -232.817439 
L 321.503518 -232.816539 
L 323.18593 -232.755069 
L 324.868342 -232.696304 
L 326.550754 -232.713686 
L 328.233166 -232.679519 
L 329.915578 -232.64222 
L 331.59799 -232.570387 
L 333.280402 -232.597681 
L 334.962814 -232.607381 
L 336.645226 -232.508549 
L 338.327638 -232.52013 
L 340.01005 -232.494436 
L 341.692462 -232.317268 
L 343.374874 -232.31866 
L 345.057286 -232.313303 
L 346.739698 -232.221957 
L 348.422111 -232.294211 
L 350.104523 -232.160853 
L 351.786935 -232.126876 
L 353.469347 -232.142054 
L 355.151759 -232.032733 
L 356.834171 -231.985262 
L 358.516583 -231.996335 
L 360.198995 -231.913782 
L 361.881407 -231.861854 
L 363.563819 -231.830324 
L 365.246231 -231.83578 
L 366.928643 -231.684398 
L 368.611055 -231.688078 
L 370.293467 -231.684205 
L 371.975879 -231.54165 
L 373.658291 -231.597628 
L 375.340704 -231.399575 
L 377.023116 -231.408065 
L 378.705528 -231.271219 
L 380.38794 -231.286642 
L 382.070352 -231.185958 
L 383.752764 -231.198343 
L 385.435176 -231.062614 
L 387.117588 -231.043206 
L 388.8 -231.01785 
L 388.8 -231.259773 
L 388.8 -231.259773 
L 387.117588 -231.288649 
L 385.435176 -231.294894 
L 383.752764 -231.42092 
L 382.070352 -231.4278 
L 380.38794 -231.516988 
L 378.705528 -231.502694 
L 377.023116 -231.615268 
L 375.340704 -231.616085 
L 373.658291 -231.787228 
L 371.975879 -231.742449 
L 370.293467 -231.88713 
L 368.611055 -231.890558 
L 366.928643 -231.870069 
L 365.246231 -232.008336 
L 363.563819 -232.025765 
L 361.881407 -232.050726 
L 360.198995 -232.101893 
L 358.516583 -232.165071 
L 356.834171 -232.160619 
L 355.151759 -232.216162 
L 353.469347 -232.301734 
L 351.786935 -232.297104 
L 350.104523 -232.323447 
L 348.422111 -232.452391 
L 346.739698 -232.385061 
L 345.057286 -232.455332 
L 343.374874 -232.455657 
L 341.692462 -232.450545 
L 340.01005 -232.641101 
L 338.327638 -232.664127 
L 336.645226 -232.632811 
L 334.962814 -232.740022 
L 333.280402 -232.726068 
L 331.59799 -232.704486 
L 329.915578 -232.779302 
L 328.233166 -232.812583 
L 326.550754 -232.836419 
L 324.868342 -232.822677 
L 323.18593 -232.867871 
L 321.503518 -232.936028 
L 319.821106 -232.938965 
L 318.138693 -232.94493 
L 316.456281 -233.013741 
L 314.773869 -232.951439 
L 313.091457 -233.019775 
L 311.409045 -233.070439 
L 309.726633 -233.192801 
L 308.044221 -233.151266 
L 306.361809 -233.094016 
L 304.679397 -233.183613 
L 302.996985 -233.188289 
L 301.314573 -233.177381 
L 299.632161 -233.184555 
L 297.949749 -233.229253 
L 296.267337 -233.349555 
L 294.584925 -233.268223 
L 292.902513 -233.290461 
L 291.220101 -233.290455 
L 289.537688 -233.348875 
L 287.855276 -233.353058 
L 286.172864 -233.36939 
L 284.490452 -233.377279 
L 282.80804 -233.350334 
L 281.125628 -233.429793 
L 279.443216 -233.413003 
L 277.760804 -233.507804 
L 276.078392 -233.483598 
L 274.39598 -233.499567 
L 272.713568 -233.599699 
L 271.031156 -233.475897 
L 269.348744 -233.525537 
L 267.666332 -233.680978 
L 265.98392 -233.521196 
L 264.301508 -233.577431 
L 262.619095 -233.531508 
L 260.936683 -233.722443 
L 259.254271 -233.604807 
L 257.571859 -233.746643 
L 255.889447 -233.604101 
L 254.207035 -233.661906 
L 252.524623 -233.633923 
L 250.842211 -233.749671 
L 249.159799 -233.651971 
L 247.477387 -233.747926 
L 245.794975 -233.740433 
L 244.112563 -233.767798 
L 242.430151 -233.78736 
L 240.747739 -233.737554 
L 239.065327 -233.817615 
L 237.382915 -233.847735 
L 235.700503 -233.829138 
L 234.01809 -233.827868 
L 232.335678 -233.848577 
L 230.653266 -233.850343 
L 228.970854 -233.898999 
L 227.288442 -233.893968 
L 225.60603 -233.864376 
L 223.923618 -233.883904 
L 222.241206 -233.917548 
L 220.558794 -233.909554 
L 218.876382 -233.908814 
L 217.19397 -233.910338 
L 215.511558 -233.959856 
L 213.829146 -233.933528 
L 212.146734 -233.939743 
L 210.464322 -233.986748 
L 208.78191 -234.045093 
L 207.099497 -234.0956 
L 205.417085 -233.954195 
L 203.734673 -234.040244 
L 202.052261 -233.969375 
L 200.369849 -234.049005 
L 198.687437 -234.052956 
L 197.005025 -234.053366 
L 195.322613 -233.99424 
L 193.640201 -234.076068 
L 191.957789 -234.094944 
L 190.275377 -234.067548 
L 188.592965 -234.086252 
L 186.910553 -234.081074 
L 185.228141 -234.089619 
L 183.545729 -234.128248 
L 181.863317 -234.08621 
L 180.180905 -234.077835 
L 178.498492 -234.111393 
L 176.81608 -234.104226 
L 175.133668 -234.193513 
L 173.451256 -234.205418 
L 171.768844 -234.186381 
L 170.086432 -234.161277 
L 168.40402 -234.187235 
L 166.721608 -234.203942 
L 165.039196 -234.189677 
L 163.356784 -234.210905 
L 161.674372 -234.188605 
L 159.99196 -234.304381 
L 158.309548 -234.202951 
L 156.627136 -234.238513 
L 154.944724 -234.264631 
L 153.262312 -234.181057 
L 151.579899 -234.239187 
L 149.897487 -234.165853 
L 148.215075 -234.300971 
L 146.532663 -234.279287 
L 144.850251 -234.274237 
L 143.167839 -234.281941 
L 141.485427 -234.24057 
L 139.803015 -234.232689 
L 138.120603 -234.289256 
L 136.438191 -234.299702 
L 134.755779 -234.372896 
L 133.073367 -234.272675 
L 131.390955 -234.340536 
L 129.708543 -234.297849 
L 128.026131 -234.345674 
L 126.343719 -234.392125 
L 124.661307 -234.378539 
L 122.978894 -234.353865 
L 121.296482 -234.31975 
L 119.61407 -234.449511 
L 117.931658 -234.432068 
L 116.249246 -234.375461 
L 114.566834 -234.401305 
L 112.884422 -234.348113 
L 111.20201 -234.396819 
L 109.519598 -234.427189 
L 107.837186 -234.437447 
L 106.154774 -234.444711 
L 104.472362 -234.456662 
L 102.78995 -234.506612 
L 101.107538 -234.433704 
L 99.425126 -234.475644 
L 97.742714 -234.561542 
L 96.060302 -234.538255 
L 94.377889 -234.547932 
L 92.695477 -234.6015 
L 91.013065 -234.544963 
L 89.330653 -234.570238 
L 87.648241 -234.513955 
L 85.965829 -234.540215 
L 84.283417 -234.49322 
L 82.601005 -234.434084 
L 80.918593 -234.523367 
L 79.236181 -234.410978 
L 77.553769 -234.498853 
L 75.871357 -234.515628 
L 74.188945 -234.541694 
L 72.506533 -234.58159 
L 70.824121 -234.640517 
L 69.141709 -234.828372 
L 67.459296 -234.989768 
L 65.776884 -235.163319 
L 64.094472 -235.506928 
L 62.41206 -235.846746 
L 60.729648 -235.915405 
L 59.047236 -236.167397 
L 57.364824 -236.202933 
L 55.682412 -236.45585 
L 54 -236.421655 
z
" id="maebcbb6d01" style="stroke:#ffffff;stroke-opacity:0.2;"/>
    </defs>
    <g clip-path="url(#p3e418a051e)">
     <use style="fill:#4eae4b;fill-opacity:0.2;stroke:#ffffff;stroke-opacity:0.2;" x="0" xlink:href="#maebcbb6d01" y="288"/>
    </g>
   </g>
   <g id="PolyCollection_4">
    <defs>
     <path d="M 54 -236.436814 
L 54 -236.182595 
L 55.682412 -236.316731 
L 57.364824 -236.660444 
L 59.047236 -236.14194 
L 60.729648 -236.00575 
L 62.41206 -235.692577 
L 64.094472 -235.394517 
L 65.776884 -235.381979 
L 67.459296 -234.783936 
L 69.141709 -234.691779 
L 70.824121 -234.46251 
L 72.506533 -233.983485 
L 74.188945 -233.695744 
L 75.871357 -233.261564 
L 77.553769 -232.4941 
L 79.236181 -231.959189 
L 80.918593 -230.494799 
L 82.601005 -229.293612 
L 84.283417 -227.390141 
L 85.965829 -225.074162 
L 87.648241 -222.088477 
L 89.330653 -218.601091 
L 91.013065 -214.944758 
L 92.695477 -210.515795 
L 94.377889 -206.075177 
L 96.060302 -201.680881 
L 97.742714 -197.45745 
L 99.425126 -192.447739 
L 101.107538 -187.881803 
L 102.78995 -183.544291 
L 104.472362 -178.61975 
L 106.154774 -174.257122 
L 107.837186 -170.884445 
L 109.519598 -167.139175 
L 111.20201 -164.283989 
L 112.884422 -160.448187 
L 114.566834 -156.771372 
L 116.249246 -154.168997 
L 117.931658 -150.753012 
L 119.61407 -148.101136 
L 121.296482 -144.498288 
L 122.978894 -141.089321 
L 124.661307 -141.024482 
L 126.343719 -137.095012 
L 128.026131 -133.852118 
L 129.708543 -131.690279 
L 131.390955 -127.914383 
L 133.073367 -125.440834 
L 134.755779 -125.44688 
L 136.438191 -126.602998 
L 138.120603 -122.806831 
L 139.803015 -120.939467 
L 141.485427 -115.708948 
L 143.167839 -118.136811 
L 144.850251 -114.656777 
L 146.532663 -111.906953 
L 148.215075 -112.716698 
L 149.897487 -110.616549 
L 151.579899 -110.003932 
L 153.262312 -104.799458 
L 154.944724 -106.172718 
L 156.627136 -103.703817 
L 158.309548 -103.363357 
L 159.99196 -103.613159 
L 161.674372 -100.193467 
L 163.356784 -98.091665 
L 165.039196 -100.120253 
L 166.721608 -99.896813 
L 168.40402 -97.12055 
L 170.086432 -93.956439 
L 171.768844 -93.357308 
L 173.451256 -95.153146 
L 175.133668 -93.227608 
L 176.81608 -94.224294 
L 178.498492 -91.219073 
L 180.180905 -91.96508 
L 181.863317 -88.432397 
L 183.545729 -88.102435 
L 185.228141 -85.307173 
L 186.910553 -86.127022 
L 188.592965 -90.809324 
L 190.275377 -86.19892 
L 191.957789 -84.551346 
L 193.640201 -82.744695 
L 195.322613 -80.860899 
L 197.005025 -78.461465 
L 198.687437 -84.208432 
L 200.369849 -83.897743 
L 202.052261 -78.184797 
L 203.734673 -82.070488 
L 205.417085 -85.349832 
L 207.099497 -79.728035 
L 208.78191 -78.879242 
L 210.464322 -78.752897 
L 212.146734 -82.199127 
L 213.829146 -79.374706 
L 215.511558 -76.252581 
L 217.19397 -76.179135 
L 218.876382 -75.321442 
L 220.558794 -76.450923 
L 222.241206 -76.485645 
L 223.923618 -74.710636 
L 225.60603 -71.317294 
L 227.288442 -73.785261 
L 228.970854 -78.218465 
L 230.653266 -74.390652 
L 232.335678 -76.338157 
L 234.01809 -71.689616 
L 235.700503 -73.716309 
L 237.382915 -68.04671 
L 239.065327 -69.626974 
L 240.747739 -70.500722 
L 242.430151 -69.062227 
L 244.112563 -68.618147 
L 245.794975 -68.100377 
L 247.477387 -72.897472 
L 249.159799 -70.965187 
L 250.842211 -65.196058 
L 252.524623 -67.85168 
L 254.207035 -69.417047 
L 255.889447 -68.670629 
L 257.571859 -65.442266 
L 259.254271 -66.428377 
L 260.936683 -63.192506 
L 262.619095 -67.813107 
L 264.301508 -65.351686 
L 265.98392 -64.845476 
L 267.666332 -65.400871 
L 269.348744 -62.672342 
L 271.031156 -63.652976 
L 272.713568 -65.293129 
L 274.39598 -66.575594 
L 276.078392 -65.889434 
L 277.760804 -66.491082 
L 279.443216 -64.183094 
L 281.125628 -64.929335 
L 282.80804 -59.693081 
L 284.490452 -62.247221 
L 286.172864 -62.383005 
L 287.855276 -60.683361 
L 289.537688 -57.792583 
L 291.220101 -58.167467 
L 292.902513 -61.968671 
L 294.584925 -59.3161 
L 296.267337 -61.087464 
L 297.949749 -58.366965 
L 299.632161 -59.55636 
L 301.314573 -62.72211 
L 302.996985 -60.106777 
L 304.679397 -59.722152 
L 306.361809 -57.871936 
L 308.044221 -59.114995 
L 309.726633 -54.640031 
L 311.409045 -55.516617 
L 313.091457 -59.456011 
L 314.773869 -59.902731 
L 316.456281 -57.261689 
L 318.138693 -62.235681 
L 319.821106 -57.041205 
L 321.503518 -58.555134 
L 323.18593 -61.004785 
L 324.868342 -56.482796 
L 326.550754 -57.396331 
L 328.233166 -55.230481 
L 329.915578 -57.053863 
L 331.59799 -58.4866 
L 333.280402 -56.715938 
L 334.962814 -58.119428 
L 336.645226 -57.78349 
L 338.327638 -52.589405 
L 340.01005 -56.597775 
L 341.692462 -52.243218 
L 343.374874 -54.322207 
L 345.057286 -54.952337 
L 346.739698 -54.708898 
L 348.422111 -57.733874 
L 350.104523 -53.360713 
L 351.786935 -48.713857 
L 353.469347 -53.828838 
L 355.151759 -55.525282 
L 356.834171 -55.238697 
L 358.516583 -50.522514 
L 360.198995 -54.792712 
L 361.881407 -57.344487 
L 363.563819 -54.720806 
L 365.246231 -53.807695 
L 366.928643 -50.093279 
L 368.611055 -51.951151 
L 370.293467 -49.896924 
L 371.975879 -55.54233 
L 373.658291 -48.878813 
L 375.340704 -48.145975 
L 377.023116 -54.525505 
L 378.705528 -54.544159 
L 380.38794 -51.336355 
L 382.070352 -48.293464 
L 383.752764 -52.041811 
L 385.435176 -48.598604 
L 387.117588 -45.883636 
L 388.8 -50.555515 
L 388.8 -55.484868 
L 388.8 -55.484868 
L 387.117588 -51.000249 
L 385.435176 -52.755793 
L 383.752764 -56.643117 
L 382.070352 -52.565359 
L 380.38794 -55.860039 
L 378.705528 -59.231042 
L 377.023116 -58.373908 
L 375.340704 -52.735783 
L 373.658291 -53.781207 
L 371.975879 -59.502662 
L 370.293467 -54.843831 
L 368.611055 -56.791336 
L 366.928643 -55.035186 
L 365.246231 -59.005773 
L 363.563819 -59.238048 
L 361.881407 -62.325718 
L 360.198995 -58.77054 
L 358.516583 -55.608618 
L 356.834171 -59.847996 
L 355.151759 -60.23126 
L 353.469347 -57.946392 
L 351.786935 -53.735874 
L 350.104523 -58.380023 
L 348.422111 -62.307883 
L 346.739698 -59.317905 
L 345.057286 -60.23143 
L 343.374874 -59.166576 
L 341.692462 -57.211796 
L 340.01005 -61.530163 
L 338.327638 -57.248573 
L 336.645226 -62.573584 
L 334.962814 -61.795287 
L 333.280402 -60.575057 
L 331.59799 -63.405929 
L 329.915578 -61.842388 
L 328.233166 -60.28312 
L 326.550754 -62.329927 
L 324.868342 -60.639581 
L 323.18593 -65.619577 
L 321.503518 -63.023758 
L 319.821106 -61.791014 
L 318.138693 -66.281389 
L 316.456281 -61.827477 
L 314.773869 -64.17378 
L 313.091457 -63.733001 
L 311.409045 -60.735671 
L 309.726633 -59.051367 
L 308.044221 -63.877842 
L 306.361809 -62.578347 
L 304.679397 -63.784436 
L 302.996985 -64.465423 
L 301.314573 -66.498389 
L 299.632161 -64.136906 
L 297.949749 -62.667614 
L 296.267337 -65.250883 
L 294.584925 -63.66278 
L 292.902513 -66.326152 
L 291.220101 -62.419908 
L 289.537688 -62.678193 
L 287.855276 -64.846425 
L 286.172864 -66.903912 
L 284.490452 -66.747458 
L 282.80804 -63.644557 
L 281.125628 -69.439094 
L 279.443216 -68.780574 
L 277.760804 -70.79068 
L 276.078392 -70.445637 
L 274.39598 -70.671595 
L 272.713568 -69.58018 
L 271.031156 -68.474495 
L 269.348744 -66.912376 
L 267.666332 -69.295194 
L 265.98392 -69.00305 
L 264.301508 -69.801297 
L 262.619095 -71.705677 
L 260.936683 -67.785357 
L 259.254271 -70.554503 
L 257.571859 -69.668921 
L 255.889447 -73.280642 
L 254.207035 -73.753618 
L 252.524623 -72.118799 
L 250.842211 -69.313799 
L 249.159799 -75.451451 
L 247.477387 -77.323853 
L 245.794975 -71.829693 
L 244.112563 -72.742058 
L 242.430151 -72.827605 
L 240.747739 -74.250926 
L 239.065327 -73.642419 
L 237.382915 -72.825241 
L 235.700503 -77.79732 
L 234.01809 -75.838801 
L 232.335678 -80.691586 
L 230.653266 -78.257825 
L 228.970854 -82.484544 
L 227.288442 -78.060479 
L 225.60603 -75.437625 
L 223.923618 -78.378125 
L 222.241206 -80.205008 
L 220.558794 -80.016426 
L 218.876382 -79.213142 
L 217.19397 -80.306829 
L 215.511558 -79.461705 
L 213.829146 -83.238913 
L 212.146734 -86.365499 
L 210.464322 -82.613703 
L 208.78191 -82.407556 
L 207.099497 -84.065851 
L 205.417085 -89.09225 
L 203.734673 -86.072423 
L 202.052261 -82.28914 
L 200.369849 -87.830259 
L 198.687437 -88.283693 
L 197.005025 -82.582725 
L 195.322613 -84.857201 
L 193.640201 -86.993655 
L 191.957789 -88.76999 
L 190.275377 -89.90829 
L 188.592965 -94.891549 
L 186.910553 -89.828091 
L 185.228141 -89.279057 
L 183.545729 -91.806421 
L 181.863317 -91.856713 
L 180.180905 -95.405859 
L 178.498492 -94.985738 
L 176.81608 -97.938853 
L 175.133668 -97.061848 
L 173.451256 -98.854528 
L 171.768844 -97.262424 
L 170.086432 -97.418505 
L 168.40402 -101.028047 
L 166.721608 -103.812148 
L 165.039196 -103.824376 
L 163.356784 -101.320761 
L 161.674372 -103.30405 
L 159.99196 -107.098033 
L 158.309548 -106.38962 
L 156.627136 -107.366368 
L 154.944724 -109.453785 
L 153.262312 -108.092866 
L 151.579899 -113.321353 
L 149.897487 -114.048193 
L 148.215075 -115.855662 
L 146.532663 -115.061072 
L 144.850251 -117.63577 
L 143.167839 -120.927087 
L 141.485427 -118.575226 
L 139.803015 -124.034245 
L 138.120603 -125.530308 
L 136.438191 -129.348357 
L 134.755779 -128.142923 
L 133.073367 -128.212606 
L 131.390955 -130.792487 
L 129.708543 -134.29218 
L 128.026131 -136.669082 
L 126.343719 -139.893738 
L 124.661307 -143.697841 
L 122.978894 -143.410302 
L 121.296482 -146.745004 
L 119.61407 -150.449705 
L 117.931658 -153.075807 
L 116.249246 -156.647197 
L 114.566834 -158.93915 
L 112.884422 -162.743261 
L 111.20201 -166.442722 
L 109.519598 -169.368975 
L 107.837186 -172.928731 
L 106.154774 -176.233148 
L 104.472362 -180.564293 
L 102.78995 -185.527646 
L 101.107538 -189.703354 
L 99.425126 -194.088214 
L 97.742714 -199.203594 
L 96.060302 -203.18495 
L 94.377889 -207.445674 
L 92.695477 -211.744367 
L 91.013065 -216.08566 
L 89.330653 -219.631327 
L 87.648241 -222.940728 
L 85.965829 -225.74129 
L 84.283417 -227.968579 
L 82.601005 -229.712288 
L 80.918593 -230.82955 
L 79.236181 -232.25468 
L 77.553769 -232.751084 
L 75.871357 -233.473933 
L 74.188945 -233.900423 
L 72.506533 -234.188153 
L 70.824121 -234.710544 
L 69.141709 -234.900357 
L 67.459296 -235.031615 
L 65.776884 -235.623199 
L 64.094472 -235.614695 
L 62.41206 -235.962682 
L 60.729648 -236.334255 
L 59.047236 -236.450248 
L 57.364824 -236.996482 
L 55.682412 -236.614122 
L 54 -236.436814 
z
" id="m0b79db97c4" style="stroke:#ffffff;stroke-opacity:0.2;"/>
    </defs>
    <g clip-path="url(#p3e418a051e)">
     <use style="fill:#994fa1;fill-opacity:0.2;stroke:#ffffff;stroke-opacity:0.2;" x="0" xlink:href="#m0b79db97c4" y="288"/>
    </g>
   </g>
   <g id="PolyCollection_5">
    <defs>
     <path d="M 54 -236.421412 
L 54 -236.148533 
L 55.682412 -235.274873 
L 57.364824 -241.550572 
L 59.047236 -241.682578 
L 60.729648 -233.124886 
L 62.41206 -227.852608 
L 64.094472 -221.578662 
L 65.776884 -215.227179 
L 67.459296 -208.237122 
L 69.141709 -201.603135 
L 70.824121 -194.819671 
L 72.506533 -188.884048 
L 74.188945 -182.898022 
L 75.871357 -177.399243 
L 77.553769 -172.907246 
L 79.236181 -167.909274 
L 80.918593 -163.131443 
L 82.601005 -159.214592 
L 84.283417 -153.542895 
L 85.965829 -151.099346 
L 87.648241 -145.248233 
L 89.330653 -143.760155 
L 91.013065 -139.55695 
L 92.695477 -136.843069 
L 94.377889 -133.110172 
L 96.060302 -132.272596 
L 97.742714 -128.383948 
L 99.425126 -127.107046 
L 101.107538 -125.883756 
L 102.78995 -120.431823 
L 104.472362 -119.704784 
L 106.154774 -117.524242 
L 107.837186 -117.129848 
L 109.519598 -113.439437 
L 111.20201 -110.103789 
L 112.884422 -113.499698 
L 114.566834 -107.858226 
L 116.249246 -107.79766 
L 117.931658 -105.282123 
L 119.61407 -102.011919 
L 121.296482 -104.584392 
L 122.978894 -102.45969 
L 124.661307 -103.369468 
L 126.343719 -101.036754 
L 128.026131 -99.756313 
L 129.708543 -96.358266 
L 131.390955 -96.630824 
L 133.073367 -94.804866 
L 134.755779 -97.389872 
L 136.438191 -95.038414 
L 138.120603 -92.534792 
L 139.803015 -91.106957 
L 141.485427 -91.641918 
L 143.167839 -89.163465 
L 144.850251 -89.571696 
L 146.532663 -86.521664 
L 148.215075 -91.745057 
L 149.897487 -89.991306 
L 151.579899 -87.142556 
L 153.262312 -86.838304 
L 154.944724 -86.60629 
L 156.627136 -85.79512 
L 158.309548 -85.608689 
L 159.99196 -79.963903 
L 161.674372 -85.21183 
L 163.356784 -83.383585 
L 165.039196 -80.966115 
L 166.721608 -83.286006 
L 168.40402 -86.332244 
L 170.086432 -79.908141 
L 171.768844 -81.596403 
L 173.451256 -78.586765 
L 175.133668 -80.300654 
L 176.81608 -80.572825 
L 178.498492 -77.521563 
L 180.180905 -82.093298 
L 181.863317 -76.713427 
L 183.545729 -77.801413 
L 185.228141 -79.240811 
L 186.910553 -75.720422 
L 188.592965 -78.072058 
L 190.275377 -77.99079 
L 191.957789 -72.720055 
L 193.640201 -76.966199 
L 195.322613 -78.344686 
L 197.005025 -70.541965 
L 198.687437 -75.612673 
L 200.369849 -71.563006 
L 202.052261 -69.31292 
L 203.734673 -74.556758 
L 205.417085 -75.589938 
L 207.099497 -71.766047 
L 208.78191 -69.970465 
L 210.464322 -75.86685 
L 212.146734 -73.947839 
L 213.829146 -72.812131 
L 215.511558 -75.91373 
L 217.19397 -68.938355 
L 218.876382 -70.902427 
L 220.558794 -70.868567 
L 222.241206 -66.644402 
L 223.923618 -69.339558 
L 225.60603 -67.016191 
L 227.288442 -69.416758 
L 228.970854 -71.222576 
L 230.653266 -70.165655 
L 232.335678 -67.00764 
L 234.01809 -69.064163 
L 235.700503 -68.710604 
L 237.382915 -66.723271 
L 239.065327 -65.536735 
L 240.747739 -67.895836 
L 242.430151 -71.002362 
L 244.112563 -69.651678 
L 245.794975 -67.209956 
L 247.477387 -64.367678 
L 249.159799 -68.354071 
L 250.842211 -64.685151 
L 252.524623 -65.890844 
L 254.207035 -64.164277 
L 255.889447 -65.713221 
L 257.571859 -68.553764 
L 259.254271 -64.425226 
L 260.936683 -62.759955 
L 262.619095 -62.251725 
L 264.301508 -65.565009 
L 265.98392 -60.469365 
L 267.666332 -60.7614 
L 269.348744 -64.951666 
L 271.031156 -64.327578 
L 272.713568 -62.986645 
L 274.39598 -68.468428 
L 276.078392 -62.788408 
L 277.760804 -59.544428 
L 279.443216 -65.55302 
L 281.125628 -58.994228 
L 282.80804 -63.697676 
L 284.490452 -62.207394 
L 286.172864 -61.207717 
L 287.855276 -63.871907 
L 289.537688 -65.235917 
L 291.220101 -59.940767 
L 292.902513 -65.170212 
L 294.584925 -65.20314 
L 296.267337 -59.93381 
L 297.949749 -59.066103 
L 299.632161 -58.794266 
L 301.314573 -62.037713 
L 302.996985 -60.739583 
L 304.679397 -62.893988 
L 306.361809 -57.184931 
L 308.044221 -57.257647 
L 309.726633 -58.645426 
L 311.409045 -61.51445 
L 313.091457 -62.677113 
L 314.773869 -56.430171 
L 316.456281 -63.249961 
L 318.138693 -60.99747 
L 319.821106 -61.237531 
L 321.503518 -61.672603 
L 323.18593 -54.745562 
L 324.868342 -61.42362 
L 326.550754 -58.185577 
L 328.233166 -62.638024 
L 329.915578 -59.66849 
L 331.59799 -58.2649 
L 333.280402 -61.913805 
L 334.962814 -60.741138 
L 336.645226 -57.973645 
L 338.327638 -55.587038 
L 340.01005 -64.376963 
L 341.692462 -57.121964 
L 343.374874 -58.705122 
L 345.057286 -61.460221 
L 346.739698 -56.356355 
L 348.422111 -54.129433 
L 350.104523 -54.540359 
L 351.786935 -53.047805 
L 353.469347 -54.523913 
L 355.151759 -54.220729 
L 356.834171 -59.790491 
L 358.516583 -62.401617 
L 360.198995 -56.747838 
L 361.881407 -58.727774 
L 363.563819 -58.261284 
L 365.246231 -55.55018 
L 366.928643 -55.513948 
L 368.611055 -54.189718 
L 370.293467 -56.061142 
L 371.975879 -56.554813 
L 373.658291 -56.363254 
L 375.340704 -61.615477 
L 377.023116 -54.89897 
L 378.705528 -55.58085 
L 380.38794 -54.939674 
L 382.070352 -62.869217 
L 383.752764 -56.022008 
L 385.435176 -58.631528 
L 387.117588 -57.588491 
L 388.8 -57.825305 
L 388.8 -62.786949 
L 388.8 -62.786949 
L 387.117588 -63.24408 
L 385.435176 -64.487908 
L 383.752764 -60.506298 
L 382.070352 -67.931332 
L 380.38794 -59.963184 
L 378.705528 -60.430756 
L 377.023116 -59.565854 
L 375.340704 -66.385509 
L 373.658291 -61.198631 
L 371.975879 -61.532127 
L 370.293467 -60.856355 
L 368.611055 -59.510351 
L 366.928643 -60.123564 
L 365.246231 -60.442313 
L 363.563819 -62.906441 
L 361.881407 -63.821156 
L 360.198995 -61.42002 
L 358.516583 -67.42709 
L 356.834171 -64.747366 
L 355.151759 -59.358918 
L 353.469347 -59.471198 
L 351.786935 -57.782006 
L 350.104523 -59.163636 
L 348.422111 -59.385033 
L 346.739698 -61.198202 
L 345.057286 -66.551293 
L 343.374874 -63.642266 
L 341.692462 -62.072127 
L 340.01005 -69.325842 
L 338.327638 -61.013926 
L 336.645226 -62.934056 
L 334.962814 -65.605458 
L 333.280402 -66.868014 
L 331.59799 -63.271238 
L 329.915578 -64.146611 
L 328.233166 -67.177832 
L 326.550754 -62.987741 
L 324.868342 -66.649516 
L 323.18593 -59.320501 
L 321.503518 -66.882155 
L 319.821106 -65.908224 
L 318.138693 -65.970571 
L 316.456281 -67.626261 
L 314.773869 -61.340988 
L 313.091457 -67.368867 
L 311.409045 -66.970335 
L 309.726633 -63.248715 
L 308.044221 -61.867869 
L 306.361809 -61.839173 
L 304.679397 -67.223657 
L 302.996985 -65.971959 
L 301.314573 -67.256854 
L 299.632161 -63.264041 
L 297.949749 -63.70549 
L 296.267337 -64.875431 
L 294.584925 -70.717444 
L 292.902513 -69.670461 
L 291.220101 -64.643467 
L 289.537688 -70.017791 
L 287.855276 -68.804576 
L 286.172864 -65.7573 
L 284.490452 -66.87745 
L 282.80804 -69.544691 
L 281.125628 -63.020806 
L 279.443216 -70.230563 
L 277.760804 -64.648248 
L 276.078392 -68.155343 
L 274.39598 -73.169354 
L 272.713568 -67.794877 
L 271.031156 -68.709892 
L 269.348744 -69.626944 
L 267.666332 -65.692464 
L 265.98392 -65.309508 
L 264.301508 -70.260397 
L 262.619095 -67.271773 
L 260.936683 -67.811464 
L 259.254271 -69.845512 
L 257.571859 -73.027937 
L 255.889447 -70.428571 
L 254.207035 -68.608364 
L 252.524623 -70.736859 
L 250.842211 -69.165872 
L 249.159799 -72.766924 
L 247.477387 -69.255057 
L 245.794975 -71.722314 
L 244.112563 -74.027852 
L 242.430151 -75.372998 
L 240.747739 -72.319766 
L 239.065327 -70.375501 
L 237.382915 -71.228489 
L 235.700503 -72.984094 
L 234.01809 -73.778853 
L 232.335678 -71.651071 
L 230.653266 -74.7434 
L 228.970854 -75.982749 
L 227.288442 -73.957266 
L 225.60603 -71.407087 
L 223.923618 -74.448427 
L 222.241206 -71.914017 
L 220.558794 -75.569011 
L 218.876382 -75.223867 
L 217.19397 -73.745138 
L 215.511558 -80.872774 
L 213.829146 -77.403853 
L 212.146734 -79.060467 
L 210.464322 -80.206703 
L 208.78191 -74.572153 
L 207.099497 -76.564158 
L 205.417085 -80.243881 
L 203.734673 -78.846777 
L 202.052261 -74.354632 
L 200.369849 -75.75057 
L 198.687437 -80.152077 
L 197.005025 -74.938417 
L 195.322613 -82.839319 
L 193.640201 -81.233284 
L 191.957789 -77.910716 
L 190.275377 -82.525073 
L 188.592965 -81.972247 
L 186.910553 -80.669348 
L 185.228141 -83.891767 
L 183.545729 -81.484986 
L 181.863317 -81.310551 
L 180.180905 -86.429519 
L 178.498492 -81.985744 
L 176.81608 -85.202987 
L 175.133668 -84.250362 
L 173.451256 -82.678397 
L 171.768844 -86.773483 
L 170.086432 -84.398108 
L 168.40402 -90.668313 
L 166.721608 -87.40894 
L 165.039196 -84.830704 
L 163.356784 -87.448068 
L 161.674372 -89.237075 
L 159.99196 -84.236175 
L 158.309548 -89.795682 
L 156.627136 -89.861345 
L 154.944724 -90.754423 
L 153.262312 -90.259194 
L 151.579899 -90.723061 
L 149.897487 -94.094977 
L 148.215075 -95.077031 
L 146.532663 -90.480255 
L 144.850251 -93.750298 
L 143.167839 -93.446276 
L 141.485427 -95.363466 
L 139.803015 -95.18101 
L 138.120603 -96.372345 
L 136.438191 -98.514776 
L 134.755779 -101.399986 
L 133.073367 -98.060889 
L 131.390955 -100.588959 
L 129.708543 -100.133765 
L 128.026131 -103.356034 
L 126.343719 -104.526998 
L 124.661307 -106.921294 
L 122.978894 -105.9338 
L 121.296482 -107.969228 
L 119.61407 -105.832421 
L 117.931658 -109.034364 
L 116.249246 -111.131666 
L 114.566834 -111.218025 
L 112.884422 -116.970676 
L 111.20201 -113.498069 
L 109.519598 -117.0039 
L 107.837186 -120.291565 
L 106.154774 -120.554356 
L 104.472362 -122.843619 
L 102.78995 -123.508596 
L 101.107538 -128.995515 
L 99.425126 -130.211182 
L 97.742714 -131.681886 
L 96.060302 -135.81799 
L 94.377889 -136.42415 
L 92.695477 -140.101335 
L 91.013065 -142.762145 
L 89.330653 -146.750166 
L 87.648241 -148.330158 
L 85.965829 -154.311808 
L 84.283417 -156.588041 
L 82.601005 -162.164652 
L 80.918593 -165.937914 
L 79.236181 -170.963198 
L 77.553769 -175.596325 
L 75.871357 -180.053686 
L 74.188945 -185.703233 
L 72.506533 -191.3185 
L 70.824121 -197.327084 
L 69.141709 -203.888454 
L 67.459296 -210.22195 
L 65.776884 -217.008347 
L 64.094472 -222.998961 
L 62.41206 -228.804399 
L 60.729648 -233.809872 
L 59.047236 -243.556364 
L 57.364824 -242.796226 
L 55.682412 -235.578354 
L 54 -236.421412 
z
" id="m967418fc5e" style="stroke:#ffffff;stroke-opacity:0.2;"/>
    </defs>
    <g clip-path="url(#p3e418a051e)">
     <use style="fill:#ff8101;fill-opacity:0.2;stroke:#ffffff;stroke-opacity:0.2;" x="0" xlink:href="#m967418fc5e" y="288"/>
    </g>
   </g>
   <g id="line2d_1">
    <path clip-path="url(#p3e418a051e)" d="M 54 51.542328 
L 55.682412 52.751718 
L 57.364824 53.556286 
L 59.047236 54.007786 
L 60.729648 54.589299 
L 62.41206 54.908027 
L 64.094472 55.386492 
L 65.776884 55.628398 
L 69.141709 56.6013 
L 70.824121 56.949579 
L 74.188945 57.967278 
L 77.553769 59.457909 
L 82.601005 61.427241 
L 84.283417 62.17299 
L 85.965829 63.253004 
L 87.648241 64.189154 
L 89.330653 64.949529 
L 91.013065 66.017103 
L 92.695477 66.852806 
L 94.377889 68.269761 
L 96.060302 69.226158 
L 99.425126 71.664303 
L 101.107538 72.59618 
L 102.78995 73.937625 
L 104.472362 75.626712 
L 107.837186 77.583393 
L 109.519598 78.922009 
L 112.884422 82.124952 
L 114.566834 83.259488 
L 121.296482 89.263148 
L 122.978894 90.38514 
L 126.343719 93.482891 
L 128.026131 94.840535 
L 129.708543 96.017241 
L 133.073367 98.987452 
L 134.755779 99.768439 
L 136.438191 101.439713 
L 138.120603 102.751239 
L 139.803015 104.782775 
L 141.485427 105.996059 
L 143.167839 107.488657 
L 144.850251 108.422477 
L 146.532663 110.36638 
L 148.215075 111.185676 
L 151.579899 114.251812 
L 153.262312 115.472372 
L 154.944724 117.271635 
L 156.627136 117.969542 
L 158.309548 119.567823 
L 159.99196 119.897084 
L 161.674372 121.901562 
L 163.356784 123.313576 
L 165.039196 123.818542 
L 166.721608 126.330137 
L 168.40402 126.599505 
L 173.451256 129.957801 
L 175.133668 131.939763 
L 176.81608 132.57634 
L 178.498492 134.100004 
L 180.180905 135.339516 
L 183.545729 137.322577 
L 185.228141 138.692743 
L 186.910553 138.573312 
L 188.592965 139.458738 
L 190.275377 142.10315 
L 191.957789 141.882626 
L 193.640201 143.940589 
L 195.322613 145.546701 
L 197.005025 146.423519 
L 198.687437 146.628771 
L 200.369849 146.618941 
L 202.052261 148.559649 
L 203.734673 148.968935 
L 205.417085 151.333634 
L 207.099497 151.682239 
L 208.78191 152.435409 
L 210.464322 152.975926 
L 212.146734 153.316934 
L 213.829146 154.109595 
L 215.511558 156.300252 
L 217.19397 156.292323 
L 218.876382 156.102526 
L 220.558794 158.584813 
L 222.241206 159.133938 
L 223.923618 161.137067 
L 225.60603 161.216954 
L 227.288442 161.762123 
L 228.970854 162.008238 
L 230.653266 163.327275 
L 232.335678 163.37147 
L 234.01809 163.293646 
L 235.700503 166.07893 
L 237.382915 167.189624 
L 239.065327 167.832955 
L 240.747739 169.343642 
L 242.430151 170.377161 
L 244.112563 169.418627 
L 245.794975 171.585873 
L 247.477387 170.130354 
L 249.159799 173.189629 
L 250.842211 174.926669 
L 252.524623 174.157962 
L 254.207035 172.480365 
L 255.889447 174.069439 
L 257.571859 173.294522 
L 259.254271 175.616777 
L 260.936683 176.383223 
L 262.619095 176.527145 
L 264.301508 178.010722 
L 265.98392 180.486639 
L 269.348744 179.81723 
L 271.031156 177.199513 
L 272.713568 181.173916 
L 274.39598 183.536901 
L 276.078392 181.070195 
L 277.760804 181.773294 
L 279.443216 183.133569 
L 281.125628 183.343397 
L 282.80804 185.251855 
L 284.490452 185.667592 
L 286.172864 187.928084 
L 287.855276 187.140342 
L 289.537688 186.207813 
L 291.220101 187.531247 
L 294.584925 187.820621 
L 297.949749 189.504917 
L 299.632161 191.091316 
L 301.314573 189.4945 
L 302.996985 192.017026 
L 304.679397 193.58839 
L 306.361809 192.511974 
L 308.044221 191.571245 
L 311.409045 193.422331 
L 313.091457 195.001879 
L 314.773869 195.152436 
L 316.456281 192.931144 
L 318.138693 195.578767 
L 319.821106 195.607255 
L 321.503518 198.185895 
L 323.18593 195.836972 
L 324.868342 195.326988 
L 326.550754 198.78534 
L 328.233166 199.887602 
L 329.915578 197.456944 
L 331.59799 199.290629 
L 333.280402 199.297429 
L 334.962814 197.313473 
L 336.645226 201.702723 
L 338.327638 199.663346 
L 340.01005 202.809912 
L 341.692462 203.33845 
L 343.374874 201.032065 
L 345.057286 202.543189 
L 346.739698 202.247618 
L 348.422111 201.322181 
L 350.104523 203.74367 
L 351.786935 203.417152 
L 355.151759 204.465687 
L 356.834171 206.360911 
L 358.516583 205.493886 
L 360.198995 207.945035 
L 361.881407 203.595592 
L 363.563819 204.574914 
L 365.246231 209.567681 
L 366.928643 208.849078 
L 368.611055 206.879616 
L 370.293467 206.914645 
L 371.975879 209.901458 
L 373.658291 209.036199 
L 375.340704 210.169754 
L 377.023116 205.351922 
L 378.705528 206.96484 
L 380.38794 210.492039 
L 382.070352 209.168389 
L 383.752764 208.827474 
L 385.435176 209.783959 
L 387.117588 207.976106 
L 388.8 211.845939 
L 388.8 211.845939 
" style="fill:none;stroke:#ea4c4e;stroke-dasharray:5.55,2.4;stroke-dashoffset:0;stroke-width:1.5;"/>
   </g>
   <g id="line2d_2">
    <path clip-path="url(#p3e418a051e)" d="M 54 51.98972 
L 55.682412 52.818404 
L 57.364824 54.142001 
L 59.047236 55.113828 
L 60.729648 56.347102 
L 62.41206 57.074018 
L 65.776884 59.070432 
L 70.824121 61.879842 
L 72.506533 62.948152 
L 75.871357 65.254628 
L 77.553769 66.239236 
L 79.236181 66.976196 
L 80.918593 68.041584 
L 82.601005 69.318297 
L 87.648241 72.393399 
L 89.330653 73.048635 
L 91.013065 74.088917 
L 92.695477 75.319628 
L 94.377889 76.331349 
L 96.060302 76.960963 
L 97.742714 78.123143 
L 99.425126 78.703974 
L 101.107538 79.941455 
L 104.472362 81.651433 
L 107.837186 83.614991 
L 109.519598 84.488202 
L 111.20201 85.044254 
L 112.884422 86.276185 
L 114.566834 87.257693 
L 116.249246 87.551693 
L 119.61407 89.424857 
L 122.978894 90.62253 
L 124.661307 91.532011 
L 133.073367 95.032271 
L 136.438191 96.39954 
L 138.120603 97.224738 
L 139.803015 97.849736 
L 141.485427 99.136574 
L 143.167839 99.096517 
L 144.850251 99.672919 
L 148.215075 101.411935 
L 149.897487 101.861456 
L 151.579899 101.954498 
L 153.262312 103.139815 
L 154.944724 103.477413 
L 158.309548 104.928205 
L 161.674372 106.000699 
L 163.356784 107.087401 
L 165.039196 107.350634 
L 166.721608 107.858897 
L 168.40402 108.756747 
L 170.086432 109.446589 
L 171.768844 109.510754 
L 173.451256 109.853119 
L 175.133668 111.296497 
L 176.81608 111.277556 
L 178.498492 111.684321 
L 180.180905 112.679676 
L 185.228141 113.844107 
L 186.910553 114.846276 
L 188.592965 115.584324 
L 191.957789 116.366999 
L 193.640201 116.604039 
L 195.322613 118.099937 
L 197.005025 118.852527 
L 198.687437 118.374396 
L 200.369849 119.298823 
L 202.052261 119.904321 
L 203.734673 119.610966 
L 205.417085 120.523211 
L 207.099497 120.45933 
L 208.78191 121.592621 
L 210.464322 121.628845 
L 212.146734 122.141171 
L 213.829146 123.205245 
L 215.511558 123.484721 
L 217.19397 122.967436 
L 218.876382 123.944437 
L 220.558794 124.56052 
L 222.241206 126.087031 
L 223.923618 125.28078 
L 225.60603 126.227223 
L 227.288442 126.486173 
L 230.653266 126.530355 
L 232.335678 129.075279 
L 234.01809 128.498684 
L 237.382915 128.784235 
L 239.065327 130.171717 
L 240.747739 130.492125 
L 242.430151 130.170854 
L 244.112563 130.801748 
L 245.794975 130.976996 
L 247.477387 132.219417 
L 249.159799 132.707245 
L 252.524623 132.522236 
L 254.207035 134.424303 
L 255.889447 134.228998 
L 257.571859 135.18617 
L 259.254271 134.437111 
L 262.619095 136.076402 
L 264.301508 135.430472 
L 265.98392 135.548472 
L 267.666332 137.019754 
L 269.348744 136.876711 
L 271.031156 137.995435 
L 272.713568 137.118898 
L 274.39598 138.771364 
L 276.078392 138.634059 
L 277.760804 138.278678 
L 279.443216 139.146908 
L 281.125628 140.754202 
L 282.80804 140.229421 
L 284.490452 141.207898 
L 286.172864 140.147294 
L 287.855276 141.844617 
L 289.537688 141.946076 
L 291.220101 141.605852 
L 296.267337 143.706779 
L 297.949749 143.218146 
L 299.632161 144.288188 
L 301.314573 143.473285 
L 302.996985 145.521602 
L 304.679397 145.318168 
L 306.361809 145.40817 
L 308.044221 144.964889 
L 309.726633 146.042155 
L 311.409045 146.017414 
L 313.091457 146.698437 
L 314.773869 146.721933 
L 316.456281 147.5894 
L 318.138693 147.986166 
L 319.821106 148.690218 
L 321.503518 148.997664 
L 323.18593 148.415593 
L 324.868342 149.79473 
L 326.550754 149.592011 
L 328.233166 150.075073 
L 329.915578 150.23466 
L 331.59799 151.784929 
L 333.280402 150.801658 
L 334.962814 151.502574 
L 336.645226 150.919232 
L 338.327638 151.969308 
L 340.01005 152.291899 
L 341.692462 152.315322 
L 343.374874 154.197528 
L 345.057286 152.35747 
L 346.739698 153.988083 
L 348.422111 154.364389 
L 350.104523 154.056868 
L 351.786935 153.471143 
L 353.469347 155.435251 
L 355.151759 154.875589 
L 356.834171 155.684824 
L 358.516583 156.673955 
L 360.198995 157.371726 
L 361.881407 157.039775 
L 363.563819 157.136106 
L 365.246231 157.800362 
L 366.928643 157.482395 
L 368.611055 158.395628 
L 370.293467 158.24932 
L 371.975879 158.402814 
L 373.658291 159.299751 
L 375.340704 159.154373 
L 377.023116 159.839002 
L 378.705528 158.797032 
L 380.38794 159.313233 
L 382.070352 159.617495 
L 383.752764 160.548435 
L 385.435176 160.278013 
L 387.117588 161.228063 
L 388.8 161.764801 
L 388.8 161.764801 
" style="fill:none;stroke:#377eb8;stroke-dasharray:5.55,2.4;stroke-dashoffset:0;stroke-width:1.5;"/>
   </g>
   <g id="line2d_3">
    <path clip-path="url(#p3e418a051e)" d="M 54 51.727117 
L 55.682412 51.686783 
L 57.364824 51.919729 
L 59.047236 51.943963 
L 60.729648 52.207481 
L 62.41206 52.269617 
L 65.776884 52.925446 
L 72.506533 53.461305 
L 79.236181 53.62539 
L 80.918593 53.511147 
L 82.601005 53.597516 
L 89.330653 53.47183 
L 107.837186 53.599806 
L 117.931658 53.598995 
L 119.61407 53.583338 
L 121.296482 53.717331 
L 126.343719 53.63914 
L 133.073367 53.75979 
L 134.755779 53.663107 
L 139.803015 53.803705 
L 148.215075 53.734903 
L 149.897487 53.866991 
L 151.579899 53.796855 
L 153.262312 53.852655 
L 156.627136 53.793465 
L 158.309548 53.832336 
L 159.99196 53.731842 
L 161.674372 53.849545 
L 168.40402 53.84931 
L 180.180905 53.954893 
L 193.640201 53.960679 
L 195.322613 54.043661 
L 198.687437 53.987375 
L 203.734673 53.994784 
L 205.417085 54.081534 
L 207.099497 53.945951 
L 215.511558 54.079295 
L 220.558794 54.121625 
L 239.065327 54.225781 
L 240.747739 54.297009 
L 244.112563 54.274304 
L 255.889447 54.440478 
L 257.571859 54.297898 
L 259.254271 54.432128 
L 260.936683 54.317962 
L 262.619095 54.513847 
L 267.666332 54.356714 
L 269.348744 54.518972 
L 271.031156 54.568458 
L 272.713568 54.441907 
L 276.078392 54.562415 
L 277.760804 54.535835 
L 282.80804 54.694383 
L 287.855276 54.696538 
L 297.949749 54.829001 
L 306.361809 54.966024 
L 309.726633 54.865863 
L 313.091457 55.034604 
L 314.773869 55.108156 
L 316.456281 55.04281 
L 319.821106 55.122016 
L 326.550754 55.226303 
L 340.01005 55.432516 
L 341.692462 55.616092 
L 348.422111 55.629212 
L 351.786935 55.788928 
L 355.151759 55.875285 
L 363.563819 56.072685 
L 365.246231 56.079124 
L 366.928643 56.224274 
L 370.293467 56.215121 
L 371.975879 56.358086 
L 373.658291 56.308241 
L 375.340704 56.493233 
L 377.023116 56.489182 
L 378.705528 56.613512 
L 382.070352 56.694275 
L 383.752764 56.691953 
L 385.435176 56.823825 
L 388.8 56.861674 
L 388.8 56.861674 
" style="fill:none;stroke:#4eae4b;stroke-dasharray:5.55,2.4;stroke-dashoffset:0;stroke-width:1.5;"/>
   </g>
   <g id="line2d_4">
    <path clip-path="url(#p3e418a051e)" d="M 54 51.690286 
L 55.682412 51.536962 
L 57.364824 51.167768 
L 59.047236 51.703057 
L 60.729648 51.830059 
L 64.094472 52.495142 
L 65.776884 52.495098 
L 67.459296 53.092915 
L 70.824121 53.412311 
L 72.506533 53.912405 
L 74.188945 54.202698 
L 75.871357 54.629907 
L 77.553769 55.377224 
L 79.236181 55.889859 
L 80.918593 57.333391 
L 82.601005 58.493364 
L 84.283417 60.308399 
L 85.965829 62.583003 
L 87.648241 65.475654 
L 91.013065 72.465068 
L 96.060302 85.558886 
L 97.742714 89.632177 
L 99.425126 94.714699 
L 106.154774 112.749887 
L 109.519598 119.750444 
L 111.20201 122.618179 
L 114.566834 130.162827 
L 116.249246 132.602745 
L 117.931658 136.072263 
L 119.61407 138.701934 
L 121.296482 142.394069 
L 122.978894 145.736171 
L 124.661307 145.629288 
L 126.343719 149.501985 
L 128.026131 152.750144 
L 129.708543 155.010249 
L 131.390955 158.633671 
L 133.073367 161.163685 
L 134.755779 161.211112 
L 136.438191 160.027985 
L 138.120603 163.814307 
L 139.803015 165.482975 
L 141.485427 170.804199 
L 143.167839 168.454304 
L 144.850251 171.78953 
L 146.532663 174.524271 
L 148.215075 173.707506 
L 149.897487 175.651098 
L 151.579899 176.349057 
L 153.262312 181.546728 
L 154.944724 180.174776 
L 156.627136 182.474183 
L 158.309548 183.119567 
L 159.99196 182.623397 
L 161.674372 186.241626 
L 163.356784 188.289585 
L 165.039196 186.010663 
L 166.721608 186.177226 
L 168.40402 188.926467 
L 170.086432 192.345303 
L 171.768844 192.601566 
L 173.451256 190.997508 
L 175.133668 192.85062 
L 176.81608 191.913431 
L 178.498492 194.815144 
L 180.180905 194.289444 
L 181.863317 197.827492 
L 183.545729 197.990642 
L 185.228141 200.742274 
L 186.910553 200.035766 
L 188.592965 195.128885 
L 190.275377 199.942907 
L 191.957789 201.337246 
L 195.322613 205.080409 
L 197.005025 207.451448 
L 198.687437 201.743937 
L 200.369849 202.127079 
L 202.052261 207.727932 
L 203.734673 203.848179 
L 205.417085 200.784268 
L 207.099497 206.077097 
L 208.78191 207.344913 
L 210.464322 207.314973 
L 212.146734 203.705713 
L 213.829146 206.670762 
L 215.511558 210.06655 
L 217.19397 209.786058 
L 218.876382 210.700877 
L 220.558794 209.846992 
L 222.241206 209.626918 
L 223.923618 211.493561 
L 225.60603 214.559375 
L 227.288442 212.077594 
L 228.970854 207.629697 
L 230.653266 211.61139 
L 232.335678 209.463821 
L 234.01809 214.180091 
L 235.700503 212.174514 
L 237.382915 217.530555 
L 239.065327 216.381128 
L 240.747739 215.598648 
L 242.430151 217.049041 
L 244.112563 217.300493 
L 245.794975 218.062706 
L 247.477387 212.87384 
L 249.159799 214.812272 
L 250.842211 220.753046 
L 252.524623 217.972648 
L 254.207035 216.404615 
L 255.889447 217.006135 
L 257.571859 220.390798 
L 259.254271 219.452146 
L 260.936683 222.462384 
L 262.619095 218.237507 
L 264.301508 220.415984 
L 265.98392 221.034349 
L 267.666332 220.646497 
L 269.348744 223.157181 
L 274.39598 219.371527 
L 276.078392 219.873687 
L 277.760804 219.251984 
L 279.443216 221.470599 
L 281.125628 220.862292 
L 282.80804 226.332088 
L 284.490452 223.564814 
L 286.172864 223.305651 
L 287.855276 225.204111 
L 289.537688 227.760375 
L 291.220101 227.668241 
L 292.902513 223.847163 
L 294.584925 226.474308 
L 296.267337 224.794349 
L 297.949749 227.417767 
L 299.632161 226.108275 
L 301.314573 223.391973 
L 302.996985 225.708924 
L 304.679397 226.160695 
L 306.361809 227.772958 
L 308.044221 226.49965 
L 309.726633 231.194894 
L 311.409045 229.826208 
L 313.091457 226.416295 
L 314.773869 225.926968 
L 316.456281 228.409891 
L 318.138693 223.699917 
L 319.821106 228.531114 
L 321.503518 227.232599 
L 323.18593 224.635528 
L 324.868342 229.349485 
L 326.550754 228.095626 
L 328.233166 230.168448 
L 331.59799 227.001124 
L 333.280402 229.316772 
L 334.962814 227.97846 
L 336.645226 227.76597 
L 338.327638 233.070166 
L 340.01005 228.929656 
L 341.692462 233.243459 
L 343.374874 231.331071 
L 345.057286 230.359966 
L 346.739698 230.972473 
L 348.422111 228.021997 
L 350.104523 232.130817 
L 351.786935 236.817514 
L 353.469347 232.086917 
L 355.151759 230.075607 
L 356.834171 230.396096 
L 358.516583 234.940784 
L 360.198995 231.12621 
L 361.881407 228.133164 
L 363.563819 230.98634 
L 365.246231 231.549552 
L 366.928643 235.462543 
L 368.611055 233.64581 
L 370.293467 235.554964 
L 371.975879 230.441826 
L 373.658291 236.675501 
L 375.340704 237.583639 
L 377.023116 231.486955 
L 378.705528 231.10497 
L 382.070352 237.554071 
L 383.752764 233.602873 
L 385.435176 237.297904 
L 387.117588 239.532753 
L 388.8 234.943779 
L 388.8 234.943779 
" style="fill:none;stroke:#994fa1;stroke-dasharray:5.55,2.4;stroke-dashoffset:0;stroke-width:1.5;"/>
   </g>
   <g id="line2d_5">
    <path clip-path="url(#p3e418a051e)" d="M 54 51.714732 
L 55.682412 52.574656 
L 57.364824 45.812826 
L 59.047236 45.374897 
L 60.729648 54.540638 
L 62.41206 59.671694 
L 65.776884 71.890811 
L 69.141709 85.262723 
L 70.824121 91.909424 
L 74.188945 103.692305 
L 75.871357 109.257413 
L 77.553769 113.732146 
L 80.918593 123.454367 
L 82.601005 127.272809 
L 84.283417 132.908798 
L 85.965829 135.284333 
L 87.648241 141.17094 
L 89.330653 142.762461 
L 91.013065 146.840861 
L 92.695477 149.478217 
L 94.377889 153.238752 
L 96.060302 153.9098 
L 97.742714 157.932638 
L 99.425126 159.279705 
L 101.107538 160.470711 
L 102.78995 166.016652 
L 104.472362 166.669021 
L 106.154774 168.929776 
L 107.837186 169.228528 
L 111.20201 176.191467 
L 112.884422 172.727373 
L 114.566834 178.442419 
L 116.249246 178.487143 
L 117.931658 180.780435 
L 119.61407 184.04778 
L 121.296482 181.681511 
L 122.978894 183.76344 
L 124.661307 182.829288 
L 126.343719 185.167885 
L 128.026131 186.387033 
L 129.708543 189.687607 
L 131.390955 189.344134 
L 133.073367 191.504518 
L 134.755779 188.565824 
L 138.120603 193.520272 
L 139.803015 194.813453 
L 141.485427 194.478932 
L 143.167839 196.691797 
L 144.850251 196.287544 
L 146.532663 199.422372 
L 148.215075 194.610559 
L 149.897487 195.921397 
L 151.579899 199.014029 
L 153.262312 199.421027 
L 154.944724 199.282631 
L 156.627136 200.147832 
L 158.309548 200.26468 
L 159.99196 205.871536 
L 161.674372 200.791563 
L 163.356784 202.5695 
L 165.039196 205.037014 
L 166.721608 202.589737 
L 168.40402 199.408466 
L 170.086432 205.78199 
L 171.768844 203.809946 
L 173.451256 207.348997 
L 175.133668 205.704265 
L 176.81608 205.046679 
L 178.498492 208.237394 
L 180.180905 203.649968 
L 181.863317 208.954921 
L 183.545729 208.304074 
L 185.228141 206.32673 
L 186.910553 209.726625 
L 188.592965 207.941322 
L 190.275377 207.703957 
L 191.957789 212.589704 
L 193.640201 208.862121 
L 195.322613 207.38993 
L 197.005025 215.22032 
L 198.687437 210.028088 
L 200.369849 214.284813 
L 202.052261 216.123563 
L 203.734673 211.246625 
L 205.417085 209.983355 
L 207.099497 213.740915 
L 208.78191 215.648666 
L 210.464322 209.880835 
L 212.146734 211.527161 
L 213.829146 212.848467 
L 215.511558 209.517207 
L 217.19397 216.595625 
L 218.876382 214.936224 
L 220.558794 214.664818 
L 222.241206 218.696138 
L 223.923618 216.040002 
L 225.60603 218.754472 
L 227.288442 216.277307 
L 228.970854 214.344976 
L 230.653266 215.476381 
L 232.335678 218.624797 
L 234.01809 216.548155 
L 235.700503 217.126242 
L 237.382915 218.93635 
L 239.065327 219.981304 
L 240.747739 217.903295 
L 242.430151 214.722746 
L 244.112563 216.117493 
L 245.794975 218.515331 
L 247.477387 221.123444 
L 249.159799 217.412308 
L 250.842211 221.067108 
L 252.524623 219.654191 
L 254.207035 221.536656 
L 255.889447 219.848865 
L 257.571859 217.163961 
L 259.254271 220.855528 
L 260.936683 222.643907 
L 262.619095 223.163027 
L 264.301508 220.079841 
L 265.98392 224.985038 
L 267.666332 224.710082 
L 269.348744 220.647117 
L 271.031156 221.475518 
L 272.713568 222.578746 
L 274.39598 217.091202 
L 276.078392 222.461931 
L 277.760804 225.77392 
L 279.443216 220.028377 
L 281.125628 226.994836 
L 282.80804 221.333507 
L 284.490452 223.428354 
L 286.172864 224.486607 
L 287.855276 221.673905 
L 289.537688 220.343777 
L 291.220101 225.6183 
L 292.902513 220.587458 
L 294.584925 220.006152 
L 296.267337 225.564569 
L 297.949749 226.564262 
L 299.632161 226.921823 
L 301.314573 223.310345 
L 302.996985 224.559759 
L 304.679397 222.907875 
L 306.361809 228.464092 
L 308.044221 228.398307 
L 309.726633 227.023632 
L 311.409045 223.670314 
L 313.091457 222.955344 
L 314.773869 229.03335 
L 316.456281 222.554809 
L 318.138693 224.467008 
L 319.821106 224.385917 
L 321.503518 223.710599 
L 323.18593 230.931229 
L 324.868342 223.886431 
L 326.550754 227.441427 
L 328.233166 223.079416 
L 329.915578 225.982768 
L 331.59799 227.188753 
L 333.280402 223.545156 
L 334.962814 224.814396 
L 336.645226 227.484626 
L 338.327638 229.599659 
L 340.01005 221.093307 
L 341.692462 228.353589 
L 343.374874 226.841358 
L 345.057286 223.912885 
L 346.739698 229.196478 
L 348.422111 231.260449 
L 350.104523 231.142448 
L 351.786935 232.534101 
L 353.469347 230.954453 
L 355.151759 231.181595 
L 356.834171 225.649097 
L 358.516583 223.049742 
L 360.198995 228.825199 
L 361.881407 226.634153 
L 363.563819 227.394757 
L 365.246231 230.029343 
L 366.928643 230.18313 
L 368.611055 231.097531 
L 370.293467 229.500243 
L 371.975879 228.995077 
L 373.658291 229.185335 
L 375.340704 223.976296 
L 377.023116 230.723423 
L 378.705528 229.87985 
L 380.38794 230.593373 
L 382.070352 222.545977 
L 383.752764 229.750517 
L 385.435176 226.428277 
L 387.117588 227.509503 
L 388.8 227.620011 
L 388.8 227.620011 
" style="fill:none;stroke:#ff8101;stroke-linecap:round;stroke-width:1.5;"/>
   </g>
   <g id="patch_3">
    <path d="M 54 252 
L 54 34.56 
" style="fill:none;stroke:#262626;stroke-linecap:square;stroke-linejoin:miter;stroke-width:1.25;"/>
   </g>
   <g id="patch_4">
    <path d="M 388.8 252 
L 388.8 34.56 
" style="fill:none;stroke:#262626;stroke-linecap:square;stroke-linejoin:miter;stroke-width:1.25;"/>
   </g>
   <g id="patch_5">
    <path d="M 54 252 
L 388.8 252 
" style="fill:none;stroke:#262626;stroke-linecap:square;stroke-linejoin:miter;stroke-width:1.25;"/>
   </g>
   <g id="patch_6">
    <path d="M 54 34.56 
L 388.8 34.56 
" style="fill:none;stroke:#262626;stroke-linecap:square;stroke-linejoin:miter;stroke-width:1.25;"/>
   </g>
   <g id="text_12">
    <!-- MNIST (2 layers) -->
    <g style="fill:#262626;" transform="translate(176.170313 28.56)scale(0.12 -0.12)">
     <defs>
      <path d="M 7.421875 0 
L 7.421875 71.578125 
L 21.6875 71.578125 
L 38.625 20.90625 
Q 40.96875 13.8125 42.046875 10.296875 
Q 43.265625 14.203125 45.84375 21.78125 
L 62.984375 71.578125 
L 75.734375 71.578125 
L 75.734375 0 
L 66.609375 0 
L 66.609375 59.90625 
L 45.796875 0 
L 37.25 0 
L 16.546875 60.9375 
L 16.546875 0 
z
" id="ArialMT-77"/>
      <path d="M 7.625 0 
L 7.625 71.578125 
L 17.328125 71.578125 
L 54.9375 15.375 
L 54.9375 71.578125 
L 64.015625 71.578125 
L 64.015625 0 
L 54.296875 0 
L 16.703125 56.25 
L 16.703125 0 
z
" id="ArialMT-78"/>
      <path d="M 9.328125 0 
L 9.328125 71.578125 
L 18.796875 71.578125 
L 18.796875 0 
z
" id="ArialMT-73"/>
      <path d="M 4.5 23 
L 13.421875 23.78125 
Q 14.0625 18.40625 16.375 14.96875 
Q 18.703125 11.53125 23.578125 9.40625 
Q 28.46875 7.28125 34.578125 7.28125 
Q 39.984375 7.28125 44.140625 8.890625 
Q 48.296875 10.5 50.3125 13.296875 
Q 52.34375 16.109375 52.34375 19.4375 
Q 52.34375 22.796875 50.390625 25.3125 
Q 48.4375 27.828125 43.953125 29.546875 
Q 41.0625 30.671875 31.203125 33.03125 
Q 21.34375 35.40625 17.390625 37.5 
Q 12.25 40.1875 9.734375 44.15625 
Q 7.234375 48.140625 7.234375 53.078125 
Q 7.234375 58.5 10.296875 63.203125 
Q 13.375 67.921875 19.28125 70.359375 
Q 25.203125 72.796875 32.421875 72.796875 
Q 40.375 72.796875 46.453125 70.234375 
Q 52.546875 67.671875 55.8125 62.6875 
Q 59.078125 57.71875 59.328125 51.421875 
L 50.25 50.734375 
Q 49.515625 57.515625 45.28125 60.984375 
Q 41.0625 64.453125 32.8125 64.453125 
Q 24.21875 64.453125 20.28125 61.296875 
Q 16.359375 58.15625 16.359375 53.71875 
Q 16.359375 49.859375 19.140625 47.359375 
Q 21.875 44.875 33.421875 42.265625 
Q 44.96875 39.65625 49.265625 37.703125 
Q 55.515625 34.8125 58.484375 30.390625 
Q 61.46875 25.984375 61.46875 20.21875 
Q 61.46875 14.5 58.203125 9.4375 
Q 54.9375 4.390625 48.796875 1.578125 
Q 42.671875 -1.21875 35.015625 -1.21875 
Q 25.296875 -1.21875 18.71875 1.609375 
Q 12.15625 4.4375 8.421875 10.125 
Q 4.6875 15.828125 4.5 23 
z
" id="ArialMT-83"/>
      <path d="M 25.921875 0 
L 25.921875 63.140625 
L 2.34375 63.140625 
L 2.34375 71.578125 
L 59.078125 71.578125 
L 59.078125 63.140625 
L 35.40625 63.140625 
L 35.40625 0 
z
" id="ArialMT-84"/>
      <path id="ArialMT-32"/>
      <path d="M 23.390625 -21.046875 
Q 16.109375 -11.859375 11.078125 0.4375 
Q 6.0625 12.75 6.0625 25.921875 
Q 6.0625 37.546875 9.8125 48.1875 
Q 14.203125 60.546875 23.390625 72.796875 
L 29.6875 72.796875 
Q 23.78125 62.640625 21.875 58.296875 
Q 18.890625 51.5625 17.1875 44.234375 
Q 15.09375 35.109375 15.09375 25.875 
Q 15.09375 2.390625 29.6875 -21.046875 
z
" id="ArialMT-40"/>
      <path d="M 40.4375 6.390625 
Q 35.546875 2.25 31.03125 0.53125 
Q 26.515625 -1.171875 21.34375 -1.171875 
Q 12.796875 -1.171875 8.203125 3 
Q 3.609375 7.171875 3.609375 13.671875 
Q 3.609375 17.484375 5.34375 20.625 
Q 7.078125 23.78125 9.890625 25.6875 
Q 12.703125 27.59375 16.21875 28.5625 
Q 18.796875 29.25 24.03125 29.890625 
Q 34.671875 31.15625 39.703125 32.90625 
Q 39.75 34.71875 39.75 35.203125 
Q 39.75 40.578125 37.25 42.78125 
Q 33.890625 45.75 27.25 45.75 
Q 21.046875 45.75 18.09375 43.578125 
Q 15.140625 41.40625 13.71875 35.890625 
L 5.125 37.0625 
Q 6.296875 42.578125 8.984375 45.96875 
Q 11.671875 49.359375 16.75 51.1875 
Q 21.828125 53.03125 28.515625 53.03125 
Q 35.15625 53.03125 39.296875 51.46875 
Q 43.453125 49.90625 45.40625 47.53125 
Q 47.359375 45.171875 48.140625 41.546875 
Q 48.578125 39.3125 48.578125 33.453125 
L 48.578125 21.734375 
Q 48.578125 9.46875 49.140625 6.21875 
Q 49.703125 2.984375 51.375 0 
L 42.1875 0 
Q 40.828125 2.734375 40.4375 6.390625 
z
M 39.703125 26.03125 
Q 34.90625 24.078125 25.34375 22.703125 
Q 19.921875 21.921875 17.671875 20.9375 
Q 15.4375 19.96875 14.203125 18.09375 
Q 12.984375 16.21875 12.984375 13.921875 
Q 12.984375 10.40625 15.640625 8.0625 
Q 18.3125 5.71875 23.4375 5.71875 
Q 28.515625 5.71875 32.46875 7.9375 
Q 36.421875 10.15625 38.28125 14.015625 
Q 39.703125 17 39.703125 22.796875 
z
" id="ArialMT-97"/>
      <path d="M 6.203125 -19.96875 
L 5.21875 -11.71875 
Q 8.109375 -12.5 10.25 -12.5 
Q 13.1875 -12.5 14.9375 -11.515625 
Q 16.703125 -10.546875 17.828125 -8.796875 
Q 18.65625 -7.46875 20.515625 -2.25 
Q 20.75 -1.515625 21.296875 -0.09375 
L 1.609375 51.859375 
L 11.078125 51.859375 
L 21.875 21.828125 
Q 23.96875 16.109375 25.640625 9.8125 
Q 27.15625 15.875 29.25 21.625 
L 40.328125 51.859375 
L 49.125 51.859375 
L 29.390625 -0.875 
Q 26.21875 -9.421875 24.46875 -12.640625 
Q 22.125 -17 19.09375 -19.015625 
Q 16.0625 -21.046875 11.859375 -21.046875 
Q 9.328125 -21.046875 6.203125 -19.96875 
z
" id="ArialMT-121"/>
      <path d="M 6.5 0 
L 6.5 51.859375 
L 14.40625 51.859375 
L 14.40625 44 
Q 17.4375 49.515625 20 51.265625 
Q 22.5625 53.03125 25.640625 53.03125 
Q 30.078125 53.03125 34.671875 50.203125 
L 31.640625 42.046875 
Q 28.421875 43.953125 25.203125 43.953125 
Q 22.3125 43.953125 20.015625 42.21875 
Q 17.71875 40.484375 16.75 37.40625 
Q 15.28125 32.71875 15.28125 27.15625 
L 15.28125 0 
z
" id="ArialMT-114"/>
      <path d="M 12.359375 -21.046875 
L 6.0625 -21.046875 
Q 20.65625 2.390625 20.65625 25.875 
Q 20.65625 35.0625 18.5625 44.09375 
Q 16.890625 51.421875 13.921875 58.15625 
Q 12.015625 62.546875 6.0625 72.796875 
L 12.359375 72.796875 
Q 21.53125 60.546875 25.921875 48.1875 
Q 29.6875 37.546875 29.6875 25.921875 
Q 29.6875 12.75 24.625 0.4375 
Q 19.578125 -11.859375 12.359375 -21.046875 
z
" id="ArialMT-41"/>
     </defs>
     <use xlink:href="#ArialMT-77"/>
     <use x="83.300781" xlink:href="#ArialMT-78"/>
     <use x="155.517578" xlink:href="#ArialMT-73"/>
     <use x="183.300781" xlink:href="#ArialMT-83"/>
     <use x="250" xlink:href="#ArialMT-84"/>
     <use x="309.333984" xlink:href="#ArialMT-32"/>
     <use x="337.117188" xlink:href="#ArialMT-40"/>
     <use x="370.417969" xlink:href="#ArialMT-50"/>
     <use x="426.033203" xlink:href="#ArialMT-32"/>
     <use x="453.816406" xlink:href="#ArialMT-108"/>
     <use x="476.033203" xlink:href="#ArialMT-97"/>
     <use x="531.648438" xlink:href="#ArialMT-121"/>
     <use x="581.648438" xlink:href="#ArialMT-101"/>
     <use x="637.263672" xlink:href="#ArialMT-114"/>
     <use x="670.564453" xlink:href="#ArialMT-115"/>
     <use x="720.564453" xlink:href="#ArialMT-41"/>
    </g>
   </g>
   <g id="legend_1">
    <g id="patch_7">
     <path d="M 61.7 246.5 
L 143.357813 246.5 
Q 145.557813 246.5 145.557813 244.3 
L 145.557813 167.466719 
Q 145.557813 165.266719 143.357813 165.266719 
L 61.7 165.266719 
Q 59.5 165.266719 59.5 167.466719 
L 59.5 244.3 
Q 59.5 246.5 61.7 246.5 
z
" style="fill:#ffffff;opacity:0.8;stroke:#cccccc;stroke-linejoin:miter;"/>
    </g>
    <g id="line2d_6">
     <path d="M 63.9 173.690312 
L 85.9 173.690312 
" style="fill:none;stroke:#ea4c4e;stroke-dasharray:5.55,2.4;stroke-dashoffset:0;stroke-width:1.5;"/>
    </g>
    <g id="line2d_7"/>
    <g id="text_13">
     <!-- ADAM -->
     <g style="fill:#262626;" transform="translate(94.7 177.540312)scale(0.11 -0.11)">
      <defs>
       <path d="M -0.140625 0 
L 27.34375 71.578125 
L 37.546875 71.578125 
L 66.84375 0 
L 56.0625 0 
L 47.703125 21.6875 
L 17.78125 21.6875 
L 9.90625 0 
z
M 20.515625 29.390625 
L 44.78125 29.390625 
L 37.3125 49.21875 
Q 33.890625 58.25 32.234375 64.0625 
Q 30.859375 57.171875 28.375 50.390625 
z
" id="ArialMT-65"/>
       <path d="M 7.71875 0 
L 7.71875 71.578125 
L 32.375 71.578125 
Q 40.71875 71.578125 45.125 70.5625 
Q 51.265625 69.140625 55.609375 65.4375 
Q 61.28125 60.640625 64.078125 53.1875 
Q 66.890625 45.75 66.890625 36.1875 
Q 66.890625 28.03125 64.984375 21.734375 
Q 63.09375 15.4375 60.109375 11.296875 
Q 57.125 7.171875 53.578125 4.796875 
Q 50.046875 2.4375 45.046875 1.21875 
Q 40.046875 0 33.546875 0 
z
M 17.1875 8.453125 
L 32.46875 8.453125 
Q 39.546875 8.453125 43.578125 9.765625 
Q 47.609375 11.078125 50 13.484375 
Q 53.375 16.84375 55.25 22.53125 
Q 57.125 28.21875 57.125 36.328125 
Q 57.125 47.5625 53.4375 53.59375 
Q 49.75 59.625 44.484375 61.671875 
Q 40.671875 63.140625 32.234375 63.140625 
L 17.1875 63.140625 
z
" id="ArialMT-68"/>
      </defs>
      <use xlink:href="#ArialMT-65"/>
      <use x="66.699219" xlink:href="#ArialMT-68"/>
      <use x="138.916016" xlink:href="#ArialMT-65"/>
      <use x="205.615234" xlink:href="#ArialMT-77"/>
     </g>
    </g>
    <g id="line2d_8">
     <path d="M 63.9 189.384219 
L 85.9 189.384219 
" style="fill:none;stroke:#377eb8;stroke-dasharray:5.55,2.4;stroke-dashoffset:0;stroke-width:1.5;"/>
    </g>
    <g id="line2d_9"/>
    <g id="text_14">
     <!-- RMSprop -->
     <g style="fill:#262626;" transform="translate(94.7 193.234219)scale(0.11 -0.11)">
      <defs>
       <path d="M 7.859375 0 
L 7.859375 71.578125 
L 39.59375 71.578125 
Q 49.171875 71.578125 54.140625 69.640625 
Q 59.125 67.71875 62.109375 62.828125 
Q 65.09375 57.953125 65.09375 52.046875 
Q 65.09375 44.4375 60.15625 39.203125 
Q 55.21875 33.984375 44.921875 32.5625 
Q 48.6875 30.765625 50.640625 29 
Q 54.78125 25.203125 58.5 19.484375 
L 70.953125 0 
L 59.03125 0 
L 49.5625 14.890625 
Q 45.40625 21.34375 42.71875 24.75 
Q 40.046875 28.171875 37.921875 29.53125 
Q 35.796875 30.90625 33.59375 31.453125 
Q 31.984375 31.78125 28.328125 31.78125 
L 17.328125 31.78125 
L 17.328125 0 
z
M 17.328125 39.984375 
L 37.703125 39.984375 
Q 44.1875 39.984375 47.84375 41.328125 
Q 51.515625 42.671875 53.421875 45.625 
Q 55.328125 48.578125 55.328125 52.046875 
Q 55.328125 57.125 51.640625 60.390625 
Q 47.953125 63.671875 39.984375 63.671875 
L 17.328125 63.671875 
z
" id="ArialMT-82"/>
      </defs>
      <use xlink:href="#ArialMT-82"/>
      <use x="72.216797" xlink:href="#ArialMT-77"/>
      <use x="155.517578" xlink:href="#ArialMT-83"/>
      <use x="222.216797" xlink:href="#ArialMT-112"/>
      <use x="277.832031" xlink:href="#ArialMT-114"/>
      <use x="311.132812" xlink:href="#ArialMT-111"/>
      <use x="366.748047" xlink:href="#ArialMT-112"/>
     </g>
    </g>
    <g id="line2d_10">
     <path d="M 63.9 204.944063 
L 85.9 204.944063 
" style="fill:none;stroke:#4eae4b;stroke-dasharray:5.55,2.4;stroke-dashoffset:0;stroke-width:1.5;"/>
    </g>
    <g id="line2d_11"/>
    <g id="text_15">
     <!-- SGD -->
     <g style="fill:#262626;" transform="translate(94.7 208.794062)scale(0.11 -0.11)">
      <defs>
       <path d="M 41.21875 28.078125 
L 41.21875 36.46875 
L 71.53125 36.53125 
L 71.53125 9.96875 
Q 64.546875 4.390625 57.125 1.578125 
Q 49.703125 -1.21875 41.890625 -1.21875 
Q 31.34375 -1.21875 22.71875 3.296875 
Q 14.109375 7.8125 9.71875 16.359375 
Q 5.328125 24.90625 5.328125 35.453125 
Q 5.328125 45.90625 9.6875 54.953125 
Q 14.0625 64.015625 22.265625 68.40625 
Q 30.46875 72.796875 41.15625 72.796875 
Q 48.921875 72.796875 55.1875 70.28125 
Q 61.46875 67.78125 65.03125 63.28125 
Q 68.609375 58.796875 70.453125 51.5625 
L 61.921875 49.21875 
Q 60.296875 54.6875 57.90625 57.8125 
Q 55.515625 60.9375 51.0625 62.8125 
Q 46.625 64.703125 41.21875 64.703125 
Q 34.71875 64.703125 29.984375 62.71875 
Q 25.25 60.75 22.34375 57.515625 
Q 19.4375 54.296875 17.828125 50.4375 
Q 15.09375 43.796875 15.09375 36.03125 
Q 15.09375 26.46875 18.390625 20.015625 
Q 21.6875 13.578125 27.984375 10.453125 
Q 34.28125 7.328125 41.359375 7.328125 
Q 47.515625 7.328125 53.375 9.6875 
Q 59.234375 12.0625 62.25 14.75 
L 62.25 28.078125 
z
" id="ArialMT-71"/>
      </defs>
      <use xlink:href="#ArialMT-83"/>
      <use x="66.699219" xlink:href="#ArialMT-71"/>
      <use x="144.482422" xlink:href="#ArialMT-68"/>
     </g>
    </g>
    <g id="line2d_12">
     <path d="M 63.9 220.503906 
L 85.9 220.503906 
" style="fill:none;stroke:#994fa1;stroke-dasharray:5.55,2.4;stroke-dashoffset:0;stroke-width:1.5;"/>
    </g>
    <g id="line2d_13"/>
    <g id="text_16">
     <!-- NAG -->
     <g style="fill:#262626;" transform="translate(94.7 224.353906)scale(0.11 -0.11)">
      <use xlink:href="#ArialMT-78"/>
      <use x="72.216797" xlink:href="#ArialMT-65"/>
      <use x="138.916016" xlink:href="#ArialMT-71"/>
     </g>
    </g>
    <g id="line2d_14">
     <path d="M 63.9 236.06375 
L 85.9 236.06375 
" style="fill:none;stroke:#ff8101;stroke-linecap:round;stroke-width:1.5;"/>
    </g>
    <g id="line2d_15"/>
    <g id="text_17">
     <!-- LSTM -->
     <g style="fill:#262626;" transform="translate(94.7 239.91375)scale(0.11 -0.11)">
      <defs>
       <path d="M 7.328125 0 
L 7.328125 71.578125 
L 16.796875 71.578125 
L 16.796875 8.453125 
L 52.046875 8.453125 
L 52.046875 0 
z
" id="ArialMT-76"/>
      </defs>
      <use xlink:href="#ArialMT-76"/>
      <use x="55.615234" xlink:href="#ArialMT-83"/>
      <use x="122.314453" xlink:href="#ArialMT-84"/>
      <use x="183.398438" xlink:href="#ArialMT-77"/>
     </g>
    </g>
   </g>
  </g>
 </g>
 <defs>
  <clipPath id="p3e418a051e">
   <rect height="217.44" width="334.8" x="54" y="34.56"/>
  </clipPath>
 </defs>
</svg>
