<?xml version="1.0" encoding="utf-8" standalone="no"?>
<!DOCTYPE svg PUBLIC "-//W3C//DTD SVG 1.1//EN"
  "http://www.w3.org/Graphics/SVG/1.1/DTD/svg11.dtd">
<svg height="288pt" version="1.1" viewBox="0 0 432 288" width="432pt" xmlns="http://www.w3.org/2000/svg" xmlns:xlink="http://www.w3.org/1999/xlink">
 <metadata>
  <rdf:RDF xmlns:cc="http://creativecommons.org/ns#" xmlns:dc="http://purl.org/dc/elements/1.1/" xmlns:rdf="http://www.w3.org/1999/02/22-rdf-syntax-ns#">
   <cc:Work>
    <dc:type rdf:resource="http://purl.org/dc/dcmitype/StillImage"/>
    <dc:date>2021-03-29T17:19:10.806830</dc:date>
    <dc:format>image/svg+xml</dc:format>
    <dc:creator>
     <cc:Agent>
      <dc:title>Matplotlib v3.4.0, https://matplotlib.org/</dc:title>
     </cc:Agent>
    </dc:creator>
   </cc:Work>
  </rdf:RDF>
 </metadata>
 <defs>
  <style type="text/css">*{stroke-linecap:butt;stroke-linejoin:round;}</style>
 </defs>
 <g id="figure_1">
  <g id="patch_1">
   <path d="M 0 288 
L 432 288 
L 432 0 
L 0 0 
z
" style="fill:#ffffff;"/>
  </g>
  <g id="axes_1">
   <g id="patch_2">
    <path d="M 54 252 
L 388.8 252 
L 388.8 34.56 
L 54 34.56 
z
" style="fill:#ffffff;"/>
   </g>
   <g id="matplotlib.axis_1">
    <g id="xtick_1">
     <g id="line2d_1">
      <defs>
       <path d="M 0 0 
L 0 6 
" id="mbf3322e600" style="stroke:#262626;stroke-width:1.25;"/>
      </defs>
      <g>
       <use style="fill:#262626;stroke:#262626;stroke-width:1.25;" x="120.96" xlink:href="#mbf3322e600" y="252"/>
      </g>
     </g>
     <g id="text_1">
      <!-- 20 -->
      <g style="fill:#262626;" transform="translate(114.842969 269.373594)scale(0.11 -0.11)">
       <defs>
        <path d="M 3222 541 
L 3222 0 
L 194 0 
Q 188 203 259 391 
Q 375 700 629 1000 
Q 884 1300 1366 1694 
Q 2113 2306 2375 2664 
Q 2638 3022 2638 3341 
Q 2638 3675 2398 3904 
Q 2159 4134 1775 4134 
Q 1369 4134 1125 3890 
Q 881 3647 878 3216 
L 300 3275 
Q 359 3922 746 4261 
Q 1134 4600 1788 4600 
Q 2447 4600 2831 4234 
Q 3216 3869 3216 3328 
Q 3216 3053 3103 2787 
Q 2991 2522 2730 2228 
Q 2469 1934 1863 1422 
Q 1356 997 1212 845 
Q 1069 694 975 541 
L 3222 541 
z
" id="ArialMT-32" transform="scale(0.015625)"/>
        <path d="M 266 2259 
Q 266 3072 433 3567 
Q 600 4063 929 4331 
Q 1259 4600 1759 4600 
Q 2128 4600 2406 4451 
Q 2684 4303 2865 4023 
Q 3047 3744 3150 3342 
Q 3253 2941 3253 2259 
Q 3253 1453 3087 958 
Q 2922 463 2592 192 
Q 2263 -78 1759 -78 
Q 1097 -78 719 397 
Q 266 969 266 2259 
z
M 844 2259 
Q 844 1131 1108 757 
Q 1372 384 1759 384 
Q 2147 384 2411 759 
Q 2675 1134 2675 2259 
Q 2675 3391 2411 3762 
Q 2147 4134 1753 4134 
Q 1366 4134 1134 3806 
Q 844 3388 844 2259 
z
" id="ArialMT-30" transform="scale(0.015625)"/>
       </defs>
       <use xlink:href="#ArialMT-32"/>
       <use x="55.615234" xlink:href="#ArialMT-30"/>
      </g>
     </g>
    </g>
    <g id="xtick_2">
     <g id="line2d_2">
      <g>
       <use style="fill:#262626;stroke:#262626;stroke-width:1.25;" x="187.92" xlink:href="#mbf3322e600" y="252"/>
      </g>
     </g>
     <g id="text_2">
      <!-- 40 -->
      <g style="fill:#262626;" transform="translate(181.802969 269.373594)scale(0.11 -0.11)">
       <defs>
        <path d="M 2069 0 
L 2069 1097 
L 81 1097 
L 81 1613 
L 2172 4581 
L 2631 4581 
L 2631 1613 
L 3250 1613 
L 3250 1097 
L 2631 1097 
L 2631 0 
L 2069 0 
z
M 2069 1613 
L 2069 3678 
L 634 1613 
L 2069 1613 
z
" id="ArialMT-34" transform="scale(0.015625)"/>
       </defs>
       <use xlink:href="#ArialMT-34"/>
       <use x="55.615234" xlink:href="#ArialMT-30"/>
      </g>
     </g>
    </g>
    <g id="xtick_3">
     <g id="line2d_3">
      <g>
       <use style="fill:#262626;stroke:#262626;stroke-width:1.25;" x="254.88" xlink:href="#mbf3322e600" y="252"/>
      </g>
     </g>
     <g id="text_3">
      <!-- 60 -->
      <g style="fill:#262626;" transform="translate(248.762969 269.373594)scale(0.11 -0.11)">
       <defs>
        <path d="M 3184 3459 
L 2625 3416 
Q 2550 3747 2413 3897 
Q 2184 4138 1850 4138 
Q 1581 4138 1378 3988 
Q 1113 3794 959 3422 
Q 806 3050 800 2363 
Q 1003 2672 1297 2822 
Q 1591 2972 1913 2972 
Q 2475 2972 2870 2558 
Q 3266 2144 3266 1488 
Q 3266 1056 3080 686 
Q 2894 316 2569 119 
Q 2244 -78 1831 -78 
Q 1128 -78 684 439 
Q 241 956 241 2144 
Q 241 3472 731 4075 
Q 1159 4600 1884 4600 
Q 2425 4600 2770 4297 
Q 3116 3994 3184 3459 
z
M 888 1484 
Q 888 1194 1011 928 
Q 1134 663 1356 523 
Q 1578 384 1822 384 
Q 2178 384 2434 671 
Q 2691 959 2691 1453 
Q 2691 1928 2437 2201 
Q 2184 2475 1800 2475 
Q 1419 2475 1153 2201 
Q 888 1928 888 1484 
z
" id="ArialMT-36" transform="scale(0.015625)"/>
       </defs>
       <use xlink:href="#ArialMT-36"/>
       <use x="55.615234" xlink:href="#ArialMT-30"/>
      </g>
     </g>
    </g>
    <g id="xtick_4">
     <g id="line2d_4">
      <g>
       <use style="fill:#262626;stroke:#262626;stroke-width:1.25;" x="321.84" xlink:href="#mbf3322e600" y="252"/>
      </g>
     </g>
     <g id="text_4">
      <!-- 80 -->
      <g style="fill:#262626;" transform="translate(315.722969 269.373594)scale(0.11 -0.11)">
       <defs>
        <path d="M 1131 2484 
Q 781 2613 612 2850 
Q 444 3088 444 3419 
Q 444 3919 803 4259 
Q 1163 4600 1759 4600 
Q 2359 4600 2725 4251 
Q 3091 3903 3091 3403 
Q 3091 3084 2923 2848 
Q 2756 2613 2416 2484 
Q 2838 2347 3058 2040 
Q 3278 1734 3278 1309 
Q 3278 722 2862 322 
Q 2447 -78 1769 -78 
Q 1091 -78 675 323 
Q 259 725 259 1325 
Q 259 1772 486 2073 
Q 713 2375 1131 2484 
z
M 1019 3438 
Q 1019 3113 1228 2906 
Q 1438 2700 1772 2700 
Q 2097 2700 2305 2904 
Q 2513 3109 2513 3406 
Q 2513 3716 2298 3927 
Q 2084 4138 1766 4138 
Q 1444 4138 1231 3931 
Q 1019 3725 1019 3438 
z
M 838 1322 
Q 838 1081 952 856 
Q 1066 631 1291 507 
Q 1516 384 1775 384 
Q 2178 384 2440 643 
Q 2703 903 2703 1303 
Q 2703 1709 2433 1975 
Q 2163 2241 1756 2241 
Q 1359 2241 1098 1978 
Q 838 1716 838 1322 
z
" id="ArialMT-38" transform="scale(0.015625)"/>
       </defs>
       <use xlink:href="#ArialMT-38"/>
       <use x="55.615234" xlink:href="#ArialMT-30"/>
      </g>
     </g>
    </g>
    <g id="xtick_5">
     <g id="line2d_5">
      <g>
       <use style="fill:#262626;stroke:#262626;stroke-width:1.25;" x="388.8" xlink:href="#mbf3322e600" y="252"/>
      </g>
     </g>
     <g id="text_5">
      <!-- 100 -->
      <g style="fill:#262626;" transform="translate(379.624453 269.373594)scale(0.11 -0.11)">
       <defs>
        <path d="M 2384 0 
L 1822 0 
L 1822 3584 
Q 1619 3391 1289 3197 
Q 959 3003 697 2906 
L 697 3450 
Q 1169 3672 1522 3987 
Q 1875 4303 2022 4600 
L 2384 4600 
L 2384 0 
z
" id="ArialMT-31" transform="scale(0.015625)"/>
       </defs>
       <use xlink:href="#ArialMT-31"/>
       <use x="55.615234" xlink:href="#ArialMT-30"/>
       <use x="111.230469" xlink:href="#ArialMT-30"/>
      </g>
     </g>
    </g>
    <g id="text_6">
     <!-- Step -->
     <g style="fill:#262626;" transform="translate(209.057813 284.295469)scale(0.12 -0.12)">
      <defs>
       <path d="M 288 1472 
L 859 1522 
Q 900 1178 1048 958 
Q 1197 738 1509 602 
Q 1822 466 2213 466 
Q 2559 466 2825 569 
Q 3091 672 3220 851 
Q 3350 1031 3350 1244 
Q 3350 1459 3225 1620 
Q 3100 1781 2813 1891 
Q 2628 1963 1997 2114 
Q 1366 2266 1113 2400 
Q 784 2572 623 2826 
Q 463 3081 463 3397 
Q 463 3744 659 4045 
Q 856 4347 1234 4503 
Q 1613 4659 2075 4659 
Q 2584 4659 2973 4495 
Q 3363 4331 3572 4012 
Q 3781 3694 3797 3291 
L 3216 3247 
Q 3169 3681 2898 3903 
Q 2628 4125 2100 4125 
Q 1550 4125 1298 3923 
Q 1047 3722 1047 3438 
Q 1047 3191 1225 3031 
Q 1400 2872 2139 2705 
Q 2878 2538 3153 2413 
Q 3553 2228 3743 1945 
Q 3934 1663 3934 1294 
Q 3934 928 3725 604 
Q 3516 281 3123 101 
Q 2731 -78 2241 -78 
Q 1619 -78 1198 103 
Q 778 284 539 648 
Q 300 1013 288 1472 
z
" id="ArialMT-53" transform="scale(0.015625)"/>
       <path d="M 1650 503 
L 1731 6 
Q 1494 -44 1306 -44 
Q 1000 -44 831 53 
Q 663 150 594 308 
Q 525 466 525 972 
L 525 2881 
L 113 2881 
L 113 3319 
L 525 3319 
L 525 4141 
L 1084 4478 
L 1084 3319 
L 1650 3319 
L 1650 2881 
L 1084 2881 
L 1084 941 
Q 1084 700 1114 631 
Q 1144 563 1211 522 
Q 1278 481 1403 481 
Q 1497 481 1650 503 
z
" id="ArialMT-74" transform="scale(0.015625)"/>
       <path d="M 2694 1069 
L 3275 997 
Q 3138 488 2766 206 
Q 2394 -75 1816 -75 
Q 1088 -75 661 373 
Q 234 822 234 1631 
Q 234 2469 665 2931 
Q 1097 3394 1784 3394 
Q 2450 3394 2872 2941 
Q 3294 2488 3294 1666 
Q 3294 1616 3291 1516 
L 816 1516 
Q 847 969 1125 678 
Q 1403 388 1819 388 
Q 2128 388 2347 550 
Q 2566 713 2694 1069 
z
M 847 1978 
L 2700 1978 
Q 2663 2397 2488 2606 
Q 2219 2931 1791 2931 
Q 1403 2931 1139 2672 
Q 875 2413 847 1978 
z
" id="ArialMT-65" transform="scale(0.015625)"/>
       <path d="M 422 -1272 
L 422 3319 
L 934 3319 
L 934 2888 
Q 1116 3141 1344 3267 
Q 1572 3394 1897 3394 
Q 2322 3394 2647 3175 
Q 2972 2956 3137 2557 
Q 3303 2159 3303 1684 
Q 3303 1175 3120 767 
Q 2938 359 2589 142 
Q 2241 -75 1856 -75 
Q 1575 -75 1351 44 
Q 1128 163 984 344 
L 984 -1272 
L 422 -1272 
z
M 931 1641 
Q 931 1000 1190 694 
Q 1450 388 1819 388 
Q 2194 388 2461 705 
Q 2728 1022 2728 1688 
Q 2728 2322 2467 2637 
Q 2206 2953 1844 2953 
Q 1484 2953 1207 2617 
Q 931 2281 931 1641 
z
" id="ArialMT-70" transform="scale(0.015625)"/>
      </defs>
      <use xlink:href="#ArialMT-53"/>
      <use x="66.699219" xlink:href="#ArialMT-74"/>
      <use x="94.482422" xlink:href="#ArialMT-65"/>
      <use x="150.097656" xlink:href="#ArialMT-70"/>
     </g>
    </g>
   </g>
   <g id="matplotlib.axis_2">
    <g id="ytick_1">
     <g id="line2d_6">
      <defs>
       <path d="M 0 0 
L -6 0 
" id="m8b7ac37899" style="stroke:#262626;stroke-width:1.25;"/>
      </defs>
      <g>
       <use style="fill:#262626;stroke:#262626;stroke-width:1.25;" x="54" xlink:href="#m8b7ac37899" y="128.522703"/>
      </g>
     </g>
     <g id="text_7">
      <!-- $\mathdefault{10^{0}}$ -->
      <g style="fill:#262626;" transform="translate(27.23 134.194578)scale(0.11 -0.11)">
       <use transform="translate(0 0.99375)" xlink:href="#ArialMT-31"/>
       <use transform="translate(55.615234 0.99375)" xlink:href="#ArialMT-30"/>
       <use transform="translate(112.972813 70.6875)scale(0.7)" xlink:href="#ArialMT-30"/>
      </g>
     </g>
    </g>
    <g id="ytick_2">
     <g id="line2d_7">
      <defs>
       <path d="M 0 0 
L -4 0 
" id="mb35cc9795c" style="stroke:#262626;"/>
      </defs>
      <g>
       <use style="fill:#262626;stroke:#262626;" x="54" xlink:href="#mb35cc9795c" y="245.715137"/>
      </g>
     </g>
    </g>
    <g id="ytick_3">
     <g id="line2d_8">
      <g>
       <use style="fill:#262626;stroke:#262626;" x="54" xlink:href="#mb35cc9795c" y="216.19089"/>
      </g>
     </g>
    </g>
    <g id="ytick_4">
     <g id="line2d_9">
      <g>
       <use style="fill:#262626;stroke:#262626;" x="54" xlink:href="#mb35cc9795c" y="195.243103"/>
      </g>
     </g>
    </g>
    <g id="ytick_5">
     <g id="line2d_10">
      <g>
       <use style="fill:#262626;stroke:#262626;" x="54" xlink:href="#mb35cc9795c" y="178.994737"/>
      </g>
     </g>
    </g>
    <g id="ytick_6">
     <g id="line2d_11">
      <g>
       <use style="fill:#262626;stroke:#262626;" x="54" xlink:href="#mb35cc9795c" y="165.718856"/>
      </g>
     </g>
    </g>
    <g id="ytick_7">
     <g id="line2d_12">
      <g>
       <use style="fill:#262626;stroke:#262626;" x="54" xlink:href="#mb35cc9795c" y="154.494258"/>
      </g>
     </g>
    </g>
    <g id="ytick_8">
     <g id="line2d_13">
      <g>
       <use style="fill:#262626;stroke:#262626;" x="54" xlink:href="#mb35cc9795c" y="144.771069"/>
      </g>
     </g>
    </g>
    <g id="ytick_9">
     <g id="line2d_14">
      <g>
       <use style="fill:#262626;stroke:#262626;" x="54" xlink:href="#mb35cc9795c" y="136.194609"/>
      </g>
     </g>
    </g>
    <g id="ytick_10">
     <g id="line2d_15">
      <g>
       <use style="fill:#262626;stroke:#262626;" x="54" xlink:href="#mb35cc9795c" y="78.050669"/>
      </g>
     </g>
    </g>
    <g id="ytick_11">
     <g id="line2d_16">
      <g>
       <use style="fill:#262626;stroke:#262626;" x="54" xlink:href="#mb35cc9795c" y="48.526422"/>
      </g>
     </g>
    </g>
    <g id="text_8">
     <!-- Loss -->
     <g style="fill:#262626;" transform="translate(20.845 155.953125)rotate(-90)scale(0.12 -0.12)">
      <defs>
       <path d="M 469 0 
L 469 4581 
L 1075 4581 
L 1075 541 
L 3331 541 
L 3331 0 
L 469 0 
z
" id="ArialMT-4c" transform="scale(0.015625)"/>
       <path d="M 213 1659 
Q 213 2581 725 3025 
Q 1153 3394 1769 3394 
Q 2453 3394 2887 2945 
Q 3322 2497 3322 1706 
Q 3322 1066 3130 698 
Q 2938 331 2570 128 
Q 2203 -75 1769 -75 
Q 1072 -75 642 372 
Q 213 819 213 1659 
z
M 791 1659 
Q 791 1022 1069 705 
Q 1347 388 1769 388 
Q 2188 388 2466 706 
Q 2744 1025 2744 1678 
Q 2744 2294 2464 2611 
Q 2184 2928 1769 2928 
Q 1347 2928 1069 2612 
Q 791 2297 791 1659 
z
" id="ArialMT-6f" transform="scale(0.015625)"/>
       <path d="M 197 991 
L 753 1078 
Q 800 744 1014 566 
Q 1228 388 1613 388 
Q 2000 388 2187 545 
Q 2375 703 2375 916 
Q 2375 1106 2209 1216 
Q 2094 1291 1634 1406 
Q 1016 1563 777 1677 
Q 538 1791 414 1992 
Q 291 2194 291 2438 
Q 291 2659 392 2848 
Q 494 3038 669 3163 
Q 800 3259 1026 3326 
Q 1253 3394 1513 3394 
Q 1903 3394 2198 3281 
Q 2494 3169 2634 2976 
Q 2775 2784 2828 2463 
L 2278 2388 
Q 2241 2644 2061 2787 
Q 1881 2931 1553 2931 
Q 1166 2931 1000 2803 
Q 834 2675 834 2503 
Q 834 2394 903 2306 
Q 972 2216 1119 2156 
Q 1203 2125 1616 2013 
Q 2213 1853 2448 1751 
Q 2684 1650 2818 1456 
Q 2953 1263 2953 975 
Q 2953 694 2789 445 
Q 2625 197 2315 61 
Q 2006 -75 1616 -75 
Q 969 -75 630 194 
Q 291 463 197 991 
z
" id="ArialMT-73" transform="scale(0.015625)"/>
      </defs>
      <use xlink:href="#ArialMT-4c"/>
      <use x="55.615234" xlink:href="#ArialMT-6f"/>
      <use x="111.230469" xlink:href="#ArialMT-73"/>
      <use x="161.230469" xlink:href="#ArialMT-73"/>
     </g>
    </g>
   </g>
   <g id="PolyCollection_1">
    <defs>
     <path d="M 54 -221.612032 
L 54 -221.432477 
L 57.348 -218.673079 
L 60.696 -210.564416 
L 64.044 -204.203477 
L 67.392 -197.840259 
L 70.74 -192.641731 
L 74.088 -186.459621 
L 77.436 -180.043799 
L 80.784 -173.20783 
L 84.132 -167.608367 
L 87.48 -161.508772 
L 90.828 -155.498514 
L 94.176 -150.175628 
L 97.524 -146.015451 
L 100.872 -140.215299 
L 104.22 -136.481632 
L 107.568 -132.441281 
L 110.916 -128.233887 
L 114.264 -125.700123 
L 117.612 -120.997895 
L 120.96 -118.448763 
L 124.308 -114.805037 
L 127.656 -112.89629 
L 131.004 -111.318538 
L 134.352 -111.024914 
L 137.7 -107.122665 
L 141.048 -103.372578 
L 144.396 -103.46888 
L 147.744 -103.140371 
L 151.092 -100.633683 
L 154.44 -97.984852 
L 157.788 -96.960054 
L 161.136 -97.567673 
L 164.484 -94.412871 
L 167.832 -93.144584 
L 171.18 -92.209276 
L 174.528 -92.64278 
L 177.876 -91.622124 
L 181.224 -91.998984 
L 184.572 -87.767163 
L 187.92 -90.551181 
L 191.268 -87.345531 
L 194.616 -88.028938 
L 197.964 -88.173359 
L 201.312 -87.873467 
L 204.66 -83.575085 
L 208.008 -85.828172 
L 211.356 -87.499438 
L 214.704 -83.775455 
L 218.052 -82.204881 
L 221.4 -83.220893 
L 224.748 -80.191673 
L 228.096 -84.678908 
L 231.444 -82.121046 
L 234.792 -83.920927 
L 238.14 -82.254547 
L 241.488 -80.855785 
L 244.836 -81.433176 
L 248.184 -79.904604 
L 251.532 -80.399446 
L 254.88 -80.001268 
L 258.228 -79.503822 
L 261.576 -78.284012 
L 264.924 -78.377789 
L 268.272 -78.619694 
L 271.62 -76.541887 
L 274.968 -75.615446 
L 278.316 -75.724165 
L 281.664 -75.016248 
L 285.012 -78.474377 
L 288.36 -74.819482 
L 291.708 -72.230143 
L 295.056 -77.399802 
L 298.404 -72.043314 
L 301.752 -76.671505 
L 305.1 -74.549591 
L 308.448 -78.568991 
L 311.796 -73.948119 
L 315.144 -74.183222 
L 318.492 -72.303149 
L 321.84 -72.655124 
L 325.188 -73.433405 
L 328.536 -75.821074 
L 331.884 -72.099211 
L 335.232 -73.015722 
L 338.58 -74.045345 
L 341.928 -71.695194 
L 345.276 -70.295712 
L 348.624 -72.825791 
L 351.972 -72.129531 
L 355.32 -72.656458 
L 358.668 -72.855222 
L 362.016 -70.959432 
L 365.364 -68.197982 
L 368.712 -72.099277 
L 372.06 -68.23193 
L 375.408 -68.55276 
L 378.756 -67.127627 
L 382.104 -70.508033 
L 385.452 -72.667016 
L 385.452 -76.097057 
L 385.452 -76.097057 
L 382.104 -73.788239 
L 378.756 -70.388008 
L 375.408 -72.16224 
L 372.06 -71.912549 
L 368.712 -75.189303 
L 365.364 -71.212565 
L 362.016 -74.206821 
L 358.668 -75.574984 
L 355.32 -76.441207 
L 351.972 -75.113632 
L 348.624 -76.562608 
L 345.276 -73.387434 
L 341.928 -75.134897 
L 338.58 -77.255312 
L 335.232 -76.371487 
L 331.884 -75.025905 
L 328.536 -79.010764 
L 325.188 -76.453336 
L 321.84 -75.900837 
L 318.492 -75.570336 
L 315.144 -77.265058 
L 311.796 -77.153638 
L 308.448 -81.574787 
L 305.1 -77.938465 
L 301.752 -80.197152 
L 298.404 -75.734788 
L 295.056 -80.755102 
L 291.708 -75.56677 
L 288.36 -78.35524 
L 285.012 -81.757893 
L 281.664 -78.042468 
L 278.316 -78.724749 
L 274.968 -78.751325 
L 271.62 -79.657932 
L 268.272 -82.264262 
L 264.924 -81.195344 
L 261.576 -81.530154 
L 258.228 -82.64573 
L 254.88 -83.38667 
L 251.532 -83.614363 
L 248.184 -82.89177 
L 244.836 -84.348941 
L 241.488 -83.730338 
L 238.14 -85.385333 
L 234.792 -86.936028 
L 231.444 -85.172471 
L 228.096 -87.706932 
L 224.748 -83.054609 
L 221.4 -85.964335 
L 218.052 -85.323565 
L 214.704 -86.659021 
L 211.356 -90.28163 
L 208.008 -88.325038 
L 204.66 -86.746999 
L 201.312 -90.62703 
L 197.964 -91.019379 
L 194.616 -90.982085 
L 191.268 -90.048003 
L 187.92 -93.139975 
L 184.572 -90.356709 
L 181.224 -94.837634 
L 177.876 -94.013301 
L 174.528 -95.571485 
L 171.18 -95.069946 
L 167.832 -95.662077 
L 164.484 -97.2913 
L 161.136 -99.77044 
L 157.788 -99.759083 
L 154.44 -100.381725 
L 151.092 -103.176458 
L 147.744 -105.769699 
L 144.396 -105.543329 
L 141.048 -105.623911 
L 137.7 -109.513886 
L 134.352 -113.374429 
L 131.004 -113.381637 
L 127.656 -114.774834 
L 124.308 -116.644687 
L 120.96 -120.361741 
L 117.612 -122.59024 
L 114.264 -127.295681 
L 110.916 -129.979496 
L 107.568 -134.040851 
L 104.22 -138.070617 
L 100.872 -141.806519 
L 97.524 -147.440778 
L 94.176 -151.827204 
L 90.828 -156.861144 
L 87.48 -162.788477 
L 84.132 -168.740783 
L 80.784 -174.381814 
L 77.436 -181.068954 
L 74.088 -187.358628 
L 70.74 -193.443347 
L 67.392 -198.512418 
L 64.044 -204.787114 
L 60.696 -211.099315 
L 57.348 -219.260427 
L 54 -221.612032 
z
" id="m8379146262" style="stroke:#ffffff;stroke-opacity:0.2;"/>
    </defs>
    <g clip-path="url(#p5467500f9e)">
     <use style="fill:#ea4c4e;fill-opacity:0.2;stroke:#ffffff;stroke-opacity:0.2;" x="0" xlink:href="#m8379146262" y="288"/>
    </g>
   </g>
   <g id="PolyCollection_2">
    <defs>
     <path d="M 54 -221.688088 
L 54 -221.499835 
L 57.348 -242.034553 
L 60.696 -215.403394 
L 64.044 -209.520741 
L 67.392 -203.851944 
L 70.74 -198.183236 
L 74.088 -192.245601 
L 77.436 -186.521753 
L 80.784 -181.985583 
L 84.132 -175.878405 
L 87.48 -170.950838 
L 90.828 -166.146305 
L 94.176 -162.025307 
L 97.524 -157.571521 
L 100.872 -154.320275 
L 104.22 -149.742258 
L 107.568 -146.223925 
L 110.916 -142.65346 
L 114.264 -141.695126 
L 117.612 -138.406162 
L 120.96 -134.7412 
L 124.308 -131.258974 
L 127.656 -129.960995 
L 131.004 -126.702437 
L 134.352 -123.975057 
L 137.7 -123.665626 
L 141.048 -121.043467 
L 144.396 -118.012564 
L 147.744 -116.403481 
L 151.092 -117.452732 
L 154.44 -115.021917 
L 157.788 -113.385094 
L 161.136 -111.972186 
L 164.484 -109.271057 
L 167.832 -107.845087 
L 171.18 -107.49738 
L 174.528 -108.011852 
L 177.876 -107.297147 
L 181.224 -103.533658 
L 184.572 -103.701322 
L 187.92 -102.869335 
L 191.268 -101.315605 
L 194.616 -99.964243 
L 197.964 -99.477555 
L 201.312 -100.361816 
L 204.66 -97.540049 
L 208.008 -97.982413 
L 211.356 -95.24579 
L 214.704 -95.354239 
L 218.052 -94.067024 
L 221.4 -93.24155 
L 224.748 -93.983766 
L 228.096 -93.554862 
L 231.444 -91.975278 
L 234.792 -90.503374 
L 238.14 -91.221166 
L 241.488 -89.610748 
L 244.836 -90.004664 
L 248.184 -91.279568 
L 251.532 -86.65798 
L 254.88 -88.341711 
L 258.228 -87.468899 
L 261.576 -86.071236 
L 264.924 -85.842378 
L 268.272 -86.758972 
L 271.62 -83.921011 
L 274.968 -84.179948 
L 278.316 -82.627928 
L 281.664 -85.185416 
L 285.012 -83.429996 
L 288.36 -82.623292 
L 291.708 -82.469875 
L 295.056 -81.057466 
L 298.404 -79.665395 
L 301.752 -77.362836 
L 305.1 -81.873611 
L 308.448 -80.760313 
L 311.796 -81.163673 
L 315.144 -81.29154 
L 318.492 -78.39679 
L 321.84 -78.193955 
L 325.188 -78.97246 
L 328.536 -77.731102 
L 331.884 -76.758042 
L 335.232 -78.756382 
L 338.58 -76.310752 
L 341.928 -75.453186 
L 345.276 -80.38239 
L 348.624 -74.812512 
L 351.972 -74.433842 
L 355.32 -74.27386 
L 358.668 -74.26232 
L 362.016 -74.886988 
L 365.364 -75.427851 
L 368.712 -73.005413 
L 372.06 -75.085893 
L 375.408 -74.061478 
L 378.756 -73.792175 
L 382.104 -77.574181 
L 385.452 -73.983642 
L 385.452 -76.94497 
L 385.452 -76.94497 
L 382.104 -80.52778 
L 378.756 -76.791355 
L 375.408 -77.219011 
L 372.06 -77.998786 
L 368.712 -76.308277 
L 365.364 -78.115862 
L 362.016 -77.801978 
L 358.668 -77.065983 
L 355.32 -77.153192 
L 351.972 -77.025216 
L 348.624 -77.542614 
L 345.276 -83.278448 
L 341.928 -78.49896 
L 338.58 -79.216055 
L 335.232 -81.224099 
L 331.884 -79.559007 
L 328.536 -80.224232 
L 325.188 -81.70933 
L 321.84 -80.932342 
L 318.492 -81.027748 
L 315.144 -83.735833 
L 311.796 -83.841304 
L 308.448 -83.469801 
L 305.1 -84.699261 
L 301.752 -80.002027 
L 298.404 -82.641596 
L 295.056 -83.796167 
L 291.708 -84.864829 
L 288.36 -85.616452 
L 285.012 -85.880759 
L 281.664 -87.907217 
L 278.316 -84.893097 
L 274.968 -86.830168 
L 271.62 -86.443986 
L 268.272 -89.174184 
L 264.924 -88.267137 
L 261.576 -88.735952 
L 258.228 -90.144845 
L 254.88 -90.661074 
L 251.532 -89.115531 
L 248.184 -93.823767 
L 244.836 -92.457361 
L 241.488 -91.936439 
L 238.14 -93.797746 
L 234.792 -92.930972 
L 231.444 -94.292257 
L 228.096 -96.032292 
L 224.748 -96.404578 
L 221.4 -95.39302 
L 218.052 -96.499824 
L 214.704 -97.866955 
L 211.356 -97.478086 
L 208.008 -100.493091 
L 204.66 -99.988834 
L 201.312 -102.526533 
L 197.964 -101.589851 
L 194.616 -102.144911 
L 191.268 -103.388927 
L 187.92 -105.221992 
L 184.572 -106.138073 
L 181.224 -105.914618 
L 177.876 -109.23725 
L 174.528 -110.214701 
L 171.18 -109.594336 
L 167.832 -110.006123 
L 164.484 -111.387481 
L 161.136 -113.845044 
L 157.788 -115.338177 
L 154.44 -117.086362 
L 151.092 -119.30836 
L 147.744 -118.308825 
L 144.396 -119.817535 
L 141.048 -122.96826 
L 137.7 -125.354954 
L 134.352 -125.965443 
L 131.004 -128.588956 
L 127.656 -131.9631 
L 124.308 -133.275666 
L 120.96 -136.534501 
L 117.612 -140.344075 
L 114.264 -143.436418 
L 110.916 -144.519854 
L 107.568 -148.022219 
L 104.22 -151.527374 
L 100.872 -156.283069 
L 97.524 -159.250914 
L 94.176 -163.565829 
L 90.828 -167.666656 
L 87.48 -172.49197 
L 84.132 -177.449131 
L 80.784 -183.435516 
L 77.436 -187.829789 
L 74.088 -193.504946 
L 70.74 -199.189113 
L 67.392 -204.710133 
L 64.044 -210.215473 
L 60.696 -215.872514 
L 57.348 -243.556364 
L 54 -221.688088 
z
" id="md5c90a3485" style="stroke:#ffffff;stroke-opacity:0.2;"/>
    </defs>
    <g clip-path="url(#p5467500f9e)">
     <use style="fill:#377eb8;fill-opacity:0.2;stroke:#ffffff;stroke-opacity:0.2;" x="0" xlink:href="#md5c90a3485" y="288"/>
    </g>
   </g>
   <g id="PolyCollection_3">
    <defs>
     <path d="M 54 -221.576217 
L 54 -221.410126 
L 57.348 -220.994521 
L 60.696 -221.257797 
L 64.044 -218.573044 
L 67.392 -216.354062 
L 70.74 -212.96797 
L 74.088 -208.422475 
L 77.436 -201.825045 
L 80.784 -194.524502 
L 84.132 -184.9956 
L 87.48 -175.750455 
L 90.828 -167.272363 
L 94.176 -158.285705 
L 97.524 -151.163053 
L 100.872 -144.479198 
L 104.22 -140.08566 
L 107.568 -135.683504 
L 110.916 -130.562149 
L 114.264 -128.387469 
L 117.612 -128.644018 
L 120.96 -123.343658 
L 124.308 -119.842273 
L 127.656 -120.049648 
L 131.004 -118.200128 
L 134.352 -112.059382 
L 137.7 -114.456574 
L 141.048 -110.289737 
L 144.396 -109.697694 
L 147.744 -109.639042 
L 151.092 -106.981543 
L 154.44 -107.859179 
L 157.788 -105.619975 
L 161.136 -105.157627 
L 164.484 -106.447538 
L 167.832 -99.772641 
L 171.18 -100.458182 
L 174.528 -102.434096 
L 177.876 -98.55697 
L 181.224 -99.888416 
L 184.572 -97.314734 
L 187.92 -99.23911 
L 191.268 -95.735732 
L 194.616 -96.427681 
L 197.964 -95.683143 
L 201.312 -94.815823 
L 204.66 -91.586467 
L 208.008 -92.519912 
L 211.356 -90.333229 
L 214.704 -91.722915 
L 218.052 -92.90404 
L 221.4 -90.742027 
L 224.748 -89.426147 
L 228.096 -89.934202 
L 231.444 -88.920263 
L 234.792 -90.961187 
L 238.14 -86.486849 
L 241.488 -87.690047 
L 244.836 -88.684463 
L 248.184 -88.103505 
L 251.532 -85.479299 
L 254.88 -82.969876 
L 258.228 -87.190006 
L 261.576 -87.985248 
L 264.924 -81.917373 
L 268.272 -84.465696 
L 271.62 -83.40218 
L 274.968 -84.355938 
L 278.316 -83.814478 
L 281.664 -81.779964 
L 285.012 -79.93078 
L 288.36 -79.611724 
L 291.708 -81.016115 
L 295.056 -83.833623 
L 298.404 -80.05055 
L 301.752 -78.154647 
L 305.1 -79.239684 
L 308.448 -82.211648 
L 311.796 -77.909677 
L 315.144 -78.265911 
L 318.492 -80.269294 
L 321.84 -76.903971 
L 325.188 -77.680354 
L 328.536 -79.358412 
L 331.884 -78.74 
L 335.232 -76.743065 
L 338.58 -76.040381 
L 341.928 -74.405394 
L 345.276 -76.04452 
L 348.624 -76.663086 
L 351.972 -77.063955 
L 355.32 -74.450542 
L 358.668 -76.185157 
L 362.016 -74.103467 
L 365.364 -73.374973 
L 368.712 -72.620816 
L 372.06 -72.879528 
L 375.408 -74.284408 
L 378.756 -71.562605 
L 382.104 -70.539136 
L 385.452 -71.088903 
L 385.452 -74.971266 
L 385.452 -74.971266 
L 382.104 -74.453632 
L 378.756 -75.544792 
L 375.408 -78.418398 
L 372.06 -76.296118 
L 368.712 -76.219288 
L 365.364 -77.47612 
L 362.016 -78.100577 
L 358.668 -79.532992 
L 355.32 -77.819246 
L 351.972 -81.180023 
L 348.624 -80.731483 
L 345.276 -80.093027 
L 341.928 -78.276858 
L 338.58 -80.041485 
L 335.232 -80.317243 
L 331.884 -82.295134 
L 328.536 -83.007737 
L 325.188 -81.064541 
L 321.84 -80.322914 
L 318.492 -83.83316 
L 315.144 -81.905922 
L 311.796 -81.508632 
L 308.448 -85.78521 
L 305.1 -82.483424 
L 301.752 -82.044991 
L 298.404 -83.824622 
L 295.056 -87.320777 
L 291.708 -84.508671 
L 288.36 -83.310268 
L 285.012 -83.540105 
L 281.664 -85.568528 
L 278.316 -87.516343 
L 274.968 -88.028491 
L 271.62 -87.264381 
L 268.272 -88.080979 
L 264.924 -85.214804 
L 261.576 -91.561026 
L 258.228 -90.523918 
L 254.88 -86.248016 
L 251.532 -89.240197 
L 248.184 -91.018626 
L 244.836 -91.909383 
L 241.488 -91.758745 
L 238.14 -90.208862 
L 234.792 -94.741071 
L 231.444 -92.187211 
L 228.096 -93.619852 
L 224.748 -92.455593 
L 221.4 -94.028906 
L 218.052 -96.506174 
L 214.704 -95.167329 
L 211.356 -93.954063 
L 208.008 -95.804745 
L 204.66 -94.800937 
L 201.312 -98.130268 
L 197.964 -99.012759 
L 194.616 -99.390351 
L 191.268 -98.989869 
L 187.92 -102.426079 
L 184.572 -100.640247 
L 181.224 -103.367697 
L 177.876 -101.473212 
L 174.528 -105.936599 
L 171.18 -103.410326 
L 167.832 -103.075184 
L 164.484 -109.52195 
L 161.136 -107.882529 
L 157.788 -108.858772 
L 154.44 -110.899949 
L 151.092 -110.17941 
L 147.744 -113.159795 
L 144.396 -112.544048 
L 141.048 -113.332046 
L 137.7 -117.925285 
L 134.352 -115.316556 
L 131.004 -120.890345 
L 127.656 -122.518545 
L 124.308 -122.386098 
L 120.96 -126.057621 
L 117.612 -131.077481 
L 114.264 -130.865086 
L 110.916 -132.655115 
L 107.568 -137.717951 
L 104.22 -142.060471 
L 100.872 -146.2731 
L 97.524 -152.875746 
L 94.176 -160.011977 
L 90.828 -168.57917 
L 87.48 -176.949633 
L 84.132 -186.114056 
L 80.784 -195.356937 
L 77.436 -202.494548 
L 74.088 -208.942991 
L 70.74 -213.428579 
L 67.392 -216.717458 
L 64.044 -218.956238 
L 60.696 -221.706727 
L 57.348 -221.23627 
L 54 -221.576217 
z
" id="me14df1e5d4" style="stroke:#ffffff;stroke-opacity:0.2;"/>
    </defs>
    <g clip-path="url(#p5467500f9e)">
     <use style="fill:#4eae4b;fill-opacity:0.2;stroke:#ffffff;stroke-opacity:0.2;" x="0" xlink:href="#me14df1e5d4" y="288"/>
    </g>
   </g>
   <g id="PolyCollection_4">
    <defs>
     <path d="M 54 -221.636981 
L 54 -221.442074 
L 57.348 -225.556141 
L 60.696 -224.18266 
L 64.044 -219.201344 
L 67.392 -215.302626 
L 70.74 -210.946519 
L 74.088 -205.596653 
L 77.436 -198.221885 
L 80.784 -189.896882 
L 84.132 -180.758561 
L 87.48 -171.747764 
L 90.828 -163.810524 
L 94.176 -156.282725 
L 97.524 -148.960093 
L 100.872 -142.955023 
L 104.22 -137.517785 
L 107.568 -133.162705 
L 110.916 -126.792385 
L 114.264 -125.089001 
L 117.612 -120.133573 
L 120.96 -117.420323 
L 124.308 -115.457938 
L 127.656 -112.718103 
L 131.004 -111.44177 
L 134.352 -108.307797 
L 137.7 -105.231989 
L 141.048 -101.910392 
L 144.396 -102.972782 
L 147.744 -99.962684 
L 151.092 -101.981551 
L 154.44 -97.450411 
L 157.788 -97.550887 
L 161.136 -97.148827 
L 164.484 -94.622252 
L 167.832 -94.721613 
L 171.18 -93.150704 
L 174.528 -93.449261 
L 177.876 -89.98829 
L 181.224 -90.415102 
L 184.572 -91.555868 
L 187.92 -85.996703 
L 191.268 -86.514244 
L 194.616 -87.777202 
L 197.964 -86.836727 
L 201.312 -87.320559 
L 204.66 -86.391307 
L 208.008 -83.506078 
L 211.356 -87.267313 
L 214.704 -84.274584 
L 218.052 -82.827316 
L 221.4 -85.621806 
L 224.748 -86.092956 
L 228.096 -81.170625 
L 231.444 -76.983795 
L 234.792 -78.644179 
L 238.14 -83.438152 
L 241.488 -80.740447 
L 244.836 -78.058949 
L 248.184 -77.861139 
L 251.532 -78.26363 
L 254.88 -76.979738 
L 258.228 -75.319212 
L 261.576 -75.870867 
L 264.924 -77.623824 
L 268.272 -77.383339 
L 271.62 -76.826336 
L 274.968 -74.725297 
L 278.316 -76.25412 
L 281.664 -70.546878 
L 285.012 -74.874156 
L 288.36 -71.858522 
L 291.708 -73.771953 
L 295.056 -71.549114 
L 298.404 -70.514515 
L 301.752 -73.025637 
L 305.1 -72.637605 
L 308.448 -72.161898 
L 311.796 -71.163859 
L 315.144 -71.790085 
L 318.492 -71.298017 
L 321.84 -71.382511 
L 325.188 -70.898049 
L 328.536 -71.028814 
L 331.884 -70.557645 
L 335.232 -69.698909 
L 338.58 -68.201262 
L 341.928 -69.38426 
L 345.276 -69.176732 
L 348.624 -65.251277 
L 351.972 -66.944941 
L 355.32 -63.382345 
L 358.668 -64.043275 
L 362.016 -67.148539 
L 365.364 -65.537084 
L 368.712 -66.041341 
L 372.06 -67.746618 
L 375.408 -62.346684 
L 378.756 -65.930185 
L 382.104 -66.176827 
L 385.452 -65.812021 
L 385.452 -69.595097 
L 385.452 -69.595097 
L 382.104 -69.549907 
L 378.756 -69.91268 
L 375.408 -66.298396 
L 372.06 -71.612618 
L 368.712 -69.994139 
L 365.364 -69.960269 
L 362.016 -71.209658 
L 358.668 -68.142686 
L 355.32 -67.297516 
L 351.972 -71.171122 
L 348.624 -68.766121 
L 345.276 -73.24098 
L 341.928 -73.207565 
L 338.58 -72.350535 
L 335.232 -73.211954 
L 331.884 -74.718909 
L 328.536 -75.074935 
L 325.188 -74.917724 
L 321.84 -75.225399 
L 318.492 -75.174837 
L 315.144 -75.645953 
L 311.796 -75.16194 
L 308.448 -75.313899 
L 305.1 -76.84937 
L 301.752 -76.996587 
L 298.404 -74.167251 
L 295.056 -75.250301 
L 291.708 -76.982222 
L 288.36 -75.437407 
L 285.012 -78.543653 
L 281.664 -74.89124 
L 278.316 -80.170604 
L 274.968 -78.30845 
L 271.62 -80.272876 
L 268.272 -80.760759 
L 264.924 -80.662213 
L 261.576 -79.687226 
L 258.228 -78.562167 
L 254.88 -80.399096 
L 251.532 -81.887714 
L 248.184 -81.310089 
L 244.836 -82.357011 
L 241.488 -84.392722 
L 238.14 -86.961448 
L 234.792 -82.033963 
L 231.444 -79.981201 
L 228.096 -85.017702 
L 224.748 -89.706137 
L 221.4 -88.771711 
L 218.052 -86.253815 
L 214.704 -87.874761 
L 211.356 -91.193856 
L 208.008 -86.997018 
L 204.66 -90.22556 
L 201.312 -90.438942 
L 197.964 -90.174584 
L 194.616 -91.474585 
L 191.268 -89.932169 
L 187.92 -89.290543 
L 184.572 -94.932911 
L 181.224 -94.035801 
L 177.876 -93.515755 
L 174.528 -96.663927 
L 171.18 -96.088846 
L 167.832 -97.655761 
L 164.484 -97.649676 
L 161.136 -99.853263 
L 157.788 -100.562924 
L 154.44 -100.617365 
L 151.092 -105.210009 
L 147.744 -102.834835 
L 144.396 -105.658797 
L 141.048 -104.747714 
L 137.7 -108.313803 
L 134.352 -111.177537 
L 131.004 -114.534678 
L 127.656 -115.61134 
L 124.308 -118.475201 
L 120.96 -120.158623 
L 117.612 -122.878523 
L 114.264 -127.544321 
L 110.916 -129.36905 
L 107.568 -135.916734 
L 104.22 -140.174264 
L 100.872 -145.792576 
L 97.524 -151.629502 
L 94.176 -159.084731 
L 90.828 -166.252974 
L 87.48 -174.229724 
L 84.132 -182.918749 
L 80.784 -191.67195 
L 77.436 -199.629939 
L 74.088 -206.536738 
L 70.74 -211.683177 
L 67.392 -215.805924 
L 64.044 -219.831023 
L 60.696 -224.911004 
L 57.348 -226.282873 
L 54 -221.636981 
z
" id="m1638cefb94" style="stroke:#ffffff;stroke-opacity:0.2;"/>
    </defs>
    <g clip-path="url(#p5467500f9e)">
     <use style="fill:#994fa1;fill-opacity:0.2;stroke:#ffffff;stroke-opacity:0.2;" x="0" xlink:href="#m1638cefb94" y="288"/>
    </g>
   </g>
   <g id="PolyCollection_5">
    <defs>
     <path d="M 54 -221.411536 
L 54 -221.224602 
L 57.348 -221.897078 
L 60.696 -211.076358 
L 64.044 -194.169532 
L 67.392 -170.477141 
L 70.74 -155.289034 
L 74.088 -140.256887 
L 77.436 -132.31297 
L 80.784 -122.27443 
L 84.132 -119.403045 
L 87.48 -118.713554 
L 90.828 -109.079762 
L 94.176 -109.011896 
L 97.524 -103.338004 
L 100.872 -99.371828 
L 104.22 -96.050299 
L 107.568 -93.157445 
L 110.916 -93.163732 
L 114.264 -89.152614 
L 117.612 -86.618242 
L 120.96 -90.411146 
L 124.308 -88.055922 
L 127.656 -84.058758 
L 131.004 -84.036549 
L 134.352 -81.311876 
L 137.7 -80.116887 
L 141.048 -81.494853 
L 144.396 -77.50284 
L 147.744 -75.945003 
L 151.092 -78.429659 
L 154.44 -77.843959 
L 157.788 -74.372082 
L 161.136 -72.751572 
L 164.484 -71.692857 
L 167.832 -73.084552 
L 171.18 -74.651826 
L 174.528 -69.642582 
L 177.876 -69.881924 
L 181.224 -69.597725 
L 184.572 -69.582227 
L 187.92 -65.052446 
L 191.268 -67.660054 
L 194.616 -63.706522 
L 197.964 -64.705524 
L 201.312 -61.342715 
L 204.66 -65.69322 
L 208.008 -65.30869 
L 211.356 -64.444892 
L 214.704 -64.142923 
L 218.052 -62.884539 
L 221.4 -59.501769 
L 224.748 -63.264151 
L 228.096 -60.328987 
L 231.444 -59.555073 
L 234.792 -59.870718 
L 238.14 -61.419707 
L 241.488 -61.14562 
L 244.836 -61.208062 
L 248.184 -57.369706 
L 251.532 -62.252783 
L 254.88 -59.405425 
L 258.228 -62.712961 
L 261.576 -58.783776 
L 264.924 -61.219544 
L 268.272 -57.107356 
L 271.62 -60.308546 
L 274.968 -59.201109 
L 278.316 -61.313403 
L 281.664 -55.545244 
L 285.012 -55.692241 
L 288.36 -59.431993 
L 291.708 -52.150281 
L 295.056 -52.405246 
L 298.404 -50.171578 
L 301.752 -54.495515 
L 305.1 -57.014668 
L 308.448 -51.364028 
L 311.796 -50.07297 
L 315.144 -53.259475 
L 318.492 -50.419604 
L 321.84 -50.437828 
L 325.188 -56.114232 
L 328.536 -54.74016 
L 331.884 -50.597794 
L 335.232 -50.761736 
L 338.58 -51.100373 
L 341.928 -53.301161 
L 345.276 -51.706996 
L 348.624 -53.500232 
L 351.972 -51.747503 
L 355.32 -54.386411 
L 358.668 -45.883636 
L 362.016 -51.524771 
L 365.364 -53.991047 
L 368.712 -51.050709 
L 372.06 -50.72112 
L 375.408 -53.460119 
L 378.756 -51.430549 
L 382.104 -46.948675 
L 385.452 -51.482195 
L 385.452 -55.996597 
L 385.452 -55.996597 
L 382.104 -51.342029 
L 378.756 -55.757053 
L 375.408 -57.421544 
L 372.06 -55.454061 
L 368.712 -55.836586 
L 365.364 -58.783469 
L 362.016 -56.01692 
L 358.668 -51.158081 
L 355.32 -58.779707 
L 351.972 -55.910702 
L 348.624 -57.439957 
L 345.276 -56.596513 
L 341.928 -57.614226 
L 338.58 -55.562005 
L 335.232 -55.969685 
L 331.884 -55.004656 
L 328.536 -59.398355 
L 325.188 -60.643304 
L 321.84 -54.399439 
L 318.492 -54.330512 
L 315.144 -57.907582 
L 311.796 -54.34527 
L 308.448 -55.869905 
L 305.1 -61.340368 
L 301.752 -58.709577 
L 298.404 -54.927211 
L 295.056 -56.844306 
L 291.708 -56.173021 
L 288.36 -64.207499 
L 285.012 -59.439131 
L 281.664 -60.119879 
L 278.316 -65.712725 
L 274.968 -63.484752 
L 271.62 -64.845142 
L 268.272 -61.201733 
L 264.924 -65.824673 
L 261.576 -63.497827 
L 258.228 -66.813423 
L 254.88 -63.280192 
L 251.532 -66.219054 
L 248.184 -60.874197 
L 244.836 -65.49788 
L 241.488 -65.535833 
L 238.14 -65.825636 
L 234.792 -64.710984 
L 231.444 -63.657305 
L 228.096 -64.359972 
L 224.748 -67.110773 
L 221.4 -63.137681 
L 218.052 -66.321113 
L 214.704 -68.081095 
L 211.356 -68.414971 
L 208.008 -68.678274 
L 204.66 -69.691693 
L 201.312 -64.804641 
L 197.964 -68.605633 
L 194.616 -68.191589 
L 191.268 -71.763479 
L 187.92 -68.656548 
L 184.572 -73.012086 
L 181.224 -73.082396 
L 177.876 -73.636762 
L 174.528 -73.297124 
L 171.18 -78.331845 
L 167.832 -76.735545 
L 164.484 -75.689706 
L 161.136 -75.655239 
L 157.788 -77.539577 
L 154.44 -81.453058 
L 151.092 -81.806266 
L 147.744 -79.417861 
L 144.396 -81.062759 
L 141.048 -84.437303 
L 137.7 -83.856909 
L 134.352 -84.805349 
L 131.004 -87.492363 
L 127.656 -87.642969 
L 124.308 -91.606965 
L 120.96 -94.089603 
L 117.612 -89.391527 
L 114.264 -92.452893 
L 110.916 -95.978967 
L 107.568 -96.151197 
L 104.22 -99.264935 
L 100.872 -102.146718 
L 97.524 -106.04388 
L 94.176 -111.890727 
L 90.828 -111.599181 
L 87.48 -121.092761 
L 84.132 -121.980304 
L 80.784 -124.579001 
L 77.436 -134.489807 
L 74.088 -142.677805 
L 70.74 -157.697074 
L 67.392 -172.265994 
L 64.044 -195.411683 
L 60.696 -211.46574 
L 57.348 -222.506233 
L 54 -221.411536 
z
" id="mffdef574f5" style="stroke:#ffffff;stroke-opacity:0.2;"/>
    </defs>
    <g clip-path="url(#p5467500f9e)">
     <use style="fill:#ff8101;fill-opacity:0.2;stroke:#ffffff;stroke-opacity:0.2;" x="0" xlink:href="#mffdef574f5" y="288"/>
    </g>
   </g>
   <g id="line2d_17">
    <path clip-path="url(#p5467500f9e)" d="M 54 66.477461 
L 57.348 69.033391 
L 60.696 77.165853 
L 64.044 83.512166 
L 67.392 89.825336 
L 70.74 94.957481 
L 74.088 101.08797 
L 77.436 107.439558 
L 80.784 114.196601 
L 84.132 119.823506 
L 87.48 125.837091 
L 90.828 131.821236 
L 94.176 136.972506 
L 97.524 141.269696 
L 100.872 146.979896 
L 104.22 150.701971 
L 107.568 154.773495 
L 110.916 158.88014 
L 114.264 161.480183 
L 117.612 166.194792 
L 120.96 168.567434 
L 124.308 172.260354 
L 127.656 174.1562 
L 131.004 175.629702 
L 134.352 175.794507 
L 137.7 179.664771 
L 141.048 183.49536 
L 144.396 183.44738 
L 147.744 183.535701 
L 151.092 186.07051 
L 154.44 188.811361 
L 157.788 189.636881 
L 161.136 189.339162 
L 164.484 192.131159 
L 167.832 193.595877 
L 171.18 194.366758 
L 174.528 193.881438 
L 177.876 195.164104 
L 181.224 194.541439 
L 184.572 198.931581 
L 187.92 196.175552 
L 191.268 199.311195 
L 194.616 198.466989 
L 197.964 198.416224 
L 201.312 198.755637 
L 204.66 202.885243 
L 208.008 200.913951 
L 211.356 199.128618 
L 214.704 202.792906 
L 218.052 204.219413 
L 221.4 203.39962 
L 224.748 206.312298 
L 228.096 201.797446 
L 231.444 204.33249 
L 234.792 202.589602 
L 238.14 204.167946 
L 241.488 205.700215 
L 244.836 205.095114 
L 248.184 206.583363 
L 251.532 205.965223 
L 254.88 206.303474 
L 258.228 206.882054 
L 261.576 208.124222 
L 264.924 208.16022 
L 268.272 207.521676 
L 271.62 209.929612 
L 274.968 210.827256 
L 278.316 210.742329 
L 281.664 211.415129 
L 285.012 207.83108 
L 288.36 211.39376 
L 291.708 214.116913 
L 295.056 208.897208 
L 298.404 214.099173 
L 301.752 209.547332 
L 305.1 211.697732 
L 308.448 207.89523 
L 311.796 212.443081 
L 315.144 212.279781 
L 318.492 214.014591 
L 321.84 213.664739 
L 325.188 213.031222 
L 328.536 210.573122 
L 331.884 214.416042 
L 335.232 213.309317 
L 338.58 212.311622 
L 341.928 214.568518 
L 345.276 216.0848 
L 348.624 213.302147 
L 351.972 214.338547 
L 355.32 213.394127 
L 358.668 213.780006 
L 362.016 215.402987 
L 365.364 218.224231 
L 368.712 214.301009 
L 372.06 217.825085 
L 375.408 217.571375 
L 378.756 219.209877 
L 382.104 215.835603 
L 385.452 213.495999 
" style="fill:none;stroke:#ea4c4e;stroke-dasharray:5.55,2.4;stroke-dashoffset:0;stroke-width:1.5;"/>
   </g>
   <g id="line2d_18">
    <path clip-path="url(#p5467500f9e)" d="M 54 66.407145 
L 57.348 45.18552 
L 60.696 72.360663 
L 64.044 78.131774 
L 67.392 83.71656 
L 70.74 89.322171 
L 74.088 95.130861 
L 77.436 100.828219 
L 80.784 105.279327 
L 84.132 111.295975 
L 87.48 116.269262 
L 90.828 121.09212 
L 94.176 125.201638 
L 97.524 129.574936 
L 100.872 132.702429 
L 104.22 137.340121 
L 107.568 140.877978 
L 110.916 144.403451 
L 114.264 145.430512 
L 117.612 148.616293 
L 120.96 152.344059 
L 124.308 155.722631 
L 127.656 157.052023 
L 131.004 160.341278 
L 134.352 163.023867 
L 137.7 163.501373 
L 141.048 165.977639 
L 144.396 169.070249 
L 147.744 170.604943 
L 151.092 169.618931 
L 154.44 171.942507 
L 157.788 173.62538 
L 161.136 175.087472 
L 164.484 177.681338 
L 167.832 179.05421 
L 171.18 179.447447 
L 174.528 178.879311 
L 177.876 179.727023 
L 181.224 183.249797 
L 184.572 183.05546 
L 187.92 183.941559 
L 191.268 185.646685 
L 194.616 186.919594 
L 197.964 187.468352 
L 201.312 186.533457 
L 204.66 189.252359 
L 208.008 188.766527 
L 211.356 191.617652 
L 214.704 191.40932 
L 218.052 192.69861 
L 221.4 193.687027 
L 224.748 192.786985 
L 228.096 193.178459 
L 231.444 194.841175 
L 234.792 196.263822 
L 238.14 195.464837 
L 241.488 197.238314 
L 244.836 196.761654 
L 248.184 195.453304 
L 251.532 200.12973 
L 254.88 198.494931 
L 258.228 199.201483 
L 261.576 200.598409 
L 264.924 200.911005 
L 268.272 199.998501 
L 271.62 202.851281 
L 274.968 202.506426 
L 278.316 204.238154 
L 281.664 201.449361 
L 285.012 203.350307 
L 288.36 203.853746 
L 291.708 204.286946 
L 295.056 205.566626 
L 298.404 206.789349 
L 301.752 209.30426 
L 305.1 204.708811 
L 308.448 205.902688 
L 311.796 205.453373 
L 315.144 205.460947 
L 318.492 208.294422 
L 321.84 208.46666 
L 325.188 207.620902 
L 328.536 209.024057 
L 331.884 209.838652 
L 335.232 207.994599 
L 338.58 210.178272 
L 341.928 211.007503 
L 345.276 206.157763 
L 348.624 211.825983 
L 351.972 212.269027 
L 355.32 212.284046 
L 358.668 212.352439 
L 362.016 211.669772 
L 365.364 211.232072 
L 368.712 213.354053 
L 372.06 211.428699 
L 375.408 212.358781 
L 378.756 212.719934 
L 382.104 208.947923 
L 385.452 212.57361 
" style="fill:none;stroke:#377eb8;stroke-dasharray:5.55,2.4;stroke-dashoffset:0;stroke-width:1.5;"/>
   </g>
   <g id="line2d_19">
    <path clip-path="url(#p5467500f9e)" d="M 54 66.506374 
L 57.348 66.883471 
L 60.696 66.513431 
L 64.044 69.233357 
L 67.392 71.465851 
L 70.74 74.802127 
L 74.088 79.314226 
L 77.436 85.841864 
L 80.784 93.054181 
L 84.132 102.440006 
L 87.48 111.649217 
L 90.828 120.063754 
L 94.176 128.84698 
L 97.524 135.96678 
L 100.872 142.612095 
L 104.22 146.910829 
L 107.568 151.290413 
L 110.916 156.375351 
L 114.264 158.367667 
L 117.612 158.139916 
L 120.96 163.275787 
L 124.308 166.90005 
L 127.656 166.71029 
L 131.004 168.477152 
L 134.352 174.24685 
L 137.7 171.820986 
L 141.048 176.192519 
L 144.396 176.850159 
L 147.744 176.598647 
L 151.092 179.393784 
L 154.44 178.59198 
L 157.788 180.740394 
L 161.136 181.452218 
L 164.484 179.997639 
L 167.832 186.565353 
L 171.18 186.042217 
L 174.528 183.782521 
L 177.876 187.982156 
L 181.224 186.399251 
L 184.572 189.027757 
L 187.92 187.193354 
L 191.268 190.622943 
L 194.616 190.053149 
L 197.964 190.654385 
L 201.312 191.550904 
L 204.66 194.806386 
L 208.008 193.798166 
L 211.356 195.815709 
L 214.704 194.542294 
L 218.052 193.235099 
L 221.4 195.642283 
L 224.748 197.041741 
L 228.096 196.207894 
L 231.444 197.459394 
L 234.792 195.171336 
L 238.14 199.625115 
L 241.488 198.284038 
L 244.836 197.687498 
L 248.184 198.404401 
L 251.532 200.630051 
L 254.88 203.374939 
L 258.228 199.080147 
L 261.576 198.182057 
L 264.924 204.438417 
L 268.272 201.71924 
L 271.62 202.60735 
L 274.968 201.733859 
L 278.316 202.324489 
L 281.664 204.269801 
L 285.012 206.22236 
L 288.36 206.515468 
L 291.708 205.147211 
L 295.056 202.408043 
L 298.404 206.078722 
L 301.752 207.874496 
L 305.1 207.139703 
L 308.448 203.999432 
L 311.796 208.326076 
L 315.144 207.88709 
L 318.492 205.951517 
L 321.84 209.369232 
L 325.188 208.603088 
L 328.536 206.784015 
L 331.884 207.463408 
L 335.232 209.421732 
L 338.58 209.955094 
L 341.928 211.63192 
L 345.276 209.929988 
L 348.624 209.25907 
L 351.972 208.823926 
L 355.32 211.861861 
L 358.668 210.109996 
L 362.016 211.913814 
L 365.364 212.526837 
L 368.712 213.529363 
L 372.06 213.366898 
L 375.408 211.582677 
L 378.756 214.43716 
L 382.104 215.469101 
L 385.452 214.932723 
" style="fill:none;stroke:#4eae4b;stroke-dasharray:5.55,2.4;stroke-dashoffset:0;stroke-width:1.5;"/>
   </g>
   <g id="line2d_20">
    <path clip-path="url(#p5467500f9e)" d="M 54 66.460776 
L 57.348 62.082523 
L 60.696 63.459434 
L 64.044 68.485268 
L 67.392 72.447188 
L 70.74 76.685636 
L 74.088 81.933283 
L 77.436 89.077728 
L 80.784 97.203781 
L 84.132 106.153719 
L 87.48 115.015624 
L 90.828 122.957519 
L 94.176 130.272782 
L 97.524 137.709593 
L 100.872 143.599984 
L 104.22 149.142496 
L 107.568 153.443131 
L 110.916 159.8885 
L 114.264 161.68401 
L 117.612 166.43027 
L 120.96 169.190639 
L 124.308 171.013116 
L 127.656 173.797927 
L 131.004 174.95571 
L 134.352 178.25705 
L 137.7 181.216436 
L 141.048 184.645149 
L 144.396 183.670867 
L 147.744 186.545426 
L 151.092 184.377448 
L 154.44 188.946481 
L 157.788 188.899839 
L 161.136 189.512899 
L 164.484 191.825649 
L 167.832 191.776736 
L 171.18 193.392053 
L 174.528 192.918902 
L 177.876 196.253533 
L 181.224 195.726097 
L 184.572 194.75066 
L 187.92 200.316091 
L 191.268 199.75602 
L 194.616 198.32869 
L 197.964 199.525461 
L 201.312 199.108407 
L 204.66 199.639929 
L 208.008 202.68287 
L 211.356 198.746339 
L 214.704 201.910394 
L 218.052 203.427158 
L 221.4 200.814229 
L 224.748 200.074679 
L 228.096 204.916982 
L 231.444 209.495638 
L 234.792 207.64095 
L 238.14 202.816858 
L 241.488 205.41116 
L 244.836 207.754911 
L 248.184 208.358455 
L 251.532 207.865283 
L 254.88 209.304585 
L 258.228 211.058722 
L 261.576 210.175222 
L 264.924 208.853323 
L 268.272 208.913369 
L 271.62 209.438431 
L 274.968 211.470263 
L 278.316 209.71633 
L 281.664 215.213334 
L 285.012 211.307998 
L 288.36 214.310033 
L 291.708 212.608845 
L 295.056 214.658342 
L 298.404 215.675001 
L 301.752 212.930427 
L 305.1 213.20057 
L 308.448 214.261707 
L 311.796 214.812139 
L 315.144 214.267578 
L 318.492 214.747149 
L 321.84 214.686793 
L 325.188 215.052835 
L 328.536 214.887306 
L 331.884 215.311768 
L 335.232 216.554547 
L 338.58 217.665042 
L 341.928 216.702723 
L 345.276 216.713854 
L 348.624 220.942842 
L 351.972 218.956575 
L 355.32 222.609915 
L 358.668 221.884139 
L 362.016 218.764002 
L 365.364 220.238471 
L 368.712 219.96588 
L 372.06 218.341223 
L 375.408 223.628033 
L 378.756 220.106272 
L 382.104 220.125365 
L 385.452 220.273104 
" style="fill:none;stroke:#994fa1;stroke-dasharray:5.55,2.4;stroke-dashoffset:0;stroke-width:1.5;"/>
   </g>
   <g id="line2d_21">
    <path clip-path="url(#p5467500f9e)" d="M 54 66.682878 
L 57.348 65.795845 
L 60.696 76.731865 
L 64.044 93.226123 
L 67.392 116.628357 
L 70.74 131.487003 
L 74.088 146.523233 
L 77.436 154.6139 
L 80.784 164.516466 
L 84.132 167.30437 
L 87.48 168.054305 
L 90.828 177.663206 
L 94.176 177.501625 
L 97.524 183.258608 
L 100.872 187.239076 
L 104.22 190.333873 
L 107.568 193.322938 
L 110.916 193.41623 
L 114.264 197.195438 
L 117.612 200.03561 
L 120.96 195.706307 
L 124.308 198.137688 
L 127.656 202.088984 
L 131.004 202.217519 
L 134.352 204.903263 
L 137.7 205.951725 
L 141.048 204.993712 
L 144.396 208.696116 
L 147.744 210.271367 
L 151.092 207.884674 
L 154.44 208.331174 
L 157.788 212.024486 
L 161.136 213.758743 
L 164.484 214.314683 
L 167.832 213.092217 
L 171.18 211.510333 
L 174.528 216.546182 
L 177.876 216.194691 
L 181.224 216.673077 
L 184.572 216.696989 
L 187.92 221.12283 
L 191.268 218.246186 
L 194.616 222.012988 
L 197.964 221.372081 
L 201.312 224.898235 
L 204.66 220.293324 
L 208.008 220.938681 
L 211.356 221.556032 
L 214.704 221.886778 
L 218.052 223.409646 
L 221.4 226.671993 
L 224.748 222.822102 
L 228.096 225.592768 
L 231.444 226.273766 
L 234.792 225.662787 
L 238.14 224.387032 
L 241.488 224.673717 
L 244.836 224.646912 
L 248.184 228.839808 
L 251.532 223.75179 
L 254.88 226.650112 
L 258.228 223.244141 
L 261.576 226.882987 
L 264.924 224.367559 
L 268.272 228.878011 
L 271.62 225.372386 
L 274.968 226.623204 
L 278.316 224.471746 
L 281.664 230.155566 
L 285.012 230.394329 
L 288.36 226.169875 
L 291.708 233.820415 
L 295.056 233.323165 
L 298.404 235.406928 
L 301.752 231.395256 
L 305.1 228.777184 
L 308.448 234.280793 
L 311.796 235.803996 
L 315.144 232.374191 
L 318.492 235.578451 
L 321.84 235.577773 
L 325.188 229.593185 
L 328.536 230.870835 
L 331.884 235.167328 
L 335.232 234.600356 
L 338.58 234.578223 
L 341.928 232.491933 
L 345.276 233.845879 
L 348.624 232.531413 
L 351.972 234.183109 
L 355.32 231.376332 
L 358.668 239.46165 
L 362.016 234.147665 
L 365.364 231.563269 
L 368.712 234.505715 
L 372.06 234.843338 
L 375.408 232.497338 
L 378.756 234.397773 
L 382.104 238.787219 
L 385.452 234.193169 
" style="fill:none;stroke:#ff8101;stroke-linecap:round;stroke-width:1.5;"/>
   </g>
   <g id="patch_3">
    <path d="M 54 252 
L 54 34.56 
" style="fill:none;stroke:#262626;stroke-linecap:square;stroke-linejoin:miter;stroke-width:1.25;"/>
   </g>
   <g id="patch_4">
    <path d="M 54 252 
L 388.8 252 
" style="fill:none;stroke:#262626;stroke-linecap:square;stroke-linejoin:miter;stroke-width:1.25;"/>
   </g>
   <g id="text_9">
    <!-- MNIST, 40 units -->
    <g style="fill:#262626;" transform="translate(179.055937 28.56)scale(0.12 -0.12)">
     <defs>
      <path d="M 475 0 
L 475 4581 
L 1388 4581 
L 2472 1338 
Q 2622 884 2691 659 
Q 2769 909 2934 1394 
L 4031 4581 
L 4847 4581 
L 4847 0 
L 4263 0 
L 4263 3834 
L 2931 0 
L 2384 0 
L 1059 3900 
L 1059 0 
L 475 0 
z
" id="ArialMT-4d" transform="scale(0.015625)"/>
      <path d="M 488 0 
L 488 4581 
L 1109 4581 
L 3516 984 
L 3516 4581 
L 4097 4581 
L 4097 0 
L 3475 0 
L 1069 3600 
L 1069 0 
L 488 0 
z
" id="ArialMT-4e" transform="scale(0.015625)"/>
      <path d="M 597 0 
L 597 4581 
L 1203 4581 
L 1203 0 
L 597 0 
z
" id="ArialMT-49" transform="scale(0.015625)"/>
      <path d="M 1659 0 
L 1659 4041 
L 150 4041 
L 150 4581 
L 3781 4581 
L 3781 4041 
L 2266 4041 
L 2266 0 
L 1659 0 
z
" id="ArialMT-54" transform="scale(0.015625)"/>
      <path d="M 569 0 
L 569 641 
L 1209 641 
L 1209 0 
Q 1209 -353 1084 -570 
Q 959 -788 688 -906 
L 531 -666 
Q 709 -588 793 -436 
Q 878 -284 888 0 
L 569 0 
z
" id="ArialMT-2c" transform="scale(0.015625)"/>
      <path id="ArialMT-20" transform="scale(0.015625)"/>
      <path d="M 2597 0 
L 2597 488 
Q 2209 -75 1544 -75 
Q 1250 -75 995 37 
Q 741 150 617 320 
Q 494 491 444 738 
Q 409 903 409 1263 
L 409 3319 
L 972 3319 
L 972 1478 
Q 972 1038 1006 884 
Q 1059 663 1231 536 
Q 1403 409 1656 409 
Q 1909 409 2131 539 
Q 2353 669 2445 892 
Q 2538 1116 2538 1541 
L 2538 3319 
L 3100 3319 
L 3100 0 
L 2597 0 
z
" id="ArialMT-75" transform="scale(0.015625)"/>
      <path d="M 422 0 
L 422 3319 
L 928 3319 
L 928 2847 
Q 1294 3394 1984 3394 
Q 2284 3394 2536 3286 
Q 2788 3178 2913 3003 
Q 3038 2828 3088 2588 
Q 3119 2431 3119 2041 
L 3119 0 
L 2556 0 
L 2556 2019 
Q 2556 2363 2490 2533 
Q 2425 2703 2258 2804 
Q 2091 2906 1866 2906 
Q 1506 2906 1245 2678 
Q 984 2450 984 1813 
L 984 0 
L 422 0 
z
" id="ArialMT-6e" transform="scale(0.015625)"/>
      <path d="M 425 3934 
L 425 4581 
L 988 4581 
L 988 3934 
L 425 3934 
z
M 425 0 
L 425 3319 
L 988 3319 
L 988 0 
L 425 0 
z
" id="ArialMT-69" transform="scale(0.015625)"/>
     </defs>
     <use xlink:href="#ArialMT-4d"/>
     <use x="83.300781" xlink:href="#ArialMT-4e"/>
     <use x="155.517578" xlink:href="#ArialMT-49"/>
     <use x="183.300781" xlink:href="#ArialMT-53"/>
     <use x="250" xlink:href="#ArialMT-54"/>
     <use x="299.958984" xlink:href="#ArialMT-2c"/>
     <use x="327.742188" xlink:href="#ArialMT-20"/>
     <use x="355.525391" xlink:href="#ArialMT-34"/>
     <use x="411.140625" xlink:href="#ArialMT-30"/>
     <use x="466.755859" xlink:href="#ArialMT-20"/>
     <use x="494.539062" xlink:href="#ArialMT-75"/>
     <use x="550.154297" xlink:href="#ArialMT-6e"/>
     <use x="605.769531" xlink:href="#ArialMT-69"/>
     <use x="627.986328" xlink:href="#ArialMT-74"/>
     <use x="655.769531" xlink:href="#ArialMT-73"/>
    </g>
   </g>
   <g id="legend_1">
    <g id="line2d_22">
     <path d="M 301.642187 48.483594 
L 323.642187 48.483594 
" style="fill:none;stroke:#ea4c4e;stroke-dasharray:5.55,2.4;stroke-dashoffset:0;stroke-width:1.5;"/>
    </g>
    <g id="line2d_23"/>
    <g id="text_10">
     <!-- ADAM -->
     <g style="fill:#262626;" transform="translate(332.442187 52.333594)scale(0.11 -0.11)">
      <defs>
       <path d="M -9 0 
L 1750 4581 
L 2403 4581 
L 4278 0 
L 3588 0 
L 3053 1388 
L 1138 1388 
L 634 0 
L -9 0 
z
M 1313 1881 
L 2866 1881 
L 2388 3150 
Q 2169 3728 2063 4100 
Q 1975 3659 1816 3225 
L 1313 1881 
z
" id="ArialMT-41" transform="scale(0.015625)"/>
       <path d="M 494 0 
L 494 4581 
L 2072 4581 
Q 2606 4581 2888 4516 
Q 3281 4425 3559 4188 
Q 3922 3881 4101 3404 
Q 4281 2928 4281 2316 
Q 4281 1794 4159 1391 
Q 4038 988 3847 723 
Q 3656 459 3429 307 
Q 3203 156 2883 78 
Q 2563 0 2147 0 
L 494 0 
z
M 1100 541 
L 2078 541 
Q 2531 541 2789 625 
Q 3047 709 3200 863 
Q 3416 1078 3536 1442 
Q 3656 1806 3656 2325 
Q 3656 3044 3420 3430 
Q 3184 3816 2847 3947 
Q 2603 4041 2063 4041 
L 1100 4041 
L 1100 541 
z
" id="ArialMT-44" transform="scale(0.015625)"/>
      </defs>
      <use xlink:href="#ArialMT-41"/>
      <use x="66.699219" xlink:href="#ArialMT-44"/>
      <use x="138.916016" xlink:href="#ArialMT-41"/>
      <use x="205.615234" xlink:href="#ArialMT-4d"/>
     </g>
    </g>
    <g id="line2d_24">
     <path d="M 301.642187 64.1775 
L 323.642187 64.1775 
" style="fill:none;stroke:#377eb8;stroke-dasharray:5.55,2.4;stroke-dashoffset:0;stroke-width:1.5;"/>
    </g>
    <g id="line2d_25"/>
    <g id="text_11">
     <!-- RMSprop -->
     <g style="fill:#262626;" transform="translate(332.442187 68.0275)scale(0.11 -0.11)">
      <defs>
       <path d="M 503 0 
L 503 4581 
L 2534 4581 
Q 3147 4581 3465 4457 
Q 3784 4334 3975 4021 
Q 4166 3709 4166 3331 
Q 4166 2844 3850 2509 
Q 3534 2175 2875 2084 
Q 3116 1969 3241 1856 
Q 3506 1613 3744 1247 
L 4541 0 
L 3778 0 
L 3172 953 
Q 2906 1366 2734 1584 
Q 2563 1803 2427 1890 
Q 2291 1978 2150 2013 
Q 2047 2034 1813 2034 
L 1109 2034 
L 1109 0 
L 503 0 
z
M 1109 2559 
L 2413 2559 
Q 2828 2559 3062 2645 
Q 3297 2731 3419 2920 
Q 3541 3109 3541 3331 
Q 3541 3656 3305 3865 
Q 3069 4075 2559 4075 
L 1109 4075 
L 1109 2559 
z
" id="ArialMT-52" transform="scale(0.015625)"/>
       <path d="M 416 0 
L 416 3319 
L 922 3319 
L 922 2816 
Q 1116 3169 1280 3281 
Q 1444 3394 1641 3394 
Q 1925 3394 2219 3213 
L 2025 2691 
Q 1819 2813 1613 2813 
Q 1428 2813 1281 2702 
Q 1134 2591 1072 2394 
Q 978 2094 978 1738 
L 978 0 
L 416 0 
z
" id="ArialMT-72" transform="scale(0.015625)"/>
      </defs>
      <use xlink:href="#ArialMT-52"/>
      <use x="72.216797" xlink:href="#ArialMT-4d"/>
      <use x="155.517578" xlink:href="#ArialMT-53"/>
      <use x="222.216797" xlink:href="#ArialMT-70"/>
      <use x="277.832031" xlink:href="#ArialMT-72"/>
      <use x="311.132812" xlink:href="#ArialMT-6f"/>
      <use x="366.748047" xlink:href="#ArialMT-70"/>
     </g>
    </g>
    <g id="line2d_26">
     <path d="M 301.642187 79.737344 
L 323.642187 79.737344 
" style="fill:none;stroke:#4eae4b;stroke-dasharray:5.55,2.4;stroke-dashoffset:0;stroke-width:1.5;"/>
    </g>
    <g id="line2d_27"/>
    <g id="text_12">
     <!-- SGD -->
     <g style="fill:#262626;" transform="translate(332.442187 83.587344)scale(0.11 -0.11)">
      <defs>
       <path d="M 2638 1797 
L 2638 2334 
L 4578 2338 
L 4578 638 
Q 4131 281 3656 101 
Q 3181 -78 2681 -78 
Q 2006 -78 1454 211 
Q 903 500 622 1047 
Q 341 1594 341 2269 
Q 341 2938 620 3517 
Q 900 4097 1425 4378 
Q 1950 4659 2634 4659 
Q 3131 4659 3532 4498 
Q 3934 4338 4162 4050 
Q 4391 3763 4509 3300 
L 3963 3150 
Q 3859 3500 3706 3700 
Q 3553 3900 3268 4020 
Q 2984 4141 2638 4141 
Q 2222 4141 1919 4014 
Q 1616 3888 1430 3681 
Q 1244 3475 1141 3228 
Q 966 2803 966 2306 
Q 966 1694 1177 1281 
Q 1388 869 1791 669 
Q 2194 469 2647 469 
Q 3041 469 3416 620 
Q 3791 772 3984 944 
L 3984 1797 
L 2638 1797 
z
" id="ArialMT-47" transform="scale(0.015625)"/>
      </defs>
      <use xlink:href="#ArialMT-53"/>
      <use x="66.699219" xlink:href="#ArialMT-47"/>
      <use x="144.482422" xlink:href="#ArialMT-44"/>
     </g>
    </g>
    <g id="line2d_28">
     <path d="M 301.642187 95.297187 
L 323.642187 95.297187 
" style="fill:none;stroke:#994fa1;stroke-dasharray:5.55,2.4;stroke-dashoffset:0;stroke-width:1.5;"/>
    </g>
    <g id="line2d_29"/>
    <g id="text_13">
     <!-- NAG -->
     <g style="fill:#262626;" transform="translate(332.442187 99.147187)scale(0.11 -0.11)">
      <use xlink:href="#ArialMT-4e"/>
      <use x="72.216797" xlink:href="#ArialMT-41"/>
      <use x="138.916016" xlink:href="#ArialMT-47"/>
     </g>
    </g>
    <g id="line2d_30">
     <path d="M 301.642187 110.857031 
L 323.642187 110.857031 
" style="fill:none;stroke:#ff8101;stroke-linecap:round;stroke-width:1.5;"/>
    </g>
    <g id="line2d_31"/>
    <g id="text_14">
     <!-- LSTM -->
     <g style="fill:#262626;" transform="translate(332.442187 114.707031)scale(0.11 -0.11)">
      <use xlink:href="#ArialMT-4c"/>
      <use x="55.615234" xlink:href="#ArialMT-53"/>
      <use x="122.314453" xlink:href="#ArialMT-54"/>
      <use x="183.398438" xlink:href="#ArialMT-4d"/>
     </g>
    </g>
   </g>
  </g>
 </g>
 <defs>
  <clipPath id="p5467500f9e">
   <rect height="217.44" width="334.8" x="54" y="34.56"/>
  </clipPath>
 </defs>
</svg>
