<?xml version="1.0" encoding="utf-8" standalone="no"?>
<!DOCTYPE svg PUBLIC "-//W3C//DTD SVG 1.1//EN"
  "http://www.w3.org/Graphics/SVG/1.1/DTD/svg11.dtd">
<svg height="288pt" version="1.1" viewBox="0 0 432 288" width="432pt" xmlns="http://www.w3.org/2000/svg" xmlns:xlink="http://www.w3.org/1999/xlink">
 <metadata>
  <rdf:RDF xmlns:cc="http://creativecommons.org/ns#" xmlns:dc="http://purl.org/dc/elements/1.1/" xmlns:rdf="http://www.w3.org/1999/02/22-rdf-syntax-ns#">
   <cc:Work>
    <dc:type rdf:resource="http://purl.org/dc/dcmitype/StillImage"/>
    <dc:date>2021-03-29T17:38:27.556843</dc:date>
    <dc:format>image/svg+xml</dc:format>
    <dc:creator>
     <cc:Agent>
      <dc:title>Matplotlib v3.4.0, https://matplotlib.org/</dc:title>
     </cc:Agent>
    </dc:creator>
   </cc:Work>
  </rdf:RDF>
 </metadata>
 <defs>
  <style type="text/css">*{stroke-linecap:butt;stroke-linejoin:round;}</style>
 </defs>
 <g id="figure_1">
  <g id="patch_1">
   <path d="M 0 288 
L 432 288 
L 432 0 
L 0 0 
z
" style="fill:#ffffff;"/>
  </g>
  <g id="axes_1">
   <g id="patch_2">
    <path d="M 54 252 
L 388.8 252 
L 388.8 34.56 
L 54 34.56 
z
" style="fill:#ffffff;"/>
   </g>
   <g id="matplotlib.axis_1">
    <g id="xtick_1">
     <g id="line2d_1">
      <defs>
       <path d="M 0 0 
L 0 6 
" id="m6fbced1386" style="stroke:#262626;stroke-width:1.25;"/>
      </defs>
      <g>
       <use style="fill:#262626;stroke:#262626;stroke-width:1.25;" x="120.96" xlink:href="#m6fbced1386" y="252"/>
      </g>
     </g>
     <g id="text_1">
      <!-- 20 -->
      <g style="fill:#262626;" transform="translate(114.842969 269.373594)scale(0.11 -0.11)">
       <defs>
        <path d="M 3222 541 
L 3222 0 
L 194 0 
Q 188 203 259 391 
Q 375 700 629 1000 
Q 884 1300 1366 1694 
Q 2113 2306 2375 2664 
Q 2638 3022 2638 3341 
Q 2638 3675 2398 3904 
Q 2159 4134 1775 4134 
Q 1369 4134 1125 3890 
Q 881 3647 878 3216 
L 300 3275 
Q 359 3922 746 4261 
Q 1134 4600 1788 4600 
Q 2447 4600 2831 4234 
Q 3216 3869 3216 3328 
Q 3216 3053 3103 2787 
Q 2991 2522 2730 2228 
Q 2469 1934 1863 1422 
Q 1356 997 1212 845 
Q 1069 694 975 541 
L 3222 541 
z
" id="ArialMT-32" transform="scale(0.015625)"/>
        <path d="M 266 2259 
Q 266 3072 433 3567 
Q 600 4063 929 4331 
Q 1259 4600 1759 4600 
Q 2128 4600 2406 4451 
Q 2684 4303 2865 4023 
Q 3047 3744 3150 3342 
Q 3253 2941 3253 2259 
Q 3253 1453 3087 958 
Q 2922 463 2592 192 
Q 2263 -78 1759 -78 
Q 1097 -78 719 397 
Q 266 969 266 2259 
z
M 844 2259 
Q 844 1131 1108 757 
Q 1372 384 1759 384 
Q 2147 384 2411 759 
Q 2675 1134 2675 2259 
Q 2675 3391 2411 3762 
Q 2147 4134 1753 4134 
Q 1366 4134 1134 3806 
Q 844 3388 844 2259 
z
" id="ArialMT-30" transform="scale(0.015625)"/>
       </defs>
       <use xlink:href="#ArialMT-32"/>
       <use x="55.615234" xlink:href="#ArialMT-30"/>
      </g>
     </g>
    </g>
    <g id="xtick_2">
     <g id="line2d_2">
      <g>
       <use style="fill:#262626;stroke:#262626;stroke-width:1.25;" x="187.92" xlink:href="#m6fbced1386" y="252"/>
      </g>
     </g>
     <g id="text_2">
      <!-- 40 -->
      <g style="fill:#262626;" transform="translate(181.802969 269.373594)scale(0.11 -0.11)">
       <defs>
        <path d="M 2069 0 
L 2069 1097 
L 81 1097 
L 81 1613 
L 2172 4581 
L 2631 4581 
L 2631 1613 
L 3250 1613 
L 3250 1097 
L 2631 1097 
L 2631 0 
L 2069 0 
z
M 2069 1613 
L 2069 3678 
L 634 1613 
L 2069 1613 
z
" id="ArialMT-34" transform="scale(0.015625)"/>
       </defs>
       <use xlink:href="#ArialMT-34"/>
       <use x="55.615234" xlink:href="#ArialMT-30"/>
      </g>
     </g>
    </g>
    <g id="xtick_3">
     <g id="line2d_3">
      <g>
       <use style="fill:#262626;stroke:#262626;stroke-width:1.25;" x="254.88" xlink:href="#m6fbced1386" y="252"/>
      </g>
     </g>
     <g id="text_3">
      <!-- 60 -->
      <g style="fill:#262626;" transform="translate(248.762969 269.373594)scale(0.11 -0.11)">
       <defs>
        <path d="M 3184 3459 
L 2625 3416 
Q 2550 3747 2413 3897 
Q 2184 4138 1850 4138 
Q 1581 4138 1378 3988 
Q 1113 3794 959 3422 
Q 806 3050 800 2363 
Q 1003 2672 1297 2822 
Q 1591 2972 1913 2972 
Q 2475 2972 2870 2558 
Q 3266 2144 3266 1488 
Q 3266 1056 3080 686 
Q 2894 316 2569 119 
Q 2244 -78 1831 -78 
Q 1128 -78 684 439 
Q 241 956 241 2144 
Q 241 3472 731 4075 
Q 1159 4600 1884 4600 
Q 2425 4600 2770 4297 
Q 3116 3994 3184 3459 
z
M 888 1484 
Q 888 1194 1011 928 
Q 1134 663 1356 523 
Q 1578 384 1822 384 
Q 2178 384 2434 671 
Q 2691 959 2691 1453 
Q 2691 1928 2437 2201 
Q 2184 2475 1800 2475 
Q 1419 2475 1153 2201 
Q 888 1928 888 1484 
z
" id="ArialMT-36" transform="scale(0.015625)"/>
       </defs>
       <use xlink:href="#ArialMT-36"/>
       <use x="55.615234" xlink:href="#ArialMT-30"/>
      </g>
     </g>
    </g>
    <g id="xtick_4">
     <g id="line2d_4">
      <g>
       <use style="fill:#262626;stroke:#262626;stroke-width:1.25;" x="321.84" xlink:href="#m6fbced1386" y="252"/>
      </g>
     </g>
     <g id="text_4">
      <!-- 80 -->
      <g style="fill:#262626;" transform="translate(315.722969 269.373594)scale(0.11 -0.11)">
       <defs>
        <path d="M 1131 2484 
Q 781 2613 612 2850 
Q 444 3088 444 3419 
Q 444 3919 803 4259 
Q 1163 4600 1759 4600 
Q 2359 4600 2725 4251 
Q 3091 3903 3091 3403 
Q 3091 3084 2923 2848 
Q 2756 2613 2416 2484 
Q 2838 2347 3058 2040 
Q 3278 1734 3278 1309 
Q 3278 722 2862 322 
Q 2447 -78 1769 -78 
Q 1091 -78 675 323 
Q 259 725 259 1325 
Q 259 1772 486 2073 
Q 713 2375 1131 2484 
z
M 1019 3438 
Q 1019 3113 1228 2906 
Q 1438 2700 1772 2700 
Q 2097 2700 2305 2904 
Q 2513 3109 2513 3406 
Q 2513 3716 2298 3927 
Q 2084 4138 1766 4138 
Q 1444 4138 1231 3931 
Q 1019 3725 1019 3438 
z
M 838 1322 
Q 838 1081 952 856 
Q 1066 631 1291 507 
Q 1516 384 1775 384 
Q 2178 384 2440 643 
Q 2703 903 2703 1303 
Q 2703 1709 2433 1975 
Q 2163 2241 1756 2241 
Q 1359 2241 1098 1978 
Q 838 1716 838 1322 
z
" id="ArialMT-38" transform="scale(0.015625)"/>
       </defs>
       <use xlink:href="#ArialMT-38"/>
       <use x="55.615234" xlink:href="#ArialMT-30"/>
      </g>
     </g>
    </g>
    <g id="xtick_5">
     <g id="line2d_5">
      <g>
       <use style="fill:#262626;stroke:#262626;stroke-width:1.25;" x="388.8" xlink:href="#m6fbced1386" y="252"/>
      </g>
     </g>
     <g id="text_5">
      <!-- 100 -->
      <g style="fill:#262626;" transform="translate(379.624453 269.373594)scale(0.11 -0.11)">
       <defs>
        <path d="M 2384 0 
L 1822 0 
L 1822 3584 
Q 1619 3391 1289 3197 
Q 959 3003 697 2906 
L 697 3450 
Q 1169 3672 1522 3987 
Q 1875 4303 2022 4600 
L 2384 4600 
L 2384 0 
z
" id="ArialMT-31" transform="scale(0.015625)"/>
       </defs>
       <use xlink:href="#ArialMT-31"/>
       <use x="55.615234" xlink:href="#ArialMT-30"/>
       <use x="111.230469" xlink:href="#ArialMT-30"/>
      </g>
     </g>
    </g>
    <g id="text_6">
     <!-- Step -->
     <g style="fill:#262626;" transform="translate(209.057813 284.295469)scale(0.12 -0.12)">
      <defs>
       <path d="M 288 1472 
L 859 1522 
Q 900 1178 1048 958 
Q 1197 738 1509 602 
Q 1822 466 2213 466 
Q 2559 466 2825 569 
Q 3091 672 3220 851 
Q 3350 1031 3350 1244 
Q 3350 1459 3225 1620 
Q 3100 1781 2813 1891 
Q 2628 1963 1997 2114 
Q 1366 2266 1113 2400 
Q 784 2572 623 2826 
Q 463 3081 463 3397 
Q 463 3744 659 4045 
Q 856 4347 1234 4503 
Q 1613 4659 2075 4659 
Q 2584 4659 2973 4495 
Q 3363 4331 3572 4012 
Q 3781 3694 3797 3291 
L 3216 3247 
Q 3169 3681 2898 3903 
Q 2628 4125 2100 4125 
Q 1550 4125 1298 3923 
Q 1047 3722 1047 3438 
Q 1047 3191 1225 3031 
Q 1400 2872 2139 2705 
Q 2878 2538 3153 2413 
Q 3553 2228 3743 1945 
Q 3934 1663 3934 1294 
Q 3934 928 3725 604 
Q 3516 281 3123 101 
Q 2731 -78 2241 -78 
Q 1619 -78 1198 103 
Q 778 284 539 648 
Q 300 1013 288 1472 
z
" id="ArialMT-53" transform="scale(0.015625)"/>
       <path d="M 1650 503 
L 1731 6 
Q 1494 -44 1306 -44 
Q 1000 -44 831 53 
Q 663 150 594 308 
Q 525 466 525 972 
L 525 2881 
L 113 2881 
L 113 3319 
L 525 3319 
L 525 4141 
L 1084 4478 
L 1084 3319 
L 1650 3319 
L 1650 2881 
L 1084 2881 
L 1084 941 
Q 1084 700 1114 631 
Q 1144 563 1211 522 
Q 1278 481 1403 481 
Q 1497 481 1650 503 
z
" id="ArialMT-74" transform="scale(0.015625)"/>
       <path d="M 2694 1069 
L 3275 997 
Q 3138 488 2766 206 
Q 2394 -75 1816 -75 
Q 1088 -75 661 373 
Q 234 822 234 1631 
Q 234 2469 665 2931 
Q 1097 3394 1784 3394 
Q 2450 3394 2872 2941 
Q 3294 2488 3294 1666 
Q 3294 1616 3291 1516 
L 816 1516 
Q 847 969 1125 678 
Q 1403 388 1819 388 
Q 2128 388 2347 550 
Q 2566 713 2694 1069 
z
M 847 1978 
L 2700 1978 
Q 2663 2397 2488 2606 
Q 2219 2931 1791 2931 
Q 1403 2931 1139 2672 
Q 875 2413 847 1978 
z
" id="ArialMT-65" transform="scale(0.015625)"/>
       <path d="M 422 -1272 
L 422 3319 
L 934 3319 
L 934 2888 
Q 1116 3141 1344 3267 
Q 1572 3394 1897 3394 
Q 2322 3394 2647 3175 
Q 2972 2956 3137 2557 
Q 3303 2159 3303 1684 
Q 3303 1175 3120 767 
Q 2938 359 2589 142 
Q 2241 -75 1856 -75 
Q 1575 -75 1351 44 
Q 1128 163 984 344 
L 984 -1272 
L 422 -1272 
z
M 931 1641 
Q 931 1000 1190 694 
Q 1450 388 1819 388 
Q 2194 388 2461 705 
Q 2728 1022 2728 1688 
Q 2728 2322 2467 2637 
Q 2206 2953 1844 2953 
Q 1484 2953 1207 2617 
Q 931 2281 931 1641 
z
" id="ArialMT-70" transform="scale(0.015625)"/>
      </defs>
      <use xlink:href="#ArialMT-53"/>
      <use x="66.699219" xlink:href="#ArialMT-74"/>
      <use x="94.482422" xlink:href="#ArialMT-65"/>
      <use x="150.097656" xlink:href="#ArialMT-70"/>
     </g>
    </g>
   </g>
   <g id="matplotlib.axis_2">
    <g id="ytick_1">
     <g id="line2d_6">
      <defs>
       <path d="M 0 0 
L -6 0 
" id="mf602140e94" style="stroke:#262626;stroke-width:1.25;"/>
      </defs>
      <g>
       <use style="fill:#262626;stroke:#262626;stroke-width:1.25;" x="54" xlink:href="#mf602140e94" y="133.554146"/>
      </g>
     </g>
     <g id="text_7">
      <!-- $\mathdefault{10^{0}}$ -->
      <g style="fill:#262626;" transform="translate(27.23 139.226021)scale(0.11 -0.11)">
       <use transform="translate(0 0.99375)" xlink:href="#ArialMT-31"/>
       <use transform="translate(55.615234 0.99375)" xlink:href="#ArialMT-30"/>
       <use transform="translate(112.972813 70.6875)scale(0.7)" xlink:href="#ArialMT-30"/>
      </g>
     </g>
    </g>
    <g id="ytick_2">
     <g id="line2d_7">
      <defs>
       <path d="M 0 0 
L -4 0 
" id="mc37a89387c" style="stroke:#262626;"/>
      </defs>
      <g>
       <use style="fill:#262626;stroke:#262626;" x="54" xlink:href="#mc37a89387c" y="247.696079"/>
      </g>
     </g>
     <g id="text_8">
      <!-- $\mathdefault{3\times10^{-1}}$ -->
      <g style="fill:#262626;" transform="translate(8.54 253.367954)scale(0.11 -0.11)">
       <defs>
        <path d="M 269 1209 
L 831 1284 
Q 928 806 1161 595 
Q 1394 384 1728 384 
Q 2125 384 2398 659 
Q 2672 934 2672 1341 
Q 2672 1728 2419 1979 
Q 2166 2231 1775 2231 
Q 1616 2231 1378 2169 
L 1441 2663 
Q 1497 2656 1531 2656 
Q 1891 2656 2178 2843 
Q 2466 3031 2466 3422 
Q 2466 3731 2256 3934 
Q 2047 4138 1716 4138 
Q 1388 4138 1169 3931 
Q 950 3725 888 3313 
L 325 3413 
Q 428 3978 793 4289 
Q 1159 4600 1703 4600 
Q 2078 4600 2393 4439 
Q 2709 4278 2876 4000 
Q 3044 3722 3044 3409 
Q 3044 3113 2884 2869 
Q 2725 2625 2413 2481 
Q 2819 2388 3044 2092 
Q 3269 1797 3269 1353 
Q 3269 753 2831 336 
Q 2394 -81 1725 -81 
Q 1122 -81 723 278 
Q 325 638 269 1209 
z
" id="ArialMT-33" transform="scale(0.015625)"/>
        <path d="M 503 1278 
L 1488 2263 
L 506 3244 
L 888 3625 
L 1869 2644 
L 2847 3622 
L 3222 3244 
L 2247 2266 
L 3228 1284 
L 2847 903 
L 1866 1884 
L 881 900 
L 503 1278 
z
" id="ArialMT-d7" transform="scale(0.015625)"/>
        <path d="M 3381 1997 
L 356 1997 
L 356 2522 
L 3381 2522 
L 3381 1997 
z
" id="ArialMT-2212" transform="scale(0.015625)"/>
       </defs>
       <use transform="translate(0 0.99375)" xlink:href="#ArialMT-33"/>
       <use transform="translate(72.275391 0.99375)" xlink:href="#ArialMT-d7"/>
       <use transform="translate(147.333984 0.99375)" xlink:href="#ArialMT-31"/>
       <use transform="translate(202.949219 0.99375)" xlink:href="#ArialMT-30"/>
       <use transform="translate(260.306797 70.6875)scale(0.7)" xlink:href="#ArialMT-2212"/>
       <use transform="translate(301.185703 70.6875)scale(0.7)" xlink:href="#ArialMT-31"/>
      </g>
     </g>
    </g>
    <g id="ytick_3">
     <g id="line2d_8">
      <g>
       <use style="fill:#262626;stroke:#262626;" x="54" xlink:href="#mc37a89387c" y="220.422549"/>
      </g>
     </g>
     <g id="text_9">
      <!-- $\mathdefault{4\times10^{-1}}$ -->
      <g style="fill:#262626;" transform="translate(8.54 226.094424)scale(0.11 -0.11)">
       <use transform="translate(0 0.99375)" xlink:href="#ArialMT-34"/>
       <use transform="translate(72.275391 0.99375)" xlink:href="#ArialMT-d7"/>
       <use transform="translate(147.333984 0.99375)" xlink:href="#ArialMT-31"/>
       <use transform="translate(202.949219 0.99375)" xlink:href="#ArialMT-30"/>
       <use transform="translate(260.306797 70.6875)scale(0.7)" xlink:href="#ArialMT-2212"/>
       <use transform="translate(301.185703 70.6875)scale(0.7)" xlink:href="#ArialMT-31"/>
      </g>
     </g>
    </g>
    <g id="ytick_4">
     <g id="line2d_9">
      <g>
       <use style="fill:#262626;stroke:#262626;" x="54" xlink:href="#mc37a89387c" y="199.267556"/>
      </g>
     </g>
    </g>
    <g id="ytick_5">
     <g id="line2d_10">
      <g>
       <use style="fill:#262626;stroke:#262626;" x="54" xlink:href="#mc37a89387c" y="181.982669"/>
      </g>
     </g>
     <g id="text_10">
      <!-- $\mathdefault{6\times10^{-1}}$ -->
      <g style="fill:#262626;" transform="translate(8.54 187.654544)scale(0.11 -0.11)">
       <use transform="translate(0 0.99375)" xlink:href="#ArialMT-36"/>
       <use transform="translate(72.275391 0.99375)" xlink:href="#ArialMT-d7"/>
       <use transform="translate(147.333984 0.99375)" xlink:href="#ArialMT-31"/>
       <use transform="translate(202.949219 0.99375)" xlink:href="#ArialMT-30"/>
       <use transform="translate(260.306797 70.6875)scale(0.7)" xlink:href="#ArialMT-2212"/>
       <use transform="translate(301.185703 70.6875)scale(0.7)" xlink:href="#ArialMT-31"/>
      </g>
     </g>
    </g>
    <g id="ytick_6">
     <g id="line2d_11">
      <g>
       <use style="fill:#262626;stroke:#262626;" x="54" xlink:href="#mc37a89387c" y="167.368504"/>
      </g>
     </g>
    </g>
    <g id="ytick_7">
     <g id="line2d_12">
      <g>
       <use style="fill:#262626;stroke:#262626;" x="54" xlink:href="#mc37a89387c" y="154.709139"/>
      </g>
     </g>
    </g>
    <g id="ytick_8">
     <g id="line2d_13">
      <g>
       <use style="fill:#262626;stroke:#262626;" x="54" xlink:href="#mc37a89387c" y="143.542788"/>
      </g>
     </g>
    </g>
    <g id="ytick_9">
     <g id="line2d_14">
      <g>
       <use style="fill:#262626;stroke:#262626;" x="54" xlink:href="#mc37a89387c" y="67.840736"/>
      </g>
     </g>
     <g id="text_11">
      <!-- $\mathdefault{2\times10^{0}}$ -->
      <g style="fill:#262626;" transform="translate(13.05 73.512611)scale(0.11 -0.11)">
       <use transform="translate(0 0.99375)" xlink:href="#ArialMT-32"/>
       <use transform="translate(72.275391 0.99375)" xlink:href="#ArialMT-d7"/>
       <use transform="translate(147.333984 0.99375)" xlink:href="#ArialMT-31"/>
       <use transform="translate(202.949219 0.99375)" xlink:href="#ArialMT-30"/>
       <use transform="translate(260.306797 70.6875)scale(0.7)" xlink:href="#ArialMT-30"/>
      </g>
     </g>
    </g>
    <g id="text_12">
     <!-- Loss -->
     <g style="fill:#262626;" transform="translate(2.155 155.953125)rotate(-90)scale(0.12 -0.12)">
      <defs>
       <path d="M 469 0 
L 469 4581 
L 1075 4581 
L 1075 541 
L 3331 541 
L 3331 0 
L 469 0 
z
" id="ArialMT-4c" transform="scale(0.015625)"/>
       <path d="M 213 1659 
Q 213 2581 725 3025 
Q 1153 3394 1769 3394 
Q 2453 3394 2887 2945 
Q 3322 2497 3322 1706 
Q 3322 1066 3130 698 
Q 2938 331 2570 128 
Q 2203 -75 1769 -75 
Q 1072 -75 642 372 
Q 213 819 213 1659 
z
M 791 1659 
Q 791 1022 1069 705 
Q 1347 388 1769 388 
Q 2188 388 2466 706 
Q 2744 1025 2744 1678 
Q 2744 2294 2464 2611 
Q 2184 2928 1769 2928 
Q 1347 2928 1069 2612 
Q 791 2297 791 1659 
z
" id="ArialMT-6f" transform="scale(0.015625)"/>
       <path d="M 197 991 
L 753 1078 
Q 800 744 1014 566 
Q 1228 388 1613 388 
Q 2000 388 2187 545 
Q 2375 703 2375 916 
Q 2375 1106 2209 1216 
Q 2094 1291 1634 1406 
Q 1016 1563 777 1677 
Q 538 1791 414 1992 
Q 291 2194 291 2438 
Q 291 2659 392 2848 
Q 494 3038 669 3163 
Q 800 3259 1026 3326 
Q 1253 3394 1513 3394 
Q 1903 3394 2198 3281 
Q 2494 3169 2634 2976 
Q 2775 2784 2828 2463 
L 2278 2388 
Q 2241 2644 2061 2787 
Q 1881 2931 1553 2931 
Q 1166 2931 1000 2803 
Q 834 2675 834 2503 
Q 834 2394 903 2306 
Q 972 2216 1119 2156 
Q 1203 2125 1616 2013 
Q 2213 1853 2448 1751 
Q 2684 1650 2818 1456 
Q 2953 1263 2953 975 
Q 2953 694 2789 445 
Q 2625 197 2315 61 
Q 2006 -75 1616 -75 
Q 969 -75 630 194 
Q 291 463 197 991 
z
" id="ArialMT-73" transform="scale(0.015625)"/>
      </defs>
      <use xlink:href="#ArialMT-4c"/>
      <use x="55.615234" xlink:href="#ArialMT-6f"/>
      <use x="111.230469" xlink:href="#ArialMT-73"/>
      <use x="161.230469" xlink:href="#ArialMT-73"/>
     </g>
    </g>
   </g>
   <g id="PolyCollection_1">
    <defs>
     <path d="M 54 -233.870443 
L 54 -233.752857 
L 57.348 -228.796886 
L 60.696 -213.132774 
L 64.044 -197.944313 
L 67.392 -182.055833 
L 70.74 -169.030193 
L 74.088 -157.059889 
L 77.436 -147.66637 
L 80.784 -136.868165 
L 84.132 -130.138701 
L 87.48 -124.111439 
L 90.828 -119.328016 
L 94.176 -119.490356 
L 97.524 -112.906701 
L 100.872 -108.934426 
L 104.22 -106.044802 
L 107.568 -103.676889 
L 110.916 -97.263028 
L 114.264 -100.784709 
L 117.612 -95.296062 
L 120.96 -95.664537 
L 124.308 -98.227038 
L 127.656 -90.926375 
L 131.004 -91.025904 
L 134.352 -89.007583 
L 137.7 -87.775285 
L 141.048 -85.319542 
L 144.396 -81.320208 
L 147.744 -82.929164 
L 151.092 -86.50528 
L 154.44 -79.431315 
L 157.788 -80.521462 
L 161.136 -79.150374 
L 164.484 -80.550625 
L 167.832 -78.96724 
L 171.18 -74.942126 
L 174.528 -73.610286 
L 177.876 -75.066696 
L 181.224 -77.566604 
L 184.572 -71.547446 
L 187.92 -72.226668 
L 191.268 -68.948321 
L 194.616 -69.698526 
L 197.964 -65.542388 
L 201.312 -68.732229 
L 204.66 -64.908922 
L 208.008 -69.011589 
L 211.356 -67.925965 
L 214.704 -66.603416 
L 218.052 -67.252929 
L 221.4 -63.78514 
L 224.748 -63.565213 
L 228.096 -64.557097 
L 231.444 -64.256789 
L 234.792 -63.728579 
L 238.14 -61.276541 
L 241.488 -63.420157 
L 244.836 -65.167672 
L 248.184 -60.771075 
L 251.532 -62.125336 
L 254.88 -59.341476 
L 258.228 -58.1353 
L 261.576 -61.261055 
L 264.924 -63.190239 
L 268.272 -60.794377 
L 271.62 -53.825072 
L 274.968 -55.982248 
L 278.316 -58.094013 
L 281.664 -57.968203 
L 285.012 -56.333506 
L 288.36 -56.281997 
L 291.708 -56.40113 
L 295.056 -58.114866 
L 298.404 -56.853876 
L 301.752 -51.936789 
L 305.1 -54.333137 
L 308.448 -55.509146 
L 311.796 -55.932397 
L 315.144 -53.48104 
L 318.492 -55.939692 
L 321.84 -50.693054 
L 325.188 -51.623468 
L 328.536 -50.104556 
L 331.884 -57.517686 
L 335.232 -52.659207 
L 338.58 -49.090264 
L 341.928 -52.329888 
L 345.276 -55.111103 
L 348.624 -54.095428 
L 351.972 -51.539544 
L 355.32 -54.580507 
L 358.668 -49.69916 
L 362.016 -55.23492 
L 365.364 -46.856212 
L 368.712 -50.728784 
L 372.06 -47.971165 
L 375.408 -49.735043 
L 378.756 -51.842538 
L 382.104 -47.954693 
L 385.452 -45.883636 
L 385.452 -50.909253 
L 385.452 -50.909253 
L 382.104 -53.253153 
L 378.756 -56.668125 
L 375.408 -54.166231 
L 372.06 -52.93438 
L 368.712 -55.456151 
L 365.364 -52.177374 
L 362.016 -60.500669 
L 358.668 -54.505578 
L 355.32 -58.843282 
L 351.972 -56.277672 
L 348.624 -58.950149 
L 345.276 -59.920158 
L 341.928 -57.052845 
L 338.58 -53.7086 
L 335.232 -57.158547 
L 331.884 -62.264856 
L 328.536 -55.540384 
L 325.188 -56.846497 
L 321.84 -55.884269 
L 318.492 -61.140788 
L 315.144 -58.359173 
L 311.796 -60.847068 
L 308.448 -60.560767 
L 305.1 -58.6283 
L 301.752 -56.503234 
L 298.404 -61.817966 
L 295.056 -62.734409 
L 291.708 -61.073554 
L 288.36 -60.648994 
L 285.012 -61.299929 
L 281.664 -64.238189 
L 278.316 -62.964903 
L 274.968 -60.65381 
L 271.62 -58.433282 
L 268.272 -65.043791 
L 264.924 -67.942241 
L 261.576 -65.957691 
L 258.228 -62.838484 
L 254.88 -64.178558 
L 251.532 -67.148079 
L 248.184 -65.420294 
L 244.836 -70.135106 
L 241.488 -67.943572 
L 238.14 -66.072333 
L 234.792 -68.720975 
L 231.444 -68.998616 
L 228.096 -68.867019 
L 224.748 -68.14307 
L 221.4 -68.749587 
L 218.052 -71.837506 
L 214.704 -71.087802 
L 211.356 -72.22977 
L 208.008 -73.82131 
L 204.66 -69.743004 
L 201.312 -73.666762 
L 197.964 -70.367172 
L 194.616 -73.832627 
L 191.268 -74.172478 
L 187.92 -77.133544 
L 184.572 -76.158532 
L 181.224 -82.750555 
L 177.876 -79.485088 
L 174.528 -78.345386 
L 171.18 -79.454416 
L 167.832 -83.077406 
L 164.484 -84.425935 
L 161.136 -83.192003 
L 157.788 -84.527922 
L 154.44 -83.6789 
L 151.092 -90.916281 
L 147.744 -87.122788 
L 144.396 -85.782039 
L 141.048 -89.566386 
L 137.7 -91.791563 
L 134.352 -93.277941 
L 131.004 -95.171024 
L 127.656 -94.875685 
L 124.308 -102.59237 
L 120.96 -99.697666 
L 117.612 -99.62128 
L 114.264 -104.938413 
L 110.916 -101.37184 
L 107.568 -107.602098 
L 104.22 -109.842702 
L 100.872 -112.708812 
L 97.524 -116.970444 
L 94.176 -122.284352 
L 90.828 -122.572474 
L 87.48 -127.368169 
L 84.132 -133.226369 
L 80.784 -139.764765 
L 77.436 -150.621758 
L 74.088 -159.794813 
L 70.74 -171.812323 
L 67.392 -184.432323 
L 64.044 -199.68743 
L 60.696 -214.594838 
L 57.348 -229.94956 
L 54 -233.870443 
z
" id="m24de4f6611" style="stroke:#ffffff;stroke-opacity:0.2;"/>
    </defs>
    <g clip-path="url(#p67d0c4499e)">
     <use style="fill:#ea4c4e;fill-opacity:0.2;stroke:#ffffff;stroke-opacity:0.2;" x="0" xlink:href="#m24de4f6611" y="288"/>
    </g>
   </g>
   <g id="PolyCollection_2">
    <defs>
     <path d="M 54 -234.03785 
L 54 -233.918809 
L 57.348 -229.760812 
L 60.696 -222.609729 
L 64.044 -214.021579 
L 67.392 -201.338691 
L 70.74 -191.736146 
L 74.088 -181.511039 
L 77.436 -172.914707 
L 80.784 -163.669747 
L 84.132 -158.082275 
L 87.48 -151.973402 
L 90.828 -147.189224 
L 94.176 -143.647678 
L 97.524 -140.424519 
L 100.872 -135.455678 
L 104.22 -132.651284 
L 107.568 -127.768403 
L 110.916 -123.792925 
L 114.264 -121.073968 
L 117.612 -117.515709 
L 120.96 -115.63793 
L 124.308 -113.822284 
L 127.656 -110.040095 
L 131.004 -110.744532 
L 134.352 -108.029093 
L 137.7 -104.114118 
L 141.048 -106.864177 
L 144.396 -102.770394 
L 147.744 -100.090312 
L 151.092 -100.729813 
L 154.44 -99.907489 
L 157.788 -96.115427 
L 161.136 -95.017346 
L 164.484 -93.172006 
L 167.832 -93.56317 
L 171.18 -92.293401 
L 174.528 -91.349759 
L 177.876 -91.599769 
L 181.224 -88.647198 
L 184.572 -86.89732 
L 187.92 -86.260464 
L 191.268 -86.027046 
L 194.616 -81.445726 
L 197.964 -83.035028 
L 201.312 -81.336129 
L 204.66 -85.533953 
L 208.008 -80.83784 
L 211.356 -83.411731 
L 214.704 -83.564641 
L 218.052 -77.6148 
L 221.4 -80.408538 
L 224.748 -78.006743 
L 228.096 -79.533681 
L 231.444 -78.858828 
L 234.792 -75.499147 
L 238.14 -76.405696 
L 241.488 -76.960511 
L 244.836 -74.480569 
L 248.184 -77.704734 
L 251.532 -75.997913 
L 254.88 -72.853576 
L 258.228 -72.587758 
L 261.576 -73.894434 
L 264.924 -75.019439 
L 268.272 -73.648266 
L 271.62 -70.437495 
L 274.968 -71.294048 
L 278.316 -69.839005 
L 281.664 -68.678504 
L 285.012 -66.915523 
L 288.36 -68.998517 
L 291.708 -66.465156 
L 295.056 -67.719751 
L 298.404 -65.512285 
L 301.752 -68.030179 
L 305.1 -68.593586 
L 308.448 -65.589449 
L 311.796 -64.601665 
L 315.144 -62.577346 
L 318.492 -64.716894 
L 321.84 -61.592209 
L 325.188 -64.929416 
L 328.536 -63.749263 
L 331.884 -62.857757 
L 335.232 -62.897718 
L 338.58 -61.39132 
L 341.928 -62.899246 
L 345.276 -62.57575 
L 348.624 -59.277964 
L 351.972 -61.249271 
L 355.32 -59.621105 
L 358.668 -61.377488 
L 362.016 -60.305938 
L 365.364 -63.087695 
L 368.712 -60.298876 
L 372.06 -61.313234 
L 375.408 -59.977275 
L 378.756 -58.14339 
L 382.104 -58.199841 
L 385.452 -56.790116 
L 385.452 -60.331578 
L 385.452 -60.331578 
L 382.104 -62.130724 
L 378.756 -61.902466 
L 375.408 -63.340956 
L 372.06 -64.679429 
L 368.712 -64.041166 
L 365.364 -66.838692 
L 362.016 -64.331498 
L 358.668 -64.896498 
L 355.32 -63.244401 
L 351.972 -64.462617 
L 348.624 -62.756083 
L 345.276 -66.138215 
L 341.928 -66.543639 
L 338.58 -64.858214 
L 335.232 -66.759728 
L 331.884 -66.563704 
L 328.536 -67.425488 
L 325.188 -68.559824 
L 321.84 -65.08593 
L 318.492 -68.171544 
L 315.144 -66.037762 
L 311.796 -68.018227 
L 308.448 -68.83749 
L 305.1 -72.041164 
L 301.752 -71.498457 
L 298.404 -68.819907 
L 295.056 -71.154935 
L 291.708 -70.118684 
L 288.36 -72.453906 
L 285.012 -70.166636 
L 281.664 -72.073031 
L 278.316 -73.381326 
L 274.968 -74.208322 
L 271.62 -73.632196 
L 268.272 -77.058835 
L 264.924 -77.885619 
L 261.576 -76.728814 
L 258.228 -75.536206 
L 254.88 -76.273425 
L 251.532 -79.017805 
L 248.184 -80.489264 
L 244.836 -77.68134 
L 241.488 -80.281802 
L 238.14 -79.402153 
L 234.792 -78.292067 
L 231.444 -82.053046 
L 228.096 -82.56089 
L 224.748 -81.20212 
L 221.4 -83.46262 
L 218.052 -80.682283 
L 214.704 -86.44203 
L 211.356 -86.412719 
L 208.008 -83.473554 
L 204.66 -88.357653 
L 201.312 -84.175329 
L 197.964 -85.866608 
L 194.616 -84.221919 
L 191.268 -88.973826 
L 187.92 -88.931397 
L 184.572 -89.23072 
L 181.224 -91.593081 
L 177.876 -94.272214 
L 174.528 -94.054308 
L 171.18 -95.15859 
L 167.832 -96.217762 
L 164.484 -95.979043 
L 161.136 -97.863337 
L 157.788 -98.689091 
L 154.44 -102.248617 
L 151.092 -103.196643 
L 147.744 -102.649213 
L 144.396 -105.450807 
L 141.048 -109.157459 
L 137.7 -106.9158 
L 134.352 -110.145208 
L 131.004 -113.192843 
L 127.656 -112.293332 
L 124.308 -116.069823 
L 120.96 -118.118941 
L 117.612 -119.95987 
L 114.264 -123.234236 
L 110.916 -126.154988 
L 107.568 -129.961791 
L 104.22 -134.531193 
L 100.872 -137.672508 
L 97.524 -142.734842 
L 94.176 -145.707358 
L 90.828 -149.500637 
L 87.48 -154.139749 
L 84.132 -160.175587 
L 80.784 -165.734514 
L 77.436 -174.892569 
L 74.088 -183.565434 
L 70.74 -193.549585 
L 67.392 -203.13868 
L 64.044 -215.652184 
L 60.696 -224.418205 
L 57.348 -230.945197 
L 54 -234.03785 
z
" id="m8a7f58e907" style="stroke:#ffffff;stroke-opacity:0.2;"/>
    </defs>
    <g clip-path="url(#p67d0c4499e)">
     <use style="fill:#377eb8;fill-opacity:0.2;stroke:#ffffff;stroke-opacity:0.2;" x="0" xlink:href="#m8a7f58e907" y="288"/>
    </g>
   </g>
   <g id="PolyCollection_3">
    <defs>
     <path d="M 54 -234.014852 
L 54 -233.897138 
L 57.348 -232.11434 
L 60.696 -229.299572 
L 64.044 -224.697492 
L 67.392 -217.882644 
L 70.74 -208.08018 
L 74.088 -195.179602 
L 77.436 -179.955629 
L 80.784 -165.606801 
L 84.132 -153.094812 
L 87.48 -148.838472 
L 90.828 -144.967997 
L 94.176 -148.180147 
L 97.524 -152.538428 
L 100.872 -149.463221 
L 104.22 -148.783682 
L 107.568 -147.090132 
L 110.916 -142.399965 
L 114.264 -138.705263 
L 117.612 -139.445948 
L 120.96 -134.65697 
L 124.308 -135.329855 
L 127.656 -131.825102 
L 131.004 -129.660189 
L 134.352 -126.944599 
L 137.7 -128.386736 
L 141.048 -123.010202 
L 144.396 -119.413564 
L 147.744 -116.667601 
L 151.092 -121.2359 
L 154.44 -115.535599 
L 157.788 -114.938518 
L 161.136 -114.354654 
L 164.484 -110.807116 
L 167.832 -109.408758 
L 171.18 -103.908205 
L 174.528 -110.284152 
L 177.876 -108.928738 
L 181.224 -105.327479 
L 184.572 -107.718704 
L 187.92 -106.271916 
L 191.268 -105.40818 
L 194.616 -101.918992 
L 197.964 -107.393873 
L 201.312 -104.238659 
L 204.66 -101.006291 
L 208.008 -100.854796 
L 211.356 -98.916164 
L 214.704 -101.468808 
L 218.052 -96.528871 
L 221.4 -99.12544 
L 224.748 -101.088089 
L 228.096 -95.08885 
L 231.444 -95.147574 
L 234.792 -96.403431 
L 238.14 -94.103424 
L 241.488 -93.125332 
L 244.836 -93.202413 
L 248.184 -93.35747 
L 251.532 -98.101288 
L 254.88 -92.914563 
L 258.228 -93.00654 
L 261.576 -93.837072 
L 264.924 -90.886746 
L 268.272 -94.698321 
L 271.62 -88.649395 
L 274.968 -94.074155 
L 278.316 -89.832748 
L 281.664 -91.006635 
L 285.012 -89.477047 
L 288.36 -86.557159 
L 291.708 -85.254265 
L 295.056 -93.080033 
L 298.404 -89.954995 
L 301.752 -88.176522 
L 305.1 -89.59891 
L 308.448 -84.491371 
L 311.796 -84.807698 
L 315.144 -83.709093 
L 318.492 -86.240934 
L 321.84 -84.192691 
L 325.188 -88.155094 
L 328.536 -86.33503 
L 331.884 -85.533896 
L 335.232 -81.964506 
L 338.58 -84.054098 
L 341.928 -82.425835 
L 345.276 -77.57115 
L 348.624 -84.231531 
L 351.972 -81.250151 
L 355.32 -85.101202 
L 358.668 -77.810048 
L 362.016 -81.896471 
L 365.364 -80.491823 
L 368.712 -81.843592 
L 372.06 -81.983123 
L 375.408 -83.876331 
L 378.756 -79.515957 
L 382.104 -80.246406 
L 385.452 -83.756905 
L 385.452 -88.687731 
L 385.452 -88.687731 
L 382.104 -84.703448 
L 378.756 -84.630437 
L 375.408 -89.655062 
L 372.06 -86.740624 
L 368.712 -87.333607 
L 365.364 -85.727916 
L 362.016 -87.370983 
L 358.668 -82.441707 
L 355.32 -90.591594 
L 351.972 -85.920523 
L 348.624 -89.494712 
L 345.276 -82.920828 
L 341.928 -87.894831 
L 338.58 -89.267752 
L 335.232 -87.750431 
L 331.884 -90.874514 
L 328.536 -91.653062 
L 325.188 -92.784938 
L 321.84 -89.267562 
L 318.492 -91.68923 
L 315.144 -88.815978 
L 311.796 -89.590774 
L 308.448 -89.386931 
L 305.1 -95.122773 
L 301.752 -93.298932 
L 298.404 -94.422831 
L 295.056 -97.614229 
L 291.708 -90.456357 
L 288.36 -91.622064 
L 285.012 -94.500401 
L 281.664 -95.966474 
L 278.316 -94.90026 
L 274.968 -98.97485 
L 271.62 -93.803163 
L 268.272 -100.068316 
L 264.924 -95.205105 
L 261.576 -99.13851 
L 258.228 -97.704788 
L 254.88 -97.918415 
L 251.532 -102.234733 
L 248.184 -97.926472 
L 244.836 -98.313818 
L 241.488 -97.649418 
L 238.14 -99.026427 
L 234.792 -101.863364 
L 231.444 -100.728101 
L 228.096 -100.460746 
L 224.748 -105.815762 
L 221.4 -103.869019 
L 218.052 -101.240413 
L 214.704 -105.823868 
L 211.356 -103.274711 
L 208.008 -105.363672 
L 204.66 -106.530635 
L 201.312 -108.054907 
L 197.964 -112.667571 
L 194.616 -106.791576 
L 191.268 -109.60782 
L 187.92 -110.93614 
L 184.572 -112.388025 
L 181.224 -109.877384 
L 177.876 -113.728393 
L 174.528 -114.760235 
L 171.18 -108.826256 
L 167.832 -114.44279 
L 164.484 -115.058823 
L 161.136 -118.9502 
L 157.788 -119.432103 
L 154.44 -119.88307 
L 151.092 -125.858653 
L 147.744 -121.381465 
L 144.396 -123.826377 
L 141.048 -127.826081 
L 137.7 -132.989022 
L 134.352 -132.103039 
L 131.004 -134.611443 
L 127.656 -136.69623 
L 124.308 -140.363314 
L 120.96 -139.975735 
L 117.612 -145.0759 
L 114.264 -144.060365 
L 110.916 -147.943718 
L 107.568 -153.27498 
L 104.22 -156.0038 
L 100.872 -156.78486 
L 97.524 -158.02446 
L 94.176 -152.911157 
L 90.828 -148.92819 
L 87.48 -152.444155 
L 84.132 -155.564243 
L 80.784 -167.795005 
L 77.436 -181.823554 
L 74.088 -196.672682 
L 70.74 -209.188783 
L 67.392 -218.611349 
L 64.044 -225.174254 
L 60.696 -229.57617 
L 57.348 -232.25761 
L 54 -234.014852 
z
" id="m350577417d" style="stroke:#ffffff;stroke-opacity:0.2;"/>
    </defs>
    <g clip-path="url(#p67d0c4499e)">
     <use style="fill:#4eae4b;fill-opacity:0.2;stroke:#ffffff;stroke-opacity:0.2;" x="0" xlink:href="#m350577417d" y="288"/>
    </g>
   </g>
   <g id="PolyCollection_4">
    <defs>
     <path d="M 54 -233.95311 
L 54 -233.839563 
L 57.348 -231.153046 
L 60.696 -227.021616 
L 64.044 -220.163155 
L 67.392 -210.500175 
L 70.74 -199.045679 
L 74.088 -187.518677 
L 77.436 -182.182994 
L 80.784 -180.417554 
L 84.132 -177.742007 
L 87.48 -170.464736 
L 90.828 -163.014181 
L 94.176 -150.909995 
L 97.524 -141.199007 
L 100.872 -132.96693 
L 104.22 -126.88706 
L 107.568 -120.059346 
L 110.916 -116.96539 
L 114.264 -114.452632 
L 117.612 -107.44189 
L 120.96 -109.617077 
L 124.308 -106.30705 
L 127.656 -102.219898 
L 131.004 -102.033803 
L 134.352 -97.839516 
L 137.7 -96.741781 
L 141.048 -100.481693 
L 144.396 -96.595266 
L 147.744 -95.16776 
L 151.092 -91.973831 
L 154.44 -94.39252 
L 157.788 -89.94905 
L 161.136 -91.837925 
L 164.484 -90.21781 
L 167.832 -88.416129 
L 171.18 -85.15668 
L 174.528 -88.158879 
L 177.876 -81.808029 
L 181.224 -83.655464 
L 184.572 -81.338088 
L 187.92 -80.64573 
L 191.268 -80.989083 
L 194.616 -78.612281 
L 197.964 -77.367965 
L 201.312 -76.462834 
L 204.66 -74.73136 
L 208.008 -77.345648 
L 211.356 -76.68994 
L 214.704 -76.344636 
L 218.052 -73.576709 
L 221.4 -74.445046 
L 224.748 -73.360104 
L 228.096 -71.729038 
L 231.444 -67.542345 
L 234.792 -70.586583 
L 238.14 -68.110804 
L 241.488 -67.31578 
L 244.836 -69.595295 
L 248.184 -70.610895 
L 251.532 -66.47636 
L 254.88 -67.812505 
L 258.228 -68.63526 
L 261.576 -66.53357 
L 264.924 -67.629104 
L 268.272 -63.777207 
L 271.62 -62.337003 
L 274.968 -63.486635 
L 278.316 -64.390498 
L 281.664 -60.025003 
L 285.012 -66.55666 
L 288.36 -60.695857 
L 291.708 -62.729377 
L 295.056 -63.320595 
L 298.404 -63.517856 
L 301.752 -58.162261 
L 305.1 -56.399599 
L 308.448 -59.902464 
L 311.796 -56.691724 
L 315.144 -55.944719 
L 318.492 -59.349372 
L 321.84 -58.249174 
L 325.188 -60.908951 
L 328.536 -58.265028 
L 331.884 -61.320478 
L 335.232 -56.715285 
L 338.58 -56.834058 
L 341.928 -57.304115 
L 345.276 -60.49376 
L 348.624 -56.468973 
L 351.972 -53.643989 
L 355.32 -53.606863 
L 358.668 -58.078288 
L 362.016 -56.927272 
L 365.364 -54.654106 
L 368.712 -52.250972 
L 372.06 -53.687748 
L 375.408 -54.459669 
L 378.756 -55.129445 
L 382.104 -49.402454 
L 385.452 -47.688694 
L 385.452 -53.273365 
L 385.452 -53.273365 
L 382.104 -54.122103 
L 378.756 -60.032749 
L 375.408 -59.578719 
L 372.06 -59.244759 
L 368.712 -56.976383 
L 365.364 -59.485923 
L 362.016 -62.992236 
L 358.668 -63.045111 
L 355.32 -59.480046 
L 351.972 -58.876713 
L 348.624 -61.961645 
L 345.276 -65.855375 
L 341.928 -62.695212 
L 338.58 -61.889796 
L 335.232 -61.625465 
L 331.884 -65.49404 
L 328.536 -63.271108 
L 325.188 -66.874481 
L 321.84 -63.61661 
L 318.492 -64.552235 
L 315.144 -60.936245 
L 311.796 -62.244369 
L 308.448 -65.086687 
L 305.1 -61.142465 
L 301.752 -63.26973 
L 298.404 -69.175559 
L 295.056 -68.781169 
L 291.708 -68.296501 
L 288.36 -65.943572 
L 285.012 -71.813662 
L 281.664 -65.062973 
L 278.316 -69.396023 
L 274.968 -68.384419 
L 271.62 -67.249985 
L 268.272 -68.654283 
L 264.924 -72.069012 
L 261.576 -71.520901 
L 258.228 -73.767874 
L 254.88 -72.397672 
L 251.532 -71.36416 
L 248.184 -75.573845 
L 244.836 -74.780958 
L 241.488 -72.281828 
L 238.14 -73.153999 
L 234.792 -74.465217 
L 231.444 -73.072811 
L 228.096 -76.826793 
L 224.748 -78.316256 
L 221.4 -79.344683 
L 218.052 -77.691463 
L 214.704 -81.229799 
L 211.356 -81.133662 
L 208.008 -82.311689 
L 204.66 -79.172833 
L 201.312 -80.89323 
L 197.964 -82.967441 
L 194.616 -83.388246 
L 191.268 -85.313458 
L 187.92 -84.727208 
L 184.572 -86.698747 
L 181.224 -88.736654 
L 177.876 -86.457003 
L 174.528 -92.801507 
L 171.18 -90.126982 
L 167.832 -92.827821 
L 164.484 -94.510066 
L 161.136 -95.969637 
L 157.788 -94.681591 
L 154.44 -98.776111 
L 151.092 -97.990339 
L 147.744 -100.72256 
L 144.396 -101.679662 
L 141.048 -105.633647 
L 137.7 -101.472654 
L 134.352 -102.564271 
L 131.004 -108.061903 
L 127.656 -106.38299 
L 124.308 -111.062701 
L 120.96 -114.150069 
L 117.612 -112.464622 
L 114.264 -118.770222 
L 110.916 -121.68216 
L 107.568 -124.89997 
L 104.22 -131.199419 
L 100.872 -137.394859 
L 97.524 -145.793182 
L 94.176 -155.68452 
L 90.828 -169.754083 
L 87.48 -175.239922 
L 84.132 -182.841665 
L 80.784 -184.71963 
L 77.436 -185.749662 
L 74.088 -189.644483 
L 70.74 -200.549402 
L 67.392 -211.63291 
L 64.044 -220.852159 
L 60.696 -227.417418 
L 57.348 -231.345669 
L 54 -233.95311 
z
" id="m536e01f24f" style="stroke:#ffffff;stroke-opacity:0.2;"/>
    </defs>
    <g clip-path="url(#p67d0c4499e)">
     <use style="fill:#994fa1;fill-opacity:0.2;stroke:#ffffff;stroke-opacity:0.2;" x="0" xlink:href="#m536e01f24f" y="288"/>
    </g>
   </g>
   <g id="PolyCollection_5">
    <defs>
     <path d="M 54 -234.005996 
L 54 -233.882287 
L 57.348 -228.107678 
L 60.696 -222.03057 
L 64.044 -236.782091 
L 67.392 -221.529652 
L 70.74 -206.45673 
L 74.088 -183.936512 
L 77.436 -173.860084 
L 80.784 -164.555699 
L 84.132 -157.986368 
L 87.48 -154.600526 
L 90.828 -149.902817 
L 94.176 -149.992896 
L 97.524 -141.839069 
L 100.872 -139.51399 
L 104.22 -136.433802 
L 107.568 -136.273773 
L 110.916 -130.97917 
L 114.264 -126.698633 
L 117.612 -128.884919 
L 120.96 -128.721593 
L 124.308 -121.812849 
L 127.656 -122.981822 
L 131.004 -122.107013 
L 134.352 -120.549048 
L 137.7 -121.208207 
L 141.048 -117.771646 
L 144.396 -112.846924 
L 147.744 -113.73806 
L 151.092 -110.843838 
L 154.44 -115.226373 
L 157.788 -114.538335 
L 161.136 -112.609519 
L 164.484 -107.729139 
L 167.832 -109.744694 
L 171.18 -111.934689 
L 174.528 -105.77874 
L 177.876 -108.519526 
L 181.224 -108.749713 
L 184.572 -108.785996 
L 187.92 -103.581062 
L 191.268 -109.287799 
L 194.616 -101.816382 
L 197.964 -103.875443 
L 201.312 -101.190652 
L 204.66 -101.255299 
L 208.008 -98.229684 
L 211.356 -99.519633 
L 214.704 -103.746965 
L 218.052 -99.13489 
L 221.4 -101.102274 
L 224.748 -102.151563 
L 228.096 -100.861502 
L 231.444 -98.023623 
L 234.792 -100.602397 
L 238.14 -101.292244 
L 241.488 -98.487218 
L 244.836 -96.79084 
L 248.184 -99.931161 
L 251.532 -98.287363 
L 254.88 -95.646639 
L 258.228 -99.723754 
L 261.576 -93.579246 
L 264.924 -91.786041 
L 268.272 -93.58746 
L 271.62 -94.237371 
L 274.968 -97.718704 
L 278.316 -98.481947 
L 281.664 -95.779618 
L 285.012 -97.334107 
L 288.36 -92.001769 
L 291.708 -98.526185 
L 295.056 -97.470247 
L 298.404 -86.547267 
L 301.752 -92.088032 
L 305.1 -86.919238 
L 308.448 -96.042887 
L 311.796 -94.418694 
L 315.144 -95.744678 
L 318.492 -89.375803 
L 321.84 -89.221675 
L 325.188 -88.337435 
L 328.536 -91.291252 
L 331.884 -91.083496 
L 335.232 -87.779897 
L 338.58 -86.96918 
L 341.928 -85.381662 
L 345.276 -94.335561 
L 348.624 -88.82302 
L 351.972 -90.071474 
L 355.32 -88.62204 
L 358.668 -91.723336 
L 362.016 -90.174103 
L 365.364 -98.271951 
L 368.712 -95.544904 
L 372.06 -86.364035 
L 375.408 -93.518278 
L 378.756 -83.133056 
L 382.104 -92.203473 
L 385.452 -88.918138 
L 385.452 -95.033601 
L 385.452 -95.033601 
L 382.104 -98.524119 
L 378.756 -88.883805 
L 375.408 -100.151172 
L 372.06 -92.685673 
L 368.712 -101.206564 
L 365.364 -104.605069 
L 362.016 -96.420211 
L 358.668 -96.780215 
L 355.32 -94.332675 
L 351.972 -95.91659 
L 348.624 -94.615876 
L 345.276 -101.155619 
L 341.928 -91.428004 
L 338.58 -93.750432 
L 335.232 -93.369424 
L 331.884 -97.070477 
L 328.536 -96.930463 
L 325.188 -94.082731 
L 321.84 -95.363349 
L 318.492 -94.87902 
L 315.144 -102.037262 
L 311.796 -100.647991 
L 308.448 -102.374626 
L 305.1 -92.516986 
L 301.752 -98.368606 
L 298.404 -92.095213 
L 295.056 -102.815621 
L 291.708 -104.183842 
L 288.36 -98.362891 
L 285.012 -103.038513 
L 281.664 -101.891002 
L 278.316 -104.827043 
L 274.968 -103.770747 
L 271.62 -99.194878 
L 268.272 -99.129079 
L 264.924 -97.535506 
L 261.576 -98.894364 
L 258.228 -105.690692 
L 254.88 -101.186941 
L 251.532 -103.981902 
L 248.184 -105.23592 
L 244.836 -102.107666 
L 241.488 -104.491124 
L 238.14 -106.62708 
L 234.792 -105.990968 
L 231.444 -103.886913 
L 228.096 -106.825357 
L 224.748 -108.165256 
L 221.4 -106.611508 
L 218.052 -105.06905 
L 214.704 -108.887445 
L 211.356 -105.21653 
L 208.008 -103.164332 
L 204.66 -105.769299 
L 201.312 -106.368399 
L 197.964 -108.708623 
L 194.616 -106.533736 
L 191.268 -114.43875 
L 187.92 -108.76014 
L 184.572 -113.764659 
L 181.224 -114.198826 
L 177.876 -113.57719 
L 174.528 -111.325652 
L 171.18 -117.132292 
L 167.832 -114.675883 
L 164.484 -112.295203 
L 161.136 -117.587678 
L 157.788 -119.233186 
L 154.44 -120.304847 
L 151.092 -115.235892 
L 147.744 -118.663079 
L 144.396 -117.558913 
L 141.048 -122.347421 
L 137.7 -125.921449 
L 134.352 -124.987373 
L 131.004 -126.417387 
L 127.656 -127.979561 
L 124.308 -125.894286 
L 120.96 -133.246481 
L 117.612 -133.020071 
L 114.264 -130.819847 
L 110.916 -135.253536 
L 107.568 -140.093187 
L 104.22 -140.409263 
L 100.872 -143.393377 
L 97.524 -145.954381 
L 94.176 -153.479775 
L 90.828 -153.884888 
L 87.48 -157.785155 
L 84.132 -161.276466 
L 80.784 -168.403718 
L 77.436 -177.841485 
L 74.088 -189.749802 
L 70.74 -214.068109 
L 67.392 -231.217799 
L 64.044 -243.556364 
L 60.696 -225.196924 
L 57.348 -229.128963 
L 54 -234.005996 
z
" id="md360ba8e73" style="stroke:#ffffff;stroke-opacity:0.2;"/>
    </defs>
    <g clip-path="url(#p67d0c4499e)">
     <use style="fill:#ff8101;fill-opacity:0.2;stroke:#ffffff;stroke-opacity:0.2;" x="0" xlink:href="#md360ba8e73" y="288"/>
    </g>
   </g>
   <g id="line2d_15">
    <path clip-path="url(#p67d0c4499e)" d="M 54 54.188252 
L 57.348 58.614624 
L 60.696 74.135442 
L 64.044 89.181872 
L 67.392 104.767973 
L 70.74 117.530209 
L 74.088 129.534781 
L 77.436 138.837901 
L 80.784 149.634895 
L 84.132 156.302214 
L 87.48 162.268621 
L 90.828 166.995711 
L 94.176 167.079749 
L 97.524 173.001265 
L 100.872 177.131739 
L 104.22 180.003131 
L 107.568 182.325038 
L 110.916 188.658139 
L 114.264 185.066998 
L 117.612 190.553836 
L 120.96 190.232679 
L 124.308 187.604212 
L 127.656 195.109468 
L 131.004 194.890786 
L 134.352 196.791334 
L 137.7 198.180812 
L 141.048 200.543166 
L 144.396 204.353984 
L 147.744 202.965027 
L 151.092 199.193698 
L 154.44 206.487822 
L 157.788 205.454006 
L 161.136 206.753885 
L 164.484 205.484774 
L 167.832 206.972044 
L 171.18 210.806568 
L 174.528 212.053791 
L 177.876 210.706445 
L 181.224 207.859065 
L 184.572 214.136031 
L 187.92 213.290574 
L 191.268 216.400174 
L 194.616 216.25832 
L 197.964 219.965125 
L 201.312 216.805549 
L 204.66 220.591829 
L 208.008 216.532354 
L 211.356 217.872878 
L 214.704 219.118599 
L 218.052 218.469889 
L 221.4 221.693199 
L 224.748 222.026349 
L 228.096 221.272636 
L 231.444 221.322788 
L 234.792 221.681492 
L 238.14 224.255478 
L 241.488 222.290257 
L 244.836 220.309284 
L 248.184 224.876243 
L 251.532 223.294841 
L 254.88 226.215505 
L 258.228 227.48381 
L 261.576 224.370371 
L 264.924 222.420097 
L 268.272 225.104966 
L 271.62 231.901031 
L 274.968 229.706547 
L 278.316 227.427907 
L 281.664 226.861392 
L 285.012 229.1684 
L 288.36 229.553027 
L 291.708 229.236391 
L 295.056 227.568115 
L 298.404 228.614643 
L 301.752 233.736276 
L 305.1 231.506968 
L 308.448 229.91471 
L 311.796 229.568624 
L 315.144 232.08945 
L 318.492 229.419253 
L 321.84 234.698714 
L 325.188 233.728057 
L 328.536 235.133755 
L 331.884 228.124342 
L 335.232 233.131411 
L 338.58 236.569235 
L 341.928 233.269332 
L 345.276 230.485613 
L 348.624 231.476696 
L 351.972 234.076646 
L 355.32 231.302986 
L 358.668 235.869065 
L 362.016 230.120208 
L 365.364 238.438208 
L 368.712 234.882839 
L 372.06 237.537516 
L 375.408 235.965433 
L 378.756 233.750522 
L 382.104 237.267739 
L 385.452 239.560939 
" style="fill:none;stroke:#ea4c4e;stroke-dasharray:5.55,2.4;stroke-dashoffset:0;stroke-width:1.5;"/>
   </g>
   <g id="line2d_16">
    <path clip-path="url(#p67d0c4499e)" d="M 54 54.022327 
L 57.348 57.623002 
L 60.696 64.477126 
L 64.044 73.177931 
L 67.392 85.760806 
L 70.74 95.338946 
L 74.088 105.430473 
L 77.436 114.060276 
L 80.784 123.281163 
L 84.132 128.858855 
L 87.48 134.930716 
L 90.828 139.618211 
L 94.176 143.28253 
L 97.524 146.394756 
L 100.872 151.424574 
L 104.22 154.365622 
L 107.568 159.1301 
L 110.916 163.000488 
L 114.264 165.84505 
L 117.612 169.249568 
L 120.96 171.121627 
L 124.308 173.051137 
L 127.656 176.831621 
L 131.004 176.03526 
L 134.352 178.914224 
L 137.7 182.465617 
L 141.048 179.972589 
L 144.396 183.858823 
L 147.744 186.625045 
L 151.092 186.00299 
L 154.44 186.893607 
L 157.788 190.581906 
L 161.136 191.569 
L 164.484 193.40766 
L 167.832 193.086469 
L 171.18 194.219379 
L 174.528 195.318201 
L 177.876 195.072494 
L 181.224 197.869925 
L 184.572 199.93977 
L 187.92 200.411952 
L 191.268 200.525827 
L 194.616 205.169794 
L 197.964 203.549177 
L 201.312 205.179714 
L 204.66 200.99453 
L 208.008 205.802746 
L 211.356 203.123576 
L 214.704 202.948215 
L 218.052 208.806342 
L 221.4 206.061935 
L 224.748 208.386912 
L 228.096 206.950342 
L 231.444 207.519302 
L 234.792 211.07301 
L 238.14 210.076924 
L 241.488 209.330415 
L 244.836 211.886539 
L 248.184 208.900441 
L 251.532 210.478354 
L 254.88 213.407236 
L 258.228 213.905953 
L 261.576 212.668985 
L 264.924 211.546627 
L 268.272 212.618152 
L 271.62 215.935924 
L 274.968 215.216426 
L 278.316 216.407582 
L 281.664 217.626172 
L 285.012 219.377414 
L 288.36 217.215994 
L 291.708 219.679617 
L 295.056 218.536567 
L 298.404 220.792785 
L 301.752 218.217079 
L 305.1 217.65302 
L 308.448 220.756352 
L 311.796 221.672523 
L 315.144 223.6901 
L 318.492 221.530523 
L 321.84 224.638408 
L 325.188 221.253326 
L 328.536 222.366832 
L 331.884 223.282113 
L 335.232 223.179377 
L 338.58 224.831375 
L 341.928 223.229806 
L 345.276 223.619773 
L 348.624 226.98913 
L 351.972 225.130517 
L 355.32 226.509158 
L 358.668 224.822952 
L 362.016 225.669732 
L 365.364 222.984104 
L 368.712 225.778489 
L 372.06 224.991869 
L 375.408 226.271073 
L 378.756 227.963386 
L 382.104 227.798422 
L 385.452 229.450544 
" style="fill:none;stroke:#377eb8;stroke-dasharray:5.55,2.4;stroke-dashoffset:0;stroke-width:1.5;"/>
   </g>
   <g id="line2d_17">
    <path clip-path="url(#p67d0c4499e)" d="M 54 54.043524 
L 57.348 55.814325 
L 60.696 58.562452 
L 64.044 63.068238 
L 67.392 69.754228 
L 70.74 79.366181 
L 74.088 92.090985 
L 77.436 107.112986 
L 80.784 121.304264 
L 84.132 133.660184 
L 87.48 137.331636 
L 90.828 141.058049 
L 94.176 137.40742 
L 97.524 132.680287 
L 100.872 134.784348 
L 104.22 135.575558 
L 107.568 137.853926 
L 110.916 142.77576 
L 114.264 146.61518 
L 117.612 145.784104 
L 120.96 150.646919 
L 124.308 150.143833 
L 127.656 153.678262 
L 131.004 155.863786 
L 134.352 158.44715 
L 137.7 157.321606 
L 141.048 162.541236 
L 144.396 166.37945 
L 147.744 168.965953 
L 151.092 164.404387 
L 154.44 170.253998 
L 157.788 170.823344 
L 161.136 171.317495 
L 164.484 175.039123 
L 167.832 175.991648 
L 171.18 181.633113 
L 174.528 175.465357 
L 177.876 176.682641 
L 181.224 180.344212 
L 184.572 178.003634 
L 187.92 179.320932 
L 191.268 180.467083 
L 194.616 183.61208 
L 197.964 177.917904 
L 201.312 181.817665 
L 204.66 184.108858 
L 208.008 184.858602 
L 211.356 186.895933 
L 214.704 184.314291 
L 218.052 189.082907 
L 221.4 186.436112 
L 224.748 184.555115 
L 228.096 190.128731 
L 231.444 189.997046 
L 234.792 188.752287 
L 238.14 191.377013 
L 241.488 192.617788 
L 244.836 192.263334 
L 248.184 192.310206 
L 251.532 187.799987 
L 254.88 192.556047 
L 258.228 192.593297 
L 261.576 191.45514 
L 264.924 194.905446 
L 268.272 190.590128 
L 271.62 196.739526 
L 274.968 191.473793 
L 278.316 195.621053 
L 281.664 194.558542 
L 285.012 195.987247 
L 288.36 198.902977 
L 291.708 200.115973 
L 295.056 192.601664 
L 298.404 195.753499 
L 301.752 197.243021 
L 305.1 195.579202 
L 308.448 201.045241 
L 311.796 200.734247 
L 315.144 201.734253 
L 318.492 199.003798 
L 321.84 201.217666 
L 325.188 197.491921 
L 328.536 198.973714 
L 331.884 199.706232 
L 335.232 203.078932 
L 338.58 201.316146 
L 341.928 202.853145 
L 345.276 207.775271 
L 348.624 201.113501 
L 351.972 204.418632 
L 355.32 200.118774 
L 358.668 207.870634 
L 362.016 203.325837 
L 365.364 204.882565 
L 368.712 203.407755 
L 372.06 203.592479 
L 375.408 201.260983 
L 378.756 205.867299 
L 382.104 205.557666 
L 385.452 201.791694 
" style="fill:none;stroke:#4eae4b;stroke-dasharray:5.55,2.4;stroke-dashoffset:0;stroke-width:1.5;"/>
   </g>
   <g id="line2d_18">
    <path clip-path="url(#p67d0c4499e)" d="M 54 54.103872 
L 57.348 56.750857 
L 60.696 60.781879 
L 64.044 67.494718 
L 67.392 76.948822 
L 70.74 88.215578 
L 74.088 99.382233 
L 77.436 103.995297 
L 80.784 105.435403 
L 84.132 107.705703 
L 87.48 115.19561 
L 90.828 121.548707 
L 94.176 134.749044 
L 97.524 144.510301 
L 100.872 152.826638 
L 104.22 159.004144 
L 107.568 165.508082 
L 110.916 168.650878 
L 114.264 171.359995 
L 117.612 178.007084 
L 120.96 176.091286 
L 124.308 179.297082 
L 127.656 183.656084 
L 131.004 182.876845 
L 134.352 187.771042 
L 137.7 188.909581 
L 141.048 184.887883 
L 144.396 188.807671 
L 147.744 190.111847 
L 151.092 192.999833 
L 154.44 191.463102 
L 157.788 195.639227 
L 161.136 194.105271 
L 164.484 195.639524 
L 167.832 197.382478 
L 171.18 200.344224 
L 174.528 197.535653 
L 177.876 203.903963 
L 181.224 201.802126 
L 184.572 203.950473 
L 187.92 205.313771 
L 191.268 204.838407 
L 194.616 206.975109 
L 197.964 207.898205 
L 201.312 209.340472 
L 204.66 211.043075 
L 208.008 208.098406 
L 211.356 209.115978 
L 214.704 209.230765 
L 218.052 212.341733 
L 221.4 211.08738 
L 224.748 212.155302 
L 228.096 213.675385 
L 231.444 217.725451 
L 234.792 215.493235 
L 238.14 217.338797 
L 241.488 218.14372 
L 244.836 215.813484 
L 248.184 214.856897 
L 251.532 219.000667 
L 254.88 217.870867 
L 258.228 216.733929 
L 261.576 218.959154 
L 264.924 218.043346 
L 268.272 221.748648 
L 271.62 223.123559 
L 274.968 221.980549 
L 278.316 221.064988 
L 281.664 225.407078 
L 285.012 218.769504 
L 288.36 224.714713 
L 291.708 222.469007 
L 295.056 221.913851 
L 298.404 221.685295 
L 301.752 227.260705 
L 305.1 229.145695 
L 308.448 225.469361 
L 311.796 228.43921 
L 315.144 229.573683 
L 318.492 225.996272 
L 321.84 226.997204 
L 325.188 224.077273 
L 328.536 227.084356 
L 331.884 224.49369 
L 335.232 228.774104 
L 338.58 228.577447 
L 341.928 227.949685 
L 345.276 224.800054 
L 348.624 228.816934 
L 351.972 231.744431 
L 355.32 231.407992 
L 358.668 227.407729 
L 362.016 228.071108 
L 365.364 230.885975 
L 368.712 233.346216 
L 372.06 231.5356 
L 375.408 230.979116 
L 378.756 230.34213 
L 382.104 236.195295 
L 385.452 237.468761 
" style="fill:none;stroke:#994fa1;stroke-dasharray:5.55,2.4;stroke-dashoffset:0;stroke-width:1.5;"/>
   </g>
   <g id="line2d_19">
    <path clip-path="url(#p67d0c4499e)" d="M 54 54.053967 
L 57.348 59.373687 
L 60.696 64.399438 
L 64.044 47.931493 
L 67.392 61.533825 
L 70.74 77.742819 
L 74.088 101.152666 
L 77.436 112.151468 
L 80.784 121.51121 
L 84.132 128.390071 
L 87.48 131.775334 
L 90.828 136.077364 
L 94.176 136.234889 
L 97.524 144.11227 
L 100.872 146.549834 
L 104.22 149.571806 
L 107.568 149.76253 
L 110.916 154.877977 
L 114.264 159.252738 
L 117.612 157.024381 
L 120.96 156.961327 
L 124.308 164.09501 
L 127.656 162.448584 
L 131.004 163.71305 
L 134.352 165.18972 
L 137.7 164.374108 
L 141.048 167.899422 
L 144.396 172.696564 
L 147.744 171.790982 
L 151.092 174.944752 
L 154.44 170.150291 
L 157.788 171.064816 
L 161.136 172.863558 
L 164.484 177.969606 
L 167.832 175.726688 
L 171.18 173.470514 
L 174.528 179.361992 
L 177.876 176.872324 
L 181.224 176.532557 
L 184.572 176.690802 
L 187.92 181.738614 
L 191.268 176.078509 
L 194.616 183.789324 
L 197.964 181.664391 
L 201.312 184.193589 
L 204.66 184.416406 
L 208.008 187.314316 
L 211.356 185.48193 
L 214.704 181.695782 
L 218.052 185.881581 
L 221.4 184.069455 
L 224.748 182.758729 
L 228.096 184.118686 
L 231.444 186.912427 
L 234.792 184.664705 
L 238.14 183.996228 
L 241.488 186.434828 
L 244.836 188.559485 
L 248.184 185.387122 
L 251.532 186.863488 
L 254.88 189.491015 
L 258.228 185.249918 
L 261.576 191.72769 
L 264.924 193.309448 
L 268.272 191.58774 
L 271.62 191.226328 
L 274.968 187.19995 
L 278.316 186.317469 
L 281.664 189.061733 
L 285.012 187.74375 
L 288.36 192.717997 
L 291.708 186.648855 
L 295.056 187.79462 
L 298.404 198.67419 
L 301.752 192.630157 
L 305.1 198.25875 
L 308.448 188.689782 
L 311.796 190.466423 
L 315.144 189.057769 
L 318.492 195.834126 
L 321.84 195.655546 
L 325.188 196.713918 
L 328.536 193.887757 
L 331.884 193.871014 
L 335.232 197.384166 
L 338.58 197.50902 
L 341.928 199.582727 
L 345.276 190.308524 
L 348.624 196.241645 
L 351.972 194.985968 
L 355.32 196.531418 
L 358.668 193.707597 
L 362.016 194.604627 
L 365.364 186.458523 
L 368.712 189.624289 
L 372.06 198.413263 
L 375.408 191.14114 
L 378.756 202.0134 
L 382.104 192.598123 
L 385.452 195.93196 
" style="fill:none;stroke:#ff8101;stroke-linecap:round;stroke-width:1.5;"/>
   </g>
   <g id="patch_3">
    <path d="M 54 252 
L 54 34.56 
" style="fill:none;stroke:#262626;stroke-linecap:square;stroke-linejoin:miter;stroke-width:1.25;"/>
   </g>
   <g id="patch_4">
    <path d="M 54 252 
L 388.8 252 
" style="fill:none;stroke:#262626;stroke-linecap:square;stroke-linejoin:miter;stroke-width:1.25;"/>
   </g>
   <g id="text_13">
    <!-- MNIST, ReLU -->
    <g style="fill:#262626;" transform="translate(184.729688 28.56)scale(0.12 -0.12)">
     <defs>
      <path d="M 475 0 
L 475 4581 
L 1388 4581 
L 2472 1338 
Q 2622 884 2691 659 
Q 2769 909 2934 1394 
L 4031 4581 
L 4847 4581 
L 4847 0 
L 4263 0 
L 4263 3834 
L 2931 0 
L 2384 0 
L 1059 3900 
L 1059 0 
L 475 0 
z
" id="ArialMT-4d" transform="scale(0.015625)"/>
      <path d="M 488 0 
L 488 4581 
L 1109 4581 
L 3516 984 
L 3516 4581 
L 4097 4581 
L 4097 0 
L 3475 0 
L 1069 3600 
L 1069 0 
L 488 0 
z
" id="ArialMT-4e" transform="scale(0.015625)"/>
      <path d="M 597 0 
L 597 4581 
L 1203 4581 
L 1203 0 
L 597 0 
z
" id="ArialMT-49" transform="scale(0.015625)"/>
      <path d="M 1659 0 
L 1659 4041 
L 150 4041 
L 150 4581 
L 3781 4581 
L 3781 4041 
L 2266 4041 
L 2266 0 
L 1659 0 
z
" id="ArialMT-54" transform="scale(0.015625)"/>
      <path d="M 569 0 
L 569 641 
L 1209 641 
L 1209 0 
Q 1209 -353 1084 -570 
Q 959 -788 688 -906 
L 531 -666 
Q 709 -588 793 -436 
Q 878 -284 888 0 
L 569 0 
z
" id="ArialMT-2c" transform="scale(0.015625)"/>
      <path id="ArialMT-20" transform="scale(0.015625)"/>
      <path d="M 503 0 
L 503 4581 
L 2534 4581 
Q 3147 4581 3465 4457 
Q 3784 4334 3975 4021 
Q 4166 3709 4166 3331 
Q 4166 2844 3850 2509 
Q 3534 2175 2875 2084 
Q 3116 1969 3241 1856 
Q 3506 1613 3744 1247 
L 4541 0 
L 3778 0 
L 3172 953 
Q 2906 1366 2734 1584 
Q 2563 1803 2427 1890 
Q 2291 1978 2150 2013 
Q 2047 2034 1813 2034 
L 1109 2034 
L 1109 0 
L 503 0 
z
M 1109 2559 
L 2413 2559 
Q 2828 2559 3062 2645 
Q 3297 2731 3419 2920 
Q 3541 3109 3541 3331 
Q 3541 3656 3305 3865 
Q 3069 4075 2559 4075 
L 1109 4075 
L 1109 2559 
z
" id="ArialMT-52" transform="scale(0.015625)"/>
      <path d="M 3500 4581 
L 4106 4581 
L 4106 1934 
Q 4106 1244 3950 837 
Q 3794 431 3386 176 
Q 2978 -78 2316 -78 
Q 1672 -78 1262 144 
Q 853 366 678 786 
Q 503 1206 503 1934 
L 503 4581 
L 1109 4581 
L 1109 1938 
Q 1109 1341 1220 1058 
Q 1331 775 1601 622 
Q 1872 469 2263 469 
Q 2931 469 3215 772 
Q 3500 1075 3500 1938 
L 3500 4581 
z
" id="ArialMT-55" transform="scale(0.015625)"/>
     </defs>
     <use xlink:href="#ArialMT-4d"/>
     <use x="83.300781" xlink:href="#ArialMT-4e"/>
     <use x="155.517578" xlink:href="#ArialMT-49"/>
     <use x="183.300781" xlink:href="#ArialMT-53"/>
     <use x="250" xlink:href="#ArialMT-54"/>
     <use x="299.958984" xlink:href="#ArialMT-2c"/>
     <use x="327.742188" xlink:href="#ArialMT-20"/>
     <use x="355.525391" xlink:href="#ArialMT-52"/>
     <use x="427.742188" xlink:href="#ArialMT-65"/>
     <use x="483.357422" xlink:href="#ArialMT-4c"/>
     <use x="538.972656" xlink:href="#ArialMT-55"/>
    </g>
   </g>
   <g id="legend_1">
    <g id="line2d_20">
     <path d="M 301.642187 48.483594 
L 323.642187 48.483594 
" style="fill:none;stroke:#ea4c4e;stroke-dasharray:5.55,2.4;stroke-dashoffset:0;stroke-width:1.5;"/>
    </g>
    <g id="line2d_21"/>
    <g id="text_14">
     <!-- ADAM -->
     <g style="fill:#262626;" transform="translate(332.442187 52.333594)scale(0.11 -0.11)">
      <defs>
       <path d="M -9 0 
L 1750 4581 
L 2403 4581 
L 4278 0 
L 3588 0 
L 3053 1388 
L 1138 1388 
L 634 0 
L -9 0 
z
M 1313 1881 
L 2866 1881 
L 2388 3150 
Q 2169 3728 2063 4100 
Q 1975 3659 1816 3225 
L 1313 1881 
z
" id="ArialMT-41" transform="scale(0.015625)"/>
       <path d="M 494 0 
L 494 4581 
L 2072 4581 
Q 2606 4581 2888 4516 
Q 3281 4425 3559 4188 
Q 3922 3881 4101 3404 
Q 4281 2928 4281 2316 
Q 4281 1794 4159 1391 
Q 4038 988 3847 723 
Q 3656 459 3429 307 
Q 3203 156 2883 78 
Q 2563 0 2147 0 
L 494 0 
z
M 1100 541 
L 2078 541 
Q 2531 541 2789 625 
Q 3047 709 3200 863 
Q 3416 1078 3536 1442 
Q 3656 1806 3656 2325 
Q 3656 3044 3420 3430 
Q 3184 3816 2847 3947 
Q 2603 4041 2063 4041 
L 1100 4041 
L 1100 541 
z
" id="ArialMT-44" transform="scale(0.015625)"/>
      </defs>
      <use xlink:href="#ArialMT-41"/>
      <use x="66.699219" xlink:href="#ArialMT-44"/>
      <use x="138.916016" xlink:href="#ArialMT-41"/>
      <use x="205.615234" xlink:href="#ArialMT-4d"/>
     </g>
    </g>
    <g id="line2d_22">
     <path d="M 301.642187 64.1775 
L 323.642187 64.1775 
" style="fill:none;stroke:#377eb8;stroke-dasharray:5.55,2.4;stroke-dashoffset:0;stroke-width:1.5;"/>
    </g>
    <g id="line2d_23"/>
    <g id="text_15">
     <!-- RMSprop -->
     <g style="fill:#262626;" transform="translate(332.442187 68.0275)scale(0.11 -0.11)">
      <defs>
       <path d="M 416 0 
L 416 3319 
L 922 3319 
L 922 2816 
Q 1116 3169 1280 3281 
Q 1444 3394 1641 3394 
Q 1925 3394 2219 3213 
L 2025 2691 
Q 1819 2813 1613 2813 
Q 1428 2813 1281 2702 
Q 1134 2591 1072 2394 
Q 978 2094 978 1738 
L 978 0 
L 416 0 
z
" id="ArialMT-72" transform="scale(0.015625)"/>
      </defs>
      <use xlink:href="#ArialMT-52"/>
      <use x="72.216797" xlink:href="#ArialMT-4d"/>
      <use x="155.517578" xlink:href="#ArialMT-53"/>
      <use x="222.216797" xlink:href="#ArialMT-70"/>
      <use x="277.832031" xlink:href="#ArialMT-72"/>
      <use x="311.132812" xlink:href="#ArialMT-6f"/>
      <use x="366.748047" xlink:href="#ArialMT-70"/>
     </g>
    </g>
    <g id="line2d_24">
     <path d="M 301.642187 79.737344 
L 323.642187 79.737344 
" style="fill:none;stroke:#4eae4b;stroke-dasharray:5.55,2.4;stroke-dashoffset:0;stroke-width:1.5;"/>
    </g>
    <g id="line2d_25"/>
    <g id="text_16">
     <!-- SGD -->
     <g style="fill:#262626;" transform="translate(332.442187 83.587344)scale(0.11 -0.11)">
      <defs>
       <path d="M 2638 1797 
L 2638 2334 
L 4578 2338 
L 4578 638 
Q 4131 281 3656 101 
Q 3181 -78 2681 -78 
Q 2006 -78 1454 211 
Q 903 500 622 1047 
Q 341 1594 341 2269 
Q 341 2938 620 3517 
Q 900 4097 1425 4378 
Q 1950 4659 2634 4659 
Q 3131 4659 3532 4498 
Q 3934 4338 4162 4050 
Q 4391 3763 4509 3300 
L 3963 3150 
Q 3859 3500 3706 3700 
Q 3553 3900 3268 4020 
Q 2984 4141 2638 4141 
Q 2222 4141 1919 4014 
Q 1616 3888 1430 3681 
Q 1244 3475 1141 3228 
Q 966 2803 966 2306 
Q 966 1694 1177 1281 
Q 1388 869 1791 669 
Q 2194 469 2647 469 
Q 3041 469 3416 620 
Q 3791 772 3984 944 
L 3984 1797 
L 2638 1797 
z
" id="ArialMT-47" transform="scale(0.015625)"/>
      </defs>
      <use xlink:href="#ArialMT-53"/>
      <use x="66.699219" xlink:href="#ArialMT-47"/>
      <use x="144.482422" xlink:href="#ArialMT-44"/>
     </g>
    </g>
    <g id="line2d_26">
     <path d="M 301.642187 95.297187 
L 323.642187 95.297187 
" style="fill:none;stroke:#994fa1;stroke-dasharray:5.55,2.4;stroke-dashoffset:0;stroke-width:1.5;"/>
    </g>
    <g id="line2d_27"/>
    <g id="text_17">
     <!-- NAG -->
     <g style="fill:#262626;" transform="translate(332.442187 99.147187)scale(0.11 -0.11)">
      <use xlink:href="#ArialMT-4e"/>
      <use x="72.216797" xlink:href="#ArialMT-41"/>
      <use x="138.916016" xlink:href="#ArialMT-47"/>
     </g>
    </g>
    <g id="line2d_28">
     <path d="M 301.642187 110.857031 
L 323.642187 110.857031 
" style="fill:none;stroke:#ff8101;stroke-linecap:round;stroke-width:1.5;"/>
    </g>
    <g id="line2d_29"/>
    <g id="text_18">
     <!-- LSTM -->
     <g style="fill:#262626;" transform="translate(332.442187 114.707031)scale(0.11 -0.11)">
      <use xlink:href="#ArialMT-4c"/>
      <use x="55.615234" xlink:href="#ArialMT-53"/>
      <use x="122.314453" xlink:href="#ArialMT-54"/>
      <use x="183.398438" xlink:href="#ArialMT-4d"/>
     </g>
    </g>
   </g>
  </g>
 </g>
 <defs>
  <clipPath id="p67d0c4499e">
   <rect height="217.44" width="334.8" x="54" y="34.56"/>
  </clipPath>
 </defs>
</svg>
