<?xml version="1.0" encoding="utf-8" standalone="no"?>
<!DOCTYPE svg PUBLIC "-//W3C//DTD SVG 1.1//EN"
  "http://www.w3.org/Graphics/SVG/1.1/DTD/svg11.dtd">
<svg height="288pt" version="1.1" viewBox="0 0 432 288" width="432pt" xmlns="http://www.w3.org/2000/svg" xmlns:xlink="http://www.w3.org/1999/xlink">
 <metadata>
  <rdf:RDF xmlns:cc="http://creativecommons.org/ns#" xmlns:dc="http://purl.org/dc/elements/1.1/" xmlns:rdf="http://www.w3.org/1999/02/22-rdf-syntax-ns#">
   <cc:Work>
    <dc:type rdf:resource="http://purl.org/dc/dcmitype/StillImage"/>
    <dc:date>2021-03-29T21:58:00.783828</dc:date>
    <dc:format>image/svg+xml</dc:format>
    <dc:creator>
     <cc:Agent>
      <dc:title>Matplotlib v3.4.0, https://matplotlib.org/</dc:title>
     </cc:Agent>
    </dc:creator>
   </cc:Work>
  </rdf:RDF>
 </metadata>
 <defs>
  <style type="text/css">*{stroke-linecap:butt;stroke-linejoin:round;}</style>
 </defs>
 <g id="figure_1">
  <g id="patch_1">
   <path d="M 0 288 
L 432 288 
L 432 0 
L 0 0 
z
" style="fill:#ffffff;"/>
  </g>
  <g id="axes_1">
   <g id="patch_2">
    <path d="M 54 252 
L 388.8 252 
L 388.8 34.56 
L 54 34.56 
z
" style="fill:#ffffff;"/>
   </g>
   <g id="matplotlib.axis_1">
    <g id="xtick_1">
     <g id="line2d_1">
      <defs>
       <path d="M 0 0 
L 0 6 
" id="m5b975623da" style="stroke:#262626;stroke-width:1.25;"/>
      </defs>
      <g>
       <use style="fill:#262626;stroke:#262626;stroke-width:1.25;" x="87.48" xlink:href="#m5b975623da" y="252"/>
      </g>
     </g>
     <g id="text_1">
      <!-- 20 -->
      <g style="fill:#262626;" transform="translate(81.362969 269.373594)scale(0.11 -0.11)">
       <defs>
        <path d="M 3222 541 
L 3222 0 
L 194 0 
Q 188 203 259 391 
Q 375 700 629 1000 
Q 884 1300 1366 1694 
Q 2113 2306 2375 2664 
Q 2638 3022 2638 3341 
Q 2638 3675 2398 3904 
Q 2159 4134 1775 4134 
Q 1369 4134 1125 3890 
Q 881 3647 878 3216 
L 300 3275 
Q 359 3922 746 4261 
Q 1134 4600 1788 4600 
Q 2447 4600 2831 4234 
Q 3216 3869 3216 3328 
Q 3216 3053 3103 2787 
Q 2991 2522 2730 2228 
Q 2469 1934 1863 1422 
Q 1356 997 1212 845 
Q 1069 694 975 541 
L 3222 541 
z
" id="ArialMT-32" transform="scale(0.015625)"/>
        <path d="M 266 2259 
Q 266 3072 433 3567 
Q 600 4063 929 4331 
Q 1259 4600 1759 4600 
Q 2128 4600 2406 4451 
Q 2684 4303 2865 4023 
Q 3047 3744 3150 3342 
Q 3253 2941 3253 2259 
Q 3253 1453 3087 958 
Q 2922 463 2592 192 
Q 2263 -78 1759 -78 
Q 1097 -78 719 397 
Q 266 969 266 2259 
z
M 844 2259 
Q 844 1131 1108 757 
Q 1372 384 1759 384 
Q 2147 384 2411 759 
Q 2675 1134 2675 2259 
Q 2675 3391 2411 3762 
Q 2147 4134 1753 4134 
Q 1366 4134 1134 3806 
Q 844 3388 844 2259 
z
" id="ArialMT-30" transform="scale(0.015625)"/>
       </defs>
       <use xlink:href="#ArialMT-32"/>
       <use x="55.615234" xlink:href="#ArialMT-30"/>
      </g>
     </g>
    </g>
    <g id="xtick_2">
     <g id="line2d_2">
      <g>
       <use style="fill:#262626;stroke:#262626;stroke-width:1.25;" x="120.96" xlink:href="#m5b975623da" y="252"/>
      </g>
     </g>
     <g id="text_2">
      <!-- 40 -->
      <g style="fill:#262626;" transform="translate(114.842969 269.373594)scale(0.11 -0.11)">
       <defs>
        <path d="M 2069 0 
L 2069 1097 
L 81 1097 
L 81 1613 
L 2172 4581 
L 2631 4581 
L 2631 1613 
L 3250 1613 
L 3250 1097 
L 2631 1097 
L 2631 0 
L 2069 0 
z
M 2069 1613 
L 2069 3678 
L 634 1613 
L 2069 1613 
z
" id="ArialMT-34" transform="scale(0.015625)"/>
       </defs>
       <use xlink:href="#ArialMT-34"/>
       <use x="55.615234" xlink:href="#ArialMT-30"/>
      </g>
     </g>
    </g>
    <g id="xtick_3">
     <g id="line2d_3">
      <g>
       <use style="fill:#262626;stroke:#262626;stroke-width:1.25;" x="154.44" xlink:href="#m5b975623da" y="252"/>
      </g>
     </g>
     <g id="text_3">
      <!-- 60 -->
      <g style="fill:#262626;" transform="translate(148.322969 269.373594)scale(0.11 -0.11)">
       <defs>
        <path d="M 3184 3459 
L 2625 3416 
Q 2550 3747 2413 3897 
Q 2184 4138 1850 4138 
Q 1581 4138 1378 3988 
Q 1113 3794 959 3422 
Q 806 3050 800 2363 
Q 1003 2672 1297 2822 
Q 1591 2972 1913 2972 
Q 2475 2972 2870 2558 
Q 3266 2144 3266 1488 
Q 3266 1056 3080 686 
Q 2894 316 2569 119 
Q 2244 -78 1831 -78 
Q 1128 -78 684 439 
Q 241 956 241 2144 
Q 241 3472 731 4075 
Q 1159 4600 1884 4600 
Q 2425 4600 2770 4297 
Q 3116 3994 3184 3459 
z
M 888 1484 
Q 888 1194 1011 928 
Q 1134 663 1356 523 
Q 1578 384 1822 384 
Q 2178 384 2434 671 
Q 2691 959 2691 1453 
Q 2691 1928 2437 2201 
Q 2184 2475 1800 2475 
Q 1419 2475 1153 2201 
Q 888 1928 888 1484 
z
" id="ArialMT-36" transform="scale(0.015625)"/>
       </defs>
       <use xlink:href="#ArialMT-36"/>
       <use x="55.615234" xlink:href="#ArialMT-30"/>
      </g>
     </g>
    </g>
    <g id="xtick_4">
     <g id="line2d_4">
      <g>
       <use style="fill:#262626;stroke:#262626;stroke-width:1.25;" x="187.92" xlink:href="#m5b975623da" y="252"/>
      </g>
     </g>
     <g id="text_4">
      <!-- 80 -->
      <g style="fill:#262626;" transform="translate(181.802969 269.373594)scale(0.11 -0.11)">
       <defs>
        <path d="M 1131 2484 
Q 781 2613 612 2850 
Q 444 3088 444 3419 
Q 444 3919 803 4259 
Q 1163 4600 1759 4600 
Q 2359 4600 2725 4251 
Q 3091 3903 3091 3403 
Q 3091 3084 2923 2848 
Q 2756 2613 2416 2484 
Q 2838 2347 3058 2040 
Q 3278 1734 3278 1309 
Q 3278 722 2862 322 
Q 2447 -78 1769 -78 
Q 1091 -78 675 323 
Q 259 725 259 1325 
Q 259 1772 486 2073 
Q 713 2375 1131 2484 
z
M 1019 3438 
Q 1019 3113 1228 2906 
Q 1438 2700 1772 2700 
Q 2097 2700 2305 2904 
Q 2513 3109 2513 3406 
Q 2513 3716 2298 3927 
Q 2084 4138 1766 4138 
Q 1444 4138 1231 3931 
Q 1019 3725 1019 3438 
z
M 838 1322 
Q 838 1081 952 856 
Q 1066 631 1291 507 
Q 1516 384 1775 384 
Q 2178 384 2440 643 
Q 2703 903 2703 1303 
Q 2703 1709 2433 1975 
Q 2163 2241 1756 2241 
Q 1359 2241 1098 1978 
Q 838 1716 838 1322 
z
" id="ArialMT-38" transform="scale(0.015625)"/>
       </defs>
       <use xlink:href="#ArialMT-38"/>
       <use x="55.615234" xlink:href="#ArialMT-30"/>
      </g>
     </g>
    </g>
    <g id="xtick_5">
     <g id="line2d_5">
      <g>
       <use style="fill:#262626;stroke:#262626;stroke-width:1.25;" x="221.4" xlink:href="#m5b975623da" y="252"/>
      </g>
     </g>
     <g id="text_5">
      <!-- 100 -->
      <g style="fill:#262626;" transform="translate(212.224453 269.373594)scale(0.11 -0.11)">
       <defs>
        <path d="M 2384 0 
L 1822 0 
L 1822 3584 
Q 1619 3391 1289 3197 
Q 959 3003 697 2906 
L 697 3450 
Q 1169 3672 1522 3987 
Q 1875 4303 2022 4600 
L 2384 4600 
L 2384 0 
z
" id="ArialMT-31" transform="scale(0.015625)"/>
       </defs>
       <use xlink:href="#ArialMT-31"/>
       <use x="55.615234" xlink:href="#ArialMT-30"/>
       <use x="111.230469" xlink:href="#ArialMT-30"/>
      </g>
     </g>
    </g>
    <g id="xtick_6">
     <g id="line2d_6">
      <g>
       <use style="fill:#262626;stroke:#262626;stroke-width:1.25;" x="254.88" xlink:href="#m5b975623da" y="252"/>
      </g>
     </g>
     <g id="text_6">
      <!-- 120 -->
      <g style="fill:#262626;" transform="translate(245.704453 269.373594)scale(0.11 -0.11)">
       <use xlink:href="#ArialMT-31"/>
       <use x="55.615234" xlink:href="#ArialMT-32"/>
       <use x="111.230469" xlink:href="#ArialMT-30"/>
      </g>
     </g>
    </g>
    <g id="xtick_7">
     <g id="line2d_7">
      <g>
       <use style="fill:#262626;stroke:#262626;stroke-width:1.25;" x="288.36" xlink:href="#m5b975623da" y="252"/>
      </g>
     </g>
     <g id="text_7">
      <!-- 140 -->
      <g style="fill:#262626;" transform="translate(279.184453 269.373594)scale(0.11 -0.11)">
       <use xlink:href="#ArialMT-31"/>
       <use x="55.615234" xlink:href="#ArialMT-34"/>
       <use x="111.230469" xlink:href="#ArialMT-30"/>
      </g>
     </g>
    </g>
    <g id="xtick_8">
     <g id="line2d_8">
      <g>
       <use style="fill:#262626;stroke:#262626;stroke-width:1.25;" x="321.84" xlink:href="#m5b975623da" y="252"/>
      </g>
     </g>
     <g id="text_8">
      <!-- 160 -->
      <g style="fill:#262626;" transform="translate(312.664453 269.373594)scale(0.11 -0.11)">
       <use xlink:href="#ArialMT-31"/>
       <use x="55.615234" xlink:href="#ArialMT-36"/>
       <use x="111.230469" xlink:href="#ArialMT-30"/>
      </g>
     </g>
    </g>
    <g id="xtick_9">
     <g id="line2d_9">
      <g>
       <use style="fill:#262626;stroke:#262626;stroke-width:1.25;" x="355.32" xlink:href="#m5b975623da" y="252"/>
      </g>
     </g>
     <g id="text_9">
      <!-- 180 -->
      <g style="fill:#262626;" transform="translate(346.144453 269.373594)scale(0.11 -0.11)">
       <use xlink:href="#ArialMT-31"/>
       <use x="55.615234" xlink:href="#ArialMT-38"/>
       <use x="111.230469" xlink:href="#ArialMT-30"/>
      </g>
     </g>
    </g>
    <g id="xtick_10">
     <g id="line2d_10">
      <g>
       <use style="fill:#262626;stroke:#262626;stroke-width:1.25;" x="388.8" xlink:href="#m5b975623da" y="252"/>
      </g>
     </g>
     <g id="text_10">
      <!-- 200 -->
      <g style="fill:#262626;" transform="translate(379.624453 269.373594)scale(0.11 -0.11)">
       <use xlink:href="#ArialMT-32"/>
       <use x="55.615234" xlink:href="#ArialMT-30"/>
       <use x="111.230469" xlink:href="#ArialMT-30"/>
      </g>
     </g>
    </g>
    <g id="text_11">
     <!-- Step -->
     <g style="fill:#262626;" transform="translate(209.057813 284.295469)scale(0.12 -0.12)">
      <defs>
       <path d="M 288 1472 
L 859 1522 
Q 900 1178 1048 958 
Q 1197 738 1509 602 
Q 1822 466 2213 466 
Q 2559 466 2825 569 
Q 3091 672 3220 851 
Q 3350 1031 3350 1244 
Q 3350 1459 3225 1620 
Q 3100 1781 2813 1891 
Q 2628 1963 1997 2114 
Q 1366 2266 1113 2400 
Q 784 2572 623 2826 
Q 463 3081 463 3397 
Q 463 3744 659 4045 
Q 856 4347 1234 4503 
Q 1613 4659 2075 4659 
Q 2584 4659 2973 4495 
Q 3363 4331 3572 4012 
Q 3781 3694 3797 3291 
L 3216 3247 
Q 3169 3681 2898 3903 
Q 2628 4125 2100 4125 
Q 1550 4125 1298 3923 
Q 1047 3722 1047 3438 
Q 1047 3191 1225 3031 
Q 1400 2872 2139 2705 
Q 2878 2538 3153 2413 
Q 3553 2228 3743 1945 
Q 3934 1663 3934 1294 
Q 3934 928 3725 604 
Q 3516 281 3123 101 
Q 2731 -78 2241 -78 
Q 1619 -78 1198 103 
Q 778 284 539 648 
Q 300 1013 288 1472 
z
" id="ArialMT-53" transform="scale(0.015625)"/>
       <path d="M 1650 503 
L 1731 6 
Q 1494 -44 1306 -44 
Q 1000 -44 831 53 
Q 663 150 594 308 
Q 525 466 525 972 
L 525 2881 
L 113 2881 
L 113 3319 
L 525 3319 
L 525 4141 
L 1084 4478 
L 1084 3319 
L 1650 3319 
L 1650 2881 
L 1084 2881 
L 1084 941 
Q 1084 700 1114 631 
Q 1144 563 1211 522 
Q 1278 481 1403 481 
Q 1497 481 1650 503 
z
" id="ArialMT-74" transform="scale(0.015625)"/>
       <path d="M 2694 1069 
L 3275 997 
Q 3138 488 2766 206 
Q 2394 -75 1816 -75 
Q 1088 -75 661 373 
Q 234 822 234 1631 
Q 234 2469 665 2931 
Q 1097 3394 1784 3394 
Q 2450 3394 2872 2941 
Q 3294 2488 3294 1666 
Q 3294 1616 3291 1516 
L 816 1516 
Q 847 969 1125 678 
Q 1403 388 1819 388 
Q 2128 388 2347 550 
Q 2566 713 2694 1069 
z
M 847 1978 
L 2700 1978 
Q 2663 2397 2488 2606 
Q 2219 2931 1791 2931 
Q 1403 2931 1139 2672 
Q 875 2413 847 1978 
z
" id="ArialMT-65" transform="scale(0.015625)"/>
       <path d="M 422 -1272 
L 422 3319 
L 934 3319 
L 934 2888 
Q 1116 3141 1344 3267 
Q 1572 3394 1897 3394 
Q 2322 3394 2647 3175 
Q 2972 2956 3137 2557 
Q 3303 2159 3303 1684 
Q 3303 1175 3120 767 
Q 2938 359 2589 142 
Q 2241 -75 1856 -75 
Q 1575 -75 1351 44 
Q 1128 163 984 344 
L 984 -1272 
L 422 -1272 
z
M 931 1641 
Q 931 1000 1190 694 
Q 1450 388 1819 388 
Q 2194 388 2461 705 
Q 2728 1022 2728 1688 
Q 2728 2322 2467 2637 
Q 2206 2953 1844 2953 
Q 1484 2953 1207 2617 
Q 931 2281 931 1641 
z
" id="ArialMT-70" transform="scale(0.015625)"/>
      </defs>
      <use xlink:href="#ArialMT-53"/>
      <use x="66.699219" xlink:href="#ArialMT-74"/>
      <use x="94.482422" xlink:href="#ArialMT-65"/>
      <use x="150.097656" xlink:href="#ArialMT-70"/>
     </g>
    </g>
   </g>
   <g id="matplotlib.axis_2">
    <g id="ytick_1">
     <g id="line2d_11">
      <defs>
       <path d="M 0 0 
L -6 0 
" id="ma412855935" style="stroke:#262626;stroke-width:1.25;"/>
      </defs>
      <g>
       <use style="fill:#262626;stroke:#262626;stroke-width:1.25;" x="54" xlink:href="#ma412855935" y="117.560059"/>
      </g>
     </g>
     <g id="text_12">
      <!-- $\mathdefault{10^{0}}$ -->
      <g style="fill:#262626;" transform="translate(27.23 123.231934)scale(0.11 -0.11)">
       <use transform="translate(0 0.99375)" xlink:href="#ArialMT-31"/>
       <use transform="translate(55.615234 0.99375)" xlink:href="#ArialMT-30"/>
       <use transform="translate(112.972813 70.6875)scale(0.7)" xlink:href="#ArialMT-30"/>
      </g>
     </g>
    </g>
    <g id="ytick_2">
     <g id="line2d_12">
      <defs>
       <path d="M 0 0 
L -4 0 
" id="me0d9422574" style="stroke:#262626;"/>
      </defs>
      <g>
       <use style="fill:#262626;stroke:#262626;" x="54" xlink:href="#me0d9422574" y="220.187988"/>
      </g>
     </g>
    </g>
    <g id="ytick_3">
     <g id="line2d_13">
      <g>
       <use style="fill:#262626;stroke:#262626;" x="54" xlink:href="#me0d9422574" y="195.665661"/>
      </g>
     </g>
    </g>
    <g id="ytick_4">
     <g id="line2d_14">
      <g>
       <use style="fill:#262626;stroke:#262626;" x="54" xlink:href="#me0d9422574" y="176.644666"/>
      </g>
     </g>
    </g>
    <g id="ytick_5">
     <g id="line2d_15">
      <g>
       <use style="fill:#262626;stroke:#262626;" x="54" xlink:href="#me0d9422574" y="161.103381"/>
      </g>
     </g>
    </g>
    <g id="ytick_6">
     <g id="line2d_16">
      <g>
       <use style="fill:#262626;stroke:#262626;" x="54" xlink:href="#me0d9422574" y="147.963413"/>
      </g>
     </g>
    </g>
    <g id="ytick_7">
     <g id="line2d_17">
      <g>
       <use style="fill:#262626;stroke:#262626;" x="54" xlink:href="#me0d9422574" y="136.581054"/>
      </g>
     </g>
    </g>
    <g id="ytick_8">
     <g id="line2d_18">
      <g>
       <use style="fill:#262626;stroke:#262626;" x="54" xlink:href="#me0d9422574" y="126.541102"/>
      </g>
     </g>
    </g>
    <g id="ytick_9">
     <g id="line2d_19">
      <g>
       <use style="fill:#262626;stroke:#262626;" x="54" xlink:href="#me0d9422574" y="58.475453"/>
      </g>
     </g>
    </g>
    <g id="text_13">
     <!-- Loss -->
     <g style="fill:#262626;" transform="translate(20.845 155.953125)rotate(-90)scale(0.12 -0.12)">
      <defs>
       <path d="M 469 0 
L 469 4581 
L 1075 4581 
L 1075 541 
L 3331 541 
L 3331 0 
L 469 0 
z
" id="ArialMT-4c" transform="scale(0.015625)"/>
       <path d="M 213 1659 
Q 213 2581 725 3025 
Q 1153 3394 1769 3394 
Q 2453 3394 2887 2945 
Q 3322 2497 3322 1706 
Q 3322 1066 3130 698 
Q 2938 331 2570 128 
Q 2203 -75 1769 -75 
Q 1072 -75 642 372 
Q 213 819 213 1659 
z
M 791 1659 
Q 791 1022 1069 705 
Q 1347 388 1769 388 
Q 2188 388 2466 706 
Q 2744 1025 2744 1678 
Q 2744 2294 2464 2611 
Q 2184 2928 1769 2928 
Q 1347 2928 1069 2612 
Q 791 2297 791 1659 
z
" id="ArialMT-6f" transform="scale(0.015625)"/>
       <path d="M 197 991 
L 753 1078 
Q 800 744 1014 566 
Q 1228 388 1613 388 
Q 2000 388 2187 545 
Q 2375 703 2375 916 
Q 2375 1106 2209 1216 
Q 2094 1291 1634 1406 
Q 1016 1563 777 1677 
Q 538 1791 414 1992 
Q 291 2194 291 2438 
Q 291 2659 392 2848 
Q 494 3038 669 3163 
Q 800 3259 1026 3326 
Q 1253 3394 1513 3394 
Q 1903 3394 2198 3281 
Q 2494 3169 2634 2976 
Q 2775 2784 2828 2463 
L 2278 2388 
Q 2241 2644 2061 2787 
Q 1881 2931 1553 2931 
Q 1166 2931 1000 2803 
Q 834 2675 834 2503 
Q 834 2394 903 2306 
Q 972 2216 1119 2156 
Q 1203 2125 1616 2013 
Q 2213 1853 2448 1751 
Q 2684 1650 2818 1456 
Q 2953 1263 2953 975 
Q 2953 694 2789 445 
Q 2625 197 2315 61 
Q 2006 -75 1616 -75 
Q 969 -75 630 194 
Q 291 463 197 991 
z
" id="ArialMT-73" transform="scale(0.015625)"/>
      </defs>
      <use xlink:href="#ArialMT-4c"/>
      <use x="55.615234" xlink:href="#ArialMT-6f"/>
      <use x="111.230469" xlink:href="#ArialMT-73"/>
      <use x="161.230469" xlink:href="#ArialMT-73"/>
     </g>
    </g>
   </g>
   <g id="PolyCollection_1">
    <defs>
     <path d="M 54 -243.2473 
L 54 -242.989959 
L 55.674 -239.021975 
L 57.348 -232.460691 
L 59.022 -217.466095 
L 60.696 -196.10906 
L 62.37 -176.556431 
L 64.044 -161.219712 
L 65.718 -153.212348 
L 67.392 -145.557506 
L 69.066 -139.218527 
L 70.74 -130.394672 
L 72.414 -129.193435 
L 74.088 -121.970807 
L 75.762 -120.112911 
L 77.436 -116.62094 
L 79.11 -115.063829 
L 80.784 -110.326397 
L 82.458 -109.20745 
L 84.132 -104.730618 
L 85.806 -103.610485 
L 87.48 -101.321915 
L 89.154 -102.521497 
L 90.828 -94.694171 
L 92.502 -95.010438 
L 94.176 -94.440326 
L 95.85 -92.243715 
L 97.524 -90.659232 
L 99.198 -89.284245 
L 100.872 -89.016404 
L 102.546 -88.638378 
L 104.22 -83.871937 
L 105.894 -86.631301 
L 107.568 -88.259457 
L 109.242 -81.505834 
L 110.916 -80.646981 
L 112.59 -82.180658 
L 114.264 -80.057291 
L 115.938 -83.641863 
L 117.612 -78.539919 
L 119.286 -78.448923 
L 120.96 -78.603372 
L 122.634 -78.088867 
L 124.308 -78.344634 
L 125.982 -78.407115 
L 127.656 -73.15064 
L 129.33 -73.687902 
L 131.004 -78.144273 
L 132.678 -72.826898 
L 134.352 -71.254041 
L 136.026 -72.905795 
L 137.7 -73.444177 
L 139.374 -70.357666 
L 141.048 -67.452129 
L 142.722 -69.484292 
L 144.396 -71.047642 
L 146.07 -72.452795 
L 147.744 -70.461634 
L 149.418 -71.107529 
L 151.092 -70.682337 
L 152.766 -67.691817 
L 154.44 -67.462577 
L 156.114 -69.332705 
L 157.788 -70.104957 
L 159.462 -67.373201 
L 161.136 -67.614149 
L 162.81 -65.144648 
L 164.484 -65.158679 
L 166.158 -67.057914 
L 167.832 -67.838714 
L 169.506 -69.089145 
L 171.18 -65.775503 
L 172.854 -63.774321 
L 174.528 -64.806702 
L 176.202 -64.528715 
L 177.876 -66.276691 
L 179.55 -64.810554 
L 181.224 -64.203406 
L 182.898 -65.937784 
L 184.572 -63.971462 
L 186.246 -64.890247 
L 187.92 -62.598997 
L 189.594 -66.903323 
L 191.268 -61.628675 
L 192.942 -65.654821 
L 194.616 -59.466232 
L 196.29 -64.458002 
L 197.964 -62.564694 
L 199.638 -59.935643 
L 201.312 -59.729738 
L 202.986 -58.124545 
L 204.66 -61.105653 
L 206.334 -59.291311 
L 208.008 -60.565289 
L 209.682 -56.886112 
L 211.356 -61.53696 
L 213.03 -62.310363 
L 214.704 -57.024746 
L 216.378 -56.815491 
L 218.052 -55.588678 
L 219.726 -58.378171 
L 221.4 -63.753112 
L 223.074 -57.011385 
L 224.748 -56.048226 
L 226.422 -57.898626 
L 228.096 -60.89462 
L 229.77 -60.75994 
L 231.444 -56.848089 
L 233.118 -54.938631 
L 234.792 -61.534079 
L 236.466 -55.335734 
L 238.14 -58.161531 
L 239.814 -57.374282 
L 241.488 -55.750995 
L 243.162 -59.052164 
L 244.836 -54.748968 
L 246.51 -54.420367 
L 248.184 -57.560213 
L 249.858 -59.606128 
L 251.532 -57.045732 
L 253.206 -60.565386 
L 254.88 -54.779895 
L 256.554 -57.378396 
L 258.228 -54.917041 
L 259.902 -56.206049 
L 261.576 -56.153253 
L 263.25 -57.315003 
L 264.924 -55.534801 
L 266.598 -54.820026 
L 268.272 -57.354879 
L 269.946 -58.700687 
L 271.62 -58.14541 
L 273.294 -58.95027 
L 274.968 -58.292502 
L 276.642 -57.887978 
L 278.316 -58.381829 
L 279.99 -54.944226 
L 281.664 -56.241699 
L 283.338 -54.360008 
L 285.012 -51.380737 
L 286.686 -53.100766 
L 288.36 -57.170273 
L 290.034 -58.345384 
L 291.708 -51.026834 
L 293.382 -52.742899 
L 295.056 -52.691148 
L 296.73 -53.436237 
L 298.404 -53.396613 
L 300.078 -53.219806 
L 301.752 -50.99666 
L 303.426 -56.654745 
L 305.1 -53.357426 
L 306.774 -56.920778 
L 308.448 -53.024436 
L 310.122 -50.909285 
L 311.796 -54.711778 
L 313.47 -54.952654 
L 315.144 -54.349077 
L 316.818 -55.047046 
L 318.492 -46.794198 
L 320.166 -47.008019 
L 321.84 -55.822018 
L 323.514 -54.509872 
L 325.188 -56.28783 
L 326.862 -56.99047 
L 328.536 -52.537972 
L 330.21 -54.959041 
L 331.884 -54.704207 
L 333.558 -54.744503 
L 335.232 -54.897326 
L 336.906 -50.638134 
L 338.58 -53.54643 
L 340.254 -51.722518 
L 341.928 -51.988746 
L 343.602 -50.606356 
L 345.276 -55.03186 
L 346.95 -51.522716 
L 348.624 -50.833062 
L 350.298 -50.743313 
L 351.972 -51.399947 
L 353.646 -50.090638 
L 355.32 -51.771079 
L 356.994 -50.123679 
L 358.668 -53.015025 
L 360.342 -45.883636 
L 362.016 -51.57716 
L 363.69 -50.179854 
L 365.364 -50.047924 
L 367.038 -53.706295 
L 368.712 -59.048411 
L 370.386 -51.24695 
L 372.06 -52.001716 
L 373.734 -56.550517 
L 375.408 -50.556719 
L 377.082 -49.391461 
L 378.756 -52.425858 
L 380.43 -52.655299 
L 382.104 -50.382962 
L 383.778 -55.086205 
L 385.452 -53.594515 
L 387.126 -51.261348 
L 387.126 -56.365369 
L 387.126 -56.365369 
L 385.452 -58.508589 
L 383.778 -59.895952 
L 382.104 -55.978988 
L 380.43 -57.262939 
L 378.756 -57.342829 
L 377.082 -54.558875 
L 375.408 -56.024712 
L 373.734 -61.949573 
L 372.06 -57.534544 
L 370.386 -56.11809 
L 368.712 -64.355156 
L 367.038 -58.803701 
L 365.364 -55.664049 
L 363.69 -54.925207 
L 362.016 -56.572428 
L 360.342 -50.997175 
L 358.668 -57.901085 
L 356.994 -55.019588 
L 355.32 -56.502645 
L 353.646 -55.219868 
L 351.972 -56.432252 
L 350.298 -56.493071 
L 348.624 -56.574898 
L 346.95 -56.335347 
L 345.276 -60.095461 
L 343.602 -55.966274 
L 341.928 -57.04233 
L 340.254 -56.842374 
L 338.58 -58.390518 
L 336.906 -56.514945 
L 335.232 -59.958655 
L 333.558 -59.693623 
L 331.884 -59.614846 
L 330.21 -60.533861 
L 328.536 -58.397779 
L 326.862 -63.287599 
L 325.188 -60.650505 
L 323.514 -58.467142 
L 321.84 -60.724256 
L 320.166 -52.200755 
L 318.492 -51.076989 
L 316.818 -59.544965 
L 315.144 -59.19637 
L 313.47 -59.797443 
L 311.796 -59.069668 
L 310.122 -55.929946 
L 308.448 -57.409299 
L 306.774 -61.967009 
L 305.1 -58.945029 
L 303.426 -61.846517 
L 301.752 -56.135527 
L 300.078 -58.160272 
L 298.404 -58.563353 
L 296.73 -58.648473 
L 295.056 -57.122106 
L 293.382 -57.52558 
L 291.708 -55.902744 
L 290.034 -63.612587 
L 288.36 -62.04816 
L 286.686 -57.46686 
L 285.012 -57.147175 
L 283.338 -59.137402 
L 281.664 -60.978499 
L 279.99 -59.890416 
L 278.316 -62.693536 
L 276.642 -62.883326 
L 274.968 -63.705496 
L 273.294 -63.632231 
L 271.62 -63.169978 
L 269.946 -63.384643 
L 268.272 -62.532607 
L 266.598 -59.790927 
L 264.924 -60.451109 
L 263.25 -62.70066 
L 261.576 -61.081756 
L 259.902 -60.469946 
L 258.228 -59.515237 
L 256.554 -62.653931 
L 254.88 -59.331388 
L 253.206 -65.897972 
L 251.532 -61.940872 
L 249.858 -64.014094 
L 248.184 -61.72689 
L 246.51 -59.035252 
L 244.836 -59.508952 
L 243.162 -63.687927 
L 241.488 -60.818884 
L 239.814 -62.219938 
L 238.14 -63.13029 
L 236.466 -59.938282 
L 234.792 -65.765496 
L 233.118 -60.10978 
L 231.444 -61.678507 
L 229.77 -65.272233 
L 228.096 -65.85422 
L 226.422 -63.033021 
L 224.748 -60.163731 
L 223.074 -61.572091 
L 221.4 -68.207933 
L 219.726 -62.754167 
L 218.052 -60.300876 
L 216.378 -61.44244 
L 214.704 -61.620978 
L 213.03 -67.26555 
L 211.356 -66.149925 
L 209.682 -61.922745 
L 208.008 -64.83232 
L 206.334 -64.088937 
L 204.66 -66.129647 
L 202.986 -62.013839 
L 201.312 -64.540032 
L 199.638 -64.408934 
L 197.964 -67.540608 
L 196.29 -69.125764 
L 194.616 -64.035577 
L 192.942 -69.693245 
L 191.268 -65.98964 
L 189.594 -71.280175 
L 187.92 -67.198145 
L 186.246 -69.984251 
L 184.572 -68.318262 
L 182.898 -70.321662 
L 181.224 -68.700014 
L 179.55 -69.673329 
L 177.876 -71.226587 
L 176.202 -68.72096 
L 174.528 -69.233845 
L 172.854 -68.353683 
L 171.18 -69.736839 
L 169.506 -73.610769 
L 167.832 -72.226839 
L 166.158 -71.987736 
L 164.484 -69.154734 
L 162.81 -69.143876 
L 161.136 -71.865139 
L 159.462 -71.548151 
L 157.788 -74.435983 
L 156.114 -73.31545 
L 154.44 -71.636316 
L 152.766 -72.324877 
L 151.092 -75.136375 
L 149.418 -74.823939 
L 147.744 -74.291969 
L 146.07 -76.610992 
L 144.396 -75.156672 
L 142.722 -73.760054 
L 141.048 -71.360157 
L 139.374 -74.588918 
L 137.7 -77.449471 
L 136.026 -76.920439 
L 134.352 -75.821428 
L 132.678 -76.123893 
L 131.004 -82.22114 
L 129.33 -77.375478 
L 127.656 -76.881232 
L 125.982 -82.010821 
L 124.308 -81.999786 
L 122.634 -82.139842 
L 120.96 -82.631574 
L 119.286 -82.697289 
L 117.612 -81.861152 
L 115.938 -87.412743 
L 114.264 -84.097294 
L 112.59 -85.798806 
L 110.916 -84.348249 
L 109.242 -85.469721 
L 107.568 -91.670912 
L 105.894 -90.14056 
L 104.22 -87.304274 
L 102.546 -91.959862 
L 100.872 -92.427082 
L 99.198 -92.613462 
L 97.524 -93.872435 
L 95.85 -95.408722 
L 94.176 -97.657827 
L 92.502 -97.971231 
L 90.828 -97.944188 
L 89.154 -105.508501 
L 87.48 -104.597378 
L 85.806 -106.403964 
L 84.132 -107.803316 
L 82.458 -111.996122 
L 80.784 -113.140522 
L 79.11 -118.261979 
L 77.436 -119.224072 
L 75.762 -122.804841 
L 74.088 -124.69666 
L 72.414 -131.968913 
L 70.74 -133.561214 
L 69.066 -141.72988 
L 67.392 -147.977419 
L 65.718 -155.484913 
L 64.044 -163.456208 
L 62.37 -178.654868 
L 60.696 -198.118885 
L 59.022 -218.669588 
L 57.348 -233.164259 
L 55.674 -239.556729 
L 54 -243.2473 
z
" id="mcd490690f3" style="stroke:#ffffff;stroke-opacity:0.2;"/>
    </defs>
    <g clip-path="url(#p1ca7b6537e)">
     <use style="fill:#ff8101;fill-opacity:0.2;stroke:#ffffff;stroke-opacity:0.2;" x="0" xlink:href="#mcd490690f3" y="288"/>
    </g>
   </g>
   <g id="PolyCollection_2">
    <defs>
     <path d="M 54 -243.556364 
L 54 -243.317994 
L 55.674 -240.425673 
L 57.348 -232.007624 
L 59.022 -215.287989 
L 60.696 -195.977673 
L 62.37 -180.968401 
L 64.044 -169.436481 
L 65.718 -157.813609 
L 67.392 -150.458851 
L 69.066 -142.049816 
L 70.74 -137.084947 
L 72.414 -131.848695 
L 74.088 -130.488779 
L 75.762 -126.515527 
L 77.436 -120.813738 
L 79.11 -115.55653 
L 80.784 -113.659391 
L 82.458 -111.470864 
L 84.132 -107.495861 
L 85.806 -103.464672 
L 87.48 -105.025487 
L 89.154 -104.147139 
L 90.828 -103.929802 
L 92.502 -103.766861 
L 94.176 -102.626338 
L 95.85 -99.646161 
L 97.524 -99.108531 
L 99.198 -97.404177 
L 100.872 -96.187458 
L 102.546 -90.850905 
L 104.22 -90.762342 
L 105.894 -92.033186 
L 107.568 -93.24613 
L 109.242 -89.825749 
L 110.916 -89.340719 
L 112.59 -91.026315 
L 114.264 -88.118606 
L 115.938 -89.809251 
L 117.612 -87.929853 
L 119.286 -83.08339 
L 120.96 -84.174922 
L 122.634 -85.042765 
L 124.308 -86.469066 
L 125.982 -88.064466 
L 127.656 -82.297741 
L 129.33 -86.105188 
L 131.004 -81.585676 
L 132.678 -81.94417 
L 134.352 -81.500172 
L 136.026 -82.64003 
L 137.7 -82.211721 
L 139.374 -84.344872 
L 141.048 -81.623022 
L 142.722 -82.297165 
L 144.396 -81.337485 
L 146.07 -78.229788 
L 147.744 -75.301792 
L 149.418 -77.79677 
L 151.092 -77.888929 
L 152.766 -75.39371 
L 154.44 -77.953838 
L 156.114 -75.793556 
L 157.788 -76.962155 
L 159.462 -77.272443 
L 161.136 -77.574981 
L 162.81 -70.55564 
L 164.484 -80.343469 
L 166.158 -80.243351 
L 167.832 -78.222334 
L 169.506 -74.149428 
L 171.18 -76.227175 
L 172.854 -75.830447 
L 174.528 -74.523618 
L 176.202 -71.251561 
L 177.876 -72.186027 
L 179.55 -74.023669 
L 181.224 -74.02986 
L 182.898 -71.088448 
L 184.572 -73.349292 
L 186.246 -76.149042 
L 187.92 -76.734887 
L 189.594 -72.358732 
L 191.268 -74.447929 
L 192.942 -74.499617 
L 194.616 -74.517147 
L 196.29 -71.536709 
L 197.964 -70.828957 
L 199.638 -74.605448 
L 201.312 -70.293122 
L 202.986 -74.193958 
L 204.66 -73.19677 
L 206.334 -72.718608 
L 208.008 -71.094262 
L 209.682 -74.911606 
L 211.356 -67.895449 
L 213.03 -69.393892 
L 214.704 -69.293737 
L 216.378 -70.011994 
L 218.052 -68.336395 
L 219.726 -70.381005 
L 221.4 -66.643925 
L 223.074 -71.503969 
L 224.748 -66.315658 
L 226.422 -66.035366 
L 228.096 -68.165348 
L 229.77 -72.747578 
L 231.444 -70.931232 
L 233.118 -67.521172 
L 234.792 -70.557651 
L 236.466 -73.095448 
L 238.14 -63.986663 
L 239.814 -70.95743 
L 241.488 -69.606609 
L 243.162 -69.874847 
L 244.836 -63.438133 
L 246.51 -72.314883 
L 248.184 -70.408308 
L 249.858 -69.980926 
L 251.532 -68.08444 
L 253.206 -67.814901 
L 254.88 -67.522321 
L 256.554 -69.172619 
L 258.228 -67.119361 
L 259.902 -69.455639 
L 261.576 -65.692374 
L 263.25 -66.743292 
L 264.924 -65.344997 
L 266.598 -67.093129 
L 268.272 -67.108214 
L 269.946 -67.662482 
L 271.62 -68.017387 
L 273.294 -63.611029 
L 274.968 -66.257296 
L 276.642 -66.927943 
L 278.316 -66.703959 
L 279.99 -72.609066 
L 281.664 -69.532299 
L 283.338 -69.438524 
L 285.012 -67.91924 
L 286.686 -66.426263 
L 288.36 -67.355689 
L 290.034 -65.834573 
L 291.708 -66.757136 
L 293.382 -67.133536 
L 295.056 -66.588339 
L 296.73 -68.496665 
L 298.404 -69.505185 
L 300.078 -65.558175 
L 301.752 -70.790524 
L 303.426 -68.66413 
L 305.1 -62.76591 
L 306.774 -73.598828 
L 308.448 -71.427692 
L 310.122 -67.283693 
L 311.796 -68.828343 
L 313.47 -63.221343 
L 315.144 -65.544481 
L 316.818 -69.135426 
L 318.492 -69.1334 
L 320.166 -65.399971 
L 321.84 -71.290372 
L 323.514 -62.322448 
L 325.188 -70.184989 
L 326.862 -62.860212 
L 328.536 -71.312337 
L 330.21 -67.492779 
L 331.884 -66.448582 
L 333.558 -65.688479 
L 335.232 -69.066771 
L 336.906 -67.467622 
L 338.58 -64.351968 
L 340.254 -69.082313 
L 341.928 -68.326275 
L 343.602 -65.574773 
L 345.276 -67.192585 
L 346.95 -68.62862 
L 348.624 -71.587195 
L 350.298 -60.928386 
L 351.972 -65.445094 
L 353.646 -65.138733 
L 355.32 -67.403038 
L 356.994 -67.18454 
L 358.668 -66.030833 
L 360.342 -71.726768 
L 362.016 -71.062143 
L 363.69 -63.537209 
L 365.364 -67.480565 
L 367.038 -67.046909 
L 368.712 -67.496709 
L 370.386 -66.726865 
L 372.06 -64.699814 
L 373.734 -63.105299 
L 375.408 -69.429762 
L 377.082 -70.969581 
L 378.756 -67.740489 
L 380.43 -65.651916 
L 382.104 -66.860575 
L 383.778 -71.810629 
L 385.452 -66.764126 
L 387.126 -67.065151 
L 387.126 -72.295295 
L 387.126 -72.295295 
L 385.452 -73.711217 
L 383.778 -77.448184 
L 382.104 -72.505462 
L 380.43 -71.763142 
L 378.756 -73.5731 
L 377.082 -77.146074 
L 375.408 -75.246892 
L 373.734 -69.285744 
L 372.06 -70.324392 
L 370.386 -72.568137 
L 368.712 -73.394037 
L 367.038 -73.702663 
L 365.364 -73.396744 
L 363.69 -69.803268 
L 362.016 -77.626976 
L 360.342 -77.539269 
L 358.668 -71.728803 
L 356.994 -73.298095 
L 355.32 -72.774911 
L 353.646 -70.853244 
L 351.972 -71.000044 
L 350.298 -66.30902 
L 348.624 -77.502318 
L 346.95 -74.933399 
L 345.276 -72.434979 
L 343.602 -70.91183 
L 341.928 -73.719081 
L 340.254 -74.62454 
L 338.58 -69.971837 
L 336.906 -73.218417 
L 335.232 -74.812455 
L 333.558 -72.061377 
L 331.884 -71.945248 
L 330.21 -73.810514 
L 328.536 -76.236654 
L 326.862 -68.597619 
L 325.188 -75.92152 
L 323.514 -68.317697 
L 321.84 -76.67481 
L 320.166 -71.34393 
L 318.492 -75.134171 
L 316.818 -74.946902 
L 315.144 -71.310447 
L 313.47 -69.027126 
L 311.796 -74.293865 
L 310.122 -73.022041 
L 308.448 -77.328035 
L 306.774 -79.092885 
L 305.1 -68.8024 
L 303.426 -74.405461 
L 301.752 -76.160477 
L 300.078 -71.055033 
L 298.404 -74.845113 
L 296.73 -74.171118 
L 295.056 -71.658933 
L 293.382 -73.348495 
L 291.708 -72.427432 
L 290.034 -71.853277 
L 288.36 -72.441074 
L 286.686 -71.749252 
L 285.012 -72.828114 
L 283.338 -75.13673 
L 281.664 -74.298372 
L 279.99 -78.248115 
L 278.316 -72.097108 
L 276.642 -71.890218 
L 274.968 -71.697579 
L 273.294 -68.302848 
L 271.62 -73.470686 
L 269.946 -72.836292 
L 268.272 -72.207059 
L 266.598 -72.967935 
L 264.924 -71.317165 
L 263.25 -72.536502 
L 261.576 -70.715174 
L 259.902 -74.762639 
L 258.228 -72.739386 
L 256.554 -74.962023 
L 254.88 -72.627937 
L 253.206 -73.370648 
L 251.532 -73.319038 
L 249.858 -75.367212 
L 248.184 -75.730155 
L 246.51 -77.108139 
L 244.836 -69.306656 
L 243.162 -74.918564 
L 241.488 -74.877293 
L 239.814 -75.802222 
L 238.14 -68.985645 
L 236.466 -78.067642 
L 234.792 -75.899578 
L 233.118 -73.02872 
L 231.444 -76.284972 
L 229.77 -78.391098 
L 228.096 -73.063508 
L 226.422 -71.463218 
L 224.748 -71.60565 
L 223.074 -75.694725 
L 221.4 -71.99741 
L 219.726 -75.520679 
L 218.052 -73.527039 
L 216.378 -74.462626 
L 214.704 -74.469639 
L 213.03 -74.782487 
L 211.356 -72.397199 
L 209.682 -80.322314 
L 208.008 -75.838509 
L 206.334 -77.908615 
L 204.66 -78.591651 
L 202.986 -80.052759 
L 201.312 -75.329186 
L 199.638 -79.927178 
L 197.964 -75.586279 
L 196.29 -75.971992 
L 194.616 -78.676791 
L 192.942 -79.524605 
L 191.268 -79.176575 
L 189.594 -77.814836 
L 187.92 -81.567252 
L 186.246 -80.653647 
L 184.572 -78.620745 
L 182.898 -75.780731 
L 181.224 -78.93751 
L 179.55 -79.158811 
L 177.876 -76.624183 
L 176.202 -75.553026 
L 174.528 -79.187677 
L 172.854 -80.347897 
L 171.18 -80.742891 
L 169.506 -79.15706 
L 167.832 -82.578224 
L 166.158 -85.351092 
L 164.484 -84.916904 
L 162.81 -75.145702 
L 161.136 -82.172138 
L 159.462 -81.959327 
L 157.788 -81.590153 
L 156.114 -80.968652 
L 154.44 -82.500358 
L 152.766 -80.070175 
L 151.092 -81.739199 
L 149.418 -82.574074 
L 147.744 -79.732637 
L 146.07 -82.312061 
L 144.396 -86.264948 
L 142.722 -86.948809 
L 141.048 -86.028473 
L 139.374 -89.146793 
L 137.7 -86.810151 
L 136.026 -87.347323 
L 134.352 -86.171083 
L 132.678 -86.459832 
L 131.004 -86.396605 
L 129.33 -90.605311 
L 127.656 -87.058966 
L 125.982 -92.432144 
L 124.308 -90.687885 
L 122.634 -89.693089 
L 120.96 -88.739875 
L 119.286 -87.488499 
L 117.612 -91.677545 
L 115.938 -93.727928 
L 114.264 -92.666471 
L 112.59 -95.274328 
L 110.916 -93.468289 
L 109.242 -93.916142 
L 107.568 -97.084058 
L 105.894 -95.855564 
L 104.22 -94.540657 
L 102.546 -95.32283 
L 100.872 -100.069318 
L 99.198 -101.00996 
L 97.524 -103.580403 
L 95.85 -103.192302 
L 94.176 -105.959675 
L 92.502 -107.605563 
L 90.828 -107.751334 
L 89.154 -108.565649 
L 87.48 -108.75322 
L 85.806 -107.223392 
L 84.132 -111.0853 
L 82.458 -114.873147 
L 80.784 -117.268945 
L 79.11 -118.973115 
L 77.436 -124.20801 
L 75.762 -129.678437 
L 74.088 -133.564805 
L 72.414 -135.077633 
L 70.74 -140.826059 
L 69.066 -144.796613 
L 67.392 -153.124956 
L 65.718 -160.416302 
L 64.044 -172.080918 
L 62.37 -183.6502 
L 60.696 -198.326962 
L 59.022 -216.871212 
L 57.348 -232.804249 
L 55.674 -240.957434 
L 54 -243.556364 
z
" id="m1fe4368ec0" style="stroke:#ffffff;stroke-opacity:0.2;"/>
    </defs>
    <g clip-path="url(#p1ca7b6537e)">
     <use style="fill:#ff598f;fill-opacity:0.2;stroke:#ffffff;stroke-opacity:0.2;" x="0" xlink:href="#m1fe4368ec0" y="288"/>
    </g>
   </g>
   <g id="line2d_20">
    <path clip-path="url(#p1ca7b6537e)" d="M 54 44.881182 
L 55.674 48.708669 
L 57.348 55.193848 
L 59.022 69.927129 
L 60.696 90.887501 
L 62.37 110.395066 
L 64.044 125.630568 
L 67.392 141.251753 
L 69.066 147.515811 
L 70.74 156.020021 
L 72.414 157.39688 
L 74.088 164.649636 
L 75.762 166.534896 
L 77.436 170.034042 
L 79.11 171.341835 
L 80.784 176.245653 
L 82.458 177.379926 
L 84.132 181.712782 
L 85.806 182.96644 
L 87.48 185.072563 
L 89.154 183.991414 
L 90.828 191.649514 
L 92.502 191.522518 
L 94.176 191.91577 
L 95.85 194.168549 
L 97.524 195.723439 
L 99.198 197.055538 
L 100.872 197.251248 
L 102.546 197.687408 
L 104.22 202.387327 
L 105.894 199.564943 
L 107.568 198.082963 
L 109.242 204.512017 
L 110.916 205.493177 
L 112.59 203.967916 
L 114.264 205.913578 
L 115.938 202.41007 
L 117.612 207.815555 
L 119.286 207.368171 
L 120.96 207.332229 
L 122.634 207.831788 
L 125.982 207.791702 
L 127.656 212.980286 
L 129.33 212.426341 
L 131.004 207.795127 
L 132.678 213.53948 
L 134.352 214.399531 
L 136.026 213.056109 
L 137.7 212.51784 
L 141.048 218.590064 
L 142.722 216.420686 
L 146.07 213.422013 
L 147.744 215.595009 
L 149.418 215.032047 
L 151.092 215.071226 
L 152.766 217.929276 
L 154.44 218.450795 
L 156.114 216.636925 
L 157.788 215.67592 
L 159.462 218.477554 
L 161.136 218.175947 
L 162.81 220.771016 
L 164.484 220.839409 
L 166.158 218.407164 
L 167.832 217.969687 
L 169.506 216.699674 
L 171.18 220.208746 
L 172.854 221.901071 
L 174.528 220.931505 
L 176.202 221.403648 
L 177.876 219.190528 
L 179.55 220.674784 
L 181.224 221.540603 
L 182.898 219.876328 
L 184.572 221.898347 
L 186.246 220.455561 
L 187.92 223.076991 
L 189.594 218.905722 
L 191.268 224.079491 
L 192.942 220.215031 
L 194.616 226.19122 
L 196.29 221.185812 
L 197.964 222.906357 
L 199.638 225.803873 
L 201.312 225.832502 
L 202.986 227.98648 
L 204.66 224.368488 
L 206.334 226.312734 
L 208.008 225.270416 
L 209.682 228.49436 
L 211.356 224.119799 
L 213.03 223.162662 
L 214.704 228.642606 
L 216.378 228.842963 
L 218.052 229.99075 
L 219.726 227.394534 
L 221.4 221.953603 
L 223.074 228.628582 
L 224.748 229.897093 
L 226.422 227.501172 
L 228.096 224.552741 
L 229.77 224.954422 
L 231.444 228.770701 
L 233.118 230.438351 
L 234.792 224.33627 
L 236.466 230.292193 
L 238.14 227.350177 
L 239.814 228.210227 
L 241.488 229.647023 
L 243.162 226.556889 
L 244.836 230.89955 
L 246.51 231.231219 
L 248.184 228.387849 
L 249.858 226.166947 
L 251.532 228.426722 
L 253.206 224.661346 
L 254.88 230.991292 
L 256.554 227.848507 
L 258.228 230.798317 
L 259.902 229.604855 
L 261.576 229.391504 
L 263.25 227.936811 
L 264.924 230.05321 
L 266.598 230.638562 
L 268.272 228.043987 
L 269.946 226.848176 
L 271.62 227.257315 
L 273.294 226.606686 
L 274.968 226.946715 
L 276.642 227.572193 
L 278.316 227.390519 
L 279.99 230.530782 
L 281.664 229.365839 
L 283.338 231.237744 
L 285.012 233.688546 
L 286.686 232.70215 
L 288.36 228.307843 
L 290.034 226.975369 
L 291.708 234.477083 
L 293.382 232.81025 
L 295.056 233.136432 
L 296.73 231.903791 
L 298.404 231.953128 
L 300.078 232.203084 
L 301.752 234.420102 
L 303.426 228.735926 
L 305.1 231.734084 
L 306.774 228.482128 
L 308.448 232.833796 
L 310.122 234.5101 
L 311.796 231.048447 
L 313.47 230.613474 
L 315.144 231.25626 
L 316.818 230.687047 
L 318.492 239.037591 
L 320.166 238.343389 
L 321.84 229.701233 
L 323.514 231.546784 
L 325.188 229.491907 
L 326.862 227.804296 
L 328.536 232.428514 
L 330.21 230.18573 
L 331.884 230.808865 
L 333.558 230.790903 
L 335.232 230.587695 
L 336.906 234.409002 
L 338.58 231.951055 
L 340.254 233.668287 
L 341.928 233.355958 
L 343.602 234.616613 
L 345.276 230.533619 
L 346.95 234.007756 
L 350.298 234.344816 
L 351.972 233.95836 
L 353.646 235.254021 
L 355.32 233.826791 
L 356.994 235.416196 
L 358.668 232.554265 
L 360.342 239.530116 
L 362.016 233.954547 
L 363.69 235.469481 
L 365.364 235.145276 
L 367.038 231.624977 
L 368.712 226.136086 
L 370.386 234.240208 
L 372.06 233.234184 
L 373.734 228.694046 
L 375.408 234.664022 
L 377.082 235.933715 
L 378.756 233.024949 
L 380.43 232.971122 
L 382.104 234.83188 
L 383.778 230.39708 
L 385.452 231.984336 
L 387.126 234.128868 
L 387.126 234.128868 
" style="fill:none;stroke:#ff8101;stroke-dasharray:5.55,2.4;stroke-dashoffset:0;stroke-width:1.5;"/>
   </g>
   <g id="line2d_21">
    <path clip-path="url(#p1ca7b6537e)" d="M 54 44.564519 
L 55.674 47.304602 
L 57.348 55.602656 
L 59.022 71.931292 
L 60.696 90.865002 
L 62.37 105.672022 
L 65.718 128.862071 
L 67.392 136.183027 
L 69.066 144.560254 
L 70.74 149.050815 
L 72.414 154.540329 
L 74.088 155.965878 
L 75.762 159.918893 
L 79.11 170.698685 
L 80.784 172.519257 
L 82.458 174.834557 
L 85.806 182.635916 
L 87.48 181.059754 
L 90.828 182.146872 
L 92.502 182.322093 
L 94.176 183.71385 
L 95.85 186.552631 
L 97.524 186.645686 
L 99.198 188.733291 
L 100.872 189.82615 
L 102.546 194.849742 
L 104.22 195.287777 
L 107.568 192.836744 
L 109.242 196.100829 
L 110.916 196.5774 
L 112.59 194.801323 
L 114.264 197.606378 
L 115.938 196.260002 
L 117.612 198.184096 
L 119.286 202.68697 
L 120.96 201.505439 
L 122.634 200.593344 
L 124.308 199.387223 
L 125.982 197.647404 
L 127.656 203.372972 
L 129.33 199.61672 
L 131.004 203.983499 
L 132.678 203.829201 
L 134.352 204.146656 
L 136.026 202.963162 
L 137.7 203.446999 
L 139.374 201.275888 
L 141.048 204.160567 
L 142.722 203.284193 
L 144.396 204.176631 
L 146.07 207.686999 
L 147.744 210.453843 
L 149.418 207.787334 
L 151.092 208.163264 
L 152.766 210.250126 
L 154.44 207.754212 
L 156.114 209.521581 
L 157.788 208.647792 
L 161.136 208.111412 
L 162.81 215.126303 
L 164.484 205.347291 
L 166.158 205.233233 
L 167.832 207.584012 
L 169.506 211.331295 
L 171.18 209.482512 
L 172.854 209.898486 
L 174.528 211.086746 
L 176.202 214.561084 
L 177.876 213.556284 
L 179.55 211.364334 
L 181.224 211.463415 
L 182.898 214.520331 
L 184.572 211.934081 
L 186.246 209.598641 
L 187.92 208.832793 
L 189.594 212.832459 
L 191.268 211.096453 
L 192.942 210.916126 
L 194.616 211.374982 
L 196.29 214.189031 
L 197.964 214.791858 
L 199.638 210.606795 
L 201.312 215.136719 
L 202.986 210.877032 
L 204.66 212.052638 
L 206.334 212.638805 
L 208.008 214.555869 
L 209.682 210.354841 
L 211.356 217.847933 
L 213.03 215.87394 
L 214.704 216.034957 
L 216.378 215.725007 
L 218.052 217.00404 
L 219.726 215.042956 
L 221.4 218.707872 
L 223.074 214.357523 
L 224.748 219.020207 
L 226.422 219.246529 
L 228.096 217.369016 
L 229.77 212.40624 
L 231.444 214.313005 
L 233.118 217.659729 
L 234.792 214.736208 
L 236.466 212.370676 
L 238.14 221.43868 
L 239.814 214.578326 
L 241.488 215.760688 
L 243.162 215.582856 
L 244.836 221.559799 
L 246.51 213.26221 
L 248.184 214.892115 
L 249.858 215.298371 
L 251.532 217.296075 
L 253.206 217.339418 
L 254.88 217.864464 
L 256.554 215.842199 
L 258.228 218.026789 
L 259.902 215.826671 
L 261.576 219.748765 
L 263.25 218.398126 
L 264.924 219.623035 
L 266.598 217.93509 
L 268.272 218.282554 
L 269.946 217.664254 
L 271.62 217.166513 
L 273.294 221.973949 
L 274.968 218.92965 
L 276.642 218.589888 
L 278.316 218.509835 
L 279.99 212.578522 
L 281.664 216.017978 
L 283.338 215.561667 
L 285.012 217.64681 
L 286.686 218.914213 
L 288.36 218.10363 
L 290.034 219.097981 
L 291.708 218.332255 
L 293.382 217.776805 
L 295.056 218.850226 
L 296.73 216.604873 
L 298.404 215.779763 
L 300.078 219.601189 
L 301.752 214.457422 
L 303.426 216.408183 
L 305.1 222.181738 
L 306.774 211.643472 
L 308.448 213.520993 
L 310.122 217.859557 
L 311.796 216.363086 
L 313.47 221.825951 
L 315.144 219.485159 
L 316.818 215.935845 
L 318.492 215.869408 
L 320.166 219.532205 
L 321.84 214.009791 
L 323.514 222.637058 
L 325.188 214.943231 
L 326.862 222.280084 
L 328.536 214.179067 
L 330.21 217.214326 
L 331.884 218.788763 
L 333.558 219.140081 
L 335.232 216.037698 
L 336.906 217.749508 
L 338.58 220.735203 
L 340.254 216.19126 
L 341.928 217.043357 
L 343.602 219.715632 
L 345.276 218.099044 
L 346.95 216.102908 
L 348.624 213.423149 
L 350.298 224.371902 
L 351.972 219.724173 
L 353.646 219.957733 
L 355.32 217.957677 
L 356.994 217.686576 
L 358.668 219.023988 
L 360.342 213.410725 
L 362.016 213.630063 
L 363.69 221.304667 
L 365.364 217.534274 
L 367.038 217.618867 
L 368.712 217.524353 
L 370.386 218.309923 
L 372.06 220.44521 
L 373.734 221.77035 
L 375.408 215.67598 
L 377.082 213.913511 
L 378.756 217.296473 
L 380.43 219.170275 
L 382.104 218.338521 
L 383.778 213.275917 
L 385.452 217.700749 
L 387.126 218.307135 
L 387.126 218.307135 
" style="fill:none;stroke:#ff598f;stroke-linecap:round;stroke-width:1.5;"/>
   </g>
   <g id="patch_3">
    <path d="M 54 252 
L 54 34.56 
" style="fill:none;stroke:#262626;stroke-linecap:square;stroke-linejoin:miter;stroke-width:1.25;"/>
   </g>
   <g id="patch_4">
    <path d="M 54 252 
L 388.8 252 
" style="fill:none;stroke:#262626;stroke-linecap:square;stroke-linejoin:miter;stroke-width:1.25;"/>
   </g>
   <g id="text_14">
    <!-- MNIST batch comparison -->
    <g style="fill:#262626;" transform="translate(153.818438 28.56)scale(0.12 -0.12)">
     <defs>
      <path d="M 475 0 
L 475 4581 
L 1388 4581 
L 2472 1338 
Q 2622 884 2691 659 
Q 2769 909 2934 1394 
L 4031 4581 
L 4847 4581 
L 4847 0 
L 4263 0 
L 4263 3834 
L 2931 0 
L 2384 0 
L 1059 3900 
L 1059 0 
L 475 0 
z
" id="ArialMT-4d" transform="scale(0.015625)"/>
      <path d="M 488 0 
L 488 4581 
L 1109 4581 
L 3516 984 
L 3516 4581 
L 4097 4581 
L 4097 0 
L 3475 0 
L 1069 3600 
L 1069 0 
L 488 0 
z
" id="ArialMT-4e" transform="scale(0.015625)"/>
      <path d="M 597 0 
L 597 4581 
L 1203 4581 
L 1203 0 
L 597 0 
z
" id="ArialMT-49" transform="scale(0.015625)"/>
      <path d="M 1659 0 
L 1659 4041 
L 150 4041 
L 150 4581 
L 3781 4581 
L 3781 4041 
L 2266 4041 
L 2266 0 
L 1659 0 
z
" id="ArialMT-54" transform="scale(0.015625)"/>
      <path id="ArialMT-20" transform="scale(0.015625)"/>
      <path d="M 941 0 
L 419 0 
L 419 4581 
L 981 4581 
L 981 2947 
Q 1338 3394 1891 3394 
Q 2197 3394 2470 3270 
Q 2744 3147 2920 2923 
Q 3097 2700 3197 2384 
Q 3297 2069 3297 1709 
Q 3297 856 2875 390 
Q 2453 -75 1863 -75 
Q 1275 -75 941 416 
L 941 0 
z
M 934 1684 
Q 934 1088 1097 822 
Q 1363 388 1816 388 
Q 2184 388 2453 708 
Q 2722 1028 2722 1663 
Q 2722 2313 2464 2622 
Q 2206 2931 1841 2931 
Q 1472 2931 1203 2611 
Q 934 2291 934 1684 
z
" id="ArialMT-62" transform="scale(0.015625)"/>
      <path d="M 2588 409 
Q 2275 144 1986 34 
Q 1697 -75 1366 -75 
Q 819 -75 525 192 
Q 231 459 231 875 
Q 231 1119 342 1320 
Q 453 1522 633 1644 
Q 813 1766 1038 1828 
Q 1203 1872 1538 1913 
Q 2219 1994 2541 2106 
Q 2544 2222 2544 2253 
Q 2544 2597 2384 2738 
Q 2169 2928 1744 2928 
Q 1347 2928 1158 2789 
Q 969 2650 878 2297 
L 328 2372 
Q 403 2725 575 2942 
Q 747 3159 1072 3276 
Q 1397 3394 1825 3394 
Q 2250 3394 2515 3294 
Q 2781 3194 2906 3042 
Q 3031 2891 3081 2659 
Q 3109 2516 3109 2141 
L 3109 1391 
Q 3109 606 3145 398 
Q 3181 191 3288 0 
L 2700 0 
Q 2613 175 2588 409 
z
M 2541 1666 
Q 2234 1541 1622 1453 
Q 1275 1403 1131 1340 
Q 988 1278 909 1158 
Q 831 1038 831 891 
Q 831 666 1001 516 
Q 1172 366 1500 366 
Q 1825 366 2078 508 
Q 2331 650 2450 897 
Q 2541 1088 2541 1459 
L 2541 1666 
z
" id="ArialMT-61" transform="scale(0.015625)"/>
      <path d="M 2588 1216 
L 3141 1144 
Q 3050 572 2676 248 
Q 2303 -75 1759 -75 
Q 1078 -75 664 370 
Q 250 816 250 1647 
Q 250 2184 428 2587 
Q 606 2991 970 3192 
Q 1334 3394 1763 3394 
Q 2303 3394 2647 3120 
Q 2991 2847 3088 2344 
L 2541 2259 
Q 2463 2594 2264 2762 
Q 2066 2931 1784 2931 
Q 1359 2931 1093 2626 
Q 828 2322 828 1663 
Q 828 994 1084 691 
Q 1341 388 1753 388 
Q 2084 388 2306 591 
Q 2528 794 2588 1216 
z
" id="ArialMT-63" transform="scale(0.015625)"/>
      <path d="M 422 0 
L 422 4581 
L 984 4581 
L 984 2938 
Q 1378 3394 1978 3394 
Q 2347 3394 2619 3248 
Q 2891 3103 3008 2847 
Q 3125 2591 3125 2103 
L 3125 0 
L 2563 0 
L 2563 2103 
Q 2563 2525 2380 2717 
Q 2197 2909 1863 2909 
Q 1613 2909 1392 2779 
Q 1172 2650 1078 2428 
Q 984 2206 984 1816 
L 984 0 
L 422 0 
z
" id="ArialMT-68" transform="scale(0.015625)"/>
      <path d="M 422 0 
L 422 3319 
L 925 3319 
L 925 2853 
Q 1081 3097 1340 3245 
Q 1600 3394 1931 3394 
Q 2300 3394 2536 3241 
Q 2772 3088 2869 2813 
Q 3263 3394 3894 3394 
Q 4388 3394 4653 3120 
Q 4919 2847 4919 2278 
L 4919 0 
L 4359 0 
L 4359 2091 
Q 4359 2428 4304 2576 
Q 4250 2725 4106 2815 
Q 3963 2906 3769 2906 
Q 3419 2906 3187 2673 
Q 2956 2441 2956 1928 
L 2956 0 
L 2394 0 
L 2394 2156 
Q 2394 2531 2256 2718 
Q 2119 2906 1806 2906 
Q 1569 2906 1367 2781 
Q 1166 2656 1075 2415 
Q 984 2175 984 1722 
L 984 0 
L 422 0 
z
" id="ArialMT-6d" transform="scale(0.015625)"/>
      <path d="M 416 0 
L 416 3319 
L 922 3319 
L 922 2816 
Q 1116 3169 1280 3281 
Q 1444 3394 1641 3394 
Q 1925 3394 2219 3213 
L 2025 2691 
Q 1819 2813 1613 2813 
Q 1428 2813 1281 2702 
Q 1134 2591 1072 2394 
Q 978 2094 978 1738 
L 978 0 
L 416 0 
z
" id="ArialMT-72" transform="scale(0.015625)"/>
      <path d="M 425 3934 
L 425 4581 
L 988 4581 
L 988 3934 
L 425 3934 
z
M 425 0 
L 425 3319 
L 988 3319 
L 988 0 
L 425 0 
z
" id="ArialMT-69" transform="scale(0.015625)"/>
      <path d="M 422 0 
L 422 3319 
L 928 3319 
L 928 2847 
Q 1294 3394 1984 3394 
Q 2284 3394 2536 3286 
Q 2788 3178 2913 3003 
Q 3038 2828 3088 2588 
Q 3119 2431 3119 2041 
L 3119 0 
L 2556 0 
L 2556 2019 
Q 2556 2363 2490 2533 
Q 2425 2703 2258 2804 
Q 2091 2906 1866 2906 
Q 1506 2906 1245 2678 
Q 984 2450 984 1813 
L 984 0 
L 422 0 
z
" id="ArialMT-6e" transform="scale(0.015625)"/>
     </defs>
     <use xlink:href="#ArialMT-4d"/>
     <use x="83.300781" xlink:href="#ArialMT-4e"/>
     <use x="155.517578" xlink:href="#ArialMT-49"/>
     <use x="183.300781" xlink:href="#ArialMT-53"/>
     <use x="250" xlink:href="#ArialMT-54"/>
     <use x="309.333984" xlink:href="#ArialMT-20"/>
     <use x="337.117188" xlink:href="#ArialMT-62"/>
     <use x="392.732422" xlink:href="#ArialMT-61"/>
     <use x="448.347656" xlink:href="#ArialMT-74"/>
     <use x="476.130859" xlink:href="#ArialMT-63"/>
     <use x="526.130859" xlink:href="#ArialMT-68"/>
     <use x="581.746094" xlink:href="#ArialMT-20"/>
     <use x="609.529297" xlink:href="#ArialMT-63"/>
     <use x="659.529297" xlink:href="#ArialMT-6f"/>
     <use x="715.144531" xlink:href="#ArialMT-6d"/>
     <use x="798.445312" xlink:href="#ArialMT-70"/>
     <use x="854.060547" xlink:href="#ArialMT-61"/>
     <use x="909.675781" xlink:href="#ArialMT-72"/>
     <use x="942.976562" xlink:href="#ArialMT-69"/>
     <use x="965.193359" xlink:href="#ArialMT-73"/>
     <use x="1015.193359" xlink:href="#ArialMT-6f"/>
     <use x="1070.808594" xlink:href="#ArialMT-6e"/>
    </g>
   </g>
   <g id="legend_1">
    <g id="line2d_22">
     <path d="M 296.417188 48.483594 
L 318.417188 48.483594 
" style="fill:none;stroke:#ff8101;stroke-dasharray:5.55,2.4;stroke-dashoffset:0;stroke-width:1.5;"/>
    </g>
    <g id="line2d_23"/>
    <g id="text_15">
     <!-- batch=128 -->
     <g style="fill:#262626;" transform="translate(327.217188 52.333594)scale(0.11 -0.11)">
      <defs>
       <path d="M 3381 2694 
L 356 2694 
L 356 3219 
L 3381 3219 
L 3381 2694 
z
M 3381 1303 
L 356 1303 
L 356 1828 
L 3381 1828 
L 3381 1303 
z
" id="ArialMT-3d" transform="scale(0.015625)"/>
      </defs>
      <use xlink:href="#ArialMT-62"/>
      <use x="55.615234" xlink:href="#ArialMT-61"/>
      <use x="111.230469" xlink:href="#ArialMT-74"/>
      <use x="139.013672" xlink:href="#ArialMT-63"/>
      <use x="189.013672" xlink:href="#ArialMT-68"/>
      <use x="244.628906" xlink:href="#ArialMT-3d"/>
      <use x="303.027344" xlink:href="#ArialMT-31"/>
      <use x="358.642578" xlink:href="#ArialMT-32"/>
      <use x="414.257812" xlink:href="#ArialMT-38"/>
     </g>
    </g>
    <g id="line2d_24">
     <path d="M 296.417188 64.043438 
L 318.417188 64.043438 
" style="fill:none;stroke:#ff598f;stroke-linecap:round;stroke-width:1.5;"/>
    </g>
    <g id="line2d_25"/>
    <g id="text_16">
     <!-- batch=256 -->
     <g style="fill:#262626;" transform="translate(327.217188 67.893438)scale(0.11 -0.11)">
      <defs>
       <path d="M 266 1200 
L 856 1250 
Q 922 819 1161 601 
Q 1400 384 1738 384 
Q 2144 384 2425 690 
Q 2706 997 2706 1503 
Q 2706 1984 2436 2262 
Q 2166 2541 1728 2541 
Q 1456 2541 1237 2417 
Q 1019 2294 894 2097 
L 366 2166 
L 809 4519 
L 3088 4519 
L 3088 3981 
L 1259 3981 
L 1013 2750 
Q 1425 3038 1878 3038 
Q 2478 3038 2890 2622 
Q 3303 2206 3303 1553 
Q 3303 931 2941 478 
Q 2500 -78 1738 -78 
Q 1113 -78 717 272 
Q 322 622 266 1200 
z
" id="ArialMT-35" transform="scale(0.015625)"/>
      </defs>
      <use xlink:href="#ArialMT-62"/>
      <use x="55.615234" xlink:href="#ArialMT-61"/>
      <use x="111.230469" xlink:href="#ArialMT-74"/>
      <use x="139.013672" xlink:href="#ArialMT-63"/>
      <use x="189.013672" xlink:href="#ArialMT-68"/>
      <use x="244.628906" xlink:href="#ArialMT-3d"/>
      <use x="303.027344" xlink:href="#ArialMT-32"/>
      <use x="358.642578" xlink:href="#ArialMT-35"/>
      <use x="414.257812" xlink:href="#ArialMT-36"/>
     </g>
    </g>
   </g>
  </g>
 </g>
 <defs>
  <clipPath id="p1ca7b6537e">
   <rect height="217.44" width="334.8" x="54" y="34.56"/>
  </clipPath>
 </defs>
</svg>
